# MagicaVoxel @ Ephtracy

# group
g 讲台

# material
mtllib 讲台.mtl
usemtl palette

# normals
vn -1 0 0
vn 1 0 0
vn 0 0 1
vn 0 0 -1
vn 0 -1 0
vn 0 1 0

# texcoords
vt 0.306641 0.5
vt 0.958984 0.5
vt 0.970703 0.5
vt 0.974609 0.5
vt 0.978516 0.5
vt 0.982422 0.5
vt 0.990234 0.5

# verts
v -10 0 10
v -10 0 -10
v -10 2 10
v -10 2 -10
v -9 20 8
v -9 20 -1
v -9 21 8
v -9 21 -1
v -7 21 4
v -7 21 3
v -7 21 -1
v -7 22 4
v -7 22 3
v -7 22 -1
v -3 2 10
v -3 2 3
v -3 2 2
v -3 16 3
v -3 16 2
v -3 16 -4
v -3 20 8
v -3 20 5
v -3 20 4
v -3 20 -1
v -3 21 8
v -3 21 5
v -3 21 4
v -3 21 -1
v -3 25 10
v -3 25 -4
v -2 20 -4
v -2 20 -7
v -2 21 -4
v -2 21 -7
v 7 21 -1
v 7 21 -4
v 7 22 1
v 7 22 -1
v 7 23 8
v 7 23 1
v 7 24 9
v 7 24 8
v 7 24 -3
v 7 24 -4
v 7 25 9
v 7 25 -3
v -4 21 4
v -4 21 3
v -4 21 -1
v -4 22 4
v -4 22 3
v -4 22 -1
v -2 21 -1
v -2 21 -4
v -2 22 1
v -2 22 -1
v -2 23 8
v -2 23 1
v -2 24 9
v -2 24 8
v -2 24 -3
v -2 24 -4
v -2 25 9
v -2 25 -3
v 7 20 -4
v 7 20 -7
v 7 21 -4
v 7 21 -7
v 8 2 10
v 8 2 3
v 8 2 2
v 8 16 3
v 8 16 2
v 8 16 -4
v 8 25 10
v 8 25 -4
v 10 0 10
v 10 0 -10
v 10 2 10
v 10 2 -10
v -10 0 10
v -10 2 10
v -3 2 10
v -3 25 10
v 8 2 10
v 8 25 10
v 10 0 10
v 10 2 10
v -9 20 8
v -9 21 8
v -3 20 8
v -3 21 8
v -7 21 4
v -7 22 4
v -6 21 4
v -6 22 4
v -5 21 4
v -5 22 4
v -4 21 4
v -4 22 4
v -2 24 -3
v -2 25 -3
v 7 24 -3
v 7 25 -3
v -2 24 9
v -2 25 9
v 7 24 9
v 7 25 9
v -2 23 8
v -2 24 8
v 7 23 8
v 7 24 8
v -3 2 2
v -3 16 2
v -2 2 2
v -2 16 2
v 7 2 2
v 7 16 2
v 8 2 2
v 8 16 2
v -2 22 1
v -2 23 1
v 7 22 1
v 7 23 1
v -9 20 -1
v -9 21 -1
v -7 21 -1
v -7 22 -1
v -4 21 -1
v -4 22 -1
v -3 20 -1
v -3 21 -1
v -2 21 -1
v -2 22 -1
v 7 21 -1
v 7 22 -1
v -3 16 -4
v -3 25 -4
v -2 20 -4
v -2 21 -4
v -2 24 -4
v 7 20 -4
v 7 21 -4
v 7 24 -4
v 8 16 -4
v 8 25 -4
v -2 20 -7
v -2 21 -7
v 7 20 -7
v 7 21 -7
v -10 0 -10
v -10 2 -10
v 10 0 -10
v 10 2 -10
v -10 0 10
v 10 0 10
v -10 0 -10
v 10 0 -10
v -3 16 2
v -2 16 2
v 7 16 2
v 8 16 2
v -3 16 -4
v 8 16 -4
v -9 20 8
v -3 20 8
v -5 20 5
v -3 20 5
v -5 20 4
v -3 20 4
v -9 20 -1
v -3 20 -1
v -2 20 -4
v 7 20 -4
v -2 20 -7
v 7 20 -7
v -2 24 -3
v 7 24 -3
v -2 24 -4
v 7 24 -4
v -10 2 10
v -3 2 10
v 8 2 10
v 10 2 10
v -3 2 3
v 8 2 3
v -3 2 2
v -2 2 2
v 7 2 2
v 8 2 2
v -10 2 -10
v 10 2 -10
v -9 21 8
v -3 21 8
v -5 21 5
v -3 21 5
v -7 21 4
v -6 21 4
v -5 21 4
v -4 21 4
v -3 21 4
v -7 21 3
v -4 21 3
v -9 21 -1
v -7 21 -1
v -4 21 -1
v -3 21 -1
v -2 21 -1
v 7 21 -1
v -2 21 -4
v 7 21 -4
v -2 21 -7
v 7 21 -7
v -7 22 4
v -6 22 4
v -5 22 4
v -4 22 4
v -7 22 3
v -6 22 3
v -5 22 3
v -4 22 3
v -2 22 1
v 7 22 1
v -7 22 -1
v -4 22 -1
v -2 22 -1
v 7 22 -1
v -2 23 8
v 7 23 8
v -1 23 7
v 6 23 7
v -1 23 2
v 6 23 2
v -2 23 1
v 7 23 1
v -2 24 9
v 7 24 9
v -2 24 8
v 7 24 8
v -3 25 10
v 8 25 10
v -2 25 9
v 7 25 9
v -2 25 -3
v 7 25 -3
v -3 25 -4
v 8 25 -4

# faces
f 3/3/1 2/3/1 1/3/1
f 4/3/1 2/3/1 3/3/1
f 7/3/1 6/3/1 5/3/1
f 8/3/1 6/3/1 7/3/1
f 12/2/1 10/2/1 9/2/1
f 13/7/1 11/7/1 10/7/1
f 13/2/1 10/2/1 12/2/1
f 14/7/1 11/7/1 13/7/1
f 18/3/1 16/3/1 15/3/1
f 18/4/1 17/4/1 16/4/1
f 19/4/1 17/4/1 18/4/1
f 21/3/1 18/3/1 15/3/1
f 21/3/1 20/3/1 19/3/1
f 21/3/1 19/3/1 18/3/1
f 22/3/1 20/3/1 21/3/1
f 23/3/1 20/3/1 22/3/1
f 24/3/1 20/3/1 23/3/1
f 25/3/1 21/3/1 15/3/1
f 28/3/1 20/3/1 24/3/1
f 29/3/1 27/3/1 26/3/1
f 29/3/1 28/3/1 27/3/1
f 29/3/1 25/3/1 15/3/1
f 29/3/1 26/3/1 25/3/1
f 30/3/1 20/3/1 28/3/1
f 30/3/1 28/3/1 29/3/1
f 33/6/1 32/6/1 31/6/1
f 34/6/1 32/6/1 33/6/1
f 38/3/1 36/3/1 35/3/1
f 40/3/1 38/3/1 37/3/1
f 42/3/1 40/3/1 39/3/1
f 43/3/1 36/3/1 38/3/1
f 43/3/1 38/3/1 40/3/1
f 43/3/1 40/3/1 42/3/1
f 44/3/1 36/3/1 43/3/1
f 45/3/1 42/3/1 41/3/1
f 45/3/1 43/3/1 42/3/1
f 46/3/1 43/3/1 45/3/1
f 47/2/2 48/2/2 50/2/2
f 48/7/2 49/7/2 51/7/2
f 50/2/2 48/2/2 51/2/2
f 51/7/2 49/7/2 52/7/2
f 53/3/2 54/3/2 56/3/2
f 55/3/2 56/3/2 58/3/2
f 57/3/2 58/3/2 60/3/2
f 56/3/2 54/3/2 61/3/2
f 58/3/2 56/3/2 61/3/2
f 60/3/2 58/3/2 61/3/2
f 61/3/2 54/3/2 62/3/2
f 59/3/2 60/3/2 63/3/2
f 60/3/2 61/3/2 63/3/2
f 63/3/2 61/3/2 64/3/2
f 65/6/2 66/6/2 67/6/2
f 67/6/2 66/6/2 68/6/2
f 69/3/2 70/3/2 72/3/2
f 70/4/2 71/4/2 72/4/2
f 72/4/2 71/4/2 73/4/2
f 69/3/2 72/3/2 75/3/2
f 73/3/2 74/3/2 75/3/2
f 72/3/2 73/3/2 75/3/2
f 75/3/2 74/3/2 76/3/2
f 77/3/2 78/3/2 79/3/2
f 79/3/2 78/3/2 80/3/2
f 83/3/3 82/3/3 81/3/3
f 85/3/3 83/3/3 81/3/3
f 85/3/3 84/3/3 83/3/3
f 86/3/3 84/3/3 85/3/3
f 87/3/3 85/3/3 81/3/3
f 88/3/3 85/3/3 87/3/3
f 91/3/3 90/3/3 89/3/3
f 92/3/3 90/3/3 91/3/3
f 95/2/3 94/2/3 93/2/3
f 96/2/3 94/2/3 95/2/3
f 97/7/3 96/7/3 95/7/3
f 98/7/3 96/7/3 97/7/3
f 99/2/3 98/2/3 97/2/3
f 100/2/3 98/2/3 99/2/3
f 103/3/3 102/3/3 101/3/3
f 104/3/3 102/3/3 103/3/3
f 105/3/4 106/3/4 107/3/4
f 107/3/4 106/3/4 108/3/4
f 109/3/4 110/3/4 111/3/4
f 111/3/4 110/3/4 112/3/4
f 113/4/4 114/4/4 115/4/4
f 115/4/4 114/4/4 116/4/4
f 115/5/4 116/5/4 117/5/4
f 117/5/4 116/5/4 118/5/4
f 117/4/4 118/4/4 119/4/4
f 119/4/4 118/4/4 120/4/4
f 121/7/4 122/7/4 123/7/4
f 123/7/4 122/7/4 124/7/4
f 125/3/4 126/3/4 127/3/4
f 125/3/4 127/3/4 129/3/4
f 127/7/4 128/7/4 129/7/4
f 129/7/4 128/7/4 130/7/4
f 125/3/4 129/3/4 131/3/4
f 131/3/4 129/3/4 132/3/4
f 133/6/4 134/6/4 135/6/4
f 135/6/4 134/6/4 136/6/4
f 137/3/4 138/3/4 139/3/4
f 139/3/4 138/3/4 140/3/4
f 140/3/4 138/3/4 141/3/4
f 137/3/4 139/3/4 142/3/4
f 141/3/4 138/3/4 144/3/4
f 142/3/4 143/3/4 145/3/4
f 143/3/4 144/3/4 145/3/4
f 137/3/4 142/3/4 145/3/4
f 144/3/4 138/3/4 146/3/4
f 145/3/4 144/3/4 146/3/4
f 147/6/4 148/6/4 149/6/4
f 149/6/4 148/6/4 150/6/4
f 151/3/4 152/3/4 153/3/4
f 153/3/4 152/3/4 154/3/4
f 157/3/5 156/3/5 155/3/5
f 158/3/5 156/3/5 157/3/5
f 163/3/5 160/3/5 159/3/5
f 163/3/5 162/3/5 161/3/5
f 163/3/5 161/3/5 160/3/5
f 164/3/5 162/3/5 163/3/5
f 167/3/5 166/3/5 165/3/5
f 168/3/5 166/3/5 167/3/5
f 169/3/5 167/3/5 165/3/5
f 169/7/5 168/7/5 167/7/5
f 170/7/5 168/7/5 169/7/5
f 171/3/5 169/3/5 165/3/5
f 171/3/5 170/3/5 169/3/5
f 172/3/5 170/3/5 171/3/5
f 175/6/5 174/6/5 173/6/5
f 176/6/5 174/6/5 175/6/5
f 179/3/5 178/3/5 177/3/5
f 180/3/5 178/3/5 179/3/5
f 181/3/6 182/3/6 185/3/6
f 183/3/6 184/3/6 186/3/6
f 181/3/6 185/3/6 187/3/6
f 186/3/6 184/3/6 190/3/6
f 188/3/6 189/3/6 191/3/6
f 189/3/6 190/3/6 191/3/6
f 181/3/6 187/3/6 191/3/6
f 187/3/6 188/3/6 191/3/6
f 190/3/6 184/3/6 192/3/6
f 191/3/6 190/3/6 192/3/6
f 193/3/6 194/3/6 195/3/6
f 195/3/6 194/3/6 196/3/6
f 193/3/6 195/3/6 197/3/6
f 197/3/6 195/3/6 198/3/6
f 195/7/6 196/7/6 199/7/6
f 198/3/6 195/3/6 199/3/6
f 199/7/6 196/7/6 200/7/6
f 200/7/6 196/7/6 201/7/6
f 193/3/6 197/3/6 202/3/6
f 200/3/6 201/3/6 203/3/6
f 193/3/6 202/3/6 204/3/6
f 204/3/6 202/3/6 205/3/6
f 203/3/6 201/3/6 206/3/6
f 206/3/6 201/3/6 207/3/6
f 208/6/6 209/6/6 210/6/6
f 210/6/6 209/6/6 211/6/6
f 210/6/6 211/6/6 212/6/6
f 212/6/6 211/6/6 213/6/6
f 214/2/6 215/2/6 218/2/6
f 215/7/6 216/7/6 219/7/6
f 218/2/6 215/2/6 219/2/6
f 216/2/6 217/2/6 220/2/6
f 219/7/6 216/7/6 220/7/6
f 220/2/6 217/2/6 221/2/6
f 218/7/6 219/7/6 224/7/6
f 219/7/6 220/7/6 224/7/6
f 220/7/6 221/7/6 224/7/6
f 224/7/6 221/7/6 225/7/6
f 222/6/6 223/6/6 226/6/6
f 226/6/6 223/6/6 227/6/6
f 228/7/6 229/7/6 230/7/6
f 230/7/6 229/7/6 231/7/6
f 228/7/6 230/7/6 232/7/6
f 230/2/6 231/2/6 232/2/6
f 231/7/6 229/7/6 233/7/6
f 232/2/6 231/2/6 233/2/6
f 228/7/6 232/7/6 234/7/6
f 232/7/6 233/7/6 234/7/6
f 233/7/6 229/7/6 235/7/6
f 234/7/6 233/7/6 235/7/6
f 236/3/6 237/3/6 238/3/6
f 238/3/6 237/3/6 239/3/6
f 240/3/6 241/3/6 242/3/6
f 242/3/6 241/3/6 243/3/6
f 240/3/6 242/3/6 244/3/6
f 243/3/6 241/3/6 245/3/6
f 240/3/6 244/3/6 246/3/6
f 244/3/6 245/3/6 246/3/6
f 245/3/6 241/3/6 247/3/6
f 246/3/6 245/3/6 247/3/6
