# MagicaVoxel @ Ephtracy

# group
g RoomBig-blackboard-all

# material
mtllib RoomBig-blackboard-all.mtl
usemtl palette

# normals
vn -1 0 0
vn 1 0 0
vn 0 0 1
vn 0 0 -1
vn 0 -1 0
vn 0 1 0

# texcoords
vt 0.00195312 0.5
vt 0.0644531 0.5
vt 0.955078 0.5
vt 0.982422 0.5
vt 0.990234 0.5
vt 0.994141 0.5

# verts
v -40 0 -1
v -40 0 -2
v -40 0 -10
v -40 1 -2
v -40 1 -3
v -40 2 -1
v -40 2 -2
v -40 2 -3
v -40 2 -8
v -40 3 -2
v -40 3 -8
v -40 37 -2
v -40 37 -8
v -40 40 -2
v -40 40 -10
v -39 5 -7
v -39 5 -8
v -39 6 -7
v -39 6 -8
v -39 7 -7
v -39 7 -8
v -39 8 -7
v -39 8 -8
v -34 35 -7
v -34 35 -8
v -34 36 -6
v -34 36 -7
v -34 37 -6
v -34 37 -8
v -33 19 -6
v -33 19 -8
v -33 31 -6
v -33 31 -8
v -32 8 -7
v -32 8 -8
v -32 19 -7
v -32 19 -8
v -30 24 -5
v -30 24 -6
v -30 29 -5
v -30 29 -6
v -28 26 -5
v -28 26 -6
v -28 28 -5
v -28 28 -6
v -27 28 -5
v -27 28 -6
v -27 29 -5
v -27 29 -6
v -26 26 -5
v -26 26 -6
v -26 28 -5
v -26 28 -6
v -25 24 -5
v -25 24 -6
v -25 26 -5
v -25 26 -6
v -24 27 -5
v -24 27 -6
v -24 29 -5
v -24 29 -6
v -22 28 -5
v -22 28 -6
v -22 29 -5
v -22 29 -6
v -21 24 -5
v -21 24 -6
v -21 28 -5
v -21 28 -6
v -18 24 -5
v -18 24 -6
v -18 29 -5
v -18 29 -6
v -16 24 -5
v -16 24 -6
v -16 26 -5
v -16 26 -6
v -16 27 -5
v -16 27 -6
v -16 29 -5
v -16 29 -6
v -14 25 -5
v -14 25 -6
v -14 28 -5
v -14 28 -6
v -13 24 -5
v -13 24 -6
v -13 25 -5
v -13 25 -6
v -13 28 -5
v -13 28 -6
v -13 29 -5
v -13 29 -6
v -12 25 -5
v -12 25 -6
v -12 28 -5
v -12 28 -6
v -10 24 -5
v -10 24 -6
v -10 29 -5
v -10 29 -6
v -8 7 -6
v -8 7 -8
v -8 8 -7
v -8 8 -8
v -8 19 -6
v -8 19 -7
v -7 25 -7
v -7 25 -8
v -7 26 -7
v -7 26 -8
v -6 24 -7
v -6 24 -8
v -6 25 -7
v -6 25 -8
v -6 26 -7
v -6 26 -8
v -6 29 -7
v -6 29 -8
v 4 35 -7
v 4 35 -8
v 4 36 -6
v 4 36 -7
v 4 37 -6
v 4 37 -8
v 23 20 -7
v 23 20 -8
v 23 23 -7
v 23 23 -8
v 27 20 -7
v 27 20 -8
v 27 23 -7
v 27 23 -8
v -36 5 -7
v -36 5 -8
v -36 6 -7
v -36 6 -8
v -36 7 -7
v -36 7 -8
v -36 8 -7
v -36 8 -8
v -29 24 -5
v -29 24 -6
v -29 25 -5
v -29 25 -6
v -29 26 -5
v -29 26 -6
v -29 28 -5
v -29 28 -6
v -28 25 -5
v -28 25 -6
v -28 26 -5
v -28 26 -6
v -28 28 -5
v -28 28 -6
v -28 29 -5
v -28 29 -6
v -27 26 -5
v -27 26 -6
v -27 28 -5
v -27 28 -6
v -26 28 -5
v -26 28 -6
v -26 29 -5
v -26 29 -6
v -25 27 -5
v -25 27 -6
v -25 28 -5
v -25 28 -6
v -24 24 -5
v -24 24 -6
v -24 27 -5
v -24 27 -6
v -23 27 -5
v -23 27 -6
v -23 29 -5
v -23 29 -6
v -20 24 -5
v -20 24 -6
v -20 28 -5
v -20 28 -6
v -19 28 -5
v -19 28 -6
v -19 29 -5
v -19 29 -6
v -17 24 -5
v -17 24 -6
v -17 26 -5
v -17 26 -6
v -17 27 -5
v -17 27 -6
v -17 29 -5
v -17 29 -6
v -15 24 -5
v -15 24 -6
v -15 29 -5
v -15 29 -6
v -13 25 -5
v -13 25 -6
v -13 28 -5
v -13 28 -6
v -12 24 -5
v -12 24 -6
v -12 25 -5
v -12 25 -6
v -12 28 -5
v -12 28 -6
v -12 29 -5
v -12 29 -6
v -11 25 -5
v -11 25 -6
v -11 28 -5
v -11 28 -6
v -9 24 -5
v -9 24 -6
v -9 29 -5
v -9 29 -6
v -9 35 -7
v -9 35 -8
v -9 36 -6
v -9 36 -7
v -9 37 -6
v -9 37 -8
v -8 19 -6
v -8 19 -7
v -8 19 -8
v -8 26 -7
v -8 26 -8
v -8 27 -7
v -8 27 -8
v -8 30 -8
v -8 31 -6
v -8 31 -7
v -8 31 -8
v -7 26 -7
v -7 26 -8
v -7 27 -7
v -7 27 -8
v -5 24 -7
v -5 24 -8
v -5 29 -7
v -5 29 -8
v 17 7 -6
v 17 7 -8
v 17 8 -6
v 17 8 -8
v 17 18 -6
v 17 18 -7
v 17 19 -6
v 17 19 -7
v 17 19 -8
v 26 20 -7
v 26 20 -8
v 26 23 -7
v 26 23 -8
v 26 35 -7
v 26 35 -8
v 26 36 -6
v 26 36 -7
v 26 37 -6
v 26 37 -8
v 30 20 -7
v 30 20 -8
v 30 23 -7
v 30 23 -8
v 40 0 -1
v 40 0 -2
v 40 0 -10
v 40 1 -2
v 40 1 -3
v 40 2 -1
v 40 2 -2
v 40 2 -3
v 40 2 -8
v 40 3 -2
v 40 3 -8
v 40 37 -2
v 40 37 -8
v 40 40 -2
v 40 40 -10
v -40 0 -1
v -40 2 -1
v 40 0 -1
v 40 2 -1
v -40 2 -2
v -40 3 -2
v -40 37 -2
v -40 40 -2
v 40 2 -2
v 40 3 -2
v 40 37 -2
v 40 40 -2
v -30 24 -5
v -30 29 -5
v -29 24 -5
v -29 25 -5
v -29 26 -5
v -29 28 -5
v -28 25 -5
v -28 26 -5
v -28 28 -5
v -28 29 -5
v -27 26 -5
v -27 28 -5
v -27 29 -5
v -26 26 -5
v -26 28 -5
v -26 29 -5
v -25 24 -5
v -25 26 -5
v -25 27 -5
v -25 28 -5
v -24 24 -5
v -24 27 -5
v -24 29 -5
v -23 27 -5
v -23 29 -5
v -22 28 -5
v -22 29 -5
v -21 24 -5
v -21 28 -5
v -20 24 -5
v -20 28 -5
v -19 28 -5
v -19 29 -5
v -18 24 -5
v -18 29 -5
v -17 24 -5
v -17 26 -5
v -17 27 -5
v -17 29 -5
v -16 24 -5
v -16 26 -5
v -16 27 -5
v -16 29 -5
v -15 24 -5
v -15 29 -5
v -14 25 -5
v -14 28 -5
v -13 24 -5
v -13 25 -5
v -13 28 -5
v -13 29 -5
v -12 24 -5
v -12 25 -5
v -12 28 -5
v -12 29 -5
v -11 25 -5
v -11 28 -5
v -10 24 -5
v -10 29 -5
v -9 24 -5
v -9 29 -5
v -34 36 -6
v -34 37 -6
v -33 19 -6
v -33 31 -6
v -32 20 -6
v -32 30 -6
v -30 24 -6
v -30 29 -6
v -29 24 -6
v -29 25 -6
v -29 26 -6
v -29 28 -6
v -28 25 -6
v -28 26 -6
v -28 28 -6
v -28 29 -6
v -27 26 -6
v -27 28 -6
v -27 29 -6
v -26 26 -6
v -26 28 -6
v -26 29 -6
v -25 24 -6
v -25 26 -6
v -25 27 -6
v -25 28 -6
v -24 24 -6
v -24 27 -6
v -24 29 -6
v -23 27 -6
v -23 29 -6
v -22 28 -6
v -22 29 -6
v -21 24 -6
v -21 28 -6
v -20 24 -6
v -20 28 -6
v -19 28 -6
v -19 29 -6
v -18 24 -6
v -18 29 -6
v -17 24 -6
v -17 26 -6
v -17 27 -6
v -17 29 -6
v -16 24 -6
v -16 26 -6
v -16 27 -6
v -16 29 -6
v -15 24 -6
v -15 29 -6
v -14 25 -6
v -14 28 -6
v -13 24 -6
v -13 25 -6
v -13 28 -6
v -13 29 -6
v -12 24 -6
v -12 25 -6
v -12 28 -6
v -12 29 -6
v -11 25 -6
v -11 28 -6
v -10 24 -6
v -10 29 -6
v -9 20 -6
v -9 24 -6
v -9 29 -6
v -9 30 -6
v -9 36 -6
v -9 37 -6
v -8 7 -6
v -8 19 -6
v -8 31 -6
v -7 8 -6
v -7 18 -6
v 4 36 -6
v 4 37 -6
v 17 7 -6
v 17 8 -6
v 17 18 -6
v 17 19 -6
v 26 36 -6
v 26 37 -6
v -39 5 -7
v -39 6 -7
v -39 7 -7
v -39 8 -7
v -38 6 -7
v -38 7 -7
v -37 6 -7
v -37 7 -7
v -36 5 -7
v -36 6 -7
v -36 7 -7
v -36 8 -7
v -34 35 -7
v -34 36 -7
v -32 8 -7
v -32 19 -7
v -9 35 -7
v -9 36 -7
v -8 8 -7
v -8 19 -7
v -8 26 -7
v -8 27 -7
v -7 25 -7
v -7 26 -7
v -7 27 -7
v -6 24 -7
v -6 25 -7
v -6 26 -7
v -6 29 -7
v -5 24 -7
v -5 29 -7
v 4 35 -7
v 4 36 -7
v 23 20 -7
v 23 23 -7
v 24 21 -7
v 24 22 -7
v 25 21 -7
v 25 22 -7
v 26 20 -7
v 26 23 -7
v 26 35 -7
v 26 36 -7
v 27 20 -7
v 27 23 -7
v 28 21 -7
v 28 22 -7
v 29 21 -7
v 29 22 -7
v 30 20 -7
v 30 23 -7
v -40 3 -8
v -40 37 -8
v -39 5 -8
v -39 6 -8
v -39 7 -8
v -39 8 -8
v -36 5 -8
v -36 6 -8
v -36 7 -8
v -36 8 -8
v -34 35 -8
v -34 37 -8
v -33 7 -8
v -33 19 -8
v -33 31 -8
v -32 8 -8
v -32 19 -8
v -32 31 -8
v -9 35 -8
v -9 37 -8
v -8 7 -8
v -8 8 -8
v -8 19 -8
v -8 26 -8
v -8 27 -8
v -8 30 -8
v -8 31 -8
v -7 25 -8
v -7 26 -8
v -7 27 -8
v -6 24 -8
v -6 25 -8
v -6 26 -8
v -6 29 -8
v -5 24 -8
v -5 29 -8
v 4 35 -8
v 4 37 -8
v 17 7 -8
v 17 8 -8
v 17 19 -8
v 17 30 -8
v 17 31 -8
v 18 7 -8
v 18 30 -8
v 18 31 -8
v 23 20 -8
v 23 23 -8
v 26 20 -8
v 26 23 -8
v 26 35 -8
v 26 37 -8
v 27 20 -8
v 27 23 -8
v 30 20 -8
v 30 23 -8
v 40 3 -8
v 40 37 -8
v -40 0 -10
v -40 40 -10
v 40 0 -10
v 40 40 -10
v -40 0 -1
v 40 0 -1
v -40 0 -2
v 40 0 -2
v -40 0 -10
v 40 0 -10
v -39 5 -7
v -36 5 -7
v -39 5 -8
v -36 5 -8
v -8 7 -6
v 17 7 -6
v -8 7 -8
v 17 7 -8
v -32 8 -7
v -8 8 -7
v -32 8 -8
v -8 8 -8
v -33 19 -6
v -8 19 -6
v -32 19 -7
v -8 19 -7
v -33 19 -8
v -32 19 -8
v 23 20 -7
v 26 20 -7
v 27 20 -7
v 30 20 -7
v 23 20 -8
v 26 20 -8
v 27 20 -8
v 30 20 -8
v -30 24 -5
v -29 24 -5
v -25 24 -5
v -24 24 -5
v -21 24 -5
v -20 24 -5
v -18 24 -5
v -17 24 -5
v -16 24 -5
v -15 24 -5
v -13 24 -5
v -12 24 -5
v -10 24 -5
v -9 24 -5
v -30 24 -6
v -29 24 -6
v -25 24 -6
v -24 24 -6
v -21 24 -6
v -20 24 -6
v -18 24 -6
v -17 24 -6
v -16 24 -6
v -15 24 -6
v -13 24 -6
v -12 24 -6
v -10 24 -6
v -9 24 -6
v -6 24 -7
v -5 24 -7
v -6 24 -8
v -5 24 -8
v -29 25 -5
v -28 25 -5
v -14 25 -5
v -13 25 -5
v -12 25 -5
v -11 25 -5
v -29 25 -6
v -28 25 -6
v -14 25 -6
v -13 25 -6
v -12 25 -6
v -11 25 -6
v -7 25 -7
v -6 25 -7
v -7 25 -8
v -6 25 -8
v -28 26 -5
v -27 26 -5
v -26 26 -5
v -25 26 -5
v -17 26 -5
v -16 26 -5
v -28 26 -6
v -27 26 -6
v -26 26 -6
v -25 26 -6
v -17 26 -6
v -16 26 -6
v -8 26 -7
v -7 26 -7
v -8 26 -8
v -7 26 -8
v -24 27 -5
v -23 27 -5
v -24 27 -6
v -23 27 -6
v -29 28 -5
v -28 28 -5
v -27 28 -5
v -26 28 -5
v -22 28 -5
v -21 28 -5
v -20 28 -5
v -19 28 -5
v -13 28 -5
v -12 28 -5
v -29 28 -6
v -28 28 -6
v -27 28 -6
v -26 28 -6
v -22 28 -6
v -21 28 -6
v -20 28 -6
v -19 28 -6
v -13 28 -6
v -12 28 -6
v -34 35 -7
v -9 35 -7
v 4 35 -7
v 26 35 -7
v -34 35 -8
v -9 35 -8
v 4 35 -8
v 26 35 -8
v -34 36 -6
v -9 36 -6
v 4 36 -6
v 26 36 -6
v -34 36 -7
v -9 36 -7
v 4 36 -7
v 26 36 -7
v -40 37 -2
v 40 37 -2
v -34 37 -6
v -9 37 -6
v 4 37 -6
v 26 37 -6
v -40 37 -8
v -34 37 -8
v -9 37 -8
v 4 37 -8
v 26 37 -8
v 40 37 -8
v -40 2 -1
v 40 2 -1
v -40 2 -2
v 40 2 -2
v -40 3 -2
v 40 3 -2
v -40 3 -8
v 40 3 -8
v -39 8 -7
v -36 8 -7
v -39 8 -8
v -36 8 -8
v -8 19 -6
v 17 19 -6
v -8 19 -7
v 17 19 -7
v -8 19 -8
v 17 19 -8
v 23 23 -7
v 26 23 -7
v 27 23 -7
v 30 23 -7
v 23 23 -8
v 26 23 -8
v 27 23 -8
v 30 23 -8
v -13 25 -5
v -12 25 -5
v -13 25 -6
v -12 25 -6
v -29 26 -5
v -28 26 -5
v -29 26 -6
v -28 26 -6
v -7 26 -7
v -6 26 -7
v -7 26 -8
v -6 26 -8
v -25 27 -5
v -24 27 -5
v -17 27 -5
v -16 27 -5
v -25 27 -6
v -24 27 -6
v -17 27 -6
v -16 27 -6
v -8 27 -7
v -7 27 -7
v -8 27 -8
v -7 27 -8
v -28 28 -5
v -27 28 -5
v -26 28 -5
v -25 28 -5
v -14 28 -5
v -13 28 -5
v -12 28 -5
v -11 28 -5
v -28 28 -6
v -27 28 -6
v -26 28 -6
v -25 28 -6
v -14 28 -6
v -13 28 -6
v -12 28 -6
v -11 28 -6
v -30 29 -5
v -28 29 -5
v -27 29 -5
v -26 29 -5
v -24 29 -5
v -23 29 -5
v -22 29 -5
v -19 29 -5
v -18 29 -5
v -17 29 -5
v -16 29 -5
v -15 29 -5
v -13 29 -5
v -12 29 -5
v -10 29 -5
v -9 29 -5
v -30 29 -6
v -28 29 -6
v -27 29 -6
v -26 29 -6
v -24 29 -6
v -23 29 -6
v -22 29 -6
v -19 29 -6
v -18 29 -6
v -17 29 -6
v -16 29 -6
v -15 29 -6
v -13 29 -6
v -12 29 -6
v -10 29 -6
v -9 29 -6
v -6 29 -7
v -5 29 -7
v -6 29 -8
v -5 29 -8
v -33 31 -6
v -8 31 -6
v -32 31 -7
v -8 31 -7
v -33 31 -8
v -32 31 -8
v -8 31 -8
v -40 40 -2
v 40 40 -2
v -40 40 -10
v 40 40 -10

# faces
f 4/2/1 2/2/1 1/2/1
f 4/1/1 3/1/1 2/1/1
f 5/1/1 3/1/1 4/1/1
f 6/2/1 4/2/1 1/2/1
f 6/2/1 5/2/1 4/2/1
f 7/2/1 5/2/1 6/2/1
f 8/1/1 3/1/1 5/1/1
f 8/2/1 5/2/1 7/2/1
f 9/1/1 3/1/1 8/1/1
f 10/2/1 8/2/1 7/2/1
f 10/2/1 9/2/1 8/2/1
f 11/1/1 3/1/1 9/1/1
f 11/2/1 9/2/1 10/2/1
f 13/1/1 3/1/1 11/1/1
f 14/1/1 13/1/1 12/1/1
f 15/1/1 3/1/1 13/1/1
f 15/1/1 13/1/1 14/1/1
f 18/1/1 17/1/1 16/1/1
f 19/1/1 17/1/1 18/1/1
f 20/6/1 19/6/1 18/6/1
f 21/6/1 19/6/1 20/6/1
f 22/1/1 21/1/1 20/1/1
f 23/1/1 21/1/1 22/1/1
f 27/1/1 25/1/1 24/1/1
f 28/1/1 27/1/1 26/1/1
f 29/1/1 25/1/1 27/1/1
f 29/1/1 27/1/1 28/1/1
f 32/4/1 31/4/1 30/4/1
f 33/4/1 31/4/1 32/4/1
f 36/5/1 35/5/1 34/5/1
f 37/5/1 35/5/1 36/5/1
f 40/1/1 39/1/1 38/1/1
f 41/1/1 39/1/1 40/1/1
f 44/1/1 43/1/1 42/1/1
f 45/1/1 43/1/1 44/1/1
f 48/1/1 47/1/1 46/1/1
f 49/1/1 47/1/1 48/1/1
f 52/1/1 51/1/1 50/1/1
f 53/1/1 51/1/1 52/1/1
f 56/1/1 55/1/1 54/1/1
f 57/1/1 55/1/1 56/1/1
f 60/1/1 59/1/1 58/1/1
f 61/1/1 59/1/1 60/1/1
f 64/1/1 63/1/1 62/1/1
f 65/1/1 63/1/1 64/1/1
f 68/1/1 67/1/1 66/1/1
f 69/1/1 67/1/1 68/1/1
f 72/1/1 71/1/1 70/1/1
f 73/1/1 71/1/1 72/1/1
f 76/1/1 75/1/1 74/1/1
f 77/1/1 75/1/1 76/1/1
f 80/1/1 79/1/1 78/1/1
f 81/1/1 79/1/1 80/1/1
f 84/1/1 83/1/1 82/1/1
f 85/1/1 83/1/1 84/1/1
f 88/1/1 87/1/1 86/1/1
f 89/1/1 87/1/1 88/1/1
f 92/1/1 91/1/1 90/1/1
f 93/1/1 91/1/1 92/1/1
f 96/1/1 95/1/1 94/1/1
f 97/1/1 95/1/1 96/1/1
f 100/1/1 99/1/1 98/1/1
f 101/1/1 99/1/1 100/1/1
f 104/4/1 103/4/1 102/4/1
f 105/4/1 103/4/1 104/4/1
f 106/4/1 104/4/1 102/4/1
f 107/4/1 104/4/1 106/4/1
f 110/1/1 109/1/1 108/1/1
f 111/1/1 109/1/1 110/1/1
f 114/1/1 113/1/1 112/1/1
f 115/1/1 113/1/1 114/1/1
f 118/1/1 117/1/1 116/1/1
f 119/1/1 117/1/1 118/1/1
f 123/1/1 121/1/1 120/1/1
f 124/1/1 123/1/1 122/1/1
f 125/1/1 121/1/1 123/1/1
f 125/1/1 123/1/1 124/1/1
f 128/1/1 127/1/1 126/1/1
f 129/1/1 127/1/1 128/1/1
f 132/1/1 131/1/1 130/1/1
f 133/1/1 131/1/1 132/1/1
f 134/1/2 135/1/2 136/1/2
f 136/1/2 135/1/2 137/1/2
f 136/6/2 137/6/2 138/6/2
f 138/6/2 137/6/2 139/6/2
f 138/1/2 139/1/2 140/1/2
f 140/1/2 139/1/2 141/1/2
f 142/1/2 143/1/2 144/1/2
f 144/1/2 143/1/2 145/1/2
f 146/1/2 147/1/2 148/1/2
f 148/1/2 147/1/2 149/1/2
f 150/1/2 151/1/2 152/1/2
f 152/1/2 151/1/2 153/1/2
f 154/1/2 155/1/2 156/1/2
f 156/1/2 155/1/2 157/1/2
f 158/1/2 159/1/2 160/1/2
f 160/1/2 159/1/2 161/1/2
f 162/1/2 163/1/2 164/1/2
f 164/1/2 163/1/2 165/1/2
f 166/1/2 167/1/2 168/1/2
f 168/1/2 167/1/2 169/1/2
f 170/1/2 171/1/2 172/1/2
f 172/1/2 171/1/2 173/1/2
f 174/1/2 175/1/2 176/1/2
f 176/1/2 175/1/2 177/1/2
f 178/1/2 179/1/2 180/1/2
f 180/1/2 179/1/2 181/1/2
f 182/1/2 183/1/2 184/1/2
f 184/1/2 183/1/2 185/1/2
f 186/1/2 187/1/2 188/1/2
f 188/1/2 187/1/2 189/1/2
f 190/1/2 191/1/2 192/1/2
f 192/1/2 191/1/2 193/1/2
f 194/1/2 195/1/2 196/1/2
f 196/1/2 195/1/2 197/1/2
f 198/1/2 199/1/2 200/1/2
f 200/1/2 199/1/2 201/1/2
f 202/1/2 203/1/2 204/1/2
f 204/1/2 203/1/2 205/1/2
f 206/1/2 207/1/2 208/1/2
f 208/1/2 207/1/2 209/1/2
f 210/1/2 211/1/2 212/1/2
f 212/1/2 211/1/2 213/1/2
f 214/1/2 215/1/2 216/1/2
f 216/1/2 215/1/2 217/1/2
f 218/1/2 219/1/2 221/1/2
f 220/1/2 221/1/2 222/1/2
f 221/1/2 219/1/2 223/1/2
f 222/1/2 221/1/2 223/1/2
f 224/4/2 225/4/2 227/4/2
f 225/3/2 226/3/2 227/3/2
f 227/3/2 226/3/2 228/3/2
f 224/4/2 227/4/2 229/4/2
f 229/3/2 230/3/2 231/3/2
f 224/4/2 229/4/2 232/4/2
f 229/3/2 231/3/2 233/3/2
f 232/4/2 229/4/2 233/4/2
f 233/3/2 231/3/2 234/3/2
f 235/1/2 236/1/2 237/1/2
f 237/1/2 236/1/2 238/1/2
f 239/1/2 240/1/2 241/1/2
f 241/1/2 240/1/2 242/1/2
f 243/4/2 244/4/2 245/4/2
f 245/4/2 244/4/2 246/4/2
f 245/6/2 246/6/2 247/6/2
f 247/6/2 246/6/2 248/6/2
f 247/4/2 248/4/2 249/4/2
f 248/6/2 246/6/2 250/6/2
f 249/4/2 248/4/2 250/4/2
f 250/6/2 246/6/2 251/6/2
f 252/1/2 253/1/2 254/1/2
f 254/1/2 253/1/2 255/1/2
f 256/1/2 257/1/2 259/1/2
f 258/1/2 259/1/2 260/1/2
f 259/1/2 257/1/2 261/1/2
f 260/1/2 259/1/2 261/1/2
f 262/1/2 263/1/2 264/1/2
f 264/1/2 263/1/2 265/1/2
f 266/2/2 267/2/2 269/2/2
f 267/1/2 268/1/2 269/1/2
f 269/1/2 268/1/2 270/1/2
f 266/2/2 269/2/2 271/2/2
f 269/2/2 270/2/2 271/2/2
f 271/2/2 270/2/2 272/2/2
f 270/1/2 268/1/2 273/1/2
f 272/2/2 270/2/2 273/2/2
f 273/1/2 268/1/2 274/1/2
f 272/2/2 273/2/2 275/2/2
f 273/2/2 274/2/2 275/2/2
f 274/1/2 268/1/2 276/1/2
f 275/2/2 274/2/2 276/2/2
f 276/1/2 268/1/2 278/1/2
f 277/1/2 278/1/2 279/1/2
f 278/1/2 268/1/2 280/1/2
f 279/1/2 278/1/2 280/1/2
f 283/2/3 282/2/3 281/2/3
f 284/2/3 282/2/3 283/2/3
f 289/2/3 286/2/3 285/2/3
f 290/2/3 286/2/3 289/2/3
f 291/1/3 288/1/3 287/1/3
f 292/1/3 288/1/3 291/1/3
f 295/1/3 294/1/3 293/1/3
f 296/1/3 294/1/3 295/1/3
f 297/1/3 294/1/3 296/1/3
f 298/1/3 294/1/3 297/1/3
f 299/1/3 297/1/3 296/1/3
f 300/1/3 297/1/3 299/1/3
f 301/1/3 294/1/3 298/1/3
f 302/1/3 294/1/3 301/1/3
f 303/1/3 301/1/3 300/1/3
f 304/1/3 301/1/3 303/1/3
f 307/1/3 305/1/3 304/1/3
f 308/1/3 305/1/3 307/1/3
f 310/1/3 307/1/3 306/1/3
f 311/1/3 307/1/3 310/1/3
f 312/1/3 307/1/3 311/1/3
f 313/1/3 310/1/3 309/1/3
f 313/1/3 311/1/3 310/1/3
f 314/1/3 311/1/3 313/1/3
f 316/1/3 315/1/3 314/1/3
f 317/1/3 315/1/3 316/1/3
f 321/1/3 319/1/3 318/1/3
f 322/1/3 321/1/3 320/1/3
f 323/1/3 319/1/3 321/1/3
f 323/1/3 321/1/3 322/1/3
f 324/1/3 319/1/3 323/1/3
f 325/1/3 319/1/3 324/1/3
f 328/1/3 327/1/3 326/1/3
f 329/1/3 327/1/3 328/1/3
f 330/1/3 327/1/3 329/1/3
f 331/1/3 327/1/3 330/1/3
f 333/1/3 330/1/3 329/1/3
f 334/1/3 330/1/3 333/1/3
f 336/1/3 333/1/3 332/1/3
f 336/1/3 335/1/3 334/1/3
f 336/1/3 334/1/3 333/1/3
f 337/1/3 335/1/3 336/1/3
f 341/1/3 339/1/3 338/1/3
f 342/1/3 339/1/3 341/1/3
f 344/1/3 341/1/3 340/1/3
f 345/1/3 341/1/3 344/1/3
f 346/1/3 343/1/3 342/1/3
f 347/1/3 343/1/3 346/1/3
f 348/1/3 346/1/3 345/1/3
f 349/1/3 346/1/3 348/1/3
f 352/1/3 351/1/3 350/1/3
f 353/1/3 351/1/3 352/1/3
f 358/4/3 357/4/3 356/4/3
f 359/4/3 357/4/3 358/4/3
f 360/6/3 359/6/3 358/6/3
f 361/6/3 359/6/3 360/6/3
f 362/6/3 360/6/3 358/6/3
f 366/6/3 363/6/3 362/6/3
f 367/6/3 365/6/3 364/6/3
f 368/6/3 365/6/3 367/6/3
f 369/6/3 359/6/3 361/6/3
f 370/6/3 367/6/3 366/6/3
f 371/6/3 369/6/3 368/6/3
f 372/6/3 359/6/3 369/6/3
f 372/6/3 369/6/3 371/6/3
f 373/6/3 370/6/3 366/6/3
f 373/6/3 371/6/3 370/6/3
f 374/6/3 371/6/3 373/6/3
f 375/6/3 359/6/3 372/6/3
f 376/6/3 362/6/3 358/6/3
f 376/6/3 366/6/3 362/6/3
f 376/6/3 373/6/3 366/6/3
f 377/6/3 373/6/3 376/6/3
f 379/6/3 375/6/3 374/6/3
f 380/6/3 376/6/3 358/6/3
f 381/6/3 379/6/3 378/6/3
f 382/6/3 359/6/3 375/6/3
f 382/6/3 375/6/3 379/6/3
f 382/6/3 379/6/3 381/6/3
f 383/6/3 381/6/3 380/6/3
f 384/6/3 359/6/3 382/6/3
f 385/6/3 384/6/3 383/6/3
f 386/6/3 359/6/3 384/6/3
f 386/6/3 384/6/3 385/6/3
f 387/6/3 380/6/3 358/6/3
f 387/6/3 383/6/3 380/6/3
f 387/6/3 385/6/3 383/6/3
f 388/6/3 385/6/3 387/6/3
f 389/6/3 387/6/3 358/6/3
f 391/6/3 390/6/3 389/6/3
f 392/6/3 359/6/3 386/6/3
f 393/6/3 391/6/3 389/6/3
f 393/6/3 392/6/3 391/6/3
f 393/6/3 389/6/3 358/6/3
f 394/6/3 359/6/3 392/6/3
f 394/6/3 392/6/3 393/6/3
f 395/6/3 393/6/3 358/6/3
f 398/6/3 359/6/3 394/6/3
f 399/6/3 396/6/3 395/6/3
f 399/6/3 395/6/3 358/6/3
f 400/6/3 396/6/3 399/6/3
f 401/6/3 398/6/3 397/6/3
f 402/6/3 359/6/3 398/6/3
f 402/6/3 398/6/3 401/6/3
f 403/6/3 399/6/3 358/6/3
f 404/6/3 359/6/3 402/6/3
f 405/6/3 404/6/3 403/6/3
f 406/6/3 404/6/3 405/6/3
f 407/6/3 403/6/3 358/6/3
f 407/6/3 405/6/3 403/6/3
f 408/6/3 405/6/3 407/6/3
f 409/6/3 404/6/3 406/6/3
f 410/6/3 359/6/3 404/6/3
f 410/6/3 404/6/3 409/6/3
f 411/6/3 407/6/3 358/6/3
f 412/6/3 409/6/3 408/6/3
f 413/6/3 409/6/3 412/6/3
f 414/6/3 359/6/3 410/6/3
f 415/6/3 412/6/3 411/6/3
f 416/6/3 414/6/3 413/6/3
f 417/6/3 415/6/3 411/6/3
f 417/6/3 416/6/3 415/6/3
f 417/6/3 411/6/3 358/6/3
f 418/6/3 414/6/3 416/6/3
f 418/6/3 416/6/3 417/6/3
f 418/6/3 359/6/3 414/6/3
f 419/4/3 358/4/3 356/4/3
f 419/6/3 417/6/3 358/6/3
f 420/6/3 417/6/3 419/6/3
f 421/6/3 359/6/3 418/6/3
f 422/4/3 357/4/3 359/4/3
f 422/6/3 359/6/3 421/6/3
f 423/1/3 355/1/3 354/1/3
f 424/1/3 355/1/3 423/1/3
f 426/4/3 420/4/3 419/4/3
f 426/4/3 421/4/3 420/4/3
f 426/4/3 419/4/3 356/4/3
f 426/4/3 422/4/3 421/4/3
f 427/4/3 357/4/3 422/4/3
f 427/4/3 422/4/3 426/4/3
f 428/4/3 426/4/3 425/4/3
f 429/4/3 426/4/3 428/4/3
f 432/4/3 428/4/3 425/4/3
f 433/6/3 429/6/3 428/6/3
f 433/4/3 428/4/3 432/4/3
f 434/4/3 426/4/3 429/4/3
f 434/6/3 429/6/3 433/6/3
f 435/4/3 426/4/3 434/4/3
f 436/1/3 431/1/3 430/1/3
f 437/1/3 431/1/3 436/1/3
f 442/1/3 439/1/3 438/1/3
f 442/6/3 440/6/3 439/6/3
f 443/1/3 441/1/3 440/1/3
f 443/6/3 440/6/3 442/6/3
f 444/1/3 442/1/3 438/1/3
f 444/1/3 443/1/3 442/1/3
f 445/1/3 441/1/3 443/1/3
f 445/1/3 443/1/3 444/1/3
f 446/1/3 444/1/3 438/1/3
f 447/6/3 445/6/3 444/6/3
f 447/1/3 444/1/3 446/1/3
f 448/1/3 441/1/3 445/1/3
f 448/6/3 445/6/3 447/6/3
f 449/1/3 441/1/3 448/1/3
f 454/1/3 451/1/3 450/1/3
f 455/1/3 451/1/3 454/1/3
f 456/5/3 453/5/3 452/5/3
f 457/5/3 453/5/3 456/5/3
f 461/1/3 459/1/3 458/1/3
f 462/1/3 459/1/3 461/1/3
f 464/1/3 461/1/3 460/1/3
f 465/1/3 461/1/3 464/1/3
f 467/1/3 465/1/3 464/1/3
f 467/1/3 466/1/3 465/1/3
f 467/1/3 464/1/3 463/1/3
f 468/1/3 466/1/3 467/1/3
f 473/1/3 472/1/3 471/1/3
f 474/1/3 472/1/3 473/1/3
f 475/1/3 473/1/3 471/1/3
f 475/5/3 474/5/3 473/5/3
f 476/1/3 472/1/3 474/1/3
f 476/5/3 474/5/3 475/5/3
f 477/1/3 475/1/3 471/1/3
f 477/1/3 476/1/3 475/1/3
f 478/1/3 472/1/3 476/1/3
f 478/1/3 476/1/3 477/1/3
f 479/1/3 470/1/3 469/1/3
f 480/1/3 470/1/3 479/1/3
f 483/1/3 482/1/3 481/1/3
f 484/1/3 482/1/3 483/1/3
f 485/1/3 483/1/3 481/1/3
f 485/5/3 484/5/3 483/5/3
f 486/1/3 482/1/3 484/1/3
f 486/5/3 484/5/3 485/5/3
f 487/1/3 485/1/3 481/1/3
f 487/1/3 486/1/3 485/1/3
f 488/1/3 482/1/3 486/1/3
f 488/1/3 486/1/3 487/1/3
f 491/1/3 490/1/3 489/1/3
f 492/1/3 490/1/3 491/1/3
f 493/1/3 490/1/3 492/1/3
f 494/1/3 490/1/3 493/1/3
f 495/1/3 491/1/3 489/1/3
f 498/1/3 490/1/3 494/1/3
f 499/1/3 497/1/3 496/1/3
f 499/1/3 498/1/3 497/1/3
f 499/1/3 490/1/3 498/1/3
f 499/1/3 496/1/3 495/1/3
f 500/1/3 490/1/3 499/1/3
f 501/1/3 499/1/3 495/1/3
f 502/1/3 499/1/3 501/1/3
f 503/1/3 499/1/3 502/1/3
f 504/4/3 502/4/3 501/4/3
f 505/4/3 502/4/3 504/4/3
f 506/1/3 499/1/3 503/1/3
f 507/1/3 499/1/3 506/1/3
f 509/1/3 501/1/3 495/1/3
f 509/4/3 504/4/3 501/4/3
f 510/4/3 504/4/3 509/4/3
f 515/1/3 508/1/3 507/1/3
f 515/1/3 507/1/3 506/1/3
f 516/5/3 512/5/3 511/5/3
f 517/5/3 512/5/3 516/5/3
f 518/5/3 514/5/3 513/5/3
f 519/5/3 516/5/3 511/5/3
f 520/5/3 516/5/3 519/5/3
f 521/5/3 518/5/3 517/5/3
f 522/5/3 514/5/3 518/5/3
f 522/5/3 518/5/3 521/5/3
f 523/5/3 519/5/3 511/5/3
f 524/5/3 514/5/3 522/5/3
f 525/1/3 508/1/3 515/1/3
f 526/1/3 508/1/3 525/1/3
f 527/1/3 509/1/3 495/1/3
f 529/5/3 523/5/3 511/5/3
f 529/5/3 524/5/3 523/5/3
f 530/4/3 515/4/3 514/4/3
f 530/5/3 514/5/3 524/5/3
f 530/5/3 524/5/3 529/5/3
f 531/1/3 525/1/3 515/1/3
f 531/4/3 515/4/3 530/4/3
f 532/4/3 528/4/3 527/4/3
f 532/4/3 529/4/3 528/4/3
f 532/1/3 527/1/3 495/1/3
f 532/4/3 530/4/3 529/4/3
f 533/5/3 531/5/3 530/5/3
f 533/4/3 530/4/3 532/4/3
f 534/1/3 525/1/3 531/1/3
f 534/5/3 531/5/3 533/5/3
f 535/1/3 533/1/3 532/1/3
f 535/1/3 534/1/3 533/1/3
f 536/1/3 534/1/3 535/1/3
f 537/1/3 535/1/3 532/1/3
f 538/1/3 534/1/3 536/1/3
f 539/1/3 525/1/3 534/1/3
f 539/1/3 534/1/3 538/1/3
f 541/1/3 538/1/3 537/1/3
f 541/1/3 540/1/3 539/1/3
f 541/1/3 539/1/3 538/1/3
f 541/1/3 537/1/3 532/1/3
f 542/1/3 540/1/3 541/1/3
f 543/1/3 541/1/3 532/1/3
f 544/1/3 540/1/3 542/1/3
f 545/1/3 495/1/3 489/1/3
f 545/1/3 544/1/3 543/1/3
f 545/1/3 532/1/3 495/1/3
f 545/1/3 543/1/3 532/1/3
f 546/1/3 540/1/3 544/1/3
f 546/1/3 544/1/3 545/1/3
f 547/1/4 548/1/4 549/1/4
f 549/1/4 548/1/4 550/1/4
f 553/2/5 552/2/5 551/2/5
f 554/2/5 552/2/5 553/2/5
f 555/1/5 554/1/5 553/1/5
f 556/1/5 554/1/5 555/1/5
f 559/1/5 558/1/5 557/1/5
f 560/1/5 558/1/5 559/1/5
f 563/4/5 562/4/5 561/4/5
f 564/4/5 562/4/5 563/4/5
f 567/5/5 566/5/5 565/5/5
f 568/5/5 566/5/5 567/5/5
f 571/4/5 570/4/5 569/4/5
f 572/4/5 570/4/5 571/4/5
f 573/4/5 571/4/5 569/4/5
f 574/4/5 571/4/5 573/4/5
f 579/1/5 576/1/5 575/1/5
f 580/1/5 576/1/5 579/1/5
f 581/1/5 578/1/5 577/1/5
f 582/1/5 578/1/5 581/1/5
f 597/1/5 584/1/5 583/1/5
f 598/1/5 584/1/5 597/1/5
f 599/1/5 586/1/5 585/1/5
f 600/1/5 586/1/5 599/1/5
f 601/1/5 588/1/5 587/1/5
f 602/1/5 588/1/5 601/1/5
f 603/1/5 590/1/5 589/1/5
f 604/1/5 590/1/5 603/1/5
f 605/1/5 592/1/5 591/1/5
f 606/1/5 592/1/5 605/1/5
f 607/1/5 594/1/5 593/1/5
f 608/1/5 594/1/5 607/1/5
f 609/1/5 596/1/5 595/1/5
f 610/1/5 596/1/5 609/1/5
f 613/1/5 612/1/5 611/1/5
f 614/1/5 612/1/5 613/1/5
f 621/1/5 616/1/5 615/1/5
f 622/1/5 616/1/5 621/1/5
f 623/1/5 618/1/5 617/1/5
f 624/1/5 618/1/5 623/1/5
f 625/1/5 620/1/5 619/1/5
f 626/1/5 620/1/5 625/1/5
f 629/1/5 628/1/5 627/1/5
f 630/1/5 628/1/5 629/1/5
f 637/1/5 632/1/5 631/1/5
f 638/1/5 632/1/5 637/1/5
f 639/1/5 634/1/5 633/1/5
f 640/1/5 634/1/5 639/1/5
f 641/1/5 636/1/5 635/1/5
f 642/1/5 636/1/5 641/1/5
f 645/1/5 644/1/5 643/1/5
f 646/1/5 644/1/5 645/1/5
f 649/1/5 648/1/5 647/1/5
f 650/1/5 648/1/5 649/1/5
f 661/1/5 652/1/5 651/1/5
f 662/1/5 652/1/5 661/1/5
f 663/1/5 654/1/5 653/1/5
f 664/1/5 654/1/5 663/1/5
f 665/1/5 656/1/5 655/1/5
f 666/1/5 656/1/5 665/1/5
f 667/1/5 658/1/5 657/1/5
f 668/1/5 658/1/5 667/1/5
f 669/1/5 660/1/5 659/1/5
f 670/1/5 660/1/5 669/1/5
f 675/1/5 672/1/5 671/1/5
f 676/1/5 672/1/5 675/1/5
f 677/1/5 674/1/5 673/1/5
f 678/1/5 674/1/5 677/1/5
f 683/1/5 680/1/5 679/1/5
f 684/1/5 680/1/5 683/1/5
f 685/1/5 682/1/5 681/1/5
f 686/1/5 682/1/5 685/1/5
f 689/1/5 688/1/5 687/1/5
f 690/1/5 688/1/5 689/1/5
f 691/1/5 688/1/5 690/1/5
f 692/1/5 688/1/5 691/1/5
f 693/1/5 689/1/5 687/1/5
f 694/1/5 689/1/5 693/1/5
f 695/1/5 691/1/5 690/1/5
f 696/1/5 691/1/5 695/1/5
f 697/1/5 688/1/5 692/1/5
f 698/1/5 688/1/5 697/1/5
f 699/2/6 700/2/6 701/2/6
f 701/2/6 700/2/6 702/2/6
f 703/2/6 704/2/6 705/2/6
f 705/2/6 704/2/6 706/2/6
f 707/1/6 708/1/6 709/1/6
f 709/1/6 708/1/6 710/1/6
f 711/4/6 712/4/6 713/4/6
f 713/4/6 712/4/6 714/4/6
f 713/6/6 714/6/6 715/6/6
f 715/6/6 714/6/6 716/6/6
f 717/1/6 718/1/6 721/1/6
f 721/1/6 718/1/6 722/1/6
f 719/1/6 720/1/6 723/1/6
f 723/1/6 720/1/6 724/1/6
f 725/1/6 726/1/6 727/1/6
f 727/1/6 726/1/6 728/1/6
f 729/1/6 730/1/6 731/1/6
f 731/1/6 730/1/6 732/1/6
f 733/1/6 734/1/6 735/1/6
f 735/1/6 734/1/6 736/1/6
f 737/1/6 738/1/6 741/1/6
f 741/1/6 738/1/6 742/1/6
f 739/1/6 740/1/6 743/1/6
f 743/1/6 740/1/6 744/1/6
f 745/1/6 746/1/6 747/1/6
f 747/1/6 746/1/6 748/1/6
f 749/1/6 750/1/6 757/1/6
f 757/1/6 750/1/6 758/1/6
f 751/1/6 752/1/6 759/1/6
f 759/1/6 752/1/6 760/1/6
f 753/1/6 754/1/6 761/1/6
f 761/1/6 754/1/6 762/1/6
f 755/1/6 756/1/6 763/1/6
f 763/1/6 756/1/6 764/1/6
f 765/1/6 766/1/6 781/1/6
f 781/1/6 766/1/6 782/1/6
f 767/1/6 768/1/6 783/1/6
f 783/1/6 768/1/6 784/1/6
f 769/1/6 770/1/6 785/1/6
f 785/1/6 770/1/6 786/1/6
f 771/1/6 772/1/6 787/1/6
f 787/1/6 772/1/6 788/1/6
f 773/1/6 774/1/6 789/1/6
f 789/1/6 774/1/6 790/1/6
f 775/1/6 776/1/6 791/1/6
f 791/1/6 776/1/6 792/1/6
f 777/1/6 778/1/6 793/1/6
f 793/1/6 778/1/6 794/1/6
f 779/1/6 780/1/6 795/1/6
f 795/1/6 780/1/6 796/1/6
f 797/1/6 798/1/6 799/1/6
f 799/1/6 798/1/6 800/1/6
f 801/4/6 802/4/6 803/4/6
f 803/4/6 802/4/6 804/4/6
f 801/4/6 803/4/6 805/4/6
f 803/3/6 804/3/6 806/3/6
f 805/4/6 803/4/6 806/4/6
f 806/3/6 804/3/6 807/3/6
f 808/1/6 809/1/6 810/1/6
f 810/1/6 809/1/6 811/1/6
