# MagicaVoxel @ Ephtracy

# group
g cube-0

# material
mtllib cube-0.mtl
usemtl palette

# normals
vn -1 0 0
vn 1 0 0
vn 0 0 1
vn 0 0 -1
vn 0 -1 0
vn 0 1 0

# texcoords
vt 0.306641 0.5
vt 0.958984 0.5

# verts
v -10 0 10
v -10 0 -10
v -10 20 10
v -10 20 -10
v 10 0 10
v 10 0 -10
v 10 13 -9
v 10 13 -10
v 10 14 -9
v 10 14 -10
v 10 20 10
v 10 20 -10
v -10 0 10
v -10 20 10
v 10 0 10
v 10 20 10
v -10 0 -10
v -10 20 -10
v -3 17 -10
v -3 19 -10
v -2 16 -10
v -2 17 -10
v -2 18 -10
v -2 19 -10
v -1 14 -10
v -1 16 -10
v 0 15 -10
v 0 16 -10
v 0 17 -10
v 0 18 -10
v 1 12 -10
v 1 14 -10
v 1 15 -10
v 1 16 -10
v 2 12 -10
v 2 14 -10
v 2 16 -10
v 2 17 -10
v 6 14 -10
v 6 15 -10
v 6 16 -10
v 8 13 -10
v 8 14 -10
v 9 14 -10
v 9 15 -10
v 10 0 -10
v 10 13 -10
v 10 14 -10
v 10 20 -10
v -10 0 10
v 10 0 10
v -10 0 -10
v 10 0 -10
v -10 20 10
v 10 20 10
v -10 20 -10
v 10 20 -10

# faces
f 3/1/1 2/1/1 1/1/1
f 4/1/1 2/1/1 3/1/1
f 5/1/2 6/1/2 7/1/2
f 7/1/2 6/1/2 8/1/2
f 5/1/2 7/1/2 9/1/2
f 7/2/2 8/2/2 9/2/2
f 9/2/2 8/2/2 10/2/2
f 5/1/2 9/1/2 11/1/2
f 9/1/2 10/1/2 11/1/2
f 11/1/2 10/1/2 12/1/2
f 15/1/3 14/1/3 13/1/3
f 16/1/3 14/1/3 15/1/3
f 17/1/4 18/1/4 19/1/4
f 19/1/4 18/1/4 20/1/4
f 17/1/4 19/1/4 21/1/4
f 19/2/4 20/2/4 22/2/4
f 21/1/4 19/1/4 22/1/4
f 22/2/4 20/2/4 23/2/4
f 20/1/4 18/1/4 24/1/4
f 23/2/4 20/2/4 24/2/4
f 17/1/4 21/1/4 25/1/4
f 22/2/4 23/2/4 26/2/4
f 25/1/4 21/1/4 26/1/4
f 21/2/4 22/2/4 26/2/4
f 25/2/4 26/2/4 27/2/4
f 26/2/4 23/2/4 28/2/4
f 27/2/4 26/2/4 28/2/4
f 28/2/4 23/2/4 29/2/4
f 23/1/4 24/1/4 30/1/4
f 29/2/4 23/2/4 30/2/4
f 17/1/4 25/1/4 31/1/4
f 25/2/4 27/2/4 32/2/4
f 31/1/4 25/1/4 32/1/4
f 27/1/4 28/1/4 33/1/4
f 32/2/4 27/2/4 33/2/4
f 28/2/4 29/2/4 34/2/4
f 33/1/4 28/1/4 34/1/4
f 17/1/4 31/1/4 35/1/4
f 31/2/4 32/2/4 35/2/4
f 32/1/4 33/1/4 36/1/4
f 35/2/4 32/2/4 36/2/4
f 34/2/4 29/2/4 37/2/4
f 33/2/4 34/2/4 37/2/4
f 29/1/4 30/1/4 38/1/4
f 37/2/4 29/2/4 38/2/4
f 36/1/4 33/1/4 39/1/4
f 35/1/4 36/1/4 39/1/4
f 33/2/4 37/2/4 40/2/4
f 39/1/4 33/1/4 40/1/4
f 37/1/4 38/1/4 41/1/4
f 40/2/4 37/2/4 41/2/4
f 35/1/4 39/1/4 42/1/4
f 39/2/4 40/2/4 43/2/4
f 42/1/4 39/1/4 43/1/4
f 42/2/4 43/2/4 44/2/4
f 43/2/4 40/2/4 44/2/4
f 40/1/4 41/1/4 45/1/4
f 44/2/4 40/2/4 45/2/4
f 17/1/4 35/1/4 46/1/4
f 35/1/4 42/1/4 46/1/4
f 42/2/4 44/2/4 47/2/4
f 46/1/4 42/1/4 47/1/4
f 44/1/4 45/1/4 48/1/4
f 47/2/4 44/2/4 48/2/4
f 30/1/4 24/1/4 49/1/4
f 48/1/4 45/1/4 49/1/4
f 24/1/4 18/1/4 49/1/4
f 45/1/4 41/1/4 49/1/4
f 41/1/4 38/1/4 49/1/4
f 38/1/4 30/1/4 49/1/4
f 52/1/5 51/1/5 50/1/5
f 53/1/5 51/1/5 52/1/5
f 54/1/6 55/1/6 56/1/6
f 56/1/6 55/1/6 57/1/6
