# MagicaVoxel @ Ephtracy

# group
g security01_attack

# material
mtllib security01_attack.mtl
usemtl palette

# normals
vn -1 0 0
vn 1 0 0
vn 0 0 1
vn 0 0 -1
vn 0 -1 0
vn 0 1 0

# texcoords
vt 0.00195312 0.5
vt 0.00585938 0.5
vt 0.0175781 0.5
vt 0.939453 0.5
vt 0.982422 0.5
vt 0.990234 0.5
vt 0.994141 0.5

# verts
v -6 21 4
v -6 21 1
v -6 22 4
v -6 22 1
v -5 13 4
v -5 13 -0
v -5 14 6
v -5 14 4
v -5 14 3
v -5 15 5
v -5 15 4
v -5 15 3
v -5 15 1
v -5 15 -0
v -5 16 6
v -5 16 5
v -5 16 4
v -5 16 1
v -5 18 3
v -5 18 2
v -5 18 -0
v -5 19 5
v -5 19 4
v -5 19 3
v -5 19 -0
v -5 19 -1
v -5 20 6
v -5 20 5
v -5 20 4
v -5 20 2
v -5 21 7
v -5 21 6
v -5 21 4
v -5 21 1
v -5 21 -1
v -5 22 7
v -5 22 5
v -5 22 4
v -5 22 1
v -5 22 -0
v -5 22 -1
v -5 23 5
v -5 23 -0
v -4 8 6
v -4 8 3
v -4 9 6
v -4 9 5
v -4 9 3
v -4 9 2
v -4 10 5
v -4 10 4
v -4 10 2
v -4 10 1
v -4 11 5
v -4 11 4
v -4 11 1
v -4 11 -0
v -4 12 5
v -4 12 -0
v -4 13 4
v -4 13 -0
v -4 14 5
v -4 14 4
v -4 15 5
v -4 15 4
v -4 15 1
v -4 15 -0
v -4 16 5
v -4 16 4
v -4 16 1
v -4 16 -0
v -4 17 6
v -4 17 4
v -4 17 -0
v -4 18 4
v -4 18 3
v -4 18 2
v -4 18 -0
v -4 18 -1
v -4 19 5
v -4 19 4
v -4 19 3
v -4 19 -0
v -4 19 -1
v -4 20 6
v -4 20 5
v -4 21 8
v -4 21 7
v -4 22 8
v -4 22 7
v -4 22 6
v -4 22 5
v -4 22 -0
v -4 22 -1
v -4 23 6
v -4 23 5
v -4 23 -0
v -4 23 -1
v -4 24 5
v -4 24 -0
v -3 16 4
v -3 16 1
v -3 17 4
v -3 17 1
v -3 17 -0
v -3 17 -1
v -3 18 -0
v -3 18 -1
v -1 7 3
v -1 7 -0
v -1 8 3
v -1 8 2
v -1 8 -0
v -1 9 3
v -1 9 2
v -1 9 1
v -1 9 -0
v -1 10 3
v -1 10 1
v -1 10 -0
v -1 11 1
v -1 11 -0
v 1 14 6
v 1 14 5
v 1 16 6
v 1 16 5
v -4 14 6
v -4 14 5
v -4 16 6
v -4 16 5
v -2 8 6
v -2 8 3
v -2 9 6
v -2 9 5
v -2 9 3
v -2 9 2
v -2 10 5
v -2 10 4
v -2 10 2
v 0 16 4
v 0 16 1
v 0 17 4
v 0 17 1
v 0 17 -0
v 0 17 -1
v 0 18 -0
v 0 18 -1
v 1 7 3
v 1 7 -0
v 1 8 3
v 1 8 2
v 1 8 -0
v 1 9 3
v 1 9 2
v 1 9 1
v 1 9 -0
v 1 10 4
v 1 10 3
v 1 10 1
v 1 10 -0
v 1 11 5
v 1 11 4
v 1 11 -0
v 1 12 5
v 1 12 -0
v 1 13 4
v 1 13 -0
v 1 14 5
v 1 14 4
v 1 15 5
v 1 15 4
v 1 15 1
v 1 15 -0
v 1 16 5
v 1 16 4
v 1 16 1
v 1 16 -0
v 1 17 6
v 1 17 4
v 1 17 -0
v 1 18 4
v 1 18 3
v 1 18 2
v 1 18 -0
v 1 18 -1
v 1 19 5
v 1 19 4
v 1 19 3
v 1 19 -0
v 1 19 -1
v 1 20 6
v 1 20 5
v 1 21 8
v 1 21 7
v 1 22 8
v 1 22 7
v 1 22 6
v 1 22 5
v 1 22 -0
v 1 22 -1
v 1 23 6
v 1 23 5
v 1 23 -0
v 1 23 -1
v 1 24 5
v 1 24 -0
v 2 13 4
v 2 13 -0
v 2 14 6
v 2 14 4
v 2 14 3
v 2 15 5
v 2 15 4
v 2 15 3
v 2 15 1
v 2 15 -0
v 2 16 6
v 2 16 5
v 2 16 4
v 2 16 1
v 2 18 3
v 2 18 2
v 2 18 -0
v 2 19 5
v 2 19 4
v 2 19 3
v 2 19 -0
v 2 19 -1
v 2 20 6
v 2 20 5
v 2 20 4
v 2 20 2
v 2 21 7
v 2 21 6
v 2 21 4
v 2 21 1
v 2 21 -1
v 2 22 7
v 2 22 5
v 2 22 4
v 2 22 1
v 2 22 -0
v 2 22 -1
v 2 23 5
v 2 23 -0
v 3 21 4
v 3 21 1
v 3 22 4
v 3 22 1
v -4 21 8
v -4 22 8
v 1 21 8
v 1 22 8
v -5 21 7
v -5 22 7
v -4 21 7
v -4 22 7
v 1 21 7
v 1 22 7
v 2 21 7
v 2 22 7
v -5 14 6
v -5 16 6
v -5 20 6
v -5 21 6
v -4 8 6
v -4 9 6
v -4 14 6
v -4 16 6
v -4 17 6
v -4 20 6
v -4 22 6
v -4 23 6
v -3 19 6
v -3 20 6
v -3 21 6
v -3 22 6
v -3 23 6
v -2 8 6
v -2 9 6
v -2 19 6
v -2 20 6
v -1 18 6
v -1 20 6
v 0 18 6
v 0 20 6
v 0 21 6
v 0 22 6
v 0 23 6
v 1 14 6
v 1 16 6
v 1 17 6
v 1 20 6
v 1 22 6
v 1 23 6
v 2 14 6
v 2 16 6
v 2 20 6
v 2 21 6
v -5 19 5
v -5 20 5
v -5 22 5
v -5 23 5
v -4 9 5
v -4 10 5
v -4 11 5
v -4 12 5
v -4 14 5
v -4 16 5
v -4 19 5
v -4 20 5
v -4 22 5
v -4 23 5
v -4 24 5
v -3 23 5
v -2 9 5
v -2 10 5
v -2 12 5
v -2 15 5
v -2 16 5
v -2 23 5
v -2 24 5
v -1 12 5
v -1 15 5
v -1 16 5
v -1 23 5
v -1 24 5
v 0 23 5
v 1 11 5
v 1 12 5
v 1 14 5
v 1 16 5
v 1 19 5
v 1 20 5
v 1 22 5
v 1 23 5
v 1 24 5
v 2 19 5
v 2 20 5
v 2 22 5
v 2 23 5
v -6 21 4
v -6 22 4
v -5 13 4
v -5 14 4
v -5 15 4
v -5 16 4
v -5 21 4
v -5 22 4
v -4 10 4
v -4 11 4
v -4 13 4
v -4 14 4
v -4 15 4
v -4 16 4
v -3 16 4
v -3 17 4
v -2 10 4
v -2 16 4
v -1 16 4
v 0 16 4
v 0 17 4
v 1 10 4
v 1 11 4
v 1 13 4
v 1 14 4
v 1 15 4
v 1 16 4
v 2 13 4
v 2 14 4
v 2 15 4
v 2 16 4
v 2 21 4
v 2 22 4
v 3 21 4
v 3 22 4
v -5 18 3
v -5 19 3
v -4 18 3
v -4 19 3
v -1 7 3
v -1 8 3
v -1 9 3
v -1 10 3
v 1 7 3
v 1 8 3
v 1 9 3
v 1 10 3
v 1 18 3
v 1 19 3
v 2 18 3
v 2 19 3
v -1 8 2
v -1 9 2
v 1 8 2
v 1 9 2
v -5 15 5
v -5 16 5
v -4 15 5
v -4 16 5
v 1 15 5
v 1 16 5
v 2 15 5
v 2 16 5
v -4 8 3
v -4 9 3
v -2 8 3
v -2 9 3
v -4 9 2
v -4 10 2
v -2 9 2
v -2 10 2
v -6 21 1
v -6 22 1
v -5 15 1
v -5 16 1
v -5 21 1
v -5 22 1
v -4 10 1
v -4 11 1
v -4 15 1
v -4 16 1
v -3 16 1
v -3 17 1
v -1 9 1
v -1 10 1
v -1 11 1
v 0 16 1
v 0 17 1
v 1 9 1
v 1 10 1
v 1 15 1
v 1 16 1
v 2 15 1
v 2 16 1
v 2 21 1
v 2 22 1
v 3 21 1
v 3 22 1
v -5 13 -0
v -5 15 -0
v -5 18 -0
v -5 19 -0
v -5 22 -0
v -5 23 -0
v -4 11 -0
v -4 12 -0
v -4 13 -0
v -4 15 -0
v -4 16 -0
v -4 17 -0
v -4 18 -0
v -4 19 -0
v -4 22 -0
v -4 23 -0
v -4 24 -0
v -3 17 -0
v -3 18 -0
v -1 7 -0
v -1 8 -0
v -1 9 -0
v -1 10 -0
v -1 11 -0
v 0 17 -0
v 0 18 -0
v 1 7 -0
v 1 8 -0
v 1 9 -0
v 1 10 -0
v 1 11 -0
v 1 12 -0
v 1 13 -0
v 1 15 -0
v 1 16 -0
v 1 17 -0
v 1 18 -0
v 1 19 -0
v 1 22 -0
v 1 23 -0
v 1 24 -0
v 2 13 -0
v 2 15 -0
v 2 18 -0
v 2 19 -0
v 2 22 -0
v 2 23 -0
v -5 19 -1
v -5 21 -1
v -5 22 -1
v -4 18 -1
v -4 19 -1
v -4 22 -1
v -4 23 -1
v -3 17 -1
v -3 18 -1
v 0 17 -1
v 0 18 -1
v 1 18 -1
v 1 19 -1
v 1 22 -1
v 1 23 -1
v 2 19 -1
v 2 21 -1
v 2 22 -1
v -1 7 3
v 1 7 3
v -1 7 -0
v 1 7 -0
v -4 8 6
v -2 8 6
v -4 8 3
v -2 8 3
v -4 9 3
v -2 9 3
v -1 9 3
v 1 9 3
v -4 9 2
v -2 9 2
v -1 9 2
v 1 9 2
v -2 10 4
v 1 10 4
v -1 10 3
v 1 10 3
v -4 10 2
v -2 10 2
v -4 10 1
v -1 10 1
v 1 10 1
v -1 10 -0
v 1 10 -0
v -4 11 5
v 1 11 5
v -4 11 4
v 1 11 4
v -4 11 1
v -1 11 1
v -4 11 -0
v -1 11 -0
v -5 13 4
v -4 13 4
v 1 13 4
v 2 13 4
v -5 13 -0
v -4 13 -0
v 1 13 -0
v 2 13 -0
v -5 14 6
v -4 14 6
v 1 14 6
v 2 14 6
v -4 14 5
v 1 14 5
v -5 14 4
v -4 14 4
v 1 14 4
v 2 14 4
v -4 17 6
v 1 17 6
v -4 17 4
v -3 17 4
v 0 17 4
v 1 17 4
v -3 17 1
v 0 17 1
v -4 17 -0
v -3 17 -0
v 0 17 -0
v 1 17 -0
v -3 17 -1
v 0 17 -1
v -5 18 3
v -4 18 3
v 1 18 3
v 2 18 3
v -5 18 2
v -4 18 2
v 1 18 2
v 2 18 2
v -5 18 -0
v -4 18 -0
v -3 18 -0
v 0 18 -0
v 1 18 -0
v 2 18 -0
v -4 18 -1
v -3 18 -1
v 0 18 -1
v 1 18 -1
v -5 19 5
v -4 19 5
v 1 19 5
v 2 19 5
v -5 19 4
v -4 19 4
v 1 19 4
v 2 19 4
v -5 19 3
v -4 19 3
v 1 19 3
v 2 19 3
v -5 19 -0
v -4 19 -0
v 1 19 -0
v 2 19 -0
v -5 19 -1
v -4 19 -1
v 1 19 -1
v 2 19 -1
v -5 20 6
v -4 20 6
v 1 20 6
v 2 20 6
v -5 20 5
v -4 20 5
v 1 20 5
v 2 20 5
v -4 21 8
v 1 21 8
v -5 21 7
v -4 21 7
v 1 21 7
v 2 21 7
v -5 21 6
v -3 21 6
v 0 21 6
v 2 21 6
v -6 21 4
v -5 21 4
v 2 21 4
v 3 21 4
v -6 21 1
v -5 21 1
v 2 21 1
v 3 21 1
v -1 8 3
v 1 8 3
v -1 8 2
v 1 8 2
v -4 9 6
v -2 9 6
v -4 9 5
v -2 9 5
v -1 9 1
v 1 9 1
v -1 9 -0
v 1 9 -0
v -4 10 5
v -2 10 5
v -4 10 4
v -2 10 4
v -5 15 5
v -4 15 5
v 1 15 5
v 2 15 5
v -5 15 4
v -4 15 4
v 1 15 4
v 2 15 4
v -5 15 1
v -4 15 1
v 1 15 1
v 2 15 1
v -5 15 -0
v -4 15 -0
v 1 15 -0
v 2 15 -0
v -5 16 6
v -4 16 6
v 1 16 6
v 2 16 6
v -5 16 5
v -4 16 5
v -2 16 5
v -1 16 5
v 1 16 5
v 2 16 5
v -5 16 4
v -4 16 4
v -3 16 4
v -2 16 4
v -1 16 4
v 0 16 4
v 1 16 4
v 2 16 4
v -5 16 1
v -4 16 1
v -3 16 1
v 0 16 1
v 1 16 1
v 2 16 1
v -4 16 -0
v 1 16 -0
v -4 22 8
v 1 22 8
v -5 22 7
v -4 22 7
v 1 22 7
v 2 22 7
v -4 22 6
v -3 22 6
v 0 22 6
v 1 22 6
v -5 22 5
v -4 22 5
v 1 22 5
v 2 22 5
v -6 22 4
v -5 22 4
v 2 22 4
v 3 22 4
v -6 22 1
v -5 22 1
v 2 22 1
v 3 22 1
v -5 22 -0
v -4 22 -0
v 1 22 -0
v 2 22 -0
v -5 22 -1
v -4 22 -1
v 1 22 -1
v 2 22 -1
v -4 23 6
v -3 23 6
v 0 23 6
v 1 23 6
v -5 23 5
v -4 23 5
v -3 23 5
v -2 23 5
v -1 23 5
v 0 23 5
v 1 23 5
v 2 23 5
v -5 23 -0
v -4 23 -0
v 1 23 -0
v 2 23 -0
v -4 23 -1
v 1 23 -1
v -4 24 5
v -2 24 5
v -1 24 5
v 1 24 5
v -2 24 4
v -1 24 4
v -4 24 -0
v 1 24 -0

# faces
f 3/7/1 2/7/1 1/7/1
f 4/7/1 2/7/1 3/7/1
f 8/6/1 6/6/1 5/6/1
f 9/6/1 6/6/1 8/6/1
f 10/2/1 8/2/1 7/2/1
f 10/2/1 9/2/1 8/2/1
f 11/2/1 9/2/1 10/2/1
f 12/6/1 6/6/1 9/6/1
f 12/2/1 9/2/1 11/2/1
f 13/6/1 6/6/1 12/6/1
f 14/6/1 6/6/1 13/6/1
f 15/2/1 10/2/1 7/2/1
f 16/2/1 10/2/1 15/2/1
f 17/6/1 13/6/1 12/6/1
f 17/6/1 12/6/1 11/6/1
f 18/6/1 13/6/1 17/6/1
f 24/2/1 20/2/1 19/2/1
f 25/6/1 21/6/1 20/6/1
f 28/6/1 23/6/1 22/6/1
f 29/2/1 24/2/1 23/2/1
f 29/6/1 23/6/1 28/6/1
f 30/6/1 25/6/1 20/6/1
f 30/2/1 24/2/1 29/2/1
f 30/6/1 26/6/1 25/6/1
f 30/2/1 20/2/1 24/2/1
f 32/6/1 29/6/1 28/6/1
f 32/6/1 28/6/1 27/6/1
f 32/6/1 30/6/1 29/6/1
f 33/6/1 30/6/1 32/6/1
f 34/6/1 26/6/1 30/6/1
f 34/6/1 30/6/1 33/6/1
f 35/6/1 26/6/1 34/6/1
f 36/7/1 33/7/1 32/7/1
f 36/7/1 32/7/1 31/7/1
f 37/7/1 33/7/1 36/7/1
f 38/7/1 33/7/1 37/7/1
f 39/7/1 35/7/1 34/7/1
f 40/7/1 35/7/1 39/7/1
f 41/7/1 35/7/1 40/7/1
f 42/7/1 38/7/1 37/7/1
f 42/7/1 40/7/1 39/7/1
f 42/7/1 39/7/1 38/7/1
f 43/7/1 40/7/1 42/7/1
f 46/7/1 45/7/1 44/7/1
f 47/7/1 45/7/1 46/7/1
f 48/7/1 45/7/1 47/7/1
f 50/6/1 49/6/1 48/6/1
f 50/6/1 48/6/1 47/6/1
f 51/6/1 49/6/1 50/6/1
f 52/6/1 49/6/1 51/6/1
f 55/6/1 53/6/1 52/6/1
f 55/6/1 52/6/1 51/6/1
f 56/6/1 53/6/1 55/6/1
f 58/7/1 55/7/1 54/7/1
f 58/7/1 57/7/1 56/7/1
f 58/7/1 56/7/1 55/7/1
f 59/7/1 57/7/1 58/7/1
f 60/6/1 59/6/1 58/6/1
f 61/6/1 59/6/1 60/6/1
f 62/6/1 60/6/1 58/6/1
f 63/6/1 60/6/1 62/6/1
f 68/6/1 65/6/1 64/6/1
f 69/6/1 65/6/1 68/6/1
f 70/6/1 67/6/1 66/6/1
f 71/6/1 67/6/1 70/6/1
f 75/2/1 73/2/1 72/2/1
f 75/6/1 74/6/1 73/6/1
f 76/6/1 74/6/1 75/6/1
f 77/6/1 74/6/1 76/6/1
f 78/6/1 74/6/1 77/6/1
f 80/2/1 75/2/1 72/2/1
f 80/2/1 76/2/1 75/2/1
f 81/2/1 76/2/1 80/2/1
f 82/2/1 76/2/1 81/2/1
f 83/6/1 79/6/1 78/6/1
f 84/6/1 79/6/1 83/6/1
f 85/2/1 80/2/1 72/2/1
f 86/2/1 80/2/1 85/2/1
f 89/7/1 88/7/1 87/7/1
f 90/7/1 88/7/1 89/7/1
f 95/7/1 92/7/1 91/7/1
f 96/7/1 92/7/1 95/7/1
f 97/7/1 94/7/1 93/7/1
f 98/7/1 94/7/1 97/7/1
f 99/7/1 97/7/1 96/7/1
f 100/7/1 97/7/1 99/7/1
f 103/2/1 102/2/1 101/2/1
f 104/2/1 102/2/1 103/2/1
f 107/6/1 106/6/1 105/6/1
f 108/6/1 106/6/1 107/6/1
f 111/7/1 110/7/1 109/7/1
f 112/7/1 110/7/1 111/7/1
f 113/7/1 110/7/1 112/7/1
f 115/6/1 113/6/1 112/6/1
f 116/6/1 113/6/1 115/6/1
f 117/6/1 113/6/1 116/6/1
f 118/6/1 115/6/1 114/6/1
f 118/6/1 116/6/1 115/6/1
f 119/6/1 116/6/1 118/6/1
f 121/6/1 120/6/1 119/6/1
f 122/6/1 120/6/1 121/6/1
f 125/2/1 124/2/1 123/2/1
f 126/2/1 124/2/1 125/2/1
f 127/2/2 128/2/2 129/2/2
f 129/2/2 128/2/2 130/2/2
f 131/7/2 132/7/2 133/7/2
f 133/7/2 132/7/2 134/7/2
f 134/7/2 132/7/2 135/7/2
f 135/6/2 136/6/2 137/6/2
f 134/6/2 135/6/2 137/6/2
f 137/6/2 136/6/2 138/6/2
f 138/6/2 136/6/2 139/6/2
f 140/2/2 141/2/2 142/2/2
f 142/2/2 141/2/2 143/2/2
f 144/6/2 145/6/2 146/6/2
f 146/6/2 145/6/2 147/6/2
f 148/7/2 149/7/2 150/7/2
f 150/7/2 149/7/2 151/7/2
f 151/7/2 149/7/2 152/7/2
f 151/6/2 152/6/2 154/6/2
f 154/6/2 152/6/2 155/6/2
f 155/6/2 152/6/2 156/6/2
f 153/6/2 154/6/2 158/6/2
f 154/6/2 155/6/2 158/6/2
f 158/6/2 155/6/2 159/6/2
f 157/6/2 158/6/2 162/6/2
f 159/6/2 160/6/2 162/6/2
f 158/6/2 159/6/2 162/6/2
f 162/6/2 160/6/2 163/6/2
f 161/7/2 162/7/2 164/7/2
f 162/7/2 163/7/2 164/7/2
f 164/7/2 163/7/2 165/7/2
f 164/6/2 165/6/2 166/6/2
f 166/6/2 165/6/2 167/6/2
f 164/6/2 166/6/2 168/6/2
f 168/6/2 166/6/2 169/6/2
f 170/6/2 171/6/2 174/6/2
f 174/6/2 171/6/2 175/6/2
f 172/6/2 173/6/2 176/6/2
f 176/6/2 173/6/2 177/6/2
f 178/2/2 179/2/2 181/2/2
f 179/6/2 180/6/2 181/6/2
f 181/6/2 180/6/2 182/6/2
f 182/6/2 180/6/2 183/6/2
f 183/6/2 180/6/2 184/6/2
f 181/2/2 182/2/2 186/2/2
f 178/2/2 181/2/2 186/2/2
f 186/2/2 182/2/2 187/2/2
f 187/2/2 182/2/2 188/2/2
f 184/6/2 185/6/2 189/6/2
f 189/6/2 185/6/2 190/6/2
f 178/2/2 186/2/2 191/2/2
f 191/2/2 186/2/2 192/2/2
f 193/7/2 194/7/2 195/7/2
f 195/7/2 194/7/2 196/7/2
f 197/7/2 198/7/2 201/7/2
f 201/7/2 198/7/2 202/7/2
f 199/7/2 200/7/2 203/7/2
f 203/7/2 200/7/2 204/7/2
f 202/7/2 203/7/2 205/7/2
f 205/7/2 203/7/2 206/7/2
f 207/6/2 208/6/2 210/6/2
f 210/6/2 208/6/2 211/6/2
f 209/2/2 210/2/2 212/2/2
f 210/2/2 211/2/2 212/2/2
f 212/2/2 211/2/2 213/2/2
f 211/6/2 208/6/2 214/6/2
f 213/2/2 211/2/2 214/2/2
f 214/6/2 208/6/2 215/6/2
f 215/6/2 208/6/2 216/6/2
f 209/2/2 212/2/2 217/2/2
f 217/2/2 212/2/2 218/2/2
f 214/6/2 215/6/2 219/6/2
f 213/6/2 214/6/2 219/6/2
f 219/6/2 215/6/2 220/6/2
f 221/2/2 222/2/2 226/2/2
f 222/6/2 223/6/2 227/6/2
f 224/6/2 225/6/2 230/6/2
f 225/2/2 226/2/2 231/2/2
f 230/6/2 225/6/2 231/6/2
f 222/6/2 227/6/2 232/6/2
f 231/2/2 226/2/2 232/2/2
f 227/6/2 228/6/2 232/6/2
f 226/2/2 222/2/2 232/2/2
f 230/6/2 231/6/2 234/6/2
f 229/6/2 230/6/2 234/6/2
f 231/6/2 232/6/2 234/6/2
f 234/6/2 232/6/2 235/6/2
f 232/6/2 228/6/2 236/6/2
f 235/6/2 232/6/2 236/6/2
f 236/6/2 228/6/2 237/6/2
f 234/7/2 235/7/2 238/7/2
f 233/7/2 234/7/2 238/7/2
f 238/7/2 235/7/2 239/7/2
f 239/7/2 235/7/2 240/7/2
f 236/7/2 237/7/2 241/7/2
f 241/7/2 237/7/2 242/7/2
f 242/7/2 237/7/2 243/7/2
f 239/7/2 240/7/2 244/7/2
f 241/7/2 242/7/2 244/7/2
f 240/7/2 241/7/2 244/7/2
f 244/7/2 242/7/2 245/7/2
f 246/7/2 247/7/2 248/7/2
f 248/7/2 247/7/2 249/7/2
f 252/7/3 251/7/3 250/7/3
f 253/7/3 251/7/3 252/7/3
f 256/7/3 255/7/3 254/7/3
f 257/7/3 255/7/3 256/7/3
f 260/7/3 259/7/3 258/7/3
f 261/7/3 259/7/3 260/7/3
f 268/2/3 263/2/3 262/2/3
f 269/2/3 263/2/3 268/2/3
f 271/6/3 265/6/3 264/6/3
f 274/2/3 271/2/3 270/2/3
f 275/6/3 265/6/3 271/6/3
f 275/2/3 271/2/3 274/2/3
f 276/6/3 265/6/3 275/6/3
f 277/7/3 273/7/3 272/7/3
f 278/7/3 273/7/3 277/7/3
f 279/7/3 267/7/3 266/7/3
f 280/7/3 267/7/3 279/7/3
f 281/2/3 274/2/3 270/2/3
f 281/6/3 275/6/3 274/6/3
f 282/2/3 276/2/3 275/2/3
f 282/6/3 275/6/3 281/6/3
f 283/2/3 281/2/3 270/2/3
f 283/2/3 282/2/3 281/2/3
f 284/2/3 276/2/3 282/2/3
f 284/2/3 282/2/3 283/2/3
f 285/2/3 283/2/3 270/2/3
f 285/6/3 284/6/3 283/6/3
f 286/2/3 276/2/3 284/2/3
f 286/6/3 284/6/3 285/6/3
f 287/2/3 276/2/3 286/2/3
f 288/3/3 278/3/3 277/3/3
f 289/3/3 278/3/3 288/3/3
f 292/2/3 285/2/3 270/2/3
f 292/2/3 286/2/3 285/2/3
f 293/6/3 287/6/3 286/6/3
f 293/2/3 286/2/3 292/2/3
f 294/7/3 289/7/3 288/7/3
f 295/7/3 289/7/3 294/7/3
f 296/2/3 291/2/3 290/2/3
f 297/2/3 291/2/3 296/2/3
f 298/6/3 287/6/3 293/6/3
f 299/6/3 287/6/3 298/6/3
f 310/6/3 301/6/3 300/6/3
f 311/6/3 301/6/3 310/6/3
f 312/7/3 303/7/3 302/7/3
f 313/7/3 303/7/3 312/7/3
f 315/7/3 314/7/3 313/7/3
f 316/6/3 305/6/3 304/6/3
f 317/6/3 305/6/3 316/6/3
f 318/6/3 309/6/3 308/6/3
f 318/7/3 307/7/3 306/7/3
f 318/6/3 308/6/3 307/6/3
f 319/6/3 309/6/3 318/6/3
f 320/6/3 309/6/3 319/6/3
f 321/7/3 314/7/3 315/7/3
f 322/7/3 314/7/3 321/7/3
f 323/7/3 318/7/3 306/7/3
f 323/1/3 319/1/3 318/1/3
f 324/7/3 320/7/3 319/7/3
f 324/1/3 319/1/3 323/1/3
f 325/7/3 320/7/3 324/7/3
f 326/3/3 322/3/3 321/3/3
f 327/3/3 322/3/3 326/3/3
f 328/7/3 327/7/3 326/7/3
f 329/7/3 323/7/3 306/7/3
f 330/6/3 325/6/3 324/6/3
f 330/7/3 323/7/3 329/7/3
f 330/6/3 324/6/3 323/6/3
f 331/6/3 325/6/3 330/6/3
f 332/6/3 325/6/3 331/6/3
f 336/7/3 327/7/3 328/7/3
f 337/7/3 327/7/3 336/7/3
f 338/6/3 334/6/3 333/6/3
f 339/6/3 334/6/3 338/6/3
f 340/7/3 336/7/3 335/7/3
f 341/7/3 336/7/3 340/7/3
f 348/7/3 343/7/3 342/7/3
f 349/7/3 343/7/3 348/7/3
f 352/6/3 345/6/3 344/6/3
f 353/6/3 345/6/3 352/6/3
f 354/6/3 347/6/3 346/6/3
f 355/6/3 347/6/3 354/6/3
f 358/6/3 351/6/3 350/6/3
f 359/2/3 357/2/3 356/2/3
f 360/2/3 357/2/3 359/2/3
f 361/2/3 357/2/3 360/2/3
f 362/2/3 357/2/3 361/2/3
f 363/6/3 351/6/3 358/6/3
f 364/6/3 351/6/3 363/6/3
f 369/6/3 366/6/3 365/6/3
f 370/6/3 366/6/3 369/6/3
f 371/6/3 368/6/3 367/6/3
f 372/6/3 368/6/3 371/6/3
f 375/7/3 374/7/3 373/7/3
f 376/7/3 374/7/3 375/7/3
f 379/2/3 378/2/3 377/2/3
f 380/2/3 378/2/3 379/2/3
f 385/7/3 382/7/3 381/7/3
f 386/7/3 382/7/3 385/7/3
f 387/6/3 384/6/3 383/6/3
f 388/6/3 384/6/3 387/6/3
f 391/2/3 390/2/3 389/2/3
f 392/2/3 390/2/3 391/2/3
f 395/6/3 394/6/3 393/6/3
f 396/6/3 394/6/3 395/6/3
f 397/2/4 398/2/4 399/2/4
f 399/2/4 398/2/4 400/2/4
f 401/2/4 402/2/4 403/2/4
f 403/2/4 402/2/4 404/2/4
f 405/7/4 406/7/4 407/7/4
f 407/7/4 406/7/4 408/7/4
f 409/6/4 410/6/4 411/6/4
f 411/6/4 410/6/4 412/6/4
f 413/7/4 414/7/4 417/7/4
f 417/7/4 414/7/4 418/7/4
f 415/6/4 416/6/4 421/6/4
f 421/6/4 416/6/4 422/6/4
f 419/6/4 420/6/4 426/6/4
f 426/6/4 420/6/4 427/6/4
f 423/2/4 424/2/4 428/2/4
f 428/2/4 424/2/4 429/2/4
f 425/6/4 426/6/4 430/6/4
f 430/6/4 426/6/4 431/6/4
f 432/6/4 433/6/4 434/6/4
f 434/6/4 433/6/4 435/6/4
f 436/7/4 437/7/4 438/7/4
f 438/7/4 437/7/4 439/7/4
f 440/6/4 441/6/4 448/6/4
f 448/6/4 441/6/4 449/6/4
f 442/6/4 443/6/4 452/6/4
f 452/6/4 443/6/4 453/6/4
f 444/7/4 445/7/4 454/7/4
f 454/7/4 445/7/4 455/7/4
f 451/6/4 452/6/4 457/6/4
f 457/6/4 452/6/4 458/6/4
f 446/7/4 447/7/4 463/7/4
f 459/7/4 460/7/4 466/7/4
f 460/6/4 461/6/4 467/6/4
f 466/7/4 460/7/4 467/7/4
f 467/6/4 461/6/4 468/6/4
f 462/6/4 463/6/4 469/6/4
f 463/7/4 447/7/4 470/7/4
f 469/6/4 463/6/4 470/6/4
f 449/6/4 450/6/4 471/6/4
f 470/7/4 447/7/4 471/7/4
f 447/6/4 448/6/4 471/6/4
f 448/6/4 449/6/4 471/6/4
f 471/6/4 450/6/4 472/6/4
f 472/6/4 450/6/4 473/6/4
f 473/6/4 450/6/4 474/6/4
f 464/6/4 465/6/4 475/6/4
f 475/6/4 465/6/4 476/6/4
f 455/7/4 456/7/4 479/7/4
f 479/7/4 456/7/4 480/7/4
f 472/6/4 473/6/4 481/6/4
f 481/6/4 473/6/4 482/6/4
f 476/6/4 477/6/4 483/6/4
f 483/6/4 477/6/4 484/6/4
f 478/7/4 479/7/4 485/7/4
f 485/7/4 479/7/4 486/7/4
f 487/6/4 488/6/4 491/6/4
f 488/7/4 489/7/4 492/7/4
f 490/6/4 491/6/4 495/6/4
f 494/6/4 495/6/4 496/6/4
f 495/6/4 491/6/4 497/6/4
f 496/6/4 495/6/4 497/6/4
f 497/6/4 491/6/4 498/6/4
f 491/6/4 488/6/4 499/6/4
f 498/6/4 491/6/4 499/6/4
f 492/7/4 493/7/4 500/7/4
f 488/7/4 492/7/4 500/7/4
f 500/7/4 493/7/4 501/7/4
f 499/6/4 488/6/4 502/6/4
f 488/7/4 500/7/4 503/7/4
f 502/6/4 488/6/4 503/6/4
f 503/7/4 500/7/4 504/7/4
f 507/7/5 506/7/5 505/7/5
f 508/7/5 506/7/5 507/7/5
f 511/7/5 510/7/5 509/7/5
f 512/7/5 510/7/5 511/7/5
f 517/6/5 514/6/5 513/6/5
f 518/6/5 514/6/5 517/6/5
f 519/6/5 516/6/5 515/6/5
f 520/6/5 516/6/5 519/6/5
f 523/6/5 522/6/5 521/6/5
f 524/6/5 522/6/5 523/6/5
f 526/6/5 523/6/5 521/6/5
f 527/6/5 526/6/5 525/6/5
f 528/6/5 523/6/5 526/6/5
f 528/6/5 526/6/5 527/6/5
f 530/6/5 529/6/5 528/6/5
f 531/6/5 529/6/5 530/6/5
f 534/7/5 533/7/5 532/7/5
f 535/7/5 533/7/5 534/7/5
f 538/7/5 537/7/5 536/7/5
f 539/7/5 537/7/5 538/7/5
f 544/6/5 541/6/5 540/6/5
f 545/6/5 541/6/5 544/6/5
f 546/6/5 543/6/5 542/6/5
f 547/6/5 543/6/5 546/6/5
f 552/2/5 549/2/5 548/2/5
f 553/2/5 551/2/5 550/2/5
f 554/2/5 552/2/5 548/2/5
f 555/2/5 552/2/5 554/2/5
f 556/2/5 551/2/5 553/2/5
f 557/2/5 551/2/5 556/2/5
f 560/2/5 559/2/5 558/2/5
f 561/2/5 559/2/5 560/2/5
f 562/2/5 559/2/5 561/2/5
f 563/2/5 559/2/5 562/2/5
f 564/6/5 561/6/5 560/6/5
f 565/6/5 563/6/5 562/6/5
f 566/6/5 564/6/5 560/6/5
f 566/6/5 565/6/5 564/6/5
f 567/6/5 565/6/5 566/6/5
f 568/6/5 563/6/5 565/6/5
f 568/6/5 565/6/5 567/6/5
f 569/6/5 563/6/5 568/6/5
f 570/6/5 568/6/5 567/6/5
f 571/6/5 568/6/5 570/6/5
f 576/2/5 573/2/5 572/2/5
f 577/2/5 573/2/5 576/2/5
f 578/2/5 575/2/5 574/2/5
f 579/2/5 575/2/5 578/2/5
f 580/6/5 577/6/5 576/6/5
f 581/6/5 577/6/5 580/6/5
f 584/6/5 579/6/5 578/6/5
f 585/6/5 579/6/5 584/6/5
f 586/6/5 582/6/5 581/6/5
f 587/6/5 582/6/5 586/6/5
f 588/6/5 584/6/5 583/6/5
f 589/6/5 584/6/5 588/6/5
f 594/6/5 591/6/5 590/6/5
f 595/6/5 591/6/5 594/6/5
f 596/6/5 593/6/5 592/6/5
f 597/6/5 593/6/5 596/6/5
f 598/2/5 595/2/5 594/2/5
f 599/2/5 595/2/5 598/2/5
f 600/2/5 597/2/5 596/2/5
f 601/2/5 597/2/5 600/2/5
f 606/6/5 603/6/5 602/6/5
f 607/6/5 603/6/5 606/6/5
f 608/6/5 605/6/5 604/6/5
f 609/6/5 605/6/5 608/6/5
f 614/6/5 611/6/5 610/6/5
f 615/6/5 611/6/5 614/6/5
f 616/6/5 613/6/5 612/6/5
f 617/6/5 613/6/5 616/6/5
f 621/7/5 619/7/5 618/7/5
f 622/7/5 619/7/5 621/7/5
f 624/7/5 621/7/5 620/7/5
f 624/7/5 623/7/5 622/7/5
f 624/7/5 622/7/5 621/7/5
f 625/7/5 623/7/5 624/7/5
f 626/7/5 623/7/5 625/7/5
f 627/7/5 623/7/5 626/7/5
f 632/7/5 629/7/5 628/7/5
f 633/7/5 629/7/5 632/7/5
f 634/7/5 631/7/5 630/7/5
f 635/7/5 631/7/5 634/7/5
f 636/7/6 637/7/6 638/7/6
f 638/7/6 637/7/6 639/7/6
f 640/7/6 641/7/6 642/7/6
f 642/7/6 641/7/6 643/7/6
f 644/6/6 645/6/6 646/6/6
f 646/6/6 645/6/6 647/6/6
f 648/6/6 649/6/6 650/6/6
f 650/6/6 649/6/6 651/6/6
f 652/2/6 653/2/6 656/2/6
f 656/2/6 653/2/6 657/2/6
f 654/2/6 655/2/6 658/2/6
f 658/2/6 655/2/6 659/2/6
f 660/6/6 661/6/6 664/6/6
f 664/6/6 661/6/6 665/6/6
f 662/6/6 663/6/6 666/6/6
f 666/6/6 663/6/6 667/6/6
f 668/2/6 669/2/6 672/2/6
f 672/2/6 669/2/6 673/2/6
f 670/2/6 671/2/6 676/2/6
f 676/2/6 671/2/6 677/2/6
f 673/6/6 674/6/6 679/6/6
f 679/6/6 674/6/6 680/6/6
f 674/7/6 675/7/6 681/7/6
f 680/6/6 674/6/6 681/6/6
f 675/6/6 676/6/6 682/6/6
f 681/7/6 675/7/6 682/7/6
f 682/6/6 676/6/6 683/6/6
f 683/6/6 676/6/6 684/6/6
f 679/6/6 680/6/6 686/6/6
f 678/6/6 679/6/6 686/6/6
f 686/6/6 680/6/6 687/6/6
f 687/6/6 680/6/6 688/6/6
f 683/5/6 684/5/6 689/5/6
f 684/6/6 685/6/6 690/6/6
f 689/5/6 684/5/6 690/5/6
f 690/6/6 685/6/6 691/6/6
f 688/6/6 689/6/6 692/6/6
f 687/6/6 688/6/6 692/6/6
f 689/6/6 690/6/6 692/6/6
f 692/6/6 690/6/6 693/6/6
f 694/7/6 695/7/6 697/7/6
f 697/7/6 695/7/6 698/7/6
f 696/7/6 697/7/6 700/7/6
f 698/7/6 699/7/6 700/7/6
f 697/7/6 698/7/6 700/7/6
f 700/7/6 699/7/6 701/7/6
f 701/7/6 699/7/6 702/7/6
f 702/7/6 699/7/6 703/7/6
f 696/7/6 700/7/6 704/7/6
f 704/7/6 700/7/6 705/7/6
f 703/7/6 699/7/6 706/7/6
f 706/7/6 699/7/6 707/7/6
f 708/7/6 709/7/6 712/7/6
f 712/7/6 709/7/6 713/7/6
f 710/7/6 711/7/6 714/7/6
f 714/7/6 711/7/6 715/7/6
f 716/7/6 717/7/6 720/7/6
f 720/7/6 717/7/6 721/7/6
f 718/7/6 719/7/6 722/7/6
f 722/7/6 719/7/6 723/7/6
f 724/7/6 725/7/6 729/7/6
f 725/3/6 726/3/6 730/3/6
f 729/7/6 725/7/6 730/7/6
f 730/3/6 726/3/6 731/3/6
f 731/3/6 726/3/6 732/3/6
f 726/7/6 727/7/6 733/7/6
f 732/3/6 726/3/6 733/3/6
f 733/7/6 727/7/6 734/7/6
f 728/7/6 729/7/6 736/7/6
f 736/7/6 729/7/6 737/7/6
f 734/7/6 735/7/6 738/7/6
f 738/7/6 735/7/6 739/7/6
f 737/7/6 738/7/6 740/7/6
f 740/7/6 738/7/6 741/7/6
f 742/7/6 743/7/6 746/7/6
f 743/3/6 744/3/6 746/3/6
f 744/7/6 745/7/6 747/7/6
f 746/3/6 744/3/6 747/3/6
f 742/7/6 746/7/6 748/7/6
f 746/7/6 747/7/6 748/7/6
f 747/7/6 745/7/6 749/7/6
f 748/7/6 747/7/6 749/7/6
