# MagicaVoxel @ Ephtracy

# group
g smart phone

# material
mtllib smart phone.mtl
usemtl palette

# normals
vn -1 0 0
vn 1 0 0
vn 0 0 1
vn 0 0 -1
vn 0 -1 0
vn 0 1 0

# texcoords
vt 0.958984 0.5
vt 0.994141 0.5

# verts
v -10 0 7
v -10 0 -1
v -10 1 7
v -10 1 4
v -10 1 3
v -10 1 -1
v -10 2 4
v -10 2 3
v -9 0 -1
v -9 0 -7
v -9 1 5
v -9 1 4
v -9 1 3
v -9 1 1
v -9 1 -1
v -9 1 -7
v -9 2 5
v -9 2 4
v -9 2 3
v -9 2 1
v -8 0 7
v -8 0 6
v -8 0 -7
v -8 0 -8
v -8 1 7
v -8 1 6
v -8 1 -7
v -8 1 -8
v -7 0 8
v -7 0 7
v -7 1 8
v -7 1 7
v -6 0 2
v -6 0 -3
v -6 1 2
v -6 1 -3
v -5 1 6
v -5 1 5
v -5 1 4
v -5 1 1
v -5 1 -2
v -5 1 -5
v -5 1 -6
v -5 1 -7
v -5 2 6
v -5 2 5
v -5 2 4
v -5 2 1
v -5 2 -2
v -5 2 -5
v -5 2 -6
v -5 2 -7
v -4 1 -0
v -4 1 -1
v -4 2 -0
v -4 2 -1
v -3 1 -2
v -3 1 -4
v -3 2 -2
v -3 2 -4
v -2 1 -0
v -2 1 -1
v -2 2 -0
v -2 2 -1
v -1 1 -3
v -1 1 -5
v -1 2 -3
v -1 2 -5
v 2 1 7
v 2 1 5
v 2 1 4
v 2 1 2
v 2 1 1
v 2 1 -1
v 2 1 -2
v 2 1 -4
v 2 1 -5
v 2 1 -7
v 2 2 7
v 2 2 5
v 2 2 4
v 2 2 2
v 2 2 1
v 2 2 -1
v 2 2 -2
v 2 2 -4
v 2 2 -5
v 2 2 -7
v 4 1 -7
v 4 1 -8
v 4 2 -7
v 4 2 -8
v 5 1 1
v 5 1 -0
v 5 2 1
v 5 2 -0
v 6 1 2
v 6 1 1
v 6 1 -0
v 6 1 -1
v 6 2 2
v 6 2 1
v 6 2 -0
v 6 2 -1
v -9 0 7
v -9 0 6
v -9 1 7
v -9 1 6
v -9 1 4
v -9 1 3
v -9 2 4
v -9 2 3
v -8 0 2
v -8 0 -3
v -8 1 5
v -8 1 4
v -8 1 1
v -8 1 -3
v -8 2 5
v -8 2 4
v -8 2 2
v -8 2 1
v -7 1 3
v -7 1 2
v -7 2 3
v -7 2 2
v -4 1 4
v -4 1 2
v -4 1 -2
v -4 1 -4
v -4 2 4
v -4 2 2
v -4 2 -2
v -4 2 -4
v -3 1 -0
v -3 1 -1
v -3 2 -0
v -3 2 -1
v -2 1 -3
v -2 1 -5
v -2 2 -3
v -2 2 -5
v -1 1 -0
v -1 1 -1
v -1 2 -0
v -1 2 -1
v 0 1 6
v 0 1 5
v 0 1 2
v 0 1 1
v 0 1 -2
v 0 1 -5
v 0 1 -6
v 0 1 -7
v 0 2 6
v 0 2 5
v 0 2 2
v 0 2 1
v 0 2 -2
v 0 2 -5
v 0 2 -6
v 0 2 -7
v 4 1 7
v 4 1 5
v 4 1 4
v 4 1 2
v 4 1 1
v 4 1 -1
v 4 1 -2
v 4 1 -4
v 4 1 -5
v 4 1 -7
v 4 2 7
v 4 2 5
v 4 2 4
v 4 2 2
v 4 2 1
v 4 2 -1
v 4 2 -2
v 4 2 -4
v 4 2 -5
v 4 2 -7
v 5 1 -7
v 5 1 -8
v 5 2 -7
v 5 2 -8
v 7 0 -7
v 7 0 -8
v 7 1 2
v 7 1 1
v 7 1 -0
v 7 1 -1
v 7 1 -7
v 7 1 -8
v 7 2 2
v 7 2 1
v 7 2 -0
v 7 2 -1
v 8 0 8
v 8 0 7
v 8 0 -6
v 8 0 -7
v 8 1 8
v 8 1 7
v 8 1 1
v 8 1 -0
v 8 1 -6
v 8 1 -7
v 8 2 1
v 8 2 -0
v 9 0 7
v 9 0 3
v 9 0 1
v 9 0 -6
v 9 1 7
v 9 1 3
v 9 1 1
v 9 1 -6
v 10 0 3
v 10 0 1
v 10 1 3
v 10 1 1
v -7 0 8
v -7 1 8
v 8 0 8
v 8 1 8
v -10 0 7
v -10 1 7
v -9 0 7
v -9 1 7
v -8 0 7
v -8 1 7
v -7 0 7
v -7 1 7
v 2 1 7
v 2 2 7
v 4 1 7
v 4 2 7
v 8 0 7
v 8 1 7
v 9 0 7
v 9 1 7
v -9 0 6
v -9 1 6
v -8 0 6
v -8 1 6
v -5 1 6
v -5 2 6
v 0 1 6
v 0 2 6
v -9 1 5
v -9 2 5
v -8 1 5
v -8 2 5
v -10 1 4
v -10 2 4
v -9 1 4
v -9 2 4
v -5 1 4
v -5 2 4
v -4 1 4
v -4 2 4
v 2 1 4
v 2 2 4
v 4 1 4
v 4 2 4
v -9 1 3
v -9 2 3
v -7 1 3
v -7 2 3
v 9 0 3
v 9 1 3
v 10 0 3
v 10 1 3
v -4 1 2
v -4 2 2
v 0 1 2
v 0 2 2
v 6 1 2
v 6 2 2
v 7 1 2
v 7 2 2
v 2 1 1
v 2 2 1
v 4 1 1
v 4 2 1
v 5 1 1
v 5 2 1
v 6 1 1
v 6 2 1
v 7 1 1
v 7 2 1
v 8 1 1
v 8 2 1
v -4 1 -0
v -4 2 -0
v -3 1 -0
v -3 2 -0
v -2 1 -0
v -2 2 -0
v -1 1 -0
v -1 2 -0
v -5 1 -2
v -5 2 -2
v -4 1 -2
v -4 2 -2
v -3 1 -2
v -3 2 -2
v 0 1 -2
v 0 2 -2
v 2 1 -2
v 2 2 -2
v 4 1 -2
v 4 2 -2
v -8 0 -3
v -8 1 -3
v -6 0 -3
v -6 1 -3
v -4 1 -4
v -4 2 -4
v -3 1 -4
v -3 2 -4
v 2 1 -5
v 2 2 -5
v 4 1 -5
v 4 2 -5
v -5 1 -6
v -5 2 -6
v 0 1 -6
v 0 2 -6
v 4 1 -7
v 4 2 -7
v 5 1 -7
v 5 2 -7
v -5 1 5
v -5 2 5
v 0 1 5
v 0 2 5
v 2 1 5
v 2 2 5
v 4 1 5
v 4 2 5
v -9 1 4
v -9 2 4
v -8 1 4
v -8 2 4
v -10 1 3
v -10 2 3
v -9 1 3
v -9 2 3
v -8 0 2
v -8 2 2
v -7 1 2
v -7 2 2
v -6 0 2
v -6 1 2
v 2 1 2
v 2 2 2
v 4 1 2
v 4 2 2
v -9 1 1
v -9 2 1
v -8 1 1
v -8 2 1
v -5 1 1
v -5 2 1
v 0 1 1
v 0 2 1
v 9 0 1
v 9 1 1
v 10 0 1
v 10 1 1
v 5 1 -0
v 5 2 -0
v 6 1 -0
v 6 2 -0
v 7 1 -0
v 7 2 -0
v 8 1 -0
v 8 2 -0
v -10 0 -1
v -10 1 -1
v -9 0 -1
v -9 1 -1
v -4 1 -1
v -4 2 -1
v -3 1 -1
v -3 2 -1
v -2 1 -1
v -2 2 -1
v -1 1 -1
v -1 2 -1
v 2 1 -1
v 2 2 -1
v 4 1 -1
v 4 2 -1
v 6 1 -1
v 6 2 -1
v 7 1 -1
v 7 2 -1
v -2 1 -3
v -2 2 -3
v -1 1 -3
v -1 2 -3
v 2 1 -4
v 2 2 -4
v 4 1 -4
v 4 2 -4
v -5 1 -5
v -5 2 -5
v -2 1 -5
v -2 2 -5
v -1 1 -5
v -1 2 -5
v 0 1 -5
v 0 2 -5
v 8 0 -6
v 8 1 -6
v 9 0 -6
v 9 1 -6
v -9 0 -7
v -9 1 -7
v -8 0 -7
v -8 1 -7
v -5 1 -7
v -5 2 -7
v 0 1 -7
v 0 2 -7
v 2 1 -7
v 2 2 -7
v 4 1 -7
v 4 2 -7
v 7 0 -7
v 7 1 -7
v 8 0 -7
v 8 1 -7
v -8 0 -8
v -8 1 -8
v 4 1 -8
v 4 2 -8
v 5 1 -8
v 5 2 -8
v 7 0 -8
v 7 1 -8
v -7 0 8
v 8 0 8
v -10 0 7
v -9 0 7
v -8 0 7
v -7 0 7
v 8 0 7
v 9 0 7
v -9 0 6
v -8 0 6
v 9 0 3
v 10 0 3
v -8 0 2
v -6 0 2
v 9 0 1
v 10 0 1
v -10 0 -1
v -9 0 -1
v -8 0 -3
v -6 0 -3
v 8 0 -6
v 9 0 -6
v -9 0 -7
v -8 0 -7
v 7 0 -7
v 8 0 -7
v -8 0 -8
v 7 0 -8
v -7 1 8
v 8 1 8
v -10 1 7
v -9 1 7
v -8 1 7
v -7 1 7
v 2 1 7
v 4 1 7
v 8 1 7
v 9 1 7
v -9 1 6
v -8 1 6
v -5 1 6
v 0 1 6
v -9 1 5
v -8 1 5
v -5 1 5
v 0 1 5
v 2 1 5
v 4 1 5
v -10 1 4
v -9 1 4
v -8 1 4
v -5 1 4
v -4 1 4
v 2 1 4
v 4 1 4
v -10 1 3
v -9 1 3
v -7 1 3
v 9 1 3
v 10 1 3
v -7 1 2
v -6 1 2
v -4 1 2
v 0 1 2
v 2 1 2
v 4 1 2
v 6 1 2
v 7 1 2
v -9 1 1
v -8 1 1
v -5 1 1
v 0 1 1
v 2 1 1
v 4 1 1
v 5 1 1
v 6 1 1
v 7 1 1
v 8 1 1
v 9 1 1
v 10 1 1
v -4 1 -0
v -3 1 -0
v -2 1 -0
v -1 1 -0
v 5 1 -0
v 6 1 -0
v 7 1 -0
v 8 1 -0
v -10 1 -1
v -9 1 -1
v -4 1 -1
v -3 1 -1
v -2 1 -1
v -1 1 -1
v 2 1 -1
v 4 1 -1
v 6 1 -1
v 7 1 -1
v -5 1 -2
v -4 1 -2
v -3 1 -2
v 0 1 -2
v 2 1 -2
v 4 1 -2
v -8 1 -3
v -6 1 -3
v -2 1 -3
v -1 1 -3
v -4 1 -4
v -3 1 -4
v 2 1 -4
v 4 1 -4
v -5 1 -5
v -2 1 -5
v -1 1 -5
v 0 1 -5
v 2 1 -5
v 4 1 -5
v -5 1 -6
v 0 1 -6
v 8 1 -6
v 9 1 -6
v -9 1 -7
v -8 1 -7
v -5 1 -7
v 0 1 -7
v 2 1 -7
v 4 1 -7
v 5 1 -7
v 7 1 -7
v 8 1 -7
v -8 1 -8
v 4 1 -8
v 5 1 -8
v 7 1 -8
v 2 2 7
v 4 2 7
v -5 2 6
v 0 2 6
v -9 2 5
v -8 2 5
v -5 2 5
v 0 2 5
v 2 2 5
v 4 2 5
v -10 2 4
v -9 2 4
v -8 2 4
v -5 2 4
v -4 2 4
v 2 2 4
v 4 2 4
v -10 2 3
v -9 2 3
v -7 2 3
v -8 2 2
v -7 2 2
v -4 2 2
v 0 2 2
v 2 2 2
v 4 2 2
v 6 2 2
v 7 2 2
v -9 2 1
v -8 2 1
v -5 2 1
v 0 2 1
v 2 2 1
v 4 2 1
v 5 2 1
v 6 2 1
v 7 2 1
v 8 2 1
v -4 2 -0
v -3 2 -0
v -2 2 -0
v -1 2 -0
v 5 2 -0
v 6 2 -0
v 7 2 -0
v 8 2 -0
v -4 2 -1
v -3 2 -1
v -2 2 -1
v -1 2 -1
v 2 2 -1
v 4 2 -1
v 6 2 -1
v 7 2 -1
v -5 2 -2
v -4 2 -2
v -3 2 -2
v 0 2 -2
v 2 2 -2
v 4 2 -2
v -2 2 -3
v -1 2 -3
v -4 2 -4
v -3 2 -4
v 2 2 -4
v 4 2 -4
v -5 2 -5
v -2 2 -5
v -1 2 -5
v 0 2 -5
v 2 2 -5
v 4 2 -5
v -5 2 -6
v 0 2 -6
v -5 2 -7
v 0 2 -7
v 2 2 -7
v 4 2 -7
v 5 2 -7
v 4 2 -8
v 5 2 -8

# faces
f 3/2/1 2/2/1 1/2/1
f 4/2/1 2/2/1 3/2/1
f 5/2/1 2/2/1 4/2/1
f 6/2/1 2/2/1 5/2/1
f 7/2/1 5/2/1 4/2/1
f 8/2/1 5/2/1 7/2/1
f 15/2/1 10/2/1 9/2/1
f 16/2/1 10/2/1 15/2/1
f 17/2/1 12/2/1 11/2/1
f 18/2/1 12/2/1 17/2/1
f 19/2/1 14/2/1 13/2/1
f 20/2/1 14/2/1 19/2/1
f 25/2/1 22/2/1 21/2/1
f 26/2/1 22/2/1 25/2/1
f 27/2/1 24/2/1 23/2/1
f 28/2/1 24/2/1 27/2/1
f 31/2/1 30/2/1 29/2/1
f 32/2/1 30/2/1 31/2/1
f 35/2/1 34/2/1 33/2/1
f 36/2/1 34/2/1 35/2/1
f 45/1/1 38/1/1 37/1/1
f 46/1/1 38/1/1 45/1/1
f 47/1/1 40/1/1 39/1/1
f 48/1/1 40/1/1 47/1/1
f 49/1/1 42/1/1 41/1/1
f 50/1/1 42/1/1 49/1/1
f 51/1/1 44/1/1 43/1/1
f 52/1/1 44/1/1 51/1/1
f 55/1/1 54/1/1 53/1/1
f 56/1/1 54/1/1 55/1/1
f 59/1/1 58/1/1 57/1/1
f 60/1/1 58/1/1 59/1/1
f 63/1/1 62/1/1 61/1/1
f 64/1/1 62/1/1 63/1/1
f 67/1/1 66/1/1 65/1/1
f 68/1/1 66/1/1 67/1/1
f 79/1/1 70/1/1 69/1/1
f 80/1/1 70/1/1 79/1/1
f 81/1/1 72/1/1 71/1/1
f 82/1/1 72/1/1 81/1/1
f 83/1/1 74/1/1 73/1/1
f 84/1/1 74/1/1 83/1/1
f 85/1/1 76/1/1 75/1/1
f 86/1/1 76/1/1 85/1/1
f 87/1/1 78/1/1 77/1/1
f 88/1/1 78/1/1 87/1/1
f 91/2/1 90/2/1 89/2/1
f 92/2/1 90/2/1 91/2/1
f 95/2/1 94/2/1 93/2/1
f 96/2/1 94/2/1 95/2/1
f 101/2/1 98/2/1 97/2/1
f 102/2/1 98/2/1 101/2/1
f 103/2/1 100/2/1 99/2/1
f 104/2/1 100/2/1 103/2/1
f 105/2/2 106/2/2 107/2/2
f 107/2/2 106/2/2 108/2/2
f 109/2/2 110/2/2 111/2/2
f 111/2/2 110/2/2 112/2/2
f 113/2/2 114/2/2 117/2/2
f 117/2/2 114/2/2 118/2/2
f 115/2/2 116/2/2 119/2/2
f 119/2/2 116/2/2 120/2/2
f 113/2/2 117/2/2 121/2/2
f 121/2/2 117/2/2 122/2/2
f 123/2/2 124/2/2 125/2/2
f 125/2/2 124/2/2 126/2/2
f 127/1/2 128/1/2 131/1/2
f 131/1/2 128/1/2 132/1/2
f 129/1/2 130/1/2 133/1/2
f 133/1/2 130/1/2 134/1/2
f 135/1/2 136/1/2 137/1/2
f 137/1/2 136/1/2 138/1/2
f 139/1/2 140/1/2 141/1/2
f 141/1/2 140/1/2 142/1/2
f 143/1/2 144/1/2 145/1/2
f 145/1/2 144/1/2 146/1/2
f 147/1/2 148/1/2 155/1/2
f 155/1/2 148/1/2 156/1/2
f 149/1/2 150/1/2 157/1/2
f 157/1/2 150/1/2 158/1/2
f 151/1/2 152/1/2 159/1/2
f 159/1/2 152/1/2 160/1/2
f 153/1/2 154/1/2 161/1/2
f 161/1/2 154/1/2 162/1/2
f 163/1/2 164/1/2 173/1/2
f 173/1/2 164/1/2 174/1/2
f 165/1/2 166/1/2 175/1/2
f 175/1/2 166/1/2 176/1/2
f 167/1/2 168/1/2 177/1/2
f 177/1/2 168/1/2 178/1/2
f 169/1/2 170/1/2 179/1/2
f 179/1/2 170/1/2 180/1/2
f 171/1/2 172/1/2 181/1/2
f 181/1/2 172/1/2 182/1/2
f 183/2/2 184/2/2 185/2/2
f 185/2/2 184/2/2 186/2/2
f 187/2/2 188/2/2 193/2/2
f 193/2/2 188/2/2 194/2/2
f 189/2/2 190/2/2 195/2/2
f 195/2/2 190/2/2 196/2/2
f 191/2/2 192/2/2 197/2/2
f 197/2/2 192/2/2 198/2/2
f 199/2/2 200/2/2 203/2/2
f 203/2/2 200/2/2 204/2/2
f 201/2/2 202/2/2 207/2/2
f 207/2/2 202/2/2 208/2/2
f 205/2/2 206/2/2 209/2/2
f 209/2/2 206/2/2 210/2/2
f 211/2/2 212/2/2 215/2/2
f 215/2/2 212/2/2 216/2/2
f 213/2/2 214/2/2 217/2/2
f 217/2/2 214/2/2 218/2/2
f 219/2/2 220/2/2 221/2/2
f 221/2/2 220/2/2 222/2/2
f 225/2/3 224/2/3 223/2/3
f 226/2/3 224/2/3 225/2/3
f 229/2/3 228/2/3 227/2/3
f 230/2/3 228/2/3 229/2/3
f 233/2/3 232/2/3 231/2/3
f 234/2/3 232/2/3 233/2/3
f 237/1/3 236/1/3 235/1/3
f 238/1/3 236/1/3 237/1/3
f 241/2/3 240/2/3 239/2/3
f 242/2/3 240/2/3 241/2/3
f 245/2/3 244/2/3 243/2/3
f 246/2/3 244/2/3 245/2/3
f 249/1/3 248/1/3 247/1/3
f 250/1/3 248/1/3 249/1/3
f 253/2/3 252/2/3 251/2/3
f 254/2/3 252/2/3 253/2/3
f 257/2/3 256/2/3 255/2/3
f 258/2/3 256/2/3 257/2/3
f 261/1/3 260/1/3 259/1/3
f 262/1/3 260/1/3 261/1/3
f 265/1/3 264/1/3 263/1/3
f 266/1/3 264/1/3 265/1/3
f 269/2/3 268/2/3 267/2/3
f 270/2/3 268/2/3 269/2/3
f 273/2/3 272/2/3 271/2/3
f 274/2/3 272/2/3 273/2/3
f 277/1/3 276/1/3 275/1/3
f 278/1/3 276/1/3 277/1/3
f 281/2/3 280/2/3 279/2/3
f 282/2/3 280/2/3 281/2/3
f 285/1/3 284/1/3 283/1/3
f 286/1/3 284/1/3 285/1/3
f 289/2/3 288/2/3 287/2/3
f 290/2/3 288/2/3 289/2/3
f 293/2/3 292/2/3 291/2/3
f 294/2/3 292/2/3 293/2/3
f 297/1/3 296/1/3 295/1/3
f 298/1/3 296/1/3 297/1/3
f 301/1/3 300/1/3 299/1/3
f 302/1/3 300/1/3 301/1/3
f 305/1/3 304/1/3 303/1/3
f 306/1/3 304/1/3 305/1/3
f 309/1/3 308/1/3 307/1/3
f 310/1/3 308/1/3 309/1/3
f 313/1/3 312/1/3 311/1/3
f 314/1/3 312/1/3 313/1/3
f 317/2/3 316/2/3 315/2/3
f 318/2/3 316/2/3 317/2/3
f 321/1/3 320/1/3 319/1/3
f 322/1/3 320/1/3 321/1/3
f 325/1/3 324/1/3 323/1/3
f 326/1/3 324/1/3 325/1/3
f 329/1/3 328/1/3 327/1/3
f 330/1/3 328/1/3 329/1/3
f 333/2/3 332/2/3 331/2/3
f 334/2/3 332/2/3 333/2/3
f 335/1/4 336/1/4 337/1/4
f 337/1/4 336/1/4 338/1/4
f 339/1/4 340/1/4 341/1/4
f 341/1/4 340/1/4 342/1/4
f 343/2/4 344/2/4 345/2/4
f 345/2/4 344/2/4 346/2/4
f 347/2/4 348/2/4 349/2/4
f 349/2/4 348/2/4 350/2/4
f 351/2/4 352/2/4 353/2/4
f 353/2/4 352/2/4 354/2/4
f 351/2/4 353/2/4 355/2/4
f 355/2/4 353/2/4 356/2/4
f 357/1/4 358/1/4 359/1/4
f 359/1/4 358/1/4 360/1/4
f 361/2/4 362/2/4 363/2/4
f 363/2/4 362/2/4 364/2/4
f 365/1/4 366/1/4 367/1/4
f 367/1/4 366/1/4 368/1/4
f 369/2/4 370/2/4 371/2/4
f 371/2/4 370/2/4 372/2/4
f 373/2/4 374/2/4 375/2/4
f 375/2/4 374/2/4 376/2/4
f 377/2/4 378/2/4 379/2/4
f 379/2/4 378/2/4 380/2/4
f 381/2/4 382/2/4 383/2/4
f 383/2/4 382/2/4 384/2/4
f 385/1/4 386/1/4 387/1/4
f 387/1/4 386/1/4 388/1/4
f 389/1/4 390/1/4 391/1/4
f 391/1/4 390/1/4 392/1/4
f 393/1/4 394/1/4 395/1/4
f 395/1/4 394/1/4 396/1/4
f 397/2/4 398/2/4 399/2/4
f 399/2/4 398/2/4 400/2/4
f 401/1/4 402/1/4 403/1/4
f 403/1/4 402/1/4 404/1/4
f 405/1/4 406/1/4 407/1/4
f 407/1/4 406/1/4 408/1/4
f 409/1/4 410/1/4 411/1/4
f 411/1/4 410/1/4 412/1/4
f 413/1/4 414/1/4 415/1/4
f 415/1/4 414/1/4 416/1/4
f 417/2/4 418/2/4 419/2/4
f 419/2/4 418/2/4 420/2/4
f 421/2/4 422/2/4 423/2/4
f 423/2/4 422/2/4 424/2/4
f 425/1/4 426/1/4 427/1/4
f 427/1/4 426/1/4 428/1/4
f 429/1/4 430/1/4 431/1/4
f 431/1/4 430/1/4 432/1/4
f 433/2/4 434/2/4 435/2/4
f 435/2/4 434/2/4 436/2/4
f 437/2/4 438/2/4 439/2/4
f 437/2/4 439/2/4 441/2/4
f 439/2/4 440/2/4 441/2/4
f 441/2/4 440/2/4 442/2/4
f 437/2/4 441/2/4 443/2/4
f 443/2/4 441/2/4 444/2/4
f 450/2/5 446/2/5 445/2/5
f 451/2/5 446/2/5 450/2/5
f 453/2/5 448/2/5 447/2/5
f 454/2/5 452/2/5 451/2/5
f 454/2/5 450/2/5 449/2/5
f 454/2/5 451/2/5 450/2/5
f 455/2/5 452/2/5 454/2/5
f 455/2/5 454/2/5 453/2/5
f 457/2/5 455/2/5 453/2/5
f 457/2/5 456/2/5 455/2/5
f 458/2/5 456/2/5 457/2/5
f 459/2/5 456/2/5 458/2/5
f 460/2/5 456/2/5 459/2/5
f 461/2/5 453/2/5 447/2/5
f 461/2/5 457/2/5 453/2/5
f 462/2/5 457/2/5 461/2/5
f 463/2/5 457/2/5 462/2/5
f 464/2/5 459/2/5 458/2/5
f 465/2/5 459/2/5 464/2/5
f 465/2/5 464/2/5 463/2/5
f 466/2/5 459/2/5 465/2/5
f 467/2/5 463/2/5 462/2/5
f 467/2/5 465/2/5 463/2/5
f 468/2/5 465/2/5 467/2/5
f 469/2/5 465/2/5 468/2/5
f 470/2/5 465/2/5 469/2/5
f 471/2/5 469/2/5 468/2/5
f 472/2/5 469/2/5 471/2/5
f 473/2/6 474/2/6 478/2/6
f 478/2/6 474/2/6 479/2/6
f 479/2/6 474/2/6 480/2/6
f 480/2/6 474/2/6 481/2/6
f 475/2/6 476/2/6 483/2/6
f 477/2/6 478/2/6 484/2/6
f 478/2/6 479/2/6 484/2/6
f 484/2/6 479/2/6 485/2/6
f 485/2/6 479/2/6 486/2/6
f 475/2/6 483/2/6 487/2/6
f 483/2/6 484/2/6 487/2/6
f 484/2/6 485/2/6 487/2/6
f 487/2/6 485/2/6 488/2/6
f 488/2/6 485/2/6 489/2/6
f 486/2/6 479/2/6 490/2/6
f 490/2/6 479/2/6 491/2/6
f 481/2/6 482/2/6 492/2/6
f 480/2/6 481/2/6 492/2/6
f 475/2/6 487/2/6 493/2/6
f 493/2/6 487/2/6 494/2/6
f 490/2/6 491/2/6 495/2/6
f 488/2/6 489/2/6 495/2/6
f 489/2/6 490/2/6 495/2/6
f 491/2/6 492/2/6 495/2/6
f 495/2/6 492/2/6 496/2/6
f 496/2/6 492/2/6 497/2/6
f 497/2/6 492/2/6 498/2/6
f 492/2/6 482/2/6 499/2/6
f 498/2/6 492/2/6 499/2/6
f 494/2/6 495/2/6 501/2/6
f 495/2/6 496/2/6 501/2/6
f 501/2/6 496/2/6 502/2/6
f 499/2/6 482/2/6 503/2/6
f 502/2/6 496/2/6 505/2/6
f 505/2/6 496/2/6 506/2/6
f 497/2/6 498/2/6 507/2/6
f 507/2/6 498/2/6 508/2/6
f 508/2/6 498/2/6 509/2/6
f 503/2/6 504/2/6 510/2/6
f 499/2/6 503/2/6 510/2/6
f 510/2/6 504/2/6 511/2/6
f 511/2/6 504/2/6 512/2/6
f 500/2/6 501/2/6 513/2/6
f 506/2/6 496/2/6 515/2/6
f 508/2/6 509/2/6 516/2/6
f 510/2/6 511/2/6 516/2/6
f 509/2/6 510/2/6 516/2/6
f 516/2/6 511/2/6 517/2/6
f 517/2/6 511/2/6 518/2/6
f 518/2/6 511/2/6 519/2/6
f 519/2/6 511/2/6 520/2/6
f 512/2/6 504/2/6 521/2/6
f 521/2/6 504/2/6 522/2/6
f 522/2/6 504/2/6 523/2/6
f 523/2/6 504/2/6 524/2/6
f 515/2/6 516/2/6 525/2/6
f 516/2/6 517/2/6 525/2/6
f 525/2/6 517/2/6 526/2/6
f 526/2/6 517/2/6 527/2/6
f 527/2/6 517/2/6 528/2/6
f 518/2/6 519/2/6 529/2/6
f 522/2/6 523/2/6 532/2/6
f 513/2/6 514/2/6 533/2/6
f 500/2/6 513/2/6 533/2/6
f 533/2/6 514/2/6 534/2/6
f 515/2/6 525/2/6 535/2/6
f 526/2/6 527/2/6 536/2/6
f 536/2/6 527/2/6 537/2/6
f 528/2/6 517/2/6 538/2/6
f 538/2/6 517/2/6 539/2/6
f 529/2/6 530/2/6 540/2/6
f 518/2/6 529/2/6 540/2/6
f 540/2/6 530/2/6 541/2/6
f 531/2/6 532/2/6 542/2/6
f 506/2/6 515/2/6 543/2/6
f 541/2/6 542/2/6 543/2/6
f 540/2/6 541/2/6 543/2/6
f 538/2/6 539/2/6 543/2/6
f 539/2/6 540/2/6 543/2/6
f 536/2/6 537/2/6 543/2/6
f 515/2/6 535/2/6 543/2/6
f 535/2/6 536/2/6 543/2/6
f 537/2/6 538/2/6 543/2/6
f 543/2/6 542/2/6 544/2/6
f 544/2/6 542/2/6 545/2/6
f 545/2/6 542/2/6 546/2/6
f 546/2/6 542/2/6 547/2/6
f 547/2/6 542/2/6 548/2/6
f 534/2/6 514/2/6 549/2/6
f 506/2/6 543/2/6 550/2/6
f 544/2/6 545/2/6 553/2/6
f 553/2/6 545/2/6 554/2/6
f 546/2/6 547/2/6 555/2/6
f 548/2/6 542/2/6 556/2/6
f 550/2/6 543/2/6 557/2/6
f 549/2/6 550/2/6 557/2/6
f 551/2/6 552/2/6 558/2/6
f 558/2/6 552/2/6 559/2/6
f 546/2/6 555/2/6 560/2/6
f 555/2/6 556/2/6 560/2/6
f 560/2/6 556/2/6 561/2/6
f 556/2/6 542/2/6 562/2/6
f 561/2/6 556/2/6 562/2/6
f 558/2/6 559/2/6 563/2/6
f 557/2/6 558/2/6 563/2/6
f 559/2/6 560/2/6 563/2/6
f 549/2/6 557/2/6 563/2/6
f 560/2/6 561/2/6 563/2/6
f 563/2/6 561/2/6 564/2/6
f 542/2/6 532/2/6 565/2/6
f 532/2/6 523/2/6 565/2/6
f 562/2/6 542/2/6 565/2/6
f 565/2/6 523/2/6 566/2/6
f 549/2/6 563/2/6 567/2/6
f 534/2/6 549/2/6 567/2/6
f 567/2/6 563/2/6 568/2/6
f 568/2/6 563/2/6 569/2/6
f 564/2/6 561/2/6 570/2/6
f 570/2/6 561/2/6 571/2/6
f 562/2/6 565/2/6 572/2/6
f 572/2/6 565/2/6 573/2/6
f 573/2/6 565/2/6 574/2/6
f 574/2/6 565/2/6 575/2/6
f 568/2/6 569/2/6 576/2/6
f 570/2/6 571/2/6 576/2/6
f 571/2/6 572/2/6 576/2/6
f 569/2/6 570/2/6 576/2/6
f 576/2/6 572/2/6 577/2/6
f 573/2/6 574/2/6 578/2/6
f 578/2/6 574/2/6 579/2/6
f 582/1/6 583/1/6 586/1/6
f 586/1/6 583/1/6 587/1/6
f 580/1/6 581/1/6 588/1/6
f 588/1/6 581/1/6 589/1/6
f 584/2/6 585/2/6 591/2/6
f 591/2/6 585/2/6 592/2/6
f 590/2/6 591/2/6 597/2/6
f 597/2/6 591/2/6 598/2/6
f 598/2/6 599/2/6 600/2/6
f 600/2/6 599/2/6 601/2/6
f 593/1/6 594/1/6 602/1/6
f 595/1/6 596/1/6 604/1/6
f 604/1/6 596/1/6 605/1/6
f 598/2/6 600/2/6 608/2/6
f 608/2/6 600/2/6 609/2/6
f 602/1/6 603/1/6 610/1/6
f 593/1/6 602/1/6 610/1/6
f 610/1/6 603/1/6 611/1/6
f 606/2/6 607/2/6 615/2/6
f 615/2/6 607/2/6 616/2/6
f 616/2/6 617/2/6 622/2/6
f 615/2/6 616/2/6 622/2/6
f 614/2/6 615/2/6 622/2/6
f 622/2/6 617/2/6 623/2/6
f 623/2/6 617/2/6 624/2/6
f 624/2/6 617/2/6 625/2/6
f 618/1/6 619/1/6 626/1/6
f 626/1/6 619/1/6 627/1/6
f 620/1/6 621/1/6 628/1/6
f 628/1/6 621/1/6 629/1/6
f 612/1/6 613/1/6 630/1/6
f 630/1/6 613/1/6 631/1/6
f 623/2/6 624/2/6 632/2/6
f 632/2/6 624/2/6 633/2/6
f 636/1/6 637/1/6 640/1/6
f 640/1/6 637/1/6 641/1/6
f 634/1/6 635/1/6 642/1/6
f 636/1/6 640/1/6 643/1/6
f 638/1/6 639/1/6 644/1/6
f 644/1/6 639/1/6 645/1/6
f 642/1/6 643/1/6 646/1/6
f 634/1/6 642/1/6 646/1/6
f 643/1/6 640/1/6 647/1/6
f 646/1/6 643/1/6 647/1/6
f 641/1/6 637/1/6 648/1/6
f 648/1/6 637/1/6 649/1/6
f 652/1/6 653/1/6 654/1/6
f 654/1/6 653/1/6 655/1/6
f 650/1/6 651/1/6 656/1/6
f 656/1/6 651/1/6 657/1/6
f 657/2/6 658/2/6 659/2/6
f 659/2/6 658/2/6 660/2/6
