# MagicaVoxel @ Ephtracy

# group
g tile_path

# material
mtllib tile_path.mtl
usemtl palette

# normals
vn -1 0 0
vn 1 0 0
vn 0 0 1
vn 0 0 -1
vn 0 -1 0
vn 0 1 0

# texcoords
vt 0.958984 0.5
vt 0.994141 0.5

# verts
v -10 0 10
v -10 0 6
v -10 0 5
v -10 0 -5
v -10 0 -6
v -10 0 -10
v -10 1 6
v -10 1 5
v -10 1 -5
v -10 1 -6
v -10 2 10
v -10 2 6
v -10 2 5
v -10 2 -5
v -10 2 -6
v -10 2 -10
v -5 0 10
v -5 0 6
v -5 0 5
v -5 0 -5
v -5 0 -6
v -5 0 -10
v -5 1 10
v -5 1 6
v -5 1 5
v -5 1 -5
v -5 1 -6
v -5 1 -10
v 6 0 10
v 6 0 6
v 6 0 5
v 6 0 -5
v 6 0 -6
v 6 0 -10
v 6 1 10
v 6 1 6
v 6 1 5
v 6 1 -5
v 6 1 -6
v 6 1 -10
v -6 0 10
v -6 0 6
v -6 0 5
v -6 0 -5
v -6 0 -6
v -6 0 -10
v -6 1 10
v -6 1 6
v -6 1 5
v -6 1 -5
v -6 1 -6
v -6 1 -10
v 5 0 10
v 5 0 6
v 5 0 5
v 5 0 -5
v 5 0 -6
v 5 0 -10
v 5 1 10
v 5 1 6
v 5 1 5
v 5 1 -5
v 5 1 -6
v 5 1 -10
v 10 0 10
v 10 0 6
v 10 0 5
v 10 0 -5
v 10 0 -6
v 10 0 -10
v 10 1 6
v 10 1 5
v 10 1 -5
v 10 1 -6
v 10 2 10
v 10 2 6
v 10 2 5
v 10 2 -5
v 10 2 -6
v 10 2 -10
v -10 0 10
v -10 2 10
v -6 0 10
v -6 1 10
v -6 2 10
v -5 0 10
v -5 1 10
v -5 2 10
v 5 0 10
v 5 1 10
v 5 2 10
v 6 0 10
v 6 1 10
v 6 2 10
v 10 0 10
v 10 2 10
v -10 0 5
v -10 1 5
v -6 0 5
v -6 1 5
v -5 0 5
v -5 1 5
v 5 0 5
v 5 1 5
v 6 0 5
v 6 1 5
v 10 0 5
v 10 1 5
v -10 0 -6
v -10 1 -6
v -6 0 -6
v -6 1 -6
v -5 0 -6
v -5 1 -6
v 5 0 -6
v 5 1 -6
v 6 0 -6
v 6 1 -6
v 10 0 -6
v 10 1 -6
v -10 0 6
v -10 1 6
v -6 0 6
v -6 1 6
v -5 0 6
v -5 1 6
v 5 0 6
v 5 1 6
v 6 0 6
v 6 1 6
v 10 0 6
v 10 1 6
v -10 0 -5
v -10 1 -5
v -6 0 -5
v -6 1 -5
v -5 0 -5
v -5 1 -5
v 5 0 -5
v 5 1 -5
v 6 0 -5
v 6 1 -5
v 10 0 -5
v 10 1 -5
v -10 0 -10
v -10 2 -10
v -6 0 -10
v -6 1 -10
v -6 2 -10
v -5 0 -10
v -5 1 -10
v -5 2 -10
v 5 0 -10
v 5 1 -10
v 5 2 -10
v 6 0 -10
v 6 1 -10
v 6 2 -10
v 10 0 -10
v 10 2 -10
v -10 0 10
v -6 0 10
v -5 0 10
v 5 0 10
v 6 0 10
v 10 0 10
v -10 0 6
v -6 0 6
v -5 0 6
v 5 0 6
v 6 0 6
v 10 0 6
v -10 0 5
v -6 0 5
v -5 0 5
v 5 0 5
v 6 0 5
v 10 0 5
v -10 0 -5
v -6 0 -5
v -5 0 -5
v 5 0 -5
v 6 0 -5
v 10 0 -5
v -10 0 -6
v -6 0 -6
v -5 0 -6
v 5 0 -6
v 6 0 -6
v 10 0 -6
v -10 0 -10
v -6 0 -10
v -5 0 -10
v 5 0 -10
v 6 0 -10
v 10 0 -10
v -6 1 10
v -5 1 10
v 5 1 10
v 6 1 10
v -10 1 6
v -6 1 6
v -5 1 6
v 5 1 6
v 6 1 6
v 10 1 6
v -10 1 5
v -6 1 5
v -5 1 5
v 5 1 5
v 6 1 5
v 10 1 5
v -10 1 -5
v -6 1 -5
v -5 1 -5
v 5 1 -5
v 6 1 -5
v 10 1 -5
v -10 1 -6
v -6 1 -6
v -5 1 -6
v 5 1 -6
v 6 1 -6
v 10 1 -6
v -6 1 -10
v -5 1 -10
v 5 1 -10
v 6 1 -10
v -10 2 10
v -6 2 10
v -5 2 10
v 5 2 10
v 6 2 10
v 10 2 10
v -10 2 6
v -6 2 6
v -5 2 6
v 5 2 6
v 6 2 6
v 10 2 6
v -10 2 5
v -6 2 5
v -5 2 5
v 5 2 5
v 6 2 5
v 10 2 5
v -10 2 -5
v -6 2 -5
v -5 2 -5
v 5 2 -5
v 6 2 -5
v 10 2 -5
v -10 2 -6
v -6 2 -6
v -5 2 -6
v 5 2 -6
v 6 2 -6
v 10 2 -6
v -10 2 -10
v -6 2 -10
v -5 2 -10
v 5 2 -10
v 6 2 -10
v 10 2 -10

# faces
f 7/1/1 2/1/1 1/1/1
f 8/1/1 4/1/1 3/1/1
f 9/1/1 4/1/1 8/1/1
f 10/1/1 6/1/1 5/1/1
f 11/1/1 7/1/1 1/1/1
f 12/2/1 8/2/1 7/2/1
f 12/1/1 7/1/1 11/1/1
f 13/1/1 9/1/1 8/1/1
f 13/2/1 8/2/1 12/2/1
f 14/2/1 10/2/1 9/2/1
f 14/1/1 9/1/1 13/1/1
f 15/1/1 6/1/1 10/1/1
f 15/2/1 10/2/1 14/2/1
f 16/1/1 6/1/1 15/1/1
f 23/1/1 18/1/1 17/1/1
f 24/1/1 18/1/1 23/1/1
f 25/1/1 20/1/1 19/1/1
f 26/1/1 20/1/1 25/1/1
f 27/1/1 22/1/1 21/1/1
f 28/1/1 22/1/1 27/1/1
f 35/1/1 30/1/1 29/1/1
f 36/1/1 30/1/1 35/1/1
f 37/1/1 32/1/1 31/1/1
f 38/1/1 32/1/1 37/1/1
f 39/1/1 34/1/1 33/1/1
f 40/1/1 34/1/1 39/1/1
f 41/1/2 42/1/2 47/1/2
f 47/1/2 42/1/2 48/1/2
f 43/1/2 44/1/2 49/1/2
f 49/1/2 44/1/2 50/1/2
f 45/1/2 46/1/2 51/1/2
f 51/1/2 46/1/2 52/1/2
f 53/1/2 54/1/2 59/1/2
f 59/1/2 54/1/2 60/1/2
f 55/1/2 56/1/2 61/1/2
f 61/1/2 56/1/2 62/1/2
f 57/1/2 58/1/2 63/1/2
f 63/1/2 58/1/2 64/1/2
f 65/1/2 66/1/2 71/1/2
f 67/1/2 68/1/2 72/1/2
f 72/1/2 68/1/2 73/1/2
f 69/1/2 70/1/2 74/1/2
f 65/1/2 71/1/2 75/1/2
f 71/2/2 72/2/2 76/2/2
f 75/1/2 71/1/2 76/1/2
f 72/1/2 73/1/2 77/1/2
f 76/2/2 72/2/2 77/2/2
f 73/2/2 74/2/2 78/2/2
f 77/1/2 73/1/2 78/1/2
f 74/1/2 70/1/2 79/1/2
f 78/2/2 74/2/2 79/2/2
f 79/1/2 70/1/2 80/1/2
f 83/1/3 82/1/3 81/1/3
f 84/1/3 82/1/3 83/1/3
f 85/1/3 82/1/3 84/1/3
f 87/2/3 85/2/3 84/2/3
f 88/2/3 85/2/3 87/2/3
f 89/1/3 87/1/3 86/1/3
f 89/1/3 88/1/3 87/1/3
f 90/1/3 88/1/3 89/1/3
f 91/1/3 88/1/3 90/1/3
f 93/2/3 91/2/3 90/2/3
f 94/2/3 91/2/3 93/2/3
f 95/1/3 93/1/3 92/1/3
f 95/1/3 94/1/3 93/1/3
f 96/1/3 94/1/3 95/1/3
f 99/1/3 98/1/3 97/1/3
f 100/1/3 98/1/3 99/1/3
f 103/1/3 102/1/3 101/1/3
f 104/1/3 102/1/3 103/1/3
f 107/1/3 106/1/3 105/1/3
f 108/1/3 106/1/3 107/1/3
f 111/1/3 110/1/3 109/1/3
f 112/1/3 110/1/3 111/1/3
f 115/1/3 114/1/3 113/1/3
f 116/1/3 114/1/3 115/1/3
f 119/1/3 118/1/3 117/1/3
f 120/1/3 118/1/3 119/1/3
f 121/1/4 122/1/4 123/1/4
f 123/1/4 122/1/4 124/1/4
f 125/1/4 126/1/4 127/1/4
f 127/1/4 126/1/4 128/1/4
f 129/1/4 130/1/4 131/1/4
f 131/1/4 130/1/4 132/1/4
f 133/1/4 134/1/4 135/1/4
f 135/1/4 134/1/4 136/1/4
f 137/1/4 138/1/4 139/1/4
f 139/1/4 138/1/4 140/1/4
f 141/1/4 142/1/4 143/1/4
f 143/1/4 142/1/4 144/1/4
f 145/1/4 146/1/4 147/1/4
f 147/1/4 146/1/4 148/1/4
f 148/1/4 146/1/4 149/1/4
f 148/2/4 149/2/4 151/2/4
f 151/2/4 149/2/4 152/2/4
f 150/1/4 151/1/4 153/1/4
f 151/1/4 152/1/4 153/1/4
f 153/1/4 152/1/4 154/1/4
f 154/1/4 152/1/4 155/1/4
f 154/2/4 155/2/4 157/2/4
f 157/2/4 155/2/4 158/2/4
f 156/1/4 157/1/4 159/1/4
f 157/1/4 158/1/4 159/1/4
f 159/1/4 158/1/4 160/1/4
f 167/1/5 162/1/5 161/1/5
f 168/1/5 162/1/5 167/1/5
f 169/1/5 164/1/5 163/1/5
f 170/1/5 164/1/5 169/1/5
f 171/1/5 166/1/5 165/1/5
f 172/1/5 166/1/5 171/1/5
f 179/1/5 174/1/5 173/1/5
f 180/1/5 174/1/5 179/1/5
f 181/1/5 176/1/5 175/1/5
f 182/1/5 176/1/5 181/1/5
f 183/1/5 178/1/5 177/1/5
f 184/1/5 178/1/5 183/1/5
f 191/1/5 186/1/5 185/1/5
f 192/1/5 186/1/5 191/1/5
f 193/1/5 188/1/5 187/1/5
f 194/1/5 188/1/5 193/1/5
f 195/1/5 190/1/5 189/1/5
f 196/1/5 190/1/5 195/1/5
f 202/2/5 198/2/5 197/2/5
f 203/2/5 198/2/5 202/2/5
f 204/2/5 200/2/5 199/2/5
f 205/2/5 200/2/5 204/2/5
f 207/2/5 203/2/5 202/2/5
f 207/2/5 206/2/5 205/2/5
f 207/2/5 205/2/5 204/2/5
f 207/2/5 204/2/5 203/2/5
f 207/2/5 202/2/5 201/2/5
f 208/2/5 206/2/5 207/2/5
f 209/2/5 206/2/5 208/2/5
f 210/2/5 206/2/5 209/2/5
f 211/2/5 206/2/5 210/2/5
f 212/2/5 206/2/5 211/2/5
f 214/2/5 209/2/5 208/2/5
f 215/2/5 209/2/5 214/2/5
f 216/2/5 211/2/5 210/2/5
f 217/2/5 211/2/5 216/2/5
f 219/2/5 215/2/5 214/2/5
f 219/2/5 218/2/5 217/2/5
f 219/2/5 217/2/5 216/2/5
f 219/2/5 216/2/5 215/2/5
f 219/2/5 214/2/5 213/2/5
f 220/2/5 218/2/5 219/2/5
f 221/2/5 218/2/5 220/2/5
f 222/2/5 218/2/5 221/2/5
f 223/2/5 218/2/5 222/2/5
f 224/2/5 218/2/5 223/2/5
f 225/2/5 221/2/5 220/2/5
f 226/2/5 221/2/5 225/2/5
f 227/2/5 223/2/5 222/2/5
f 228/2/5 223/2/5 227/2/5
f 229/1/6 230/1/6 235/1/6
f 230/2/6 231/2/6 236/2/6
f 235/1/6 230/1/6 236/1/6
f 231/1/6 232/1/6 237/1/6
f 236/2/6 231/2/6 237/2/6
f 232/2/6 233/2/6 238/2/6
f 237/1/6 232/1/6 238/1/6
f 233/1/6 234/1/6 239/1/6
f 238/2/6 233/2/6 239/2/6
f 239/1/6 234/1/6 240/1/6
f 237/2/6 238/2/6 241/2/6
f 235/2/6 236/2/6 241/2/6
f 239/2/6 240/2/6 241/2/6
f 238/2/6 239/2/6 241/2/6
f 236/2/6 237/2/6 241/2/6
f 241/2/6 240/2/6 242/2/6
f 242/2/6 240/2/6 243/2/6
f 243/2/6 240/2/6 244/2/6
f 244/2/6 240/2/6 245/2/6
f 245/2/6 240/2/6 246/2/6
f 241/1/6 242/1/6 247/1/6
f 242/2/6 243/2/6 248/2/6
f 247/1/6 242/1/6 248/1/6
f 243/1/6 244/1/6 249/1/6
f 248/2/6 243/2/6 249/2/6
f 244/2/6 245/2/6 250/2/6
f 249/1/6 244/1/6 250/1/6
f 245/1/6 246/1/6 251/1/6
f 250/2/6 245/2/6 251/2/6
f 251/1/6 246/1/6 252/1/6
f 247/2/6 248/2/6 253/2/6
f 248/2/6 249/2/6 253/2/6
f 251/2/6 252/2/6 253/2/6
f 250/2/6 251/2/6 253/2/6
f 249/2/6 250/2/6 253/2/6
f 253/2/6 252/2/6 254/2/6
f 254/2/6 252/2/6 255/2/6
f 255/2/6 252/2/6 256/2/6
f 256/2/6 252/2/6 257/2/6
f 257/2/6 252/2/6 258/2/6
f 253/1/6 254/1/6 259/1/6
f 254/2/6 255/2/6 260/2/6
f 259/1/6 254/1/6 260/1/6
f 255/1/6 256/1/6 261/1/6
f 260/2/6 255/2/6 261/2/6
f 256/2/6 257/2/6 262/2/6
f 261/1/6 256/1/6 262/1/6
f 257/1/6 258/1/6 263/1/6
f 262/2/6 257/2/6 263/2/6
f 263/1/6 258/1/6 264/1/6
