# MagicaVoxel @ Ephtracy

# group
g book

# material
mtllib book.mtl
usemtl palette

# normals
vn -1 0 0
vn 1 0 0
vn 0 0 1
vn 0 0 -1
vn 0 -1 0
vn 0 1 0

# texcoords
vt 0.677734 0.5
vt 0.947266 0.5
vt 0.958984 0.5

# verts
v -8 0 6
v -8 0 -8
v -8 4 6
v -8 4 -8
v -6 4 3
v -6 4 2
v -6 5 3
v -6 5 2
v -5 4 5
v -5 4 3
v -5 4 2
v -5 4 1
v -5 5 5
v -5 5 3
v -5 5 2
v -5 6 2
v -5 6 1
v -4 4 6
v -4 4 5
v -4 4 -2
v -4 4 -3
v -4 4 -5
v -4 4 -6
v -4 5 6
v -4 5 5
v -4 5 -2
v -4 5 -3
v -4 5 -5
v -4 5 -6
v -3 4 1
v -3 4 -0
v -3 5 1
v -3 5 -0
v -2 4 -1
v -2 4 -2
v -2 4 -3
v -2 4 -5
v -2 4 -6
v -2 4 -7
v -2 5 -1
v -2 5 -2
v -2 5 -3
v -2 5 -5
v -2 5 -6
v -2 5 -7
v -1 4 1
v -1 4 -0
v -1 5 1
v -1 5 -0
v 0 4 5
v 0 4 4
v 0 4 2
v 0 4 1
v 0 5 5
v 0 5 4
v 0 5 2
v 0 5 1
v 1 4 4
v 1 4 2
v 1 5 4
v 1 5 2
v -5 4 3
v -5 4 2
v -5 5 3
v -5 5 2
v -4 4 5
v -4 4 3
v -4 5 5
v -4 5 3
v -4 5 2
v -4 5 1
v -4 6 2
v -4 6 1
v -3 4 2
v -3 4 1
v -3 5 2
v -3 5 1
v -2 4 1
v -2 4 -0
v -2 5 1
v -2 5 -0
v -1 4 -1
v -1 4 -2
v -1 4 -3
v -1 4 -5
v -1 4 -6
v -1 4 -7
v -1 5 -1
v -1 5 -2
v -1 5 -3
v -1 5 -5
v -1 5 -6
v -1 5 -7
v 0 4 6
v 0 4 5
v 0 4 1
v 0 4 -0
v 0 5 6
v 0 5 5
v 0 5 1
v 0 5 -0
v 1 4 5
v 1 4 4
v 1 4 2
v 1 4 1
v 1 4 -2
v 1 4 -3
v 1 4 -5
v 1 4 -6
v 1 5 5
v 1 5 4
v 1 5 2
v 1 5 1
v 1 5 -2
v 1 5 -3
v 1 5 -5
v 1 5 -6
v 2 4 4
v 2 4 2
v 2 5 4
v 2 5 2
v 9 0 6
v 9 0 -8
v 9 4 6
v 9 4 -8
v -8 0 6
v -8 4 6
v -7 0 6
v -7 4 6
v -4 4 6
v -4 5 6
v 0 4 6
v 0 5 6
v 8 0 6
v 8 4 6
v 9 0 6
v 9 4 6
v -5 4 5
v -5 5 5
v -4 4 5
v -4 5 5
v 0 4 5
v 0 5 5
v 1 4 5
v 1 5 5
v 1 4 4
v 1 5 4
v 2 4 4
v 2 5 4
v -6 4 3
v -6 5 3
v -5 4 3
v -5 5 3
v -5 4 2
v -5 5 2
v -5 6 2
v -4 5 2
v -4 6 2
v -3 4 2
v -3 5 2
v 0 4 2
v 0 5 2
v 1 4 2
v 1 5 2
v -3 4 1
v -3 5 1
v -2 4 1
v -2 5 1
v -1 4 1
v -1 5 1
v 0 4 1
v 0 5 1
v -2 4 -1
v -2 5 -1
v -1 4 -1
v -1 5 -1
v -4 4 -2
v -4 5 -2
v -2 4 -2
v -2 5 -2
v -1 4 -2
v -1 5 -2
v 1 4 -2
v 1 5 -2
v -4 4 -5
v -4 5 -5
v -2 4 -5
v -2 5 -5
v -1 4 -5
v -1 5 -5
v 1 4 -5
v 1 5 -5
v -4 4 5
v -4 5 5
v 0 4 5
v 0 5 5
v 0 4 4
v 0 5 4
v 1 4 4
v 1 5 4
v -5 4 3
v -5 5 3
v -4 4 3
v -4 5 3
v -6 4 2
v -6 5 2
v -5 4 2
v -5 5 2
v 1 4 2
v 1 5 2
v 2 4 2
v 2 5 2
v -5 4 1
v -5 6 1
v -4 5 1
v -4 6 1
v -3 4 1
v -3 5 1
v 0 4 1
v 0 5 1
v 1 4 1
v 1 5 1
v -3 4 -0
v -3 5 -0
v -2 4 -0
v -2 5 -0
v -1 4 -0
v -1 5 -0
v 0 4 -0
v 0 5 -0
v -4 4 -3
v -4 5 -3
v -2 4 -3
v -2 5 -3
v -1 4 -3
v -1 5 -3
v 1 4 -3
v 1 5 -3
v -4 4 -6
v -4 5 -6
v -2 4 -6
v -2 5 -6
v -1 4 -6
v -1 5 -6
v 1 4 -6
v 1 5 -6
v -2 4 -7
v -2 5 -7
v -1 4 -7
v -1 5 -7
v -8 0 -8
v -8 4 -8
v 9 0 -8
v 9 4 -8
v -8 0 6
v -7 0 6
v 8 0 6
v 9 0 6
v -7 0 -7
v 8 0 -7
v -8 0 -8
v 9 0 -8
v -8 4 6
v -7 4 6
v -4 4 6
v 0 4 6
v 8 4 6
v 9 4 6
v -5 4 5
v -4 4 5
v 0 4 5
v 1 4 5
v 0 4 4
v 1 4 4
v 2 4 4
v -6 4 3
v -5 4 3
v -4 4 3
v -6 4 2
v -5 4 2
v -3 4 2
v 0 4 2
v 1 4 2
v 2 4 2
v -5 4 1
v -3 4 1
v -2 4 1
v -1 4 1
v 0 4 1
v 1 4 1
v -3 4 -0
v -2 4 -0
v -1 4 -0
v 0 4 -0
v -2 4 -1
v -1 4 -1
v -4 4 -2
v -2 4 -2
v -1 4 -2
v 1 4 -2
v -4 4 -3
v -2 4 -3
v -1 4 -3
v 1 4 -3
v -4 4 -5
v -2 4 -5
v -1 4 -5
v 1 4 -5
v -4 4 -6
v -2 4 -6
v -1 4 -6
v 1 4 -6
v -7 4 -7
v -2 4 -7
v -1 4 -7
v 8 4 -7
v -8 4 -8
v 9 4 -8
v -4 5 6
v 0 5 6
v -5 5 5
v -4 5 5
v 0 5 5
v 1 5 5
v 0 5 4
v 1 5 4
v 2 5 4
v -6 5 3
v -5 5 3
v -4 5 3
v -6 5 2
v -5 5 2
v -4 5 2
v -3 5 2
v 0 5 2
v 1 5 2
v 2 5 2
v -4 5 1
v -3 5 1
v -2 5 1
v -1 5 1
v 0 5 1
v 1 5 1
v -3 5 -0
v -2 5 -0
v -1 5 -0
v 0 5 -0
v -2 5 -1
v -1 5 -1
v -4 5 -2
v -2 5 -2
v -1 5 -2
v 1 5 -2
v -4 5 -3
v -2 5 -3
v -1 5 -3
v 1 5 -3
v -4 5 -5
v -2 5 -5
v -1 5 -5
v 1 5 -5
v -4 5 -6
v -2 5 -6
v -1 5 -6
v 1 5 -6
v -2 5 -7
v -1 5 -7
v -5 6 2
v -4 6 2
v -5 6 1
v -4 6 1

# faces
f 3/3/1 2/3/1 1/3/1
f 4/3/1 2/3/1 3/3/1
f 7/1/1 6/1/1 5/1/1
f 8/1/1 6/1/1 7/1/1
f 13/1/1 10/1/1 9/1/1
f 14/1/1 10/1/1 13/1/1
f 15/1/1 12/1/1 11/1/1
f 16/1/1 12/1/1 15/1/1
f 17/1/1 12/1/1 16/1/1
f 24/1/1 19/1/1 18/1/1
f 25/1/1 19/1/1 24/1/1
f 26/1/1 21/1/1 20/1/1
f 27/1/1 21/1/1 26/1/1
f 28/1/1 23/1/1 22/1/1
f 29/1/1 23/1/1 28/1/1
f 32/1/1 31/1/1 30/1/1
f 33/1/1 31/1/1 32/1/1
f 40/1/1 35/1/1 34/1/1
f 41/1/1 35/1/1 40/1/1
f 42/1/1 37/1/1 36/1/1
f 43/1/1 37/1/1 42/1/1
f 44/1/1 39/1/1 38/1/1
f 45/1/1 39/1/1 44/1/1
f 48/1/1 47/1/1 46/1/1
f 49/1/1 47/1/1 48/1/1
f 54/1/1 51/1/1 50/1/1
f 55/1/1 51/1/1 54/1/1
f 56/1/1 53/1/1 52/1/1
f 57/1/1 53/1/1 56/1/1
f 60/1/1 59/1/1 58/1/1
f 61/1/1 59/1/1 60/1/1
f 62/1/2 63/1/2 64/1/2
f 64/1/2 63/1/2 65/1/2
f 66/1/2 67/1/2 68/1/2
f 68/1/2 67/1/2 69/1/2
f 70/1/2 71/1/2 72/1/2
f 72/1/2 71/1/2 73/1/2
f 74/1/2 75/1/2 76/1/2
f 76/1/2 75/1/2 77/1/2
f 78/1/2 79/1/2 80/1/2
f 80/1/2 79/1/2 81/1/2
f 82/1/2 83/1/2 88/1/2
f 88/1/2 83/1/2 89/1/2
f 84/1/2 85/1/2 90/1/2
f 90/1/2 85/1/2 91/1/2
f 86/1/2 87/1/2 92/1/2
f 92/1/2 87/1/2 93/1/2
f 94/1/2 95/1/2 98/1/2
f 98/1/2 95/1/2 99/1/2
f 96/1/2 97/1/2 100/1/2
f 100/1/2 97/1/2 101/1/2
f 102/1/2 103/1/2 110/1/2
f 110/1/2 103/1/2 111/1/2
f 104/1/2 105/1/2 112/1/2
f 112/1/2 105/1/2 113/1/2
f 106/1/2 107/1/2 114/1/2
f 114/1/2 107/1/2 115/1/2
f 108/1/2 109/1/2 116/1/2
f 116/1/2 109/1/2 117/1/2
f 118/1/2 119/1/2 120/1/2
f 120/1/2 119/1/2 121/1/2
f 122/3/2 123/3/2 124/3/2
f 124/3/2 123/3/2 125/3/2
f 128/3/3 127/3/3 126/3/3
f 129/3/3 127/3/3 128/3/3
f 130/2/3 129/2/3 128/2/3
f 132/2/3 130/2/3 128/2/3
f 132/1/3 131/1/3 130/1/3
f 133/1/3 131/1/3 132/1/3
f 134/2/3 132/2/3 128/2/3
f 135/2/3 132/2/3 134/2/3
f 136/3/3 135/3/3 134/3/3
f 137/3/3 135/3/3 136/3/3
f 140/1/3 139/1/3 138/1/3
f 141/1/3 139/1/3 140/1/3
f 144/1/3 143/1/3 142/1/3
f 145/1/3 143/1/3 144/1/3
f 148/1/3 147/1/3 146/1/3
f 149/1/3 147/1/3 148/1/3
f 152/1/3 151/1/3 150/1/3
f 153/1/3 151/1/3 152/1/3
f 157/1/3 155/1/3 154/1/3
f 157/1/3 156/1/3 155/1/3
f 158/1/3 156/1/3 157/1/3
f 159/1/3 157/1/3 154/1/3
f 160/1/3 157/1/3 159/1/3
f 163/1/3 162/1/3 161/1/3
f 164/1/3 162/1/3 163/1/3
f 167/1/3 166/1/3 165/1/3
f 168/1/3 166/1/3 167/1/3
f 171/1/3 170/1/3 169/1/3
f 172/1/3 170/1/3 171/1/3
f 175/1/3 174/1/3 173/1/3
f 176/1/3 174/1/3 175/1/3
f 179/1/3 178/1/3 177/1/3
f 180/1/3 178/1/3 179/1/3
f 183/1/3 182/1/3 181/1/3
f 184/1/3 182/1/3 183/1/3
f 187/1/3 186/1/3 185/1/3
f 188/1/3 186/1/3 187/1/3
f 191/1/3 190/1/3 189/1/3
f 192/1/3 190/1/3 191/1/3
f 193/1/4 194/1/4 195/1/4
f 195/1/4 194/1/4 196/1/4
f 197/1/4 198/1/4 199/1/4
f 199/1/4 198/1/4 200/1/4
f 201/1/4 202/1/4 203/1/4
f 203/1/4 202/1/4 204/1/4
f 205/1/4 206/1/4 207/1/4
f 207/1/4 206/1/4 208/1/4
f 209/1/4 210/1/4 211/1/4
f 211/1/4 210/1/4 212/1/4
f 213/1/4 214/1/4 215/1/4
f 215/1/4 214/1/4 216/1/4
f 213/1/4 215/1/4 217/1/4
f 217/1/4 215/1/4 218/1/4
f 219/1/4 220/1/4 221/1/4
f 221/1/4 220/1/4 222/1/4
f 223/1/4 224/1/4 225/1/4
f 225/1/4 224/1/4 226/1/4
f 227/1/4 228/1/4 229/1/4
f 229/1/4 228/1/4 230/1/4
f 231/1/4 232/1/4 233/1/4
f 233/1/4 232/1/4 234/1/4
f 235/1/4 236/1/4 237/1/4
f 237/1/4 236/1/4 238/1/4
f 239/1/4 240/1/4 241/1/4
f 241/1/4 240/1/4 242/1/4
f 243/1/4 244/1/4 245/1/4
f 245/1/4 244/1/4 246/1/4
f 247/1/4 248/1/4 249/1/4
f 249/1/4 248/1/4 250/1/4
f 251/3/4 252/3/4 253/3/4
f 253/3/4 252/3/4 254/3/4
f 259/3/5 256/3/5 255/3/5
f 259/2/5 257/2/5 256/2/5
f 260/3/5 258/3/5 257/3/5
f 260/2/5 257/2/5 259/2/5
f 261/3/5 259/3/5 255/3/5
f 261/3/5 260/3/5 259/3/5
f 262/3/5 258/3/5 260/3/5
f 262/3/5 260/3/5 261/3/5
f 264/2/6 265/2/6 269/2/6
f 269/2/6 265/2/6 270/2/6
f 266/2/6 267/2/6 271/2/6
f 271/2/6 267/2/6 272/2/6
f 270/2/6 271/2/6 273/2/6
f 272/2/6 267/2/6 274/2/6
f 274/2/6 267/2/6 275/2/6
f 264/2/6 269/2/6 276/2/6
f 276/2/6 269/2/6 277/2/6
f 270/2/6 273/2/6 278/2/6
f 273/2/6 274/2/6 278/2/6
f 264/2/6 276/2/6 279/2/6
f 277/2/6 278/2/6 280/2/6
f 278/2/6 274/2/6 281/2/6
f 280/2/6 278/2/6 281/2/6
f 281/2/6 274/2/6 282/2/6
f 282/2/6 274/2/6 283/2/6
f 275/2/6 267/2/6 284/2/6
f 279/2/6 280/2/6 285/2/6
f 281/2/6 282/2/6 286/2/6
f 286/2/6 282/2/6 287/2/6
f 287/2/6 282/2/6 288/2/6
f 288/2/6 282/2/6 289/2/6
f 283/2/6 284/2/6 290/2/6
f 285/2/6 286/2/6 291/2/6
f 287/2/6 288/2/6 292/2/6
f 292/2/6 288/2/6 293/2/6
f 289/2/6 290/2/6 294/2/6
f 292/2/6 293/2/6 295/2/6
f 293/2/6 294/2/6 295/2/6
f 291/2/6 292/2/6 295/2/6
f 295/2/6 294/2/6 296/2/6
f 285/2/6 291/2/6 297/2/6
f 291/2/6 295/2/6 297/2/6
f 297/2/6 295/2/6 298/2/6
f 296/2/6 294/2/6 299/2/6
f 294/2/6 290/2/6 300/2/6
f 299/2/6 294/2/6 300/2/6
f 290/2/6 284/2/6 300/2/6
f 285/2/6 297/2/6 301/2/6
f 300/2/6 284/2/6 304/2/6
f 301/2/6 302/2/6 305/2/6
f 285/2/6 301/2/6 305/2/6
f 305/2/6 302/2/6 306/2/6
f 303/2/6 304/2/6 307/2/6
f 304/2/6 284/2/6 308/2/6
f 307/2/6 304/2/6 308/2/6
f 285/2/6 305/2/6 309/2/6
f 308/2/6 284/2/6 312/2/6
f 263/3/6 264/3/6 313/3/6
f 264/2/6 279/2/6 313/2/6
f 279/2/6 285/2/6 313/2/6
f 309/2/6 310/2/6 313/2/6
f 285/2/6 309/2/6 313/2/6
f 313/2/6 310/2/6 314/2/6
f 311/2/6 312/2/6 315/2/6
f 267/3/6 268/3/6 316/3/6
f 312/2/6 284/2/6 316/2/6
f 315/2/6 312/2/6 316/2/6
f 284/2/6 267/2/6 316/2/6
f 313/3/6 314/3/6 317/3/6
f 314/3/6 315/3/6 317/3/6
f 315/3/6 316/3/6 317/3/6
f 263/3/6 313/3/6 317/3/6
f 316/3/6 268/3/6 318/3/6
f 317/3/6 316/3/6 318/3/6
f 319/1/6 320/1/6 322/1/6
f 322/1/6 320/1/6 323/1/6
f 323/1/6 324/1/6 325/1/6
f 325/1/6 324/1/6 326/1/6
f 321/1/6 322/1/6 329/1/6
f 329/1/6 322/1/6 330/1/6
f 328/1/6 329/1/6 331/1/6
f 331/1/6 329/1/6 332/1/6
f 326/1/6 327/1/6 336/1/6
f 336/1/6 327/1/6 337/1/6
f 333/1/6 334/1/6 338/1/6
f 338/1/6 334/1/6 339/1/6
f 335/1/6 336/1/6 342/1/6
f 342/1/6 336/1/6 343/1/6
f 339/1/6 340/1/6 344/1/6
f 344/1/6 340/1/6 345/1/6
f 341/1/6 342/1/6 346/1/6
f 346/1/6 342/1/6 347/1/6
f 348/1/6 349/1/6 351/1/6
f 351/1/6 349/1/6 352/1/6
f 351/1/6 352/1/6 354/1/6
f 352/1/6 353/1/6 354/1/6
f 350/1/6 351/1/6 354/1/6
f 354/1/6 353/1/6 355/1/6
f 355/1/6 353/1/6 356/1/6
f 356/1/6 353/1/6 357/1/6
f 355/1/6 356/1/6 359/1/6
f 359/1/6 356/1/6 360/1/6
f 358/1/6 359/1/6 362/1/6
f 360/1/6 361/1/6 362/1/6
f 359/1/6 360/1/6 362/1/6
f 362/1/6 361/1/6 363/1/6
f 363/1/6 361/1/6 364/1/6
f 364/1/6 361/1/6 365/1/6
f 363/1/6 364/1/6 366/1/6
f 366/1/6 364/1/6 367/1/6
f 368/1/6 369/1/6 370/1/6
f 370/1/6 369/1/6 371/1/6
