# MagicaVoxel @ Ephtracy

# group
g glove

# material
mtllib glove.mtl
usemtl palette

# normals
vn -1 0 0
vn 1 0 0
vn 0 0 1
vn 0 0 -1
vn 0 -1 0
vn 0 1 0

# texcoords
vt 0.990234 0.5
vt 0.994141 0.5

# verts
v -10 0 4
v -10 0 2
v -10 0 -2
v -10 0 -4
v -10 3 4
v -10 3 2
v -10 3 -2
v -10 3 -4
v -9 0 6
v -9 0 4
v -9 0 2
v -9 0 1
v -9 0 -1
v -9 0 -2
v -9 0 -4
v -9 0 -6
v -9 3 6
v -9 3 4
v -9 3 2
v -9 3 1
v -9 3 -1
v -9 3 -2
v -9 3 -4
v -9 3 -6
v -8 0 7
v -8 0 6
v -8 0 -6
v -8 0 -7
v -8 3 7
v -8 3 6
v -8 3 -6
v -8 3 -7
v -6 0 8
v -6 0 7
v -6 0 -7
v -6 0 -8
v -6 3 8
v -6 3 7
v -6 3 -7
v -6 3 -8
v -5 0 10
v -5 0 8
v -5 0 -8
v -5 0 -10
v -5 3 10
v -5 3 9
v -5 3 8
v -5 3 7
v -5 3 -7
v -5 3 -8
v -5 3 -9
v -5 3 -10
v -5 4 9
v -5 4 7
v -5 4 -7
v -5 4 -9
v -3 3 8
v -3 3 7
v -3 3 6
v -3 3 -6
v -3 3 -7
v -3 3 -8
v -3 4 8
v -3 4 6
v -3 4 -6
v -3 4 -8
v -2 2 10
v -2 2 9
v -2 2 -9
v -2 2 -10
v -2 3 9
v -2 3 -9
v -2 4 10
v -2 4 9
v -2 4 -9
v -2 4 -10
v -1 3 8
v -1 3 7
v -1 3 6
v -1 3 2
v -1 3 -2
v -1 3 -6
v -1 3 -7
v -1 3 -8
v -1 4 10
v -1 4 9
v -1 4 8
v -1 4 7
v -1 4 6
v -1 4 2
v -1 4 -2
v -1 4 -6
v -1 4 -7
v -1 4 -8
v -1 4 -9
v -1 4 -10
v -1 5 10
v -1 5 9
v -1 5 7
v -1 5 6
v -1 5 -6
v -1 5 -7
v -1 5 -9
v -1 5 -10
v 0 3 9
v 0 3 8
v 0 3 -8
v 0 3 -9
v 0 4 8
v 0 4 7
v 0 4 -7
v 0 4 -8
v 0 5 10
v 0 5 9
v 0 5 7
v 0 5 -7
v 0 5 -9
v 0 5 -10
v 0 6 10
v 0 6 9
v 0 6 -9
v 0 6 -10
v 2 3 10
v 2 3 9
v 2 3 -9
v 2 3 -10
v 2 4 10
v 2 4 9
v 2 4 -9
v 2 4 -10
v -4 3 8
v -4 3 7
v -4 3 -7
v -4 3 -8
v -4 4 8
v -4 4 7
v -4 4 -7
v -4 4 -8
v -3 2 10
v -3 2 9
v -3 2 -9
v -3 2 -10
v -3 3 10
v -3 3 9
v -3 3 8
v -3 3 -8
v -3 3 -9
v -3 3 -10
v -3 4 9
v -3 4 8
v -3 4 -8
v -3 4 -9
v -2 3 8
v -2 3 7
v -2 3 6
v -2 3 -6
v -2 3 -7
v -2 3 -8
v -2 4 8
v -2 4 6
v -2 4 -6
v -2 4 -8
v 0 3 6
v 0 3 2
v 0 3 -2
v 0 3 -6
v 0 4 7
v 0 4 6
v 0 4 2
v 0 4 -2
v 0 4 -6
v 0 4 -7
v 0 5 7
v 0 5 6
v 0 5 -6
v 0 5 -7
v 1 3 10
v 1 3 6
v 1 3 -6
v 1 3 -10
v 1 4 10
v 1 4 9
v 1 4 7
v 1 4 6
v 1 4 -6
v 1 4 -7
v 1 4 -9
v 1 4 -10
v 1 5 10
v 1 5 9
v 1 5 7
v 1 5 -7
v 1 5 -9
v 1 5 -10
v 1 6 10
v 1 6 9
v 1 6 -9
v 1 6 -10
v 3 4 10
v 3 4 9
v 3 4 -9
v 3 4 -10
v 3 5 10
v 3 5 9
v 3 5 -9
v 3 5 -10
v 4 0 10
v 4 0 9
v 4 0 -9
v 4 0 -10
v 4 3 9
v 4 3 -9
v 4 4 10
v 4 4 9
v 4 4 -9
v 4 4 -10
v 7 0 9
v 7 0 8
v 7 0 -8
v 7 0 -9
v 7 3 9
v 7 3 8
v 7 3 -8
v 7 3 -9
v 8 0 8
v 8 0 1
v 8 0 -1
v 8 0 -8
v 8 3 8
v 8 3 1
v 8 3 -1
v 8 3 -8
v -5 0 10
v -5 3 10
v -3 2 10
v -3 3 10
v -2 2 10
v -2 4 10
v -1 4 10
v -1 5 10
v 0 3 10
v 0 4 10
v 0 5 10
v 0 6 10
v 1 3 10
v 1 4 10
v 1 5 10
v 1 6 10
v 2 3 10
v 2 4 10
v 3 4 10
v 3 5 10
v 4 0 10
v 4 4 10
v -5 3 9
v -5 4 9
v -3 2 9
v -3 3 9
v -3 4 9
v -2 2 9
v -2 3 9
v 4 0 9
v 4 3 9
v 7 0 9
v 7 3 9
v -6 0 8
v -6 3 8
v -5 0 8
v -5 3 8
v -3 3 8
v -3 4 8
v -2 3 8
v -2 4 8
v -1 3 8
v -1 4 8
v 0 3 8
v 0 4 8
v 7 0 8
v 7 3 8
v 8 0 8
v 8 3 8
v -8 0 7
v -8 3 7
v -6 0 7
v -6 3 7
v -1 4 7
v -1 5 7
v 0 4 7
v 0 5 7
v -9 0 6
v -9 3 6
v -8 0 6
v -8 3 6
v -10 0 4
v -10 3 4
v -9 0 4
v -9 3 4
v -9 0 -1
v -9 3 -1
v -1 2 -1
v -1 3 -1
v 0 2 -1
v 0 3 -1
v 8 0 -1
v 8 3 -1
v -10 0 -2
v -10 3 -2
v -9 0 -2
v -9 3 -2
v -1 3 -2
v -1 4 -2
v 0 3 -2
v 0 4 -2
v -3 3 -6
v -3 4 -6
v -2 3 -6
v -2 4 -6
v -1 4 -6
v -1 5 -6
v 0 3 -6
v 0 4 -6
v 0 5 -6
v 1 3 -6
v 1 4 -6
v -5 3 -7
v -5 4 -7
v -4 3 -7
v -4 4 -7
v 0 4 -7
v 0 5 -7
v 1 4 -7
v 1 5 -7
v -4 3 -8
v -4 4 -8
v -3 3 -8
v -3 4 -8
v -2 3 -9
v -2 4 -9
v -1 4 -9
v -1 5 -9
v 0 3 -9
v 0 5 -9
v 0 6 -9
v 1 4 -9
v 1 5 -9
v 1 6 -9
v 2 3 -9
v 2 4 -9
v 3 4 -9
v 3 5 -9
v 4 3 -9
v 4 4 -9
v -2 3 9
v -2 4 9
v -1 4 9
v -1 5 9
v 0 3 9
v 0 5 9
v 0 6 9
v 1 4 9
v 1 5 9
v 1 6 9
v 2 3 9
v 2 4 9
v 3 4 9
v 3 5 9
v 4 3 9
v 4 4 9
v -4 3 8
v -4 4 8
v -3 3 8
v -3 4 8
v -5 3 7
v -5 4 7
v -4 3 7
v -4 4 7
v 0 4 7
v 0 5 7
v 1 4 7
v 1 5 7
v -3 3 6
v -3 4 6
v -2 3 6
v -2 4 6
v -1 4 6
v -1 5 6
v 0 3 6
v 0 4 6
v 0 5 6
v 1 3 6
v 1 4 6
v -10 0 2
v -10 3 2
v -9 0 2
v -9 3 2
v -1 3 2
v -1 4 2
v 0 3 2
v 0 4 2
v -9 0 1
v -9 3 1
v -1 2 1
v -1 3 1
v 0 2 1
v 0 3 1
v 8 0 1
v 8 3 1
v -10 0 -4
v -10 3 -4
v -9 0 -4
v -9 3 -4
v -9 0 -6
v -9 3 -6
v -8 0 -6
v -8 3 -6
v -8 0 -7
v -8 3 -7
v -6 0 -7
v -6 3 -7
v -1 4 -7
v -1 5 -7
v 0 4 -7
v 0 5 -7
v -6 0 -8
v -6 3 -8
v -5 0 -8
v -5 3 -8
v -3 3 -8
v -3 4 -8
v -2 3 -8
v -2 4 -8
v -1 3 -8
v -1 4 -8
v 0 3 -8
v 0 4 -8
v 7 0 -8
v 7 3 -8
v 8 0 -8
v 8 3 -8
v -5 3 -9
v -5 4 -9
v -3 2 -9
v -3 3 -9
v -3 4 -9
v -2 2 -9
v -2 3 -9
v 4 0 -9
v 4 3 -9
v 7 0 -9
v 7 3 -9
v -5 0 -10
v -5 3 -10
v -3 2 -10
v -3 3 -10
v -2 2 -10
v -2 4 -10
v -1 4 -10
v -1 5 -10
v 0 3 -10
v 0 4 -10
v 0 5 -10
v 0 6 -10
v 1 3 -10
v 1 4 -10
v 1 5 -10
v 1 6 -10
v 2 3 -10
v 2 4 -10
v 3 4 -10
v 3 5 -10
v 4 0 -10
v 4 4 -10
v -5 0 10
v 4 0 10
v 4 0 9
v 7 0 9
v -6 0 8
v -5 0 8
v 7 0 8
v 8 0 8
v -8 0 7
v -6 0 7
v -9 0 6
v -8 0 6
v -10 0 4
v -9 0 4
v -10 0 2
v -9 0 2
v -9 0 1
v 8 0 1
v -9 0 -1
v 8 0 -1
v -10 0 -2
v -9 0 -2
v -10 0 -4
v -9 0 -4
v -9 0 -6
v -8 0 -6
v -8 0 -7
v -6 0 -7
v -6 0 -8
v -5 0 -8
v 7 0 -8
v 8 0 -8
v 4 0 -9
v 7 0 -9
v -5 0 -10
v 4 0 -10
v 1 4 10
v 2 4 10
v 1 4 9
v 2 4 9
v 1 4 -9
v 2 4 -9
v 1 4 -10
v 2 4 -10
v -3 2 10
v -2 2 10
v -3 2 9
v -2 2 9
v -3 2 -9
v -2 2 -9
v -3 2 -10
v -2 2 -10
v -5 3 10
v -3 3 10
v 1 3 10
v 2 3 10
v -5 3 9
v -3 3 9
v -2 3 9
v 0 3 9
v 2 3 9
v 4 3 9
v 7 3 9
v -6 3 8
v -5 3 8
v -4 3 8
v -3 3 8
v -2 3 8
v -1 3 8
v 0 3 8
v 7 3 8
v 8 3 8
v -8 3 7
v -6 3 7
v -5 3 7
v -4 3 7
v -3 3 7
v -2 3 7
v -1 3 7
v -9 3 6
v -8 3 6
v -3 3 6
v -2 3 6
v -1 3 6
v 0 3 6
v 1 3 6
v -10 3 4
v -9 3 4
v -10 3 2
v -9 3 2
v -1 3 2
v 0 3 2
v -9 3 1
v -1 3 1
v 0 3 1
v 8 3 1
v -9 3 -1
v -1 3 -1
v 0 3 -1
v 8 3 -1
v -10 3 -2
v -9 3 -2
v -1 3 -2
v 0 3 -2
v -10 3 -4
v -9 3 -4
v -9 3 -6
v -8 3 -6
v -3 3 -6
v -2 3 -6
v -1 3 -6
v 0 3 -6
v 1 3 -6
v -8 3 -7
v -6 3 -7
v -5 3 -7
v -4 3 -7
v -3 3 -7
v -2 3 -7
v -1 3 -7
v -6 3 -8
v -5 3 -8
v -4 3 -8
v -3 3 -8
v -2 3 -8
v -1 3 -8
v 0 3 -8
v 7 3 -8
v 8 3 -8
v -5 3 -9
v -3 3 -9
v -2 3 -9
v 0 3 -9
v 2 3 -9
v 4 3 -9
v 7 3 -9
v -5 3 -10
v -3 3 -10
v 1 3 -10
v 2 3 -10
v -2 4 10
v -1 4 10
v 3 4 10
v 4 4 10
v -5 4 9
v -3 4 9
v -2 4 9
v -1 4 9
v 3 4 9
v 4 4 9
v -4 4 8
v -3 4 8
v -2 4 8
v -1 4 8
v 0 4 8
v -5 4 7
v -4 4 7
v -1 4 7
v 0 4 7
v 1 4 7
v -3 4 6
v -2 4 6
v -1 4 6
v 0 4 6
v 1 4 6
v -1 4 2
v 0 4 2
v -1 4 -2
v 0 4 -2
v -3 4 -6
v -2 4 -6
v -1 4 -6
v 0 4 -6
v 1 4 -6
v -5 4 -7
v -4 4 -7
v -1 4 -7
v 0 4 -7
v 1 4 -7
v -4 4 -8
v -3 4 -8
v -2 4 -8
v -1 4 -8
v 0 4 -8
v -5 4 -9
v -3 4 -9
v -2 4 -9
v -1 4 -9
v 3 4 -9
v 4 4 -9
v -2 4 -10
v -1 4 -10
v 3 4 -10
v 4 4 -10
v -1 5 10
v 0 5 10
v 1 5 10
v 3 5 10
v -1 5 9
v 0 5 9
v 1 5 9
v 3 5 9
v -1 5 7
v 0 5 7
v 1 5 7
v -1 5 6
v 0 5 6
v -1 5 -6
v 0 5 -6
v -1 5 -7
v 0 5 -7
v 1 5 -7
v -1 5 -9
v 0 5 -9
v 1 5 -9
v 3 5 -9
v -1 5 -10
v 0 5 -10
v 1 5 -10
v 3 5 -10
v 0 6 10
v 1 6 10
v 0 6 9
v 1 6 9
v 0 6 -9
v 1 6 -9
v 0 6 -10
v 1 6 -10

# faces
f 5/2/1 2/2/1 1/2/1
f 6/2/1 2/2/1 5/2/1
f 7/2/1 4/2/1 3/2/1
f 8/2/1 4/2/1 7/2/1
f 17/2/1 10/2/1 9/2/1
f 18/2/1 10/2/1 17/2/1
f 19/2/1 12/2/1 11/2/1
f 20/2/1 12/2/1 19/2/1
f 21/2/1 14/2/1 13/2/1
f 22/2/1 14/2/1 21/2/1
f 23/2/1 16/2/1 15/2/1
f 24/2/1 16/2/1 23/2/1
f 29/2/1 26/2/1 25/2/1
f 30/2/1 26/2/1 29/2/1
f 31/2/1 28/2/1 27/2/1
f 32/2/1 28/2/1 31/2/1
f 37/2/1 34/2/1 33/2/1
f 38/2/1 34/2/1 37/2/1
f 39/2/1 36/2/1 35/2/1
f 40/2/1 36/2/1 39/2/1
f 45/2/1 42/2/1 41/2/1
f 46/2/1 42/2/1 45/2/1
f 47/2/1 42/2/1 46/2/1
f 50/2/1 44/2/1 43/2/1
f 51/2/1 44/2/1 50/2/1
f 52/2/1 44/2/1 51/2/1
f 53/1/1 48/1/1 47/1/1
f 53/1/1 47/1/1 46/1/1
f 54/1/1 48/1/1 53/1/1
f 55/1/1 51/1/1 50/1/1
f 55/1/1 50/1/1 49/1/1
f 56/1/1 51/1/1 55/1/1
f 63/1/1 58/1/1 57/1/1
f 63/1/1 59/1/1 58/1/1
f 64/1/1 59/1/1 63/1/1
f 65/1/1 62/1/1 61/1/1
f 65/1/1 61/1/1 60/1/1
f 66/1/1 62/1/1 65/1/1
f 71/2/1 68/2/1 67/2/1
f 72/2/1 70/2/1 69/2/1
f 73/2/1 71/2/1 67/2/1
f 74/2/1 71/2/1 73/2/1
f 75/2/1 70/2/1 72/2/1
f 76/2/1 70/2/1 75/2/1
f 87/1/1 78/1/1 77/1/1
f 87/1/1 79/1/1 78/1/1
f 87/1/1 80/1/1 79/1/1
f 88/1/1 80/1/1 87/1/1
f 89/1/1 80/1/1 88/1/1
f 90/1/1 80/1/1 89/1/1
f 91/1/1 84/1/1 83/1/1
f 91/1/1 83/1/1 82/1/1
f 91/1/1 82/1/1 81/1/1
f 92/1/1 84/1/1 91/1/1
f 93/1/1 84/1/1 92/1/1
f 94/1/1 84/1/1 93/1/1
f 97/2/1 86/2/1 85/2/1
f 98/2/1 86/2/1 97/2/1
f 99/1/1 89/1/1 88/1/1
f 100/1/1 89/1/1 99/1/1
f 101/1/1 93/1/1 92/1/1
f 102/1/1 93/1/1 101/1/1
f 103/2/1 96/2/1 95/2/1
f 104/2/1 96/2/1 103/2/1
f 109/1/1 106/1/1 105/1/1
f 112/1/1 108/1/1 107/1/1
f 114/1/1 110/1/1 109/1/1
f 114/1/1 109/1/1 105/1/1
f 115/1/1 110/1/1 114/1/1
f 116/1/1 112/1/1 111/1/1
f 117/1/1 108/1/1 112/1/1
f 117/1/1 112/1/1 116/1/1
f 119/1/1 114/1/1 113/1/1
f 120/1/1 114/1/1 119/1/1
f 121/1/1 118/1/1 117/1/1
f 122/1/1 118/1/1 121/1/1
f 127/2/1 124/2/1 123/2/1
f 128/2/1 124/2/1 127/2/1
f 129/2/1 126/2/1 125/2/1
f 130/2/1 126/2/1 129/2/1
f 131/1/2 132/1/2 135/1/2
f 135/1/2 132/1/2 136/1/2
f 133/1/2 134/1/2 137/1/2
f 137/1/2 134/1/2 138/1/2
f 139/2/2 140/2/2 143/2/2
f 143/2/2 140/2/2 144/2/2
f 141/2/2 142/2/2 147/2/2
f 147/2/2 142/2/2 148/2/2
f 144/1/2 145/1/2 149/1/2
f 149/1/2 145/1/2 150/1/2
f 146/1/2 147/1/2 151/1/2
f 151/1/2 147/1/2 152/1/2
f 153/1/2 154/1/2 159/1/2
f 154/1/2 155/1/2 159/1/2
f 159/1/2 155/1/2 160/1/2
f 157/1/2 158/1/2 161/1/2
f 156/1/2 157/1/2 161/1/2
f 161/1/2 158/1/2 162/1/2
f 163/1/2 164/1/2 168/1/2
f 168/1/2 164/1/2 169/1/2
f 165/1/2 166/1/2 170/1/2
f 170/1/2 166/1/2 171/1/2
f 167/1/2 168/1/2 173/1/2
f 173/1/2 168/1/2 174/1/2
f 171/1/2 172/1/2 175/1/2
f 175/1/2 172/1/2 176/1/2
f 177/1/2 178/1/2 181/1/2
f 181/1/2 178/1/2 182/1/2
f 182/1/2 178/1/2 183/1/2
f 183/1/2 178/1/2 184/1/2
f 179/1/2 180/1/2 185/1/2
f 185/1/2 180/1/2 186/1/2
f 186/1/2 180/1/2 187/1/2
f 187/1/2 180/1/2 188/1/2
f 182/1/2 183/1/2 190/1/2
f 190/1/2 183/1/2 191/1/2
f 186/1/2 187/1/2 192/1/2
f 192/1/2 187/1/2 193/1/2
f 189/1/2 190/1/2 195/1/2
f 195/1/2 190/1/2 196/1/2
f 193/1/2 194/1/2 197/1/2
f 197/1/2 194/1/2 198/1/2
f 199/2/2 200/2/2 203/2/2
f 203/2/2 200/2/2 204/2/2
f 201/2/2 202/2/2 205/2/2
f 205/2/2 202/2/2 206/2/2
f 207/2/2 208/2/2 211/2/2
f 209/2/2 210/2/2 212/2/2
f 207/2/2 211/2/2 213/2/2
f 213/2/2 211/2/2 214/2/2
f 212/2/2 210/2/2 215/2/2
f 215/2/2 210/2/2 216/2/2
f 217/2/2 218/2/2 221/2/2
f 221/2/2 218/2/2 222/2/2
f 219/2/2 220/2/2 223/2/2
f 223/2/2 220/2/2 224/2/2
f 225/2/2 226/2/2 229/2/2
f 229/2/2 226/2/2 230/2/2
f 227/2/2 228/2/2 231/2/2
f 231/2/2 228/2/2 232/2/2
f 235/2/3 234/2/3 233/2/3
f 236/2/3 234/2/3 235/2/3
f 237/2/3 235/2/3 233/2/3
f 239/2/3 238/2/3 237/2/3
f 241/2/3 239/2/3 237/2/3
f 241/2/3 240/2/3 239/2/3
f 242/2/3 240/2/3 241/2/3
f 243/2/3 240/2/3 242/2/3
f 245/2/3 241/2/3 237/2/3
f 245/1/3 242/1/3 241/1/3
f 246/2/3 243/2/3 242/2/3
f 246/1/3 242/1/3 245/1/3
f 247/1/3 244/1/3 243/1/3
f 247/2/3 243/2/3 246/2/3
f 248/1/3 244/1/3 247/1/3
f 249/2/3 245/2/3 237/2/3
f 250/2/3 247/2/3 246/2/3
f 251/2/3 247/2/3 250/2/3
f 251/2/3 250/2/3 249/2/3
f 252/2/3 247/2/3 251/2/3
f 253/2/3 237/2/3 233/2/3
f 253/2/3 249/2/3 237/2/3
f 253/2/3 251/2/3 249/2/3
f 254/2/3 251/2/3 253/2/3
f 258/1/3 256/1/3 255/1/3
f 259/1/3 256/1/3 258/1/3
f 260/2/3 258/2/3 257/2/3
f 261/2/3 258/2/3 260/2/3
f 264/2/3 263/2/3 262/2/3
f 265/2/3 263/2/3 264/2/3
f 268/2/3 267/2/3 266/2/3
f 269/2/3 267/2/3 268/2/3
f 272/1/3 271/1/3 270/1/3
f 273/1/3 271/1/3 272/1/3
f 276/1/3 275/1/3 274/1/3
f 277/1/3 275/1/3 276/1/3
f 280/2/3 279/2/3 278/2/3
f 281/2/3 279/2/3 280/2/3
f 284/2/3 283/2/3 282/2/3
f 285/2/3 283/2/3 284/2/3
f 288/1/3 287/1/3 286/1/3
f 289/1/3 287/1/3 288/1/3
f 292/2/3 291/2/3 290/2/3
f 293/2/3 291/2/3 292/2/3
f 296/2/3 295/2/3 294/2/3
f 297/2/3 295/2/3 296/2/3
f 300/2/3 299/2/3 298/2/3
f 301/2/3 299/2/3 300/2/3
f 302/2/3 300/2/3 298/2/3
f 302/1/3 301/1/3 300/1/3
f 303/1/3 301/1/3 302/1/3
f 304/2/3 302/2/3 298/2/3
f 304/2/3 303/2/3 302/2/3
f 305/2/3 303/2/3 304/2/3
f 308/2/3 307/2/3 306/2/3
f 309/2/3 307/2/3 308/2/3
f 312/1/3 311/1/3 310/1/3
f 313/1/3 311/1/3 312/1/3
f 316/1/3 315/1/3 314/1/3
f 317/1/3 315/1/3 316/1/3
f 321/1/3 319/1/3 318/1/3
f 322/1/3 319/1/3 321/1/3
f 323/1/3 321/1/3 320/1/3
f 324/1/3 321/1/3 323/1/3
f 327/1/3 326/1/3 325/1/3
f 328/1/3 326/1/3 327/1/3
f 331/1/3 330/1/3 329/1/3
f 332/1/3 330/1/3 331/1/3
f 335/1/3 334/1/3 333/1/3
f 336/1/3 334/1/3 335/1/3
f 339/2/3 338/2/3 337/2/3
f 341/2/3 339/2/3 337/2/3
f 341/2/3 340/2/3 339/2/3
f 342/2/3 340/2/3 341/2/3
f 345/1/3 343/1/3 342/1/3
f 346/1/3 343/1/3 345/1/3
f 348/2/3 345/2/3 344/2/3
f 349/2/3 345/2/3 348/2/3
f 349/2/3 348/2/3 347/2/3
f 350/2/3 345/2/3 349/2/3
f 351/2/3 349/2/3 347/2/3
f 352/2/3 349/2/3 351/2/3
f 353/2/4 354/2/4 355/2/4
f 353/2/4 355/2/4 357/2/4
f 355/2/4 356/2/4 357/2/4
f 357/2/4 356/2/4 358/2/4
f 358/1/4 359/1/4 361/1/4
f 361/1/4 359/1/4 362/1/4
f 360/2/4 361/2/4 364/2/4
f 364/2/4 361/2/4 365/2/4
f 363/2/4 364/2/4 365/2/4
f 365/2/4 361/2/4 366/2/4
f 363/2/4 365/2/4 367/2/4
f 367/2/4 365/2/4 368/2/4
f 369/1/4 370/1/4 371/1/4
f 371/1/4 370/1/4 372/1/4
f 373/1/4 374/1/4 375/1/4
f 375/1/4 374/1/4 376/1/4
f 377/1/4 378/1/4 379/1/4
f 379/1/4 378/1/4 380/1/4
f 381/1/4 382/1/4 383/1/4
f 383/1/4 382/1/4 384/1/4
f 385/1/4 386/1/4 388/1/4
f 388/1/4 386/1/4 389/1/4
f 387/1/4 388/1/4 390/1/4
f 390/1/4 388/1/4 391/1/4
f 392/2/4 393/2/4 394/2/4
f 394/2/4 393/2/4 395/2/4
f 396/1/4 397/1/4 398/1/4
f 398/1/4 397/1/4 399/1/4
f 400/2/4 401/2/4 402/2/4
f 402/2/4 401/2/4 403/2/4
f 400/2/4 402/2/4 404/2/4
f 402/1/4 403/1/4 404/1/4
f 404/1/4 403/1/4 405/1/4
f 400/2/4 404/2/4 406/2/4
f 404/2/4 405/2/4 406/2/4
f 406/2/4 405/2/4 407/2/4
f 408/2/4 409/2/4 410/2/4
f 410/2/4 409/2/4 411/2/4
f 412/2/4 413/2/4 414/2/4
f 414/2/4 413/2/4 415/2/4
f 416/2/4 417/2/4 418/2/4
f 418/2/4 417/2/4 419/2/4
f 420/1/4 421/1/4 422/1/4
f 422/1/4 421/1/4 423/1/4
f 424/2/4 425/2/4 426/2/4
f 426/2/4 425/2/4 427/2/4
f 428/1/4 429/1/4 430/1/4
f 430/1/4 429/1/4 431/1/4
f 432/1/4 433/1/4 434/1/4
f 434/1/4 433/1/4 435/1/4
f 436/2/4 437/2/4 438/2/4
f 438/2/4 437/2/4 439/2/4
f 440/1/4 441/1/4 443/1/4
f 443/1/4 441/1/4 444/1/4
f 442/2/4 443/2/4 445/2/4
f 445/2/4 443/2/4 446/2/4
f 447/2/4 448/2/4 449/2/4
f 449/2/4 448/2/4 450/2/4
f 451/2/4 452/2/4 453/2/4
f 453/2/4 452/2/4 454/2/4
f 451/2/4 453/2/4 455/2/4
f 455/2/4 456/2/4 457/2/4
f 455/2/4 457/2/4 459/2/4
f 457/2/4 458/2/4 459/2/4
f 459/2/4 458/2/4 460/2/4
f 460/2/4 458/2/4 461/2/4
f 455/2/4 459/2/4 463/2/4
f 459/1/4 460/1/4 463/1/4
f 460/2/4 461/2/4 464/2/4
f 463/1/4 460/1/4 464/1/4
f 461/1/4 462/1/4 465/1/4
f 464/2/4 461/2/4 465/2/4
f 465/1/4 462/1/4 466/1/4
f 455/2/4 463/2/4 467/2/4
f 464/2/4 465/2/4 468/2/4
f 468/2/4 465/2/4 469/2/4
f 467/2/4 468/2/4 469/2/4
f 469/2/4 465/2/4 470/2/4
f 451/2/4 455/2/4 471/2/4
f 455/2/4 467/2/4 471/2/4
f 467/2/4 469/2/4 471/2/4
f 471/2/4 469/2/4 472/2/4
f 475/2/5 474/2/5 473/2/5
f 478/2/5 475/2/5 473/2/5
f 478/2/5 476/2/5 475/2/5
f 479/2/5 476/2/5 478/2/5
f 482/2/5 478/2/5 477/2/5
f 482/2/5 480/2/5 479/2/5
f 482/2/5 479/2/5 478/2/5
f 484/2/5 482/2/5 481/2/5
f 486/2/5 484/2/5 483/2/5
f 487/2/5 486/2/5 485/2/5
f 488/2/5 484/2/5 486/2/5
f 488/2/5 486/2/5 487/2/5
f 489/2/5 484/2/5 488/2/5
f 490/2/5 480/2/5 482/2/5
f 490/2/5 484/2/5 489/2/5
f 490/2/5 482/2/5 484/2/5
f 494/2/5 492/2/5 491/2/5
f 495/2/5 494/2/5 493/2/5
f 496/2/5 492/2/5 494/2/5
f 496/2/5 494/2/5 495/2/5
f 497/2/5 492/2/5 496/2/5
f 498/2/5 492/2/5 497/2/5
f 499/2/5 492/2/5 498/2/5
f 500/2/5 492/2/5 499/2/5
f 501/2/5 492/2/5 500/2/5
f 502/2/5 492/2/5 501/2/5
f 503/2/5 492/2/5 502/2/5
f 504/2/5 492/2/5 503/2/5
f 505/2/5 503/2/5 502/2/5
f 506/2/5 503/2/5 505/2/5
f 507/2/5 505/2/5 502/2/5
f 508/2/5 505/2/5 507/2/5
f 511/2/5 510/2/5 509/2/5
f 512/2/5 510/2/5 511/2/5
f 515/2/5 514/2/5 513/2/5
f 516/2/5 514/2/5 515/2/5
f 517/2/6 518/2/6 519/2/6
f 519/2/6 518/2/6 520/2/6
f 521/2/6 522/2/6 523/2/6
f 523/2/6 522/2/6 524/2/6
f 525/2/6 526/2/6 529/2/6
f 529/2/6 526/2/6 530/2/6
f 527/2/6 528/2/6 533/2/6
f 531/2/6 532/2/6 539/2/6
f 530/2/6 531/2/6 539/2/6
f 539/2/6 532/2/6 540/2/6
f 540/2/6 532/2/6 541/2/6
f 541/2/6 532/2/6 542/2/6
f 534/2/6 535/2/6 543/2/6
f 533/2/6 534/2/6 543/2/6
f 536/2/6 537/2/6 546/2/6
f 546/2/6 537/2/6 547/2/6
f 538/1/6 539/1/6 548/1/6
f 548/1/6 539/1/6 549/1/6
f 540/2/6 541/2/6 550/2/6
f 550/2/6 541/2/6 551/2/6
f 548/2/6 549/2/6 553/2/6
f 546/2/6 547/2/6 553/2/6
f 545/2/6 546/2/6 553/2/6
f 547/2/6 548/2/6 553/2/6
f 553/2/6 549/2/6 554/2/6
f 550/1/6 551/1/6 555/1/6
f 555/1/6 551/1/6 556/1/6
f 533/2/6 543/2/6 558/2/6
f 543/2/6 544/2/6 558/2/6
f 527/2/6 533/2/6 558/2/6
f 554/2/6 555/2/6 560/2/6
f 555/2/6 556/2/6 560/2/6
f 552/2/6 553/2/6 560/2/6
f 553/2/6 554/2/6 560/2/6
f 559/2/6 560/2/6 561/2/6
f 560/2/6 556/2/6 562/2/6
f 561/2/6 560/2/6 562/2/6
f 562/2/6 556/2/6 563/2/6
f 557/2/6 558/2/6 564/2/6
f 562/2/6 563/2/6 565/2/6
f 563/1/6 564/1/6 566/1/6
f 565/2/6 563/2/6 566/2/6
f 564/2/6 558/2/6 567/2/6
f 566/1/6 564/1/6 567/1/6
f 558/2/6 544/2/6 568/2/6
f 567/2/6 558/2/6 568/2/6
f 569/2/6 570/2/6 574/2/6
f 570/1/6 571/1/6 575/1/6
f 574/2/6 570/2/6 575/2/6
f 571/2/6 572/2/6 576/2/6
f 575/1/6 571/1/6 576/1/6
f 574/2/6 575/2/6 577/2/6
f 573/2/6 574/2/6 577/2/6
f 577/2/6 575/2/6 578/2/6
f 578/2/6 575/2/6 579/2/6
f 579/2/6 575/2/6 580/2/6
f 580/2/6 575/2/6 581/2/6
f 581/2/6 575/2/6 582/2/6
f 582/2/6 575/2/6 583/2/6
f 576/2/6 572/2/6 584/2/6
f 584/2/6 572/2/6 585/2/6
f 580/2/6 581/2/6 586/2/6
f 586/2/6 581/2/6 587/2/6
f 587/2/6 581/2/6 588/2/6
f 588/2/6 581/2/6 589/2/6
f 589/2/6 581/2/6 590/2/6
f 582/1/6 583/1/6 591/1/6
f 591/1/6 583/1/6 592/1/6
f 587/2/6 588/2/6 593/2/6
f 593/2/6 588/2/6 594/2/6
f 589/1/6 590/1/6 595/1/6
f 595/1/6 590/1/6 596/1/6
f 591/2/6 592/2/6 597/2/6
f 597/2/6 592/2/6 598/2/6
f 585/2/6 572/2/6 600/2/6
f 600/2/6 572/2/6 601/2/6
f 598/2/6 599/2/6 603/2/6
f 596/2/6 597/2/6 603/2/6
f 597/2/6 598/2/6 603/2/6
f 603/2/6 599/2/6 604/2/6
f 604/2/6 599/2/6 605/2/6
f 585/2/6 600/2/6 606/2/6
f 606/2/6 600/2/6 607/2/6
f 607/2/6 600/2/6 608/2/6
f 602/2/6 603/2/6 609/2/6
f 609/2/6 603/2/6 610/2/6
f 585/2/6 606/2/6 611/2/6
f 611/2/6 606/2/6 612/2/6
f 613/2/6 614/2/6 619/2/6
f 619/2/6 614/2/6 620/2/6
f 615/2/6 616/2/6 621/2/6
f 621/2/6 616/2/6 622/2/6
f 617/1/6 618/1/6 623/1/6
f 623/1/6 618/1/6 624/1/6
f 617/1/6 623/1/6 628/1/6
f 628/1/6 623/1/6 629/1/6
f 626/1/6 627/1/6 630/1/6
f 630/1/6 627/1/6 631/1/6
f 624/1/6 625/1/6 633/1/6
f 633/1/6 625/1/6 634/1/6
f 631/1/6 632/1/6 636/1/6
f 636/1/6 632/1/6 637/1/6
f 635/1/6 636/1/6 638/1/6
f 638/1/6 636/1/6 639/1/6
f 640/1/6 641/1/6 644/1/6
f 644/1/6 641/1/6 645/1/6
f 645/1/6 646/1/6 650/1/6
f 650/1/6 646/1/6 651/1/6
f 647/1/6 648/1/6 652/1/6
f 642/1/6 643/1/6 653/1/6
f 653/1/6 643/1/6 654/1/6
f 649/1/6 650/1/6 655/1/6
f 655/1/6 650/1/6 656/1/6
f 647/1/6 652/1/6 657/1/6
f 652/1/6 653/1/6 657/1/6
f 657/1/6 653/1/6 658/1/6
f 659/2/6 660/2/6 663/2/6
f 663/2/6 660/2/6 664/2/6
f 661/2/6 662/2/6 665/2/6
f 665/2/6 662/2/6 666/2/6
f 667/2/6 668/2/6 671/2/6
f 671/2/6 668/2/6 672/2/6
f 669/2/6 670/2/6 673/2/6
f 673/2/6 670/2/6 674/2/6
f 672/1/6 673/1/6 676/1/6
f 676/1/6 673/1/6 677/1/6
f 675/1/6 676/1/6 678/1/6
f 678/1/6 676/1/6 679/1/6
f 680/1/6 681/1/6 682/1/6
f 682/1/6 681/1/6 683/1/6
f 683/1/6 684/1/6 686/1/6
f 686/1/6 684/1/6 687/1/6
f 685/2/6 686/2/6 689/2/6
f 689/2/6 686/2/6 690/2/6
f 687/2/6 688/2/6 691/2/6
f 691/2/6 688/2/6 692/2/6
f 693/1/6 694/1/6 695/1/6
f 695/1/6 694/1/6 696/1/6
f 697/1/6 698/1/6 699/1/6
f 699/1/6 698/1/6 700/1/6
