# MagicaVoxel @ Ephtracy

# group
g night

# material
mtllib night.mtl
usemtl palette

# normals
vn -1 0 0
vn 1 0 0
vn 0 0 1
vn 0 0 -1
vn 0 -1 0
vn 0 1 0

# texcoords
vt 0.798828 0.5
vt 0.876953 0.5
vt 0.994141 0.5

# verts
v -5 0 -2
v -5 0 -12
v -5 10 -2
v -5 10 -12
v -3 4 5
v -3 4 4
v -3 4 -2
v -3 7 5
v -3 7 4
v -3 7 -2
v -2 3 -7
v -2 3 -8
v -2 3 -9
v -2 3 -10
v -2 4 -7
v -2 4 -8
v -2 4 -9
v -2 4 -10
v -2 5 -7
v -2 5 -8
v -2 6 -7
v -2 6 -8
v -1 3 -8
v -1 3 -9
v -1 4 -7
v -1 4 -8
v -1 4 -9
v -1 4 -10
v -1 4 -12
v -1 5 -7
v -1 5 -8
v -1 5 -9
v -1 5 -10
v -1 5 -11
v -1 6 -8
v -1 6 -9
v -1 6 -10
v -1 6 -11
v -1 7 -8
v -1 7 -9
v -1 7 -10
v -1 7 -12
v 1 4 5
v 1 4 4
v 1 4 -2
v 1 6 4
v 1 6 -2
v 1 7 5
v 1 7 4
v 1 7 -2
v 3 3 -4
v 3 3 -5
v 3 3 -6
v 3 3 -7
v 3 4 -4
v 3 4 -5
v 3 4 -6
v 3 4 -7
v 3 4 -8
v 3 4 -11
v 3 5 -4
v 3 5 -5
v 3 5 -8
v 3 5 -9
v 3 5 -10
v 3 5 -11
v 3 6 -4
v 3 6 -5
v 3 6 -6
v 3 6 -7
v 3 6 -8
v 3 6 -9
v 3 6 -10
v 3 6 -11
v 3 7 -6
v 3 7 -7
v 3 7 -8
v 3 7 -11
v 4 3 -5
v 4 3 -6
v 4 4 -4
v 4 4 -5
v 4 4 -6
v 4 4 -8
v 4 4 -11
v 4 4 -12
v 4 5 -4
v 4 5 -5
v 4 5 -8
v 4 5 -9
v 4 5 -10
v 4 5 -11
v 4 6 -5
v 4 6 -7
v 4 6 -8
v 4 6 -9
v 4 6 -10
v 4 6 -11
v 4 7 -7
v 4 7 -8
v 4 7 -11
v 4 7 -12
v -4 3 -8
v -4 3 -9
v -4 4 -7
v -4 4 -8
v -4 4 -9
v -4 4 -10
v -4 4 -11
v -4 4 -12
v -4 5 -7
v -4 5 -8
v -4 5 -9
v -4 5 -10
v -4 5 -11
v -4 6 -8
v -4 6 -9
v -4 6 -10
v -4 6 -11
v -4 7 -11
v -4 7 -12
v -3 3 -7
v -3 3 -8
v -3 3 -9
v -3 3 -10
v -3 4 -7
v -3 4 -8
v -3 4 -9
v -3 4 -10
v -3 4 -11
v -3 5 -7
v -3 5 -8
v -3 5 -9
v -3 5 -10
v -3 5 -11
v -3 6 -7
v -3 6 -8
v -3 6 -9
v -3 6 -10
v -3 6 -11
v -3 7 -9
v -3 7 -11
v -2 6 -8
v -2 6 -9
v -2 7 -8
v -2 7 -9
v 0 4 5
v 0 4 4
v 0 4 -2
v 0 6 4
v 0 6 -2
v 0 7 5
v 0 7 4
v 0 7 -2
v 1 3 -5
v 1 3 -6
v 1 4 -4
v 1 4 -5
v 1 4 -6
v 1 4 -9
v 1 4 -10
v 1 4 -12
v 1 5 -4
v 1 5 -5
v 1 5 -8
v 1 5 -9
v 1 5 -10
v 1 5 -11
v 1 6 -5
v 1 6 -7
v 1 6 -8
v 1 6 -9
v 1 6 -10
v 1 6 -11
v 1 7 -7
v 1 7 -9
v 1 7 -10
v 1 7 -12
v 2 3 -4
v 2 3 -5
v 2 3 -6
v 2 3 -7
v 2 4 -4
v 2 4 -5
v 2 4 -6
v 2 4 -7
v 2 5 -4
v 2 5 -5
v 2 6 -4
v 2 6 -5
v 2 6 -6
v 2 6 -7
v 2 7 -6
v 2 7 -7
v 4 4 5
v 4 4 4
v 4 4 -2
v 4 7 5
v 4 7 4
v 4 7 -2
v 5 0 -2
v 5 0 -12
v 5 10 -2
v 5 10 -12
v -3 4 5
v -3 7 5
v 0 4 5
v 0 7 5
v 1 4 5
v 1 7 5
v 4 4 5
v 4 7 5
v -5 0 -2
v -5 10 -2
v -3 4 -2
v -3 7 -2
v -2 4 -2
v 0 4 -2
v 0 6 -2
v 0 7 -2
v 1 4 -2
v 1 6 -2
v 1 7 -2
v 3 4 -2
v 4 4 -2
v 4 7 -2
v 5 0 -2
v 5 10 -2
v 1 3 -6
v 1 4 -6
v 2 3 -6
v 2 4 -6
v 3 3 -6
v 3 4 -6
v 4 3 -6
v 4 4 -6
v 2 3 -7
v 2 4 -7
v 3 3 -7
v 3 4 -7
v 3 4 -8
v 3 5 -8
v 3 6 -8
v 3 7 -8
v 4 4 -8
v 4 5 -8
v 4 6 -8
v 4 7 -8
v -4 3 -9
v -4 4 -9
v -4 5 -9
v -4 6 -9
v -3 3 -9
v -3 4 -9
v -3 5 -9
v -3 6 -9
v -2 3 -9
v -2 4 -9
v -1 3 -9
v -1 4 -9
v 3 5 -9
v 3 6 -9
v 4 5 -9
v 4 6 -9
v -4 4 -10
v -4 5 -10
v -3 3 -10
v -3 4 -10
v -3 5 -10
v -2 3 -10
v -2 4 -10
v -1 4 -10
v -1 5 -10
v -1 6 -10
v -1 7 -10
v 1 4 -10
v 1 5 -10
v 1 6 -10
v 1 7 -10
v -1 5 -11
v -1 6 -11
v 1 5 -11
v 1 6 -11
v 1 4 -4
v 1 5 -4
v 2 3 -4
v 2 4 -4
v 2 5 -4
v 2 6 -4
v 3 3 -4
v 3 4 -4
v 3 5 -4
v 3 6 -4
v 4 4 -4
v 4 5 -4
v 1 3 -5
v 1 4 -5
v 1 5 -5
v 1 6 -5
v 2 3 -5
v 2 4 -5
v 2 5 -5
v 2 6 -5
v 3 3 -5
v 3 4 -5
v 3 5 -5
v 3 6 -5
v 4 3 -5
v 4 4 -5
v 4 5 -5
v 4 6 -5
v 2 6 -6
v 2 7 -6
v 3 6 -6
v 3 7 -6
v -4 4 -7
v -4 5 -7
v -3 3 -7
v -3 4 -7
v -3 5 -7
v -3 6 -7
v -2 3 -7
v -2 4 -7
v -2 5 -7
v -2 6 -7
v -1 4 -7
v -1 5 -7
v 1 6 -7
v 1 7 -7
v 2 6 -7
v 2 7 -7
v 3 6 -7
v 3 7 -7
v 4 6 -7
v 4 7 -7
v -4 3 -8
v -4 4 -8
v -4 5 -8
v -4 6 -8
v -3 3 -8
v -3 4 -8
v -3 5 -8
v -3 6 -8
v -2 3 -8
v -2 4 -8
v -2 5 -8
v -2 6 -8
v -2 7 -8
v -1 3 -8
v -1 4 -8
v -1 5 -8
v -1 6 -8
v -1 7 -8
v 1 5 -8
v 1 6 -8
v -3 6 -9
v -3 7 -9
v -2 6 -9
v -2 7 -9
v -1 4 -9
v -1 5 -9
v -1 6 -9
v -1 7 -9
v 1 4 -9
v 1 5 -9
v 1 6 -9
v 1 7 -9
v -4 5 -10
v -4 6 -10
v -3 5 -10
v -3 6 -10
v 3 5 -10
v 3 6 -10
v 4 5 -10
v 4 6 -10
v -4 4 -11
v -4 5 -11
v -4 6 -11
v -4 7 -11
v -3 4 -11
v -3 5 -11
v -3 6 -11
v -3 7 -11
v 3 4 -11
v 3 5 -11
v 3 6 -11
v 3 7 -11
v 4 4 -11
v 4 5 -11
v 4 6 -11
v 4 7 -11
v -5 0 -12
v -5 10 -12
v -4 4 -12
v -4 7 -12
v -1 4 -12
v -1 7 -12
v 1 4 -12
v 1 7 -12
v 4 4 -12
v 4 7 -12
v 5 0 -12
v 5 10 -12
v -5 0 -2
v 5 0 -2
v -5 0 -12
v 5 0 -12
v -3 4 5
v 0 4 5
v 1 4 5
v 4 4 5
v -3 4 4
v -2 4 4
v 0 4 4
v 1 4 4
v 3 4 4
v 4 4 4
v -3 4 -2
v -2 4 -2
v 0 4 -2
v 1 4 -2
v 3 4 -2
v 4 4 -2
v 1 5 -4
v 2 5 -4
v 3 5 -4
v 4 5 -4
v 1 5 -5
v 2 5 -5
v 3 5 -5
v 4 5 -5
v -4 5 -7
v -3 5 -7
v -2 5 -7
v -1 5 -7
v -4 5 -8
v -3 5 -8
v -2 5 -8
v -1 5 -8
v -4 5 -9
v -3 5 -9
v -4 5 -10
v -3 5 -10
v 2 6 -4
v 3 6 -4
v 1 6 -5
v 2 6 -5
v 3 6 -5
v 4 6 -5
v 2 6 -6
v 3 6 -6
v -3 6 -7
v -2 6 -7
v 1 6 -7
v 2 6 -7
v 3 6 -7
v 4 6 -7
v -4 6 -8
v -3 6 -8
v -2 6 -8
v -1 6 -8
v 1 6 -8
v 3 6 -8
v 4 6 -8
v -4 6 -9
v -3 6 -9
v -2 6 -9
v -1 6 -9
v 1 6 -9
v 3 6 -9
v 4 6 -9
v -4 6 -10
v -3 6 -10
v -1 6 -10
v 1 6 -10
v 3 6 -10
v 4 6 -10
v -4 6 -11
v -3 6 -11
v -1 6 -11
v 1 6 -11
v 3 6 -11
v 4 6 -11
v 2 7 -6
v 3 7 -6
v 1 7 -7
v 2 7 -7
v 3 7 -7
v 4 7 -7
v -2 7 -8
v -1 7 -8
v 3 7 -8
v 4 7 -8
v -3 7 -9
v -2 7 -9
v -1 7 -9
v 1 7 -9
v -1 7 -10
v 1 7 -10
v -4 7 -11
v -3 7 -11
v 3 7 -11
v 4 7 -11
v -4 7 -12
v -1 7 -12
v 1 7 -12
v 4 7 -12
v 2 3 -4
v 3 3 -4
v 1 3 -5
v 2 3 -5
v 3 3 -5
v 4 3 -5
v 1 3 -6
v 2 3 -6
v 3 3 -6
v 4 3 -6
v -3 3 -7
v -2 3 -7
v 2 3 -7
v 3 3 -7
v -4 3 -8
v -3 3 -8
v -2 3 -8
v -1 3 -8
v -4 3 -9
v -3 3 -9
v -2 3 -9
v -1 3 -9
v -3 3 -10
v -2 3 -10
v 1 4 -4
v 2 4 -4
v 3 4 -4
v 4 4 -4
v 1 4 -5
v 2 4 -5
v 3 4 -5
v 4 4 -5
v 1 4 -6
v 2 4 -6
v 3 4 -6
v 4 4 -6
v -4 4 -7
v -3 4 -7
v -2 4 -7
v -1 4 -7
v 2 4 -7
v 3 4 -7
v -4 4 -8
v -3 4 -8
v -2 4 -8
v -1 4 -8
v 3 4 -8
v 4 4 -8
v -4 4 -9
v -3 4 -9
v -2 4 -9
v -1 4 -9
v 1 4 -9
v -4 4 -10
v -3 4 -10
v -2 4 -10
v -1 4 -10
v 1 4 -10
v -4 4 -11
v -3 4 -11
v 3 4 -11
v 4 4 -11
v -4 4 -12
v -1 4 -12
v 1 4 -12
v 4 4 -12
v -1 5 -8
v 1 5 -8
v 3 5 -8
v 4 5 -8
v -1 5 -9
v 1 5 -9
v 3 5 -9
v 4 5 -9
v -4 5 -10
v -3 5 -10
v -1 5 -10
v 1 5 -10
v 3 5 -10
v 4 5 -10
v -4 5 -11
v -3 5 -11
v -1 5 -11
v 1 5 -11
v 3 5 -11
v 4 5 -11
v -3 7 5
v 0 7 5
v 1 7 5
v 4 7 5
v -3 7 4
v 0 7 4
v 1 7 4
v 4 7 4
v -3 7 -2
v 0 7 -2
v 1 7 -2
v 4 7 -2
v -5 10 -2
v 5 10 -2
v -5 10 -12
v 5 10 -12

# faces
f 3/3/1 2/3/1 1/3/1
f 4/3/1 2/3/1 3/3/1
f 8/1/1 6/1/1 5/1/1
f 9/2/1 7/2/1 6/2/1
f 9/1/1 6/1/1 8/1/1
f 10/2/1 7/2/1 9/2/1
f 15/3/1 12/3/1 11/3/1
f 16/3/1 12/3/1 15/3/1
f 17/3/1 14/3/1 13/3/1
f 18/3/1 14/3/1 17/3/1
f 21/3/1 20/3/1 19/3/1
f 22/3/1 20/3/1 21/3/1
f 26/3/1 24/3/1 23/3/1
f 27/3/1 24/3/1 26/3/1
f 30/3/1 26/3/1 25/3/1
f 30/3/1 27/3/1 26/3/1
f 31/3/1 27/3/1 30/3/1
f 32/3/1 27/3/1 31/3/1
f 33/3/1 29/3/1 28/3/1
f 34/3/1 29/3/1 33/3/1
f 38/3/1 29/3/1 34/3/1
f 39/3/1 36/3/1 35/3/1
f 40/3/1 36/3/1 39/3/1
f 41/3/1 38/3/1 37/3/1
f 42/3/1 29/3/1 38/3/1
f 42/3/1 38/3/1 41/3/1
f 46/1/1 44/1/1 43/1/1
f 46/3/1 45/3/1 44/3/1
f 47/3/1 45/3/1 46/3/1
f 48/1/1 46/1/1 43/1/1
f 49/2/1 47/2/1 46/2/1
f 49/1/1 46/1/1 48/1/1
f 50/2/1 47/2/1 49/2/1
f 55/3/1 52/3/1 51/3/1
f 56/3/1 52/3/1 55/3/1
f 57/3/1 54/3/1 53/3/1
f 58/3/1 54/3/1 57/3/1
f 63/3/1 60/3/1 59/3/1
f 64/3/1 60/3/1 63/3/1
f 65/3/1 60/3/1 64/3/1
f 66/3/1 60/3/1 65/3/1
f 67/3/1 62/3/1 61/3/1
f 68/3/1 62/3/1 67/3/1
f 72/3/1 65/3/1 64/3/1
f 73/3/1 65/3/1 72/3/1
f 75/3/1 70/3/1 69/3/1
f 76/3/1 70/3/1 75/3/1
f 77/3/1 74/3/1 73/3/1
f 77/3/1 73/3/1 72/3/1
f 77/3/1 72/3/1 71/3/1
f 78/3/1 74/3/1 77/3/1
f 82/3/1 80/3/1 79/3/1
f 83/3/1 80/3/1 82/3/1
f 87/3/1 82/3/1 81/3/1
f 87/3/1 83/3/1 82/3/1
f 87/3/1 84/3/1 83/3/1
f 88/3/1 84/3/1 87/3/1
f 89/3/1 84/3/1 88/3/1
f 92/3/1 86/3/1 85/3/1
f 93/3/1 90/3/1 89/3/1
f 93/3/1 89/3/1 88/3/1
f 94/3/1 90/3/1 93/3/1
f 95/3/1 90/3/1 94/3/1
f 96/3/1 90/3/1 95/3/1
f 97/3/1 92/3/1 91/3/1
f 98/3/1 86/3/1 92/3/1
f 98/3/1 92/3/1 97/3/1
f 99/3/1 95/3/1 94/3/1
f 100/3/1 95/3/1 99/3/1
f 101/3/1 86/3/1 98/3/1
f 102/3/1 86/3/1 101/3/1
f 103/3/2 104/3/2 106/3/2
f 106/3/2 104/3/2 107/3/2
f 105/3/2 106/3/2 111/3/2
f 106/3/2 107/3/2 111/3/2
f 107/3/2 108/3/2 111/3/2
f 111/3/2 108/3/2 112/3/2
f 112/3/2 108/3/2 113/3/2
f 113/3/2 108/3/2 114/3/2
f 109/3/2 110/3/2 115/3/2
f 112/3/2 113/3/2 116/3/2
f 116/3/2 113/3/2 117/3/2
f 114/3/2 115/3/2 118/3/2
f 115/3/2 110/3/2 119/3/2
f 118/3/2 115/3/2 119/3/2
f 119/3/2 110/3/2 120/3/2
f 120/3/2 110/3/2 121/3/2
f 122/3/2 123/3/2 126/3/2
f 126/3/2 123/3/2 127/3/2
f 124/3/2 125/3/2 128/3/2
f 128/3/2 125/3/2 129/3/2
f 129/3/2 130/3/2 134/3/2
f 134/3/2 130/3/2 135/3/2
f 131/3/2 132/3/2 136/3/2
f 136/3/2 132/3/2 137/3/2
f 133/3/2 134/3/2 138/3/2
f 138/3/2 134/3/2 139/3/2
f 139/3/2 140/3/2 141/3/2
f 138/3/2 139/3/2 141/3/2
f 141/3/2 140/3/2 142/3/2
f 143/3/2 144/3/2 145/3/2
f 145/3/2 144/3/2 146/3/2
f 147/1/2 148/1/2 150/1/2
f 148/3/2 149/3/2 150/3/2
f 150/3/2 149/3/2 151/3/2
f 147/1/2 150/1/2 152/1/2
f 150/2/2 151/2/2 153/2/2
f 152/1/2 150/1/2 153/1/2
f 153/2/2 151/2/2 154/2/2
f 155/3/2 156/3/2 158/3/2
f 158/3/2 156/3/2 159/3/2
f 157/3/2 158/3/2 163/3/2
f 158/3/2 159/3/2 163/3/2
f 159/3/2 160/3/2 163/3/2
f 163/3/2 160/3/2 164/3/2
f 164/3/2 160/3/2 165/3/2
f 165/3/2 160/3/2 166/3/2
f 161/3/2 162/3/2 167/3/2
f 167/3/2 162/3/2 168/3/2
f 164/3/2 165/3/2 169/3/2
f 169/3/2 165/3/2 170/3/2
f 170/3/2 165/3/2 171/3/2
f 168/3/2 162/3/2 174/3/2
f 171/3/2 172/3/2 175/3/2
f 170/3/2 171/3/2 175/3/2
f 175/3/2 172/3/2 176/3/2
f 173/3/2 174/3/2 177/3/2
f 174/3/2 162/3/2 178/3/2
f 177/3/2 174/3/2 178/3/2
f 179/3/2 180/3/2 183/3/2
f 183/3/2 180/3/2 184/3/2
f 181/3/2 182/3/2 185/3/2
f 185/3/2 182/3/2 186/3/2
f 187/3/2 188/3/2 189/3/2
f 189/3/2 188/3/2 190/3/2
f 191/3/2 192/3/2 193/3/2
f 193/3/2 192/3/2 194/3/2
f 195/1/2 196/1/2 198/1/2
f 196/2/2 197/2/2 199/2/2
f 198/1/2 196/1/2 199/1/2
f 199/2/2 197/2/2 200/2/2
f 201/3/2 202/3/2 203/3/2
f 203/3/2 202/3/2 204/3/2
f 207/1/3 206/1/3 205/1/3
f 208/1/3 206/1/3 207/1/3
f 211/1/3 210/1/3 209/1/3
f 212/1/3 210/1/3 211/1/3
f 215/3/3 214/3/3 213/3/3
f 216/3/3 214/3/3 215/3/3
f 217/3/3 215/3/3 213/3/3
f 218/3/3 217/3/3 213/3/3
f 220/3/3 214/3/3 216/3/3
f 221/3/3 219/3/3 218/3/3
f 221/3/3 220/3/3 219/3/3
f 221/3/3 218/3/3 213/3/3
f 222/3/3 220/3/3 221/3/3
f 223/3/3 214/3/3 220/3/3
f 223/3/3 220/3/3 222/3/3
f 224/3/3 221/3/3 213/3/3
f 225/3/3 224/3/3 213/3/3
f 226/3/3 214/3/3 223/3/3
f 227/3/3 225/3/3 213/3/3
f 227/3/3 226/3/3 225/3/3
f 228/3/3 214/3/3 226/3/3
f 228/3/3 226/3/3 227/3/3
f 231/3/3 230/3/3 229/3/3
f 232/3/3 230/3/3 231/3/3
f 235/3/3 234/3/3 233/3/3
f 236/3/3 234/3/3 235/3/3
f 239/3/3 238/3/3 237/3/3
f 240/3/3 238/3/3 239/3/3
f 245/3/3 242/3/3 241/3/3
f 246/3/3 242/3/3 245/3/3
f 247/3/3 244/3/3 243/3/3
f 248/3/3 244/3/3 247/3/3
f 253/3/3 250/3/3 249/3/3
f 254/3/3 250/3/3 253/3/3
f 255/3/3 252/3/3 251/3/3
f 256/3/3 252/3/3 255/3/3
f 259/3/3 258/3/3 257/3/3
f 260/3/3 258/3/3 259/3/3
f 263/3/3 262/3/3 261/3/3
f 264/3/3 262/3/3 263/3/3
f 268/3/3 266/3/3 265/3/3
f 269/3/3 266/3/3 268/3/3
f 270/3/3 268/3/3 267/3/3
f 271/3/3 268/3/3 270/3/3
f 276/3/3 273/3/3 272/3/3
f 277/3/3 273/3/3 276/3/3
f 278/3/3 275/3/3 274/3/3
f 279/3/3 275/3/3 278/3/3
f 282/3/3 281/3/3 280/3/3
f 283/3/3 281/3/3 282/3/3
f 284/3/4 285/3/4 287/3/4
f 287/3/4 285/3/4 288/3/4
f 286/3/4 287/3/4 290/3/4
f 288/3/4 289/3/4 290/3/4
f 287/3/4 288/3/4 290/3/4
f 290/3/4 289/3/4 291/3/4
f 291/3/4 289/3/4 292/3/4
f 292/3/4 289/3/4 293/3/4
f 291/3/4 292/3/4 294/3/4
f 294/3/4 292/3/4 295/3/4
f 296/3/4 297/3/4 300/3/4
f 300/3/4 297/3/4 301/3/4
f 298/3/4 299/3/4 302/3/4
f 302/3/4 299/3/4 303/3/4
f 304/3/4 305/3/4 308/3/4
f 308/3/4 305/3/4 309/3/4
f 306/3/4 307/3/4 310/3/4
f 310/3/4 307/3/4 311/3/4
f 312/3/4 313/3/4 314/3/4
f 314/3/4 313/3/4 315/3/4
f 316/3/4 317/3/4 319/3/4
f 319/3/4 317/3/4 320/3/4
f 318/3/4 319/3/4 322/3/4
f 320/3/4 321/3/4 322/3/4
f 319/3/4 320/3/4 322/3/4
f 322/3/4 321/3/4 323/3/4
f 323/3/4 321/3/4 324/3/4
f 324/3/4 321/3/4 325/3/4
f 323/3/4 324/3/4 326/3/4
f 326/3/4 324/3/4 327/3/4
f 328/3/4 329/3/4 330/3/4
f 330/3/4 329/3/4 331/3/4
f 332/3/4 333/3/4 334/3/4
f 334/3/4 333/3/4 335/3/4
f 336/3/4 337/3/4 340/3/4
f 340/3/4 337/3/4 341/3/4
f 338/3/4 339/3/4 342/3/4
f 342/3/4 339/3/4 343/3/4
f 344/3/4 345/3/4 349/3/4
f 349/3/4 345/3/4 350/3/4
f 346/3/4 347/3/4 351/3/4
f 347/3/4 348/3/4 351/3/4
f 351/3/4 348/3/4 352/3/4
f 352/3/4 348/3/4 353/3/4
f 351/3/4 352/3/4 354/3/4
f 354/3/4 352/3/4 355/3/4
f 356/3/4 357/3/4 358/3/4
f 358/3/4 357/3/4 359/3/4
f 360/3/4 361/3/4 364/3/4
f 364/3/4 361/3/4 365/3/4
f 362/3/4 363/3/4 366/3/4
f 366/3/4 363/3/4 367/3/4
f 368/3/4 369/3/4 370/3/4
f 370/3/4 369/3/4 371/3/4
f 372/3/4 373/3/4 374/3/4
f 374/3/4 373/3/4 375/3/4
f 376/3/4 377/3/4 380/3/4
f 380/3/4 377/3/4 381/3/4
f 378/3/4 379/3/4 382/3/4
f 382/3/4 379/3/4 383/3/4
f 384/3/4 385/3/4 388/3/4
f 388/3/4 385/3/4 389/3/4
f 386/3/4 387/3/4 390/3/4
f 390/3/4 387/3/4 391/3/4
f 392/3/4 393/3/4 394/3/4
f 394/3/4 393/3/4 395/3/4
f 392/3/4 394/3/4 396/3/4
f 395/3/4 393/3/4 397/3/4
f 392/3/4 396/3/4 398/3/4
f 396/3/4 397/3/4 398/3/4
f 397/3/4 393/3/4 399/3/4
f 398/3/4 397/3/4 399/3/4
f 392/3/4 398/3/4 400/3/4
f 399/3/4 393/3/4 401/3/4
f 392/3/4 400/3/4 402/3/4
f 400/3/4 401/3/4 402/3/4
f 401/3/4 393/3/4 403/3/4
f 402/3/4 401/3/4 403/3/4
f 406/3/5 405/3/5 404/3/5
f 407/3/5 405/3/5 406/3/5
f 412/1/5 409/1/5 408/1/5
f 413/1/5 409/1/5 412/1/5
f 414/1/5 409/1/5 413/1/5
f 415/1/5 411/1/5 410/1/5
f 416/1/5 411/1/5 415/1/5
f 417/1/5 411/1/5 416/1/5
f 418/2/5 413/2/5 412/2/5
f 419/3/5 414/3/5 413/3/5
f 419/2/5 413/2/5 418/2/5
f 420/3/5 414/3/5 419/3/5
f 421/3/5 416/3/5 415/3/5
f 422/2/5 417/2/5 416/2/5
f 422/3/5 416/3/5 421/3/5
f 423/2/5 417/2/5 422/2/5
f 428/3/5 425/3/5 424/3/5
f 429/3/5 425/3/5 428/3/5
f 430/3/5 427/3/5 426/3/5
f 431/3/5 427/3/5 430/3/5
f 436/3/5 433/3/5 432/3/5
f 437/3/5 433/3/5 436/3/5
f 438/3/5 435/3/5 434/3/5
f 439/3/5 435/3/5 438/3/5
f 442/3/5 441/3/5 440/3/5
f 443/3/5 441/3/5 442/3/5
f 447/3/5 445/3/5 444/3/5
f 448/3/5 445/3/5 447/3/5
f 450/3/5 447/3/5 446/3/5
f 450/3/5 449/3/5 448/3/5
f 450/3/5 448/3/5 447/3/5
f 451/3/5 449/3/5 450/3/5
f 454/3/5 450/3/5 446/3/5
f 455/3/5 450/3/5 454/3/5
f 456/3/5 449/3/5 451/3/5
f 457/3/5 449/3/5 456/3/5
f 459/3/5 453/3/5 452/3/5
f 460/3/5 453/3/5 459/3/5
f 465/3/5 459/3/5 458/3/5
f 465/3/5 460/3/5 459/3/5
f 466/3/5 460/3/5 465/3/5
f 467/3/5 460/3/5 466/3/5
f 468/3/5 462/3/5 461/3/5
f 469/3/5 462/3/5 468/3/5
f 470/3/5 464/3/5 463/3/5
f 471/3/5 464/3/5 470/3/5
f 478/3/5 473/3/5 472/3/5
f 479/3/5 473/3/5 478/3/5
f 480/3/5 475/3/5 474/3/5
f 481/3/5 475/3/5 480/3/5
f 482/3/5 477/3/5 476/3/5
f 483/3/5 477/3/5 482/3/5
f 487/3/5 485/3/5 484/3/5
f 488/3/5 485/3/5 487/3/5
f 492/3/5 487/3/5 486/3/5
f 492/3/5 488/3/5 487/3/5
f 492/3/5 489/3/5 488/3/5
f 493/3/5 489/3/5 492/3/5
f 495/3/5 491/3/5 490/3/5
f 496/3/5 491/3/5 495/3/5
f 497/3/5 492/3/5 486/3/5
f 498/3/5 496/3/5 495/3/5
f 498/3/5 497/3/5 496/3/5
f 498/3/5 495/3/5 494/3/5
f 499/3/5 492/3/5 497/3/5
f 499/3/5 497/3/5 498/3/5
f 501/3/5 498/3/5 494/3/5
f 502/3/5 492/3/5 499/3/5
f 504/3/5 501/3/5 500/3/5
f 505/3/5 498/3/5 501/3/5
f 505/3/5 501/3/5 504/3/5
f 506/3/5 503/3/5 502/3/5
f 506/3/5 502/3/5 499/3/5
f 507/3/5 503/3/5 506/3/5
f 508/3/6 509/3/6 511/3/6
f 511/3/6 509/3/6 512/3/6
f 510/3/6 511/3/6 514/3/6
f 512/3/6 513/3/6 514/3/6
f 511/3/6 512/3/6 514/3/6
f 514/3/6 513/3/6 515/3/6
f 515/3/6 513/3/6 516/3/6
f 516/3/6 513/3/6 517/3/6
f 515/3/6 516/3/6 520/3/6
f 520/3/6 516/3/6 521/3/6
f 518/3/6 519/3/6 523/3/6
f 523/3/6 519/3/6 524/3/6
f 522/3/6 523/3/6 526/3/6
f 524/3/6 525/3/6 526/3/6
f 523/3/6 524/3/6 526/3/6
f 526/3/6 525/3/6 527/3/6
f 527/3/6 525/3/6 528/3/6
f 528/3/6 525/3/6 529/3/6
f 527/3/6 528/3/6 530/3/6
f 530/3/6 528/3/6 531/3/6
f 532/3/6 533/3/6 536/3/6
f 536/3/6 533/3/6 537/3/6
f 534/3/6 535/3/6 538/3/6
f 538/3/6 535/3/6 539/3/6
f 540/3/6 541/3/6 548/3/6
f 542/3/6 543/3/6 549/3/6
f 544/3/6 545/3/6 550/3/6
f 550/3/6 545/3/6 551/3/6
f 546/3/6 547/3/6 552/3/6
f 552/3/6 547/3/6 553/3/6
f 548/3/6 549/3/6 554/3/6
f 549/3/6 543/3/6 554/3/6
f 554/3/6 543/3/6 555/3/6
f 540/3/6 548/3/6 560/3/6
f 548/3/6 554/3/6 560/3/6
f 556/3/6 557/3/6 561/3/6
f 561/3/6 557/3/6 562/3/6
f 558/3/6 559/3/6 563/3/6
f 559/3/6 560/3/6 563/3/6
f 563/3/6 560/3/6 564/3/6
f 560/3/6 554/3/6 565/3/6
f 564/3/6 560/3/6 565/3/6
f 563/3/6 564/3/6 567/3/6
f 562/3/6 563/3/6 567/3/6
f 565/3/6 554/3/6 568/3/6
f 566/3/6 567/3/6 570/3/6
f 567/3/6 564/3/6 571/3/6
f 570/3/6 567/3/6 571/3/6
f 568/3/6 569/3/6 572/3/6
f 565/3/6 568/3/6 572/3/6
f 572/3/6 569/3/6 573/3/6
f 574/3/6 575/3/6 578/3/6
f 578/3/6 575/3/6 579/3/6
f 576/3/6 577/3/6 580/3/6
f 580/3/6 577/3/6 581/3/6
f 582/3/6 583/3/6 588/3/6
f 588/3/6 583/3/6 589/3/6
f 584/3/6 585/3/6 590/3/6
f 590/3/6 585/3/6 591/3/6
f 586/3/6 587/3/6 592/3/6
f 592/3/6 587/3/6 593/3/6
f 594/1/6 595/1/6 598/1/6
f 598/1/6 595/1/6 599/1/6
f 596/1/6 597/1/6 600/1/6
f 600/1/6 597/1/6 601/1/6
f 598/2/6 599/2/6 602/2/6
f 602/2/6 599/2/6 603/2/6
f 600/2/6 601/2/6 604/2/6
f 604/2/6 601/2/6 605/2/6
f 606/3/6 607/3/6 608/3/6
f 608/3/6 607/3/6 609/3/6
