# MagicaVoxel @ Ephtracy

# group
g RoomBig-blackboard-1

# material
mtllib RoomBig-blackboard-1.mtl
usemtl palette

# normals
vn -1 0 0
vn 1 0 0
vn 0 0 1
vn 0 0 -1
vn 0 -1 0
vn 0 1 0

# texcoords
vt 0.00195312 0.5
vt 0.0644531 0.5
vt 0.955078 0.5
vt 0.982422 0.5
vt 0.990234 0.5
vt 0.994141 0.5

# verts
v -40 0 -1
v -40 0 -2
v -40 0 -10
v -40 1 -2
v -40 1 -3
v -40 2 -1
v -40 2 -2
v -40 2 -3
v -40 2 -8
v -40 3 -2
v -40 3 -8
v -40 37 -2
v -40 37 -8
v -40 40 -2
v -40 40 -10
v -39 5 -7
v -39 5 -8
v -39 6 -7
v -39 6 -8
v -39 7 -7
v -39 7 -8
v -39 8 -7
v -39 8 -8
v -34 35 -7
v -34 35 -8
v -34 36 -6
v -34 36 -7
v -34 37 -6
v -34 37 -8
v -33 19 -6
v -33 19 -8
v -33 31 -6
v -33 31 -8
v -32 8 -7
v -32 8 -8
v -32 19 -7
v -32 19 -8
v -30 24 -5
v -30 24 -6
v -30 29 -5
v -30 29 -6
v -28 26 -5
v -28 26 -6
v -28 28 -5
v -28 28 -6
v -27 28 -5
v -27 28 -6
v -27 29 -5
v -27 29 -6
v -26 26 -5
v -26 26 -6
v -26 28 -5
v -26 28 -6
v -25 24 -5
v -25 24 -6
v -25 26 -5
v -25 26 -6
v -24 27 -5
v -24 27 -6
v -24 29 -5
v -24 29 -6
v -22 28 -5
v -22 28 -6
v -22 29 -5
v -22 29 -6
v -21 24 -5
v -21 24 -6
v -21 28 -5
v -21 28 -6
v -18 24 -5
v -18 24 -6
v -18 29 -5
v -18 29 -6
v -16 24 -5
v -16 24 -6
v -16 26 -5
v -16 26 -6
v -16 27 -5
v -16 27 -6
v -16 29 -5
v -16 29 -6
v -14 25 -5
v -14 25 -6
v -14 28 -5
v -14 28 -6
v -13 24 -5
v -13 24 -6
v -13 25 -5
v -13 25 -6
v -13 28 -5
v -13 28 -6
v -13 29 -5
v -13 29 -6
v -12 25 -5
v -12 25 -6
v -12 28 -5
v -12 28 -6
v -10 24 -5
v -10 24 -6
v -10 29 -5
v -10 29 -6
v -8 7 -6
v -8 7 -8
v -8 8 -7
v -8 8 -8
v -8 19 -6
v -8 19 -7
v -7 25 -7
v -7 25 -8
v -7 26 -7
v -7 26 -8
v -6 24 -7
v -6 24 -8
v -6 25 -7
v -6 25 -8
v -6 26 -7
v -6 26 -8
v -6 29 -7
v -6 29 -8
v -36 5 -7
v -36 5 -8
v -36 6 -7
v -36 6 -8
v -36 7 -7
v -36 7 -8
v -36 8 -7
v -36 8 -8
v -29 24 -5
v -29 24 -6
v -29 25 -5
v -29 25 -6
v -29 26 -5
v -29 26 -6
v -29 28 -5
v -29 28 -6
v -28 25 -5
v -28 25 -6
v -28 26 -5
v -28 26 -6
v -28 28 -5
v -28 28 -6
v -28 29 -5
v -28 29 -6
v -27 26 -5
v -27 26 -6
v -27 28 -5
v -27 28 -6
v -26 28 -5
v -26 28 -6
v -26 29 -5
v -26 29 -6
v -25 27 -5
v -25 27 -6
v -25 28 -5
v -25 28 -6
v -24 24 -5
v -24 24 -6
v -24 27 -5
v -24 27 -6
v -23 27 -5
v -23 27 -6
v -23 29 -5
v -23 29 -6
v -20 24 -5
v -20 24 -6
v -20 28 -5
v -20 28 -6
v -19 28 -5
v -19 28 -6
v -19 29 -5
v -19 29 -6
v -17 24 -5
v -17 24 -6
v -17 26 -5
v -17 26 -6
v -17 27 -5
v -17 27 -6
v -17 29 -5
v -17 29 -6
v -15 24 -5
v -15 24 -6
v -15 29 -5
v -15 29 -6
v -13 25 -5
v -13 25 -6
v -13 28 -5
v -13 28 -6
v -12 24 -5
v -12 24 -6
v -12 25 -5
v -12 25 -6
v -12 28 -5
v -12 28 -6
v -12 29 -5
v -12 29 -6
v -11 25 -5
v -11 25 -6
v -11 28 -5
v -11 28 -6
v -9 24 -5
v -9 24 -6
v -9 29 -5
v -9 29 -6
v -9 35 -7
v -9 35 -8
v -9 36 -6
v -9 36 -7
v -9 37 -6
v -9 37 -8
v -8 19 -6
v -8 19 -7
v -8 19 -8
v -8 26 -7
v -8 26 -8
v -8 27 -7
v -8 27 -8
v -8 30 -8
v -8 31 -6
v -8 31 -7
v -8 31 -8
v -7 26 -7
v -7 26 -8
v -7 27 -7
v -7 27 -8
v -5 24 -7
v -5 24 -8
v -5 29 -7
v -5 29 -8
v 0 0 -1
v 0 0 -2
v 0 0 -10
v 0 1 -2
v 0 1 -3
v 0 2 -1
v 0 2 -2
v 0 2 -3
v 0 2 -8
v 0 3 -2
v 0 3 -8
v 0 7 -6
v 0 7 -8
v 0 7 -9
v 0 8 -6
v 0 8 -9
v 0 18 -6
v 0 18 -7
v 0 19 -6
v 0 19 -7
v 0 19 -8
v 0 19 -9
v 0 30 -8
v 0 30 -9
v 0 31 -8
v 0 31 -9
v 0 37 -2
v 0 37 -8
v 0 40 -2
v 0 40 -10
v -40 0 -1
v -40 2 -1
v 0 0 -1
v 0 2 -1
v -40 2 -2
v -40 3 -2
v -40 37 -2
v -40 40 -2
v 0 2 -2
v 0 3 -2
v 0 37 -2
v 0 40 -2
v -30 24 -5
v -30 29 -5
v -29 24 -5
v -29 25 -5
v -29 26 -5
v -29 28 -5
v -28 25 -5
v -28 26 -5
v -28 28 -5
v -28 29 -5
v -27 26 -5
v -27 28 -5
v -27 29 -5
v -26 26 -5
v -26 28 -5
v -26 29 -5
v -25 24 -5
v -25 26 -5
v -25 27 -5
v -25 28 -5
v -24 24 -5
v -24 27 -5
v -24 29 -5
v -23 27 -5
v -23 29 -5
v -22 28 -5
v -22 29 -5
v -21 24 -5
v -21 28 -5
v -20 24 -5
v -20 28 -5
v -19 28 -5
v -19 29 -5
v -18 24 -5
v -18 29 -5
v -17 24 -5
v -17 26 -5
v -17 27 -5
v -17 29 -5
v -16 24 -5
v -16 26 -5
v -16 27 -5
v -16 29 -5
v -15 24 -5
v -15 29 -5
v -14 25 -5
v -14 28 -5
v -13 24 -5
v -13 25 -5
v -13 28 -5
v -13 29 -5
v -12 24 -5
v -12 25 -5
v -12 28 -5
v -12 29 -5
v -11 25 -5
v -11 28 -5
v -10 24 -5
v -10 29 -5
v -9 24 -5
v -9 29 -5
v -34 36 -6
v -34 37 -6
v -33 19 -6
v -33 31 -6
v -32 20 -6
v -32 30 -6
v -30 24 -6
v -30 29 -6
v -29 24 -6
v -29 25 -6
v -29 26 -6
v -29 28 -6
v -28 25 -6
v -28 26 -6
v -28 28 -6
v -28 29 -6
v -27 26 -6
v -27 28 -6
v -27 29 -6
v -26 26 -6
v -26 28 -6
v -26 29 -6
v -25 24 -6
v -25 26 -6
v -25 27 -6
v -25 28 -6
v -24 24 -6
v -24 27 -6
v -24 29 -6
v -23 27 -6
v -23 29 -6
v -22 28 -6
v -22 29 -6
v -21 24 -6
v -21 28 -6
v -20 24 -6
v -20 28 -6
v -19 28 -6
v -19 29 -6
v -18 24 -6
v -18 29 -6
v -17 24 -6
v -17 26 -6
v -17 27 -6
v -17 29 -6
v -16 24 -6
v -16 26 -6
v -16 27 -6
v -16 29 -6
v -15 24 -6
v -15 29 -6
v -14 25 -6
v -14 28 -6
v -13 24 -6
v -13 25 -6
v -13 28 -6
v -13 29 -6
v -12 24 -6
v -12 25 -6
v -12 28 -6
v -12 29 -6
v -11 25 -6
v -11 28 -6
v -10 24 -6
v -10 29 -6
v -9 20 -6
v -9 24 -6
v -9 29 -6
v -9 30 -6
v -9 36 -6
v -9 37 -6
v -8 7 -6
v -8 19 -6
v -8 31 -6
v -7 8 -6
v -7 18 -6
v 0 7 -6
v 0 8 -6
v 0 18 -6
v 0 19 -6
v -39 5 -7
v -39 6 -7
v -39 7 -7
v -39 8 -7
v -38 6 -7
v -38 7 -7
v -37 6 -7
v -37 7 -7
v -36 5 -7
v -36 6 -7
v -36 7 -7
v -36 8 -7
v -34 35 -7
v -34 36 -7
v -32 8 -7
v -32 19 -7
v -9 35 -7
v -9 36 -7
v -8 8 -7
v -8 19 -7
v -8 26 -7
v -8 27 -7
v -7 25 -7
v -7 26 -7
v -7 27 -7
v -6 24 -7
v -6 25 -7
v -6 26 -7
v -6 29 -7
v -5 24 -7
v -5 29 -7
v -40 3 -8
v -40 37 -8
v -39 5 -8
v -39 6 -8
v -39 7 -8
v -39 8 -8
v -36 5 -8
v -36 6 -8
v -36 7 -8
v -36 8 -8
v -34 35 -8
v -34 37 -8
v -33 7 -8
v -33 19 -8
v -33 31 -8
v -32 8 -8
v -32 19 -8
v -32 31 -8
v -9 35 -8
v -9 37 -8
v -8 7 -8
v -8 8 -8
v -8 19 -8
v -8 26 -8
v -8 27 -8
v -8 30 -8
v -8 31 -8
v -7 25 -8
v -7 26 -8
v -7 27 -8
v -6 24 -8
v -6 25 -8
v -6 26 -8
v -6 29 -8
v -5 24 -8
v -5 29 -8
v 0 3 -8
v 0 7 -8
v 0 19 -8
v 0 30 -8
v 0 31 -8
v 0 37 -8
v -40 0 -10
v -40 40 -10
v 0 0 -10
v 0 40 -10
v -40 0 -1
v 0 0 -1
v -40 0 -2
v 0 0 -2
v -40 0 -10
v 0 0 -10
v -39 5 -7
v -36 5 -7
v -39 5 -8
v -36 5 -8
v -8 7 -6
v 0 7 -6
v -8 7 -8
v 0 7 -8
v -32 8 -7
v -8 8 -7
v -32 8 -8
v -8 8 -8
v -33 19 -6
v -8 19 -6
v -32 19 -7
v -8 19 -7
v -33 19 -8
v -32 19 -8
v -30 24 -5
v -29 24 -5
v -25 24 -5
v -24 24 -5
v -21 24 -5
v -20 24 -5
v -18 24 -5
v -17 24 -5
v -16 24 -5
v -15 24 -5
v -13 24 -5
v -12 24 -5
v -10 24 -5
v -9 24 -5
v -30 24 -6
v -29 24 -6
v -25 24 -6
v -24 24 -6
v -21 24 -6
v -20 24 -6
v -18 24 -6
v -17 24 -6
v -16 24 -6
v -15 24 -6
v -13 24 -6
v -12 24 -6
v -10 24 -6
v -9 24 -6
v -6 24 -7
v -5 24 -7
v -6 24 -8
v -5 24 -8
v -29 25 -5
v -28 25 -5
v -14 25 -5
v -13 25 -5
v -12 25 -5
v -11 25 -5
v -29 25 -6
v -28 25 -6
v -14 25 -6
v -13 25 -6
v -12 25 -6
v -11 25 -6
v -7 25 -7
v -6 25 -7
v -7 25 -8
v -6 25 -8
v -28 26 -5
v -27 26 -5
v -26 26 -5
v -25 26 -5
v -17 26 -5
v -16 26 -5
v -28 26 -6
v -27 26 -6
v -26 26 -6
v -25 26 -6
v -17 26 -6
v -16 26 -6
v -8 26 -7
v -7 26 -7
v -8 26 -8
v -7 26 -8
v -24 27 -5
v -23 27 -5
v -24 27 -6
v -23 27 -6
v -29 28 -5
v -28 28 -5
v -27 28 -5
v -26 28 -5
v -22 28 -5
v -21 28 -5
v -20 28 -5
v -19 28 -5
v -13 28 -5
v -12 28 -5
v -29 28 -6
v -28 28 -6
v -27 28 -6
v -26 28 -6
v -22 28 -6
v -21 28 -6
v -20 28 -6
v -19 28 -6
v -13 28 -6
v -12 28 -6
v -34 35 -7
v -9 35 -7
v -34 35 -8
v -9 35 -8
v -34 36 -6
v -9 36 -6
v -34 36 -7
v -9 36 -7
v -40 37 -2
v 0 37 -2
v -34 37 -6
v -9 37 -6
v -40 37 -8
v -34 37 -8
v -9 37 -8
v 0 37 -8
v -40 2 -1
v 0 2 -1
v -40 2 -2
v 0 2 -2
v -40 3 -2
v 0 3 -2
v -40 3 -8
v 0 3 -8
v -39 8 -7
v -36 8 -7
v -39 8 -8
v -36 8 -8
v -8 19 -6
v 0 19 -6
v -8 19 -7
v 0 19 -7
v -8 19 -8
v 0 19 -8
v -13 25 -5
v -12 25 -5
v -13 25 -6
v -12 25 -6
v -29 26 -5
v -28 26 -5
v -29 26 -6
v -28 26 -6
v -7 26 -7
v -6 26 -7
v -7 26 -8
v -6 26 -8
v -25 27 -5
v -24 27 -5
v -17 27 -5
v -16 27 -5
v -25 27 -6
v -24 27 -6
v -17 27 -6
v -16 27 -6
v -8 27 -7
v -7 27 -7
v -8 27 -8
v -7 27 -8
v -28 28 -5
v -27 28 -5
v -26 28 -5
v -25 28 -5
v -14 28 -5
v -13 28 -5
v -12 28 -5
v -11 28 -5
v -28 28 -6
v -27 28 -6
v -26 28 -6
v -25 28 -6
v -14 28 -6
v -13 28 -6
v -12 28 -6
v -11 28 -6
v -30 29 -5
v -28 29 -5
v -27 29 -5
v -26 29 -5
v -24 29 -5
v -23 29 -5
v -22 29 -5
v -19 29 -5
v -18 29 -5
v -17 29 -5
v -16 29 -5
v -15 29 -5
v -13 29 -5
v -12 29 -5
v -10 29 -5
v -9 29 -5
v -30 29 -6
v -28 29 -6
v -27 29 -6
v -26 29 -6
v -24 29 -6
v -23 29 -6
v -22 29 -6
v -19 29 -6
v -18 29 -6
v -17 29 -6
v -16 29 -6
v -15 29 -6
v -13 29 -6
v -12 29 -6
v -10 29 -6
v -9 29 -6
v -6 29 -7
v -5 29 -7
v -6 29 -8
v -5 29 -8
v -33 31 -6
v -8 31 -6
v -32 31 -7
v -8 31 -7
v -33 31 -8
v -32 31 -8
v -8 31 -8
v -40 40 -2
v 0 40 -2
v -40 40 -10
v 0 40 -10

# faces
f 4/2/1 2/2/1 1/2/1
f 4/1/1 3/1/1 2/1/1
f 5/1/1 3/1/1 4/1/1
f 6/2/1 4/2/1 1/2/1
f 6/2/1 5/2/1 4/2/1
f 7/2/1 5/2/1 6/2/1
f 8/1/1 3/1/1 5/1/1
f 8/2/1 5/2/1 7/2/1
f 9/1/1 3/1/1 8/1/1
f 10/2/1 8/2/1 7/2/1
f 10/2/1 9/2/1 8/2/1
f 11/1/1 3/1/1 9/1/1
f 11/2/1 9/2/1 10/2/1
f 13/1/1 3/1/1 11/1/1
f 14/1/1 13/1/1 12/1/1
f 15/1/1 3/1/1 13/1/1
f 15/1/1 13/1/1 14/1/1
f 18/1/1 17/1/1 16/1/1
f 19/1/1 17/1/1 18/1/1
f 20/6/1 19/6/1 18/6/1
f 21/6/1 19/6/1 20/6/1
f 22/1/1 21/1/1 20/1/1
f 23/1/1 21/1/1 22/1/1
f 27/1/1 25/1/1 24/1/1
f 28/1/1 27/1/1 26/1/1
f 29/1/1 25/1/1 27/1/1
f 29/1/1 27/1/1 28/1/1
f 32/4/1 31/4/1 30/4/1
f 33/4/1 31/4/1 32/4/1
f 36/5/1 35/5/1 34/5/1
f 37/5/1 35/5/1 36/5/1
f 40/1/1 39/1/1 38/1/1
f 41/1/1 39/1/1 40/1/1
f 44/1/1 43/1/1 42/1/1
f 45/1/1 43/1/1 44/1/1
f 48/1/1 47/1/1 46/1/1
f 49/1/1 47/1/1 48/1/1
f 52/1/1 51/1/1 50/1/1
f 53/1/1 51/1/1 52/1/1
f 56/1/1 55/1/1 54/1/1
f 57/1/1 55/1/1 56/1/1
f 60/1/1 59/1/1 58/1/1
f 61/1/1 59/1/1 60/1/1
f 64/1/1 63/1/1 62/1/1
f 65/1/1 63/1/1 64/1/1
f 68/1/1 67/1/1 66/1/1
f 69/1/1 67/1/1 68/1/1
f 72/1/1 71/1/1 70/1/1
f 73/1/1 71/1/1 72/1/1
f 76/1/1 75/1/1 74/1/1
f 77/1/1 75/1/1 76/1/1
f 80/1/1 79/1/1 78/1/1
f 81/1/1 79/1/1 80/1/1
f 84/1/1 83/1/1 82/1/1
f 85/1/1 83/1/1 84/1/1
f 88/1/1 87/1/1 86/1/1
f 89/1/1 87/1/1 88/1/1
f 92/1/1 91/1/1 90/1/1
f 93/1/1 91/1/1 92/1/1
f 96/1/1 95/1/1 94/1/1
f 97/1/1 95/1/1 96/1/1
f 100/1/1 99/1/1 98/1/1
f 101/1/1 99/1/1 100/1/1
f 104/4/1 103/4/1 102/4/1
f 105/4/1 103/4/1 104/4/1
f 106/4/1 104/4/1 102/4/1
f 107/4/1 104/4/1 106/4/1
f 110/1/1 109/1/1 108/1/1
f 111/1/1 109/1/1 110/1/1
f 114/1/1 113/1/1 112/1/1
f 115/1/1 113/1/1 114/1/1
f 118/1/1 117/1/1 116/1/1
f 119/1/1 117/1/1 118/1/1
f 120/1/2 121/1/2 122/1/2
f 122/1/2 121/1/2 123/1/2
f 122/6/2 123/6/2 124/6/2
f 124/6/2 123/6/2 125/6/2
f 124/1/2 125/1/2 126/1/2
f 126/1/2 125/1/2 127/1/2
f 128/1/2 129/1/2 130/1/2
f 130/1/2 129/1/2 131/1/2
f 132/1/2 133/1/2 134/1/2
f 134/1/2 133/1/2 135/1/2
f 136/1/2 137/1/2 138/1/2
f 138/1/2 137/1/2 139/1/2
f 140/1/2 141/1/2 142/1/2
f 142/1/2 141/1/2 143/1/2
f 144/1/2 145/1/2 146/1/2
f 146/1/2 145/1/2 147/1/2
f 148/1/2 149/1/2 150/1/2
f 150/1/2 149/1/2 151/1/2
f 152/1/2 153/1/2 154/1/2
f 154/1/2 153/1/2 155/1/2
f 156/1/2 157/1/2 158/1/2
f 158/1/2 157/1/2 159/1/2
f 160/1/2 161/1/2 162/1/2
f 162/1/2 161/1/2 163/1/2
f 164/1/2 165/1/2 166/1/2
f 166/1/2 165/1/2 167/1/2
f 168/1/2 169/1/2 170/1/2
f 170/1/2 169/1/2 171/1/2
f 172/1/2 173/1/2 174/1/2
f 174/1/2 173/1/2 175/1/2
f 176/1/2 177/1/2 178/1/2
f 178/1/2 177/1/2 179/1/2
f 180/1/2 181/1/2 182/1/2
f 182/1/2 181/1/2 183/1/2
f 184/1/2 185/1/2 186/1/2
f 186/1/2 185/1/2 187/1/2
f 188/1/2 189/1/2 190/1/2
f 190/1/2 189/1/2 191/1/2
f 192/1/2 193/1/2 194/1/2
f 194/1/2 193/1/2 195/1/2
f 196/1/2 197/1/2 198/1/2
f 198/1/2 197/1/2 199/1/2
f 200/1/2 201/1/2 202/1/2
f 202/1/2 201/1/2 203/1/2
f 204/1/2 205/1/2 207/1/2
f 206/1/2 207/1/2 208/1/2
f 207/1/2 205/1/2 209/1/2
f 208/1/2 207/1/2 209/1/2
f 210/4/2 211/4/2 213/4/2
f 211/3/2 212/3/2 213/3/2
f 213/3/2 212/3/2 214/3/2
f 210/4/2 213/4/2 215/4/2
f 215/3/2 216/3/2 217/3/2
f 210/4/2 215/4/2 218/4/2
f 215/3/2 217/3/2 219/3/2
f 218/4/2 215/4/2 219/4/2
f 219/3/2 217/3/2 220/3/2
f 221/1/2 222/1/2 223/1/2
f 223/1/2 222/1/2 224/1/2
f 225/1/2 226/1/2 227/1/2
f 227/1/2 226/1/2 228/1/2
f 229/2/2 230/2/2 232/2/2
f 230/1/2 231/1/2 232/1/2
f 232/1/2 231/1/2 233/1/2
f 229/2/2 232/2/2 234/2/2
f 232/2/2 233/2/2 234/2/2
f 234/2/2 233/2/2 235/2/2
f 233/1/2 231/1/2 236/1/2
f 235/2/2 233/2/2 236/2/2
f 236/1/2 231/1/2 237/1/2
f 235/2/2 236/2/2 238/2/2
f 236/2/2 237/2/2 238/2/2
f 237/1/2 231/1/2 239/1/2
f 238/2/2 237/2/2 239/2/2
f 239/1/2 231/1/2 241/1/2
f 241/1/2 231/1/2 242/1/2
f 240/4/2 241/4/2 243/4/2
f 241/4/2 242/4/2 243/4/2
f 242/1/2 231/1/2 244/1/2
f 243/4/2 242/4/2 244/4/2
f 243/6/2 244/6/2 245/6/2
f 245/6/2 244/6/2 246/6/2
f 245/4/2 246/4/2 247/4/2
f 246/6/2 244/6/2 248/6/2
f 247/4/2 246/4/2 248/4/2
f 248/6/2 244/6/2 249/6/2
f 244/1/2 231/1/2 250/1/2
f 249/6/2 244/6/2 250/6/2
f 249/5/2 250/5/2 251/5/2
f 250/1/2 231/1/2 252/1/2
f 251/5/2 250/5/2 252/5/2
f 251/4/2 252/4/2 253/4/2
f 252/1/2 231/1/2 254/1/2
f 253/4/2 252/4/2 254/4/2
f 253/1/2 254/1/2 256/1/2
f 255/1/2 256/1/2 257/1/2
f 254/1/2 231/1/2 258/1/2
f 257/1/2 256/1/2 258/1/2
f 256/1/2 254/1/2 258/1/2
f 261/2/3 260/2/3 259/2/3
f 262/2/3 260/2/3 261/2/3
f 267/2/3 264/2/3 263/2/3
f 268/2/3 264/2/3 267/2/3
f 269/1/3 266/1/3 265/1/3
f 270/1/3 266/1/3 269/1/3
f 273/1/3 272/1/3 271/1/3
f 274/1/3 272/1/3 273/1/3
f 275/1/3 272/1/3 274/1/3
f 276/1/3 272/1/3 275/1/3
f 277/1/3 275/1/3 274/1/3
f 278/1/3 275/1/3 277/1/3
f 279/1/3 272/1/3 276/1/3
f 280/1/3 272/1/3 279/1/3
f 281/1/3 279/1/3 278/1/3
f 282/1/3 279/1/3 281/1/3
f 285/1/3 283/1/3 282/1/3
f 286/1/3 283/1/3 285/1/3
f 288/1/3 285/1/3 284/1/3
f 289/1/3 285/1/3 288/1/3
f 290/1/3 285/1/3 289/1/3
f 291/1/3 288/1/3 287/1/3
f 291/1/3 289/1/3 288/1/3
f 292/1/3 289/1/3 291/1/3
f 294/1/3 293/1/3 292/1/3
f 295/1/3 293/1/3 294/1/3
f 299/1/3 297/1/3 296/1/3
f 300/1/3 299/1/3 298/1/3
f 301/1/3 297/1/3 299/1/3
f 301/1/3 299/1/3 300/1/3
f 302/1/3 297/1/3 301/1/3
f 303/1/3 297/1/3 302/1/3
f 306/1/3 305/1/3 304/1/3
f 307/1/3 305/1/3 306/1/3
f 308/1/3 305/1/3 307/1/3
f 309/1/3 305/1/3 308/1/3
f 311/1/3 308/1/3 307/1/3
f 312/1/3 308/1/3 311/1/3
f 314/1/3 311/1/3 310/1/3
f 314/1/3 313/1/3 312/1/3
f 314/1/3 312/1/3 311/1/3
f 315/1/3 313/1/3 314/1/3
f 319/1/3 317/1/3 316/1/3
f 320/1/3 317/1/3 319/1/3
f 322/1/3 319/1/3 318/1/3
f 323/1/3 319/1/3 322/1/3
f 324/1/3 321/1/3 320/1/3
f 325/1/3 321/1/3 324/1/3
f 326/1/3 324/1/3 323/1/3
f 327/1/3 324/1/3 326/1/3
f 330/1/3 329/1/3 328/1/3
f 331/1/3 329/1/3 330/1/3
f 336/4/3 335/4/3 334/4/3
f 337/4/3 335/4/3 336/4/3
f 338/6/3 337/6/3 336/6/3
f 339/6/3 337/6/3 338/6/3
f 340/6/3 338/6/3 336/6/3
f 344/6/3 341/6/3 340/6/3
f 345/6/3 343/6/3 342/6/3
f 346/6/3 343/6/3 345/6/3
f 347/6/3 337/6/3 339/6/3
f 348/6/3 345/6/3 344/6/3
f 349/6/3 347/6/3 346/6/3
f 350/6/3 337/6/3 347/6/3
f 350/6/3 347/6/3 349/6/3
f 351/6/3 348/6/3 344/6/3
f 351/6/3 349/6/3 348/6/3
f 352/6/3 349/6/3 351/6/3
f 353/6/3 337/6/3 350/6/3
f 354/6/3 340/6/3 336/6/3
f 354/6/3 344/6/3 340/6/3
f 354/6/3 351/6/3 344/6/3
f 355/6/3 351/6/3 354/6/3
f 357/6/3 353/6/3 352/6/3
f 358/6/3 354/6/3 336/6/3
f 359/6/3 357/6/3 356/6/3
f 360/6/3 337/6/3 353/6/3
f 360/6/3 353/6/3 357/6/3
f 360/6/3 357/6/3 359/6/3
f 361/6/3 359/6/3 358/6/3
f 362/6/3 337/6/3 360/6/3
f 363/6/3 362/6/3 361/6/3
f 364/6/3 337/6/3 362/6/3
f 364/6/3 362/6/3 363/6/3
f 365/6/3 358/6/3 336/6/3
f 365/6/3 361/6/3 358/6/3
f 365/6/3 363/6/3 361/6/3
f 366/6/3 363/6/3 365/6/3
f 367/6/3 365/6/3 336/6/3
f 369/6/3 368/6/3 367/6/3
f 370/6/3 337/6/3 364/6/3
f 371/6/3 369/6/3 367/6/3
f 371/6/3 370/6/3 369/6/3
f 371/6/3 367/6/3 336/6/3
f 372/6/3 337/6/3 370/6/3
f 372/6/3 370/6/3 371/6/3
f 373/6/3 371/6/3 336/6/3
f 376/6/3 337/6/3 372/6/3
f 377/6/3 374/6/3 373/6/3
f 377/6/3 373/6/3 336/6/3
f 378/6/3 374/6/3 377/6/3
f 379/6/3 376/6/3 375/6/3
f 380/6/3 337/6/3 376/6/3
f 380/6/3 376/6/3 379/6/3
f 381/6/3 377/6/3 336/6/3
f 382/6/3 337/6/3 380/6/3
f 383/6/3 382/6/3 381/6/3
f 384/6/3 382/6/3 383/6/3
f 385/6/3 381/6/3 336/6/3
f 385/6/3 383/6/3 381/6/3
f 386/6/3 383/6/3 385/6/3
f 387/6/3 382/6/3 384/6/3
f 388/6/3 337/6/3 382/6/3
f 388/6/3 382/6/3 387/6/3
f 389/6/3 385/6/3 336/6/3
f 390/6/3 387/6/3 386/6/3
f 391/6/3 387/6/3 390/6/3
f 392/6/3 337/6/3 388/6/3
f 393/6/3 390/6/3 389/6/3
f 394/6/3 392/6/3 391/6/3
f 395/6/3 393/6/3 389/6/3
f 395/6/3 394/6/3 393/6/3
f 395/6/3 389/6/3 336/6/3
f 396/6/3 392/6/3 394/6/3
f 396/6/3 394/6/3 395/6/3
f 396/6/3 337/6/3 392/6/3
f 397/4/3 336/4/3 334/4/3
f 397/6/3 395/6/3 336/6/3
f 398/6/3 395/6/3 397/6/3
f 399/6/3 337/6/3 396/6/3
f 400/4/3 335/4/3 337/4/3
f 400/6/3 337/6/3 399/6/3
f 401/1/3 333/1/3 332/1/3
f 402/1/3 333/1/3 401/1/3
f 404/4/3 398/4/3 397/4/3
f 404/4/3 399/4/3 398/4/3
f 404/4/3 397/4/3 334/4/3
f 404/4/3 400/4/3 399/4/3
f 405/4/3 335/4/3 400/4/3
f 405/4/3 400/4/3 404/4/3
f 406/4/3 404/4/3 403/4/3
f 407/4/3 404/4/3 406/4/3
f 408/4/3 406/4/3 403/4/3
f 409/6/3 407/6/3 406/6/3
f 409/4/3 406/4/3 408/4/3
f 410/4/3 404/4/3 407/4/3
f 410/6/3 407/6/3 409/6/3
f 411/4/3 404/4/3 410/4/3
f 416/1/3 413/1/3 412/1/3
f 416/6/3 414/6/3 413/6/3
f 417/1/3 415/1/3 414/1/3
f 417/6/3 414/6/3 416/6/3
f 418/1/3 416/1/3 412/1/3
f 418/1/3 417/1/3 416/1/3
f 419/1/3 415/1/3 417/1/3
f 419/1/3 417/1/3 418/1/3
f 420/1/3 418/1/3 412/1/3
f 421/6/3 419/6/3 418/6/3
f 421/1/3 418/1/3 420/1/3
f 422/1/3 415/1/3 419/1/3
f 422/6/3 419/6/3 421/6/3
f 423/1/3 415/1/3 422/1/3
f 428/1/3 425/1/3 424/1/3
f 429/1/3 425/1/3 428/1/3
f 430/5/3 427/5/3 426/5/3
f 431/5/3 427/5/3 430/5/3
f 435/1/3 433/1/3 432/1/3
f 436/1/3 433/1/3 435/1/3
f 438/1/3 435/1/3 434/1/3
f 439/1/3 435/1/3 438/1/3
f 441/1/3 439/1/3 438/1/3
f 441/1/3 440/1/3 439/1/3
f 441/1/3 438/1/3 437/1/3
f 442/1/3 440/1/3 441/1/3
f 445/1/3 444/1/3 443/1/3
f 446/1/3 444/1/3 445/1/3
f 447/1/3 444/1/3 446/1/3
f 448/1/3 444/1/3 447/1/3
f 449/1/3 445/1/3 443/1/3
f 452/1/3 444/1/3 448/1/3
f 453/1/3 451/1/3 450/1/3
f 453/1/3 452/1/3 451/1/3
f 453/1/3 444/1/3 452/1/3
f 453/1/3 450/1/3 449/1/3
f 454/1/3 444/1/3 453/1/3
f 455/1/3 453/1/3 449/1/3
f 456/1/3 453/1/3 455/1/3
f 457/1/3 453/1/3 456/1/3
f 458/4/3 456/4/3 455/4/3
f 459/4/3 456/4/3 458/4/3
f 460/1/3 453/1/3 457/1/3
f 461/1/3 453/1/3 460/1/3
f 463/1/3 455/1/3 449/1/3
f 463/4/3 458/4/3 455/4/3
f 464/4/3 458/4/3 463/4/3
f 469/1/3 462/1/3 461/1/3
f 469/1/3 461/1/3 460/1/3
f 470/5/3 466/5/3 465/5/3
f 471/5/3 466/5/3 470/5/3
f 472/5/3 468/5/3 467/5/3
f 473/5/3 470/5/3 465/5/3
f 474/5/3 470/5/3 473/5/3
f 475/5/3 472/5/3 471/5/3
f 476/5/3 468/5/3 472/5/3
f 476/5/3 472/5/3 475/5/3
f 477/5/3 473/5/3 465/5/3
f 478/5/3 468/5/3 476/5/3
f 479/1/3 449/1/3 443/1/3
f 479/1/3 463/1/3 449/1/3
f 480/1/3 463/1/3 479/1/3
f 481/5/3 478/5/3 477/5/3
f 481/5/3 477/5/3 465/5/3
f 482/4/3 469/4/3 468/4/3
f 482/5/3 478/5/3 481/5/3
f 482/5/3 468/5/3 478/5/3
f 483/1/3 462/1/3 469/1/3
f 483/4/3 469/4/3 482/4/3
f 484/1/3 462/1/3 483/1/3
f 485/1/4 486/1/4 487/1/4
f 487/1/4 486/1/4 488/1/4
f 491/2/5 490/2/5 489/2/5
f 492/2/5 490/2/5 491/2/5
f 493/1/5 492/1/5 491/1/5
f 494/1/5 492/1/5 493/1/5
f 497/1/5 496/1/5 495/1/5
f 498/1/5 496/1/5 497/1/5
f 501/4/5 500/4/5 499/4/5
f 502/4/5 500/4/5 501/4/5
f 505/5/5 504/5/5 503/5/5
f 506/5/5 504/5/5 505/5/5
f 509/4/5 508/4/5 507/4/5
f 510/4/5 508/4/5 509/4/5
f 511/4/5 509/4/5 507/4/5
f 512/4/5 509/4/5 511/4/5
f 527/1/5 514/1/5 513/1/5
f 528/1/5 514/1/5 527/1/5
f 529/1/5 516/1/5 515/1/5
f 530/1/5 516/1/5 529/1/5
f 531/1/5 518/1/5 517/1/5
f 532/1/5 518/1/5 531/1/5
f 533/1/5 520/1/5 519/1/5
f 534/1/5 520/1/5 533/1/5
f 535/1/5 522/1/5 521/1/5
f 536/1/5 522/1/5 535/1/5
f 537/1/5 524/1/5 523/1/5
f 538/1/5 524/1/5 537/1/5
f 539/1/5 526/1/5 525/1/5
f 540/1/5 526/1/5 539/1/5
f 543/1/5 542/1/5 541/1/5
f 544/1/5 542/1/5 543/1/5
f 551/1/5 546/1/5 545/1/5
f 552/1/5 546/1/5 551/1/5
f 553/1/5 548/1/5 547/1/5
f 554/1/5 548/1/5 553/1/5
f 555/1/5 550/1/5 549/1/5
f 556/1/5 550/1/5 555/1/5
f 559/1/5 558/1/5 557/1/5
f 560/1/5 558/1/5 559/1/5
f 567/1/5 562/1/5 561/1/5
f 568/1/5 562/1/5 567/1/5
f 569/1/5 564/1/5 563/1/5
f 570/1/5 564/1/5 569/1/5
f 571/1/5 566/1/5 565/1/5
f 572/1/5 566/1/5 571/1/5
f 575/1/5 574/1/5 573/1/5
f 576/1/5 574/1/5 575/1/5
f 579/1/5 578/1/5 577/1/5
f 580/1/5 578/1/5 579/1/5
f 591/1/5 582/1/5 581/1/5
f 592/1/5 582/1/5 591/1/5
f 593/1/5 584/1/5 583/1/5
f 594/1/5 584/1/5 593/1/5
f 595/1/5 586/1/5 585/1/5
f 596/1/5 586/1/5 595/1/5
f 597/1/5 588/1/5 587/1/5
f 598/1/5 588/1/5 597/1/5
f 599/1/5 590/1/5 589/1/5
f 600/1/5 590/1/5 599/1/5
f 603/1/5 602/1/5 601/1/5
f 604/1/5 602/1/5 603/1/5
f 607/1/5 606/1/5 605/1/5
f 608/1/5 606/1/5 607/1/5
f 611/1/5 610/1/5 609/1/5
f 612/1/5 610/1/5 611/1/5
f 613/1/5 611/1/5 609/1/5
f 614/1/5 611/1/5 613/1/5
f 615/1/5 610/1/5 612/1/5
f 616/1/5 610/1/5 615/1/5
f 617/2/6 618/2/6 619/2/6
f 619/2/6 618/2/6 620/2/6
f 621/2/6 622/2/6 623/2/6
f 623/2/6 622/2/6 624/2/6
f 625/1/6 626/1/6 627/1/6
f 627/1/6 626/1/6 628/1/6
f 629/4/6 630/4/6 631/4/6
f 631/4/6 630/4/6 632/4/6
f 631/6/6 632/6/6 633/6/6
f 633/6/6 632/6/6 634/6/6
f 635/1/6 636/1/6 637/1/6
f 637/1/6 636/1/6 638/1/6
f 639/1/6 640/1/6 641/1/6
f 641/1/6 640/1/6 642/1/6
f 643/1/6 644/1/6 645/1/6
f 645/1/6 644/1/6 646/1/6
f 647/1/6 648/1/6 651/1/6
f 651/1/6 648/1/6 652/1/6
f 649/1/6 650/1/6 653/1/6
f 653/1/6 650/1/6 654/1/6
f 655/1/6 656/1/6 657/1/6
f 657/1/6 656/1/6 658/1/6
f 659/1/6 660/1/6 667/1/6
f 667/1/6 660/1/6 668/1/6
f 661/1/6 662/1/6 669/1/6
f 669/1/6 662/1/6 670/1/6
f 663/1/6 664/1/6 671/1/6
f 671/1/6 664/1/6 672/1/6
f 665/1/6 666/1/6 673/1/6
f 673/1/6 666/1/6 674/1/6
f 675/1/6 676/1/6 691/1/6
f 691/1/6 676/1/6 692/1/6
f 677/1/6 678/1/6 693/1/6
f 693/1/6 678/1/6 694/1/6
f 679/1/6 680/1/6 695/1/6
f 695/1/6 680/1/6 696/1/6
f 681/1/6 682/1/6 697/1/6
f 697/1/6 682/1/6 698/1/6
f 683/1/6 684/1/6 699/1/6
f 699/1/6 684/1/6 700/1/6
f 685/1/6 686/1/6 701/1/6
f 701/1/6 686/1/6 702/1/6
f 687/1/6 688/1/6 703/1/6
f 703/1/6 688/1/6 704/1/6
f 689/1/6 690/1/6 705/1/6
f 705/1/6 690/1/6 706/1/6
f 707/1/6 708/1/6 709/1/6
f 709/1/6 708/1/6 710/1/6
f 711/4/6 712/4/6 713/4/6
f 713/4/6 712/4/6 714/4/6
f 711/4/6 713/4/6 715/4/6
f 713/3/6 714/3/6 716/3/6
f 715/4/6 713/4/6 716/4/6
f 716/3/6 714/3/6 717/3/6
f 718/1/6 719/1/6 720/1/6
f 720/1/6 719/1/6 721/1/6
