# MagicaVoxel @ Ephtracy

# group
g RoomComputer-Wall-2

# material
mtllib RoomComputer-Wall-2.mtl
usemtl palette

# normals
vn -1 0 0
vn 1 0 0
vn 0 0 1
vn 0 0 -1
vn 0 -1 0
vn 0 1 0

# texcoords
vt 0.00195312 0.5
vt 0.00585938 0.5
vt 0.0371094 0.5
vt 0.0449219 0.5
vt 0.0644531 0.5
vt 0.955078 0.5
vt 0.958984 0.5
vt 0.970703 0.5
vt 0.974609 0.5
vt 0.990234 0.5
vt 0.994141 0.5

# verts
v -40 0 -2
v -40 0 -3
v -40 0 -10
v -40 2 -2
v -40 2 -3
v -40 2 -4
v -40 3 -3
v -40 3 -4
v -40 40 -3
v -40 40 -10
v -38 6 -2
v -38 6 -3
v -38 7 -2
v -38 7 -3
v -38 8 -2
v -38 8 -3
v -38 9 -2
v -38 9 -3
v -37 15 -2
v -37 15 -3
v -37 40 -2
v -37 40 -3
v -35 16 -1
v -35 16 -2
v -35 40 -1
v -35 40 -2
v -34 14 -2
v -34 14 -3
v -34 15 -2
v -34 15 -3
v -33 15 -1
v -33 15 -2
v -33 16 -1
v -33 16 -2
v -29 13 -2
v -29 13 -3
v -29 14 -2
v -29 14 -3
v -27 25 -2
v -27 25 -3
v -27 26 -2
v -27 26 -3
v -26 18 -2
v -26 18 -3
v -26 25 -2
v -26 25 -3
v -23 36 -5
v -23 36 -6
v -23 37 -5
v -23 37 -6
v -17 28 -6
v -17 28 -8
v -17 35 -6
v -17 35 -8
v -16 18 -2
v -16 18 -3
v -16 26 -2
v -16 26 -3
v -13 36 -5
v -13 36 -6
v -13 37 -5
v -13 37 -6
v -9 18 -2
v -9 18 -3
v -9 26 -2
v -9 26 -3
v -8 17 -1
v -8 17 -2
v -8 26 -2
v -8 27 -2
v -8 27 -3
v -8 40 -1
v -8 40 -3
v -7 28 -6
v -7 28 -8
v -7 35 -6
v -7 35 -8
v -5 36 -5
v -5 36 -6
v -5 37 -5
v -5 37 -6
v -35 6 -2
v -35 6 -3
v -35 7 -2
v -35 7 -3
v -35 8 -2
v -35 8 -3
v -35 9 -2
v -35 9 -3
v -33 17 -1
v -33 17 -2
v -33 26 -2
v -33 27 -2
v -33 27 -3
v -33 40 -1
v -33 40 -3
v -32 18 -2
v -32 18 -3
v -32 25 -3
v -32 26 -2
v -32 26 -3
v -25 18 -2
v -25 18 -3
v -25 26 -2
v -25 26 -3
v -25 36 -5
v -25 36 -6
v -25 37 -5
v -25 37 -6
v -23 28 -6
v -23 28 -8
v -23 35 -6
v -23 35 -8
v -16 36 -5
v -16 36 -6
v -16 37 -5
v -16 37 -6
v -15 18 -2
v -15 18 -3
v -15 25 -2
v -15 25 -3
v -14 25 -2
v -14 25 -3
v -14 26 -2
v -14 26 -3
v -13 13 -2
v -13 13 -3
v -13 14 -2
v -13 14 -3
v -13 28 -6
v -13 28 -8
v -13 35 -6
v -13 35 -8
v -8 15 -1
v -8 15 -2
v -8 16 -1
v -8 16 -2
v -8 36 -5
v -8 36 -6
v -8 37 -5
v -8 37 -6
v -6 14 -2
v -6 14 -3
v -6 15 -2
v -6 15 -3
v -6 16 -1
v -6 16 -2
v -6 40 -1
v -6 40 -2
v -5 15 -2
v -5 15 -3
v -5 40 -2
v -5 40 -3
v 0 0 -2
v 0 0 -3
v 0 0 -10
v 0 2 -2
v 0 2 -3
v 0 2 -4
v 0 3 -3
v 0 3 -4
v 0 5 -4
v 0 5 -6
v 0 15 -4
v 0 15 -6
v 0 40 -3
v 0 40 -10
v -35 16 -1
v -35 40 -1
v -33 15 -1
v -33 16 -1
v -33 17 -1
v -33 40 -1
v -8 15 -1
v -8 16 -1
v -8 17 -1
v -8 40 -1
v -6 16 -1
v -6 40 -1
v -40 0 -2
v -40 2 -2
v -38 6 -2
v -38 7 -2
v -38 8 -2
v -38 9 -2
v -37 7 -2
v -37 8 -2
v -37 15 -2
v -37 40 -2
v -36 7 -2
v -36 8 -2
v -35 6 -2
v -35 7 -2
v -35 8 -2
v -35 9 -2
v -35 16 -2
v -35 40 -2
v -34 14 -2
v -34 15 -2
v -33 15 -2
v -33 16 -2
v -33 17 -2
v -33 26 -2
v -33 27 -2
v -32 18 -2
v -32 26 -2
v -29 13 -2
v -29 14 -2
v -27 25 -2
v -27 26 -2
v -26 18 -2
v -26 25 -2
v -25 18 -2
v -25 26 -2
v -16 18 -2
v -16 26 -2
v -15 18 -2
v -15 25 -2
v -14 25 -2
v -14 26 -2
v -13 13 -2
v -13 14 -2
v -9 18 -2
v -9 26 -2
v -8 15 -2
v -8 16 -2
v -8 17 -2
v -8 26 -2
v -8 27 -2
v -6 14 -2
v -6 15 -2
v -6 16 -2
v -6 40 -2
v -5 15 -2
v -5 40 -2
v 0 0 -2
v 0 2 -2
v -40 2 -3
v -40 3 -3
v -40 40 -3
v -38 6 -3
v -38 7 -3
v -38 8 -3
v -38 9 -3
v -37 15 -3
v -37 40 -3
v -35 6 -3
v -35 7 -3
v -35 8 -3
v -35 9 -3
v -34 14 -3
v -34 15 -3
v -33 27 -3
v -33 40 -3
v -32 18 -3
v -32 25 -3
v -32 26 -3
v -29 13 -3
v -29 14 -3
v -28 25 -3
v -28 26 -3
v -27 25 -3
v -27 26 -3
v -26 18 -3
v -26 25 -3
v -25 18 -3
v -25 26 -3
v -16 18 -3
v -16 26 -3
v -15 18 -3
v -15 25 -3
v -14 25 -3
v -14 26 -3
v -13 13 -3
v -13 14 -3
v -9 18 -3
v -9 26 -3
v -8 27 -3
v -8 40 -3
v -6 14 -3
v -6 15 -3
v -5 15 -3
v -5 40 -3
v 0 2 -3
v 0 3 -3
v 0 40 -3
v -25 36 -6
v -25 37 -6
v -23 36 -6
v -23 37 -6
v -16 36 -6
v -16 37 -6
v -13 36 -6
v -13 37 -6
v -8 36 -6
v -8 37 -6
v -5 36 -6
v -5 37 -6
v -23 28 -8
v -23 35 -8
v -22 28 -8
v -22 29 -8
v -22 34 -8
v -18 29 -8
v -18 34 -8
v -18 35 -8
v -17 28 -8
v -17 35 -8
v -13 28 -8
v -13 35 -8
v -12 28 -8
v -12 29 -8
v -12 34 -8
v -8 29 -8
v -8 34 -8
v -8 35 -8
v -7 28 -8
v -7 35 -8
v -25 36 -5
v -25 37 -5
v -23 36 -5
v -23 37 -5
v -16 36 -5
v -16 37 -5
v -13 36 -5
v -13 37 -5
v -8 36 -5
v -8 37 -5
v -5 36 -5
v -5 37 -5
v -23 28 -6
v -23 35 -6
v -17 28 -6
v -17 35 -6
v -13 28 -6
v -13 35 -6
v -7 28 -6
v -7 35 -6
v -40 0 -10
v -40 40 -10
v 0 0 -10
v 0 40 -10
v -40 0 -2
v 0 0 -2
v -40 0 -3
v 0 0 -3
v -40 0 -10
v 0 0 -10
v -38 6 -2
v -35 6 -2
v -38 6 -3
v -35 6 -3
v -29 13 -2
v -13 13 -2
v -29 13 -3
v -13 13 -3
v -34 14 -2
v -29 14 -2
v -13 14 -2
v -6 14 -2
v -34 14 -3
v -29 14 -3
v -13 14 -3
v -6 14 -3
v -33 15 -1
v -8 15 -1
v -37 15 -2
v -34 15 -2
v -33 15 -2
v -8 15 -2
v -6 15 -2
v -5 15 -2
v -37 15 -3
v -34 15 -3
v -6 15 -3
v -5 15 -3
v -35 16 -1
v -33 16 -1
v -8 16 -1
v -6 16 -1
v -35 16 -2
v -33 16 -2
v -8 16 -2
v -6 16 -2
v -27 25 -2
v -26 25 -2
v -15 25 -2
v -14 25 -2
v -27 25 -3
v -26 25 -3
v -15 25 -3
v -14 25 -3
v -32 26 -2
v -27 26 -2
v -25 26 -2
v -16 26 -2
v -14 26 -2
v -9 26 -2
v -32 26 -3
v -28 26 -3
v -27 26 -3
v -25 26 -3
v -16 26 -3
v -14 26 -3
v -9 26 -3
v -23 35 -6
v -17 35 -6
v -13 35 -6
v -7 35 -6
v -23 35 -8
v -18 35 -8
v -17 35 -8
v -13 35 -8
v -8 35 -8
v -7 35 -8
v -25 37 -5
v -23 37 -5
v -16 37 -5
v -13 37 -5
v -8 37 -5
v -5 37 -5
v -25 37 -6
v -23 37 -6
v -16 37 -6
v -13 37 -6
v -8 37 -6
v -5 37 -6
v -40 2 -2
v 0 2 -2
v -40 2 -3
v 0 2 -3
v -38 9 -2
v -35 9 -2
v -38 9 -3
v -35 9 -3
v -33 17 -1
v -8 17 -1
v -33 17 -2
v -8 17 -2
v -32 18 -2
v -26 18 -2
v -25 18 -2
v -16 18 -2
v -15 18 -2
v -9 18 -2
v -32 18 -3
v -26 18 -3
v -25 18 -3
v -16 18 -3
v -15 18 -3
v -9 18 -3
v -33 27 -2
v -8 27 -2
v -33 27 -3
v -8 27 -3
v -23 28 -6
v -17 28 -6
v -13 28 -6
v -7 28 -6
v -23 28 -8
v -22 28 -8
v -17 28 -8
v -13 28 -8
v -12 28 -8
v -7 28 -8
v -25 36 -5
v -23 36 -5
v -16 36 -5
v -13 36 -5
v -8 36 -5
v -5 36 -5
v -25 36 -6
v -23 36 -6
v -16 36 -6
v -13 36 -6
v -8 36 -6
v -5 36 -6
v -35 40 -1
v -33 40 -1
v -8 40 -1
v -6 40 -1
v -37 40 -2
v -35 40 -2
v -6 40 -2
v -5 40 -2
v -40 40 -3
v -37 40 -3
v -33 40 -3
v -8 40 -3
v -5 40 -3
v 0 40 -3
v -33 40 -4
v -8 40 -4
v -40 40 -10
v 0 40 -10

# faces
f 4/5/1 2/5/1 1/5/1
f 5/1/1 3/1/1 2/1/1
f 5/5/1 2/5/1 4/5/1
f 6/1/1 3/1/1 5/1/1
f 7/5/1 6/5/1 5/5/1
f 8/1/1 3/1/1 6/1/1
f 8/5/1 6/5/1 7/5/1
f 9/1/1 8/1/1 7/1/1
f 10/1/1 3/1/1 8/1/1
f 10/1/1 8/1/1 9/1/1
f 13/1/1 12/1/1 11/1/1
f 14/1/1 12/1/1 13/1/1
f 15/10/1 14/10/1 13/10/1
f 16/10/1 14/10/1 15/10/1
f 17/1/1 16/1/1 15/1/1
f 18/1/1 16/1/1 17/1/1
f 21/1/1 20/1/1 19/1/1
f 22/1/1 20/1/1 21/1/1
f 25/1/1 24/1/1 23/1/1
f 26/1/1 24/1/1 25/1/1
f 29/1/1 28/1/1 27/1/1
f 30/1/1 28/1/1 29/1/1
f 33/1/1 32/1/1 31/1/1
f 34/1/1 32/1/1 33/1/1
f 37/1/1 36/1/1 35/1/1
f 38/1/1 36/1/1 37/1/1
f 41/10/1 40/10/1 39/10/1
f 42/10/1 40/10/1 41/10/1
f 45/10/1 44/10/1 43/10/1
f 46/10/1 44/10/1 45/10/1
f 49/1/1 48/1/1 47/1/1
f 50/1/1 48/1/1 49/1/1
f 53/6/1 52/6/1 51/6/1
f 54/6/1 52/6/1 53/6/1
f 57/10/1 56/10/1 55/10/1
f 58/10/1 56/10/1 57/10/1
f 61/1/1 60/1/1 59/1/1
f 62/1/1 60/1/1 61/1/1
f 65/10/1 64/10/1 63/10/1
f 66/10/1 64/10/1 65/10/1
f 69/1/1 68/1/1 67/1/1
f 70/1/1 69/1/1 67/1/1
f 72/1/1 70/1/1 67/1/1
f 72/1/1 71/1/1 70/1/1
f 73/1/1 71/1/1 72/1/1
f 76/6/1 75/6/1 74/6/1
f 77/6/1 75/6/1 76/6/1
f 80/1/1 79/1/1 78/1/1
f 81/1/1 79/1/1 80/1/1
f 82/1/2 83/1/2 84/1/2
f 84/1/2 83/1/2 85/1/2
f 84/10/2 85/10/2 86/10/2
f 86/10/2 85/10/2 87/10/2
f 86/1/2 87/1/2 88/1/2
f 88/1/2 87/1/2 89/1/2
f 90/1/2 91/1/2 92/1/2
f 90/1/2 92/1/2 93/1/2
f 90/1/2 93/1/2 95/1/2
f 93/1/2 94/1/2 95/1/2
f 95/1/2 94/1/2 96/1/2
f 97/10/2 98/10/2 99/10/2
f 97/10/2 99/10/2 100/10/2
f 100/10/2 99/10/2 101/10/2
f 102/10/2 103/10/2 104/10/2
f 104/10/2 103/10/2 105/10/2
f 106/1/2 107/1/2 108/1/2
f 108/1/2 107/1/2 109/1/2
f 110/6/2 111/6/2 112/6/2
f 112/6/2 111/6/2 113/6/2
f 114/1/2 115/1/2 116/1/2
f 116/1/2 115/1/2 117/1/2
f 118/10/2 119/10/2 120/10/2
f 120/10/2 119/10/2 121/10/2
f 122/10/2 123/10/2 124/10/2
f 124/10/2 123/10/2 125/10/2
f 126/1/2 127/1/2 128/1/2
f 128/1/2 127/1/2 129/1/2
f 130/6/2 131/6/2 132/6/2
f 132/6/2 131/6/2 133/6/2
f 134/1/2 135/1/2 136/1/2
f 136/1/2 135/1/2 137/1/2
f 138/1/2 139/1/2 140/1/2
f 140/1/2 139/1/2 141/1/2
f 142/1/2 143/1/2 144/1/2
f 144/1/2 143/1/2 145/1/2
f 146/1/2 147/1/2 148/1/2
f 148/1/2 147/1/2 149/1/2
f 150/1/2 151/1/2 152/1/2
f 152/1/2 151/1/2 153/1/2
f 154/5/2 155/5/2 157/5/2
f 155/1/2 156/1/2 158/1/2
f 157/5/2 155/5/2 158/5/2
f 158/1/2 156/1/2 159/1/2
f 158/5/2 159/5/2 160/5/2
f 159/1/2 156/1/2 161/1/2
f 160/5/2 159/5/2 161/5/2
f 160/1/2 161/1/2 162/1/2
f 161/1/2 156/1/2 162/1/2
f 162/1/2 156/1/2 163/1/2
f 160/1/2 162/1/2 164/1/2
f 162/7/2 163/7/2 164/7/2
f 163/1/2 156/1/2 165/1/2
f 164/7/2 163/7/2 165/7/2
f 160/1/2 164/1/2 166/1/2
f 164/1/2 165/1/2 166/1/2
f 165/1/2 156/1/2 167/1/2
f 166/1/2 165/1/2 167/1/2
f 171/1/3 169/1/3 168/1/3
f 172/1/3 169/1/3 171/1/3
f 173/1/3 169/1/3 172/1/3
f 174/1/3 171/1/3 170/1/3
f 174/1/3 172/1/3 171/1/3
f 175/1/3 172/1/3 174/1/3
f 176/1/3 172/1/3 175/1/3
f 178/1/3 177/1/3 176/1/3
f 178/1/3 176/1/3 175/1/3
f 179/1/3 177/1/3 178/1/3
f 186/1/3 183/1/3 182/1/3
f 186/10/3 184/10/3 183/10/3
f 187/1/3 185/1/3 184/1/3
f 187/10/3 184/10/3 186/10/3
f 190/1/3 186/1/3 182/1/3
f 190/1/3 187/1/3 186/1/3
f 191/1/3 185/1/3 187/1/3
f 191/1/3 187/1/3 190/1/3
f 192/1/3 190/1/3 182/1/3
f 193/10/3 191/10/3 190/10/3
f 193/1/3 190/1/3 192/1/3
f 194/1/3 185/1/3 191/1/3
f 194/10/3 191/10/3 193/10/3
f 195/1/3 185/1/3 194/1/3
f 196/1/3 189/1/3 188/1/3
f 197/1/3 189/1/3 196/1/3
f 199/1/3 196/1/3 188/1/3
f 200/1/3 196/1/3 199/1/3
f 200/1/3 199/1/3 198/1/3
f 201/1/3 196/1/3 200/1/3
f 205/10/3 203/10/3 202/10/3
f 206/7/3 204/7/3 203/7/3
f 206/10/3 203/10/3 205/10/3
f 208/1/3 200/1/3 198/1/3
f 210/7/3 204/7/3 206/7/3
f 211/10/3 205/10/3 202/10/3
f 212/10/3 210/10/3 209/10/3
f 213/10/3 211/10/3 202/10/3
f 213/10/3 212/10/3 211/10/3
f 214/10/3 210/10/3 212/10/3
f 214/10/3 212/10/3 213/10/3
f 214/7/3 204/7/3 210/7/3
f 215/10/3 213/10/3 202/10/3
f 216/7/3 204/7/3 214/7/3
f 217/10/3 215/10/3 202/10/3
f 217/10/3 216/10/3 215/10/3
f 218/10/3 216/10/3 217/10/3
f 219/10/3 216/10/3 218/10/3
f 220/7/3 204/7/3 216/7/3
f 220/10/3 216/10/3 219/10/3
f 221/1/3 208/1/3 207/1/3
f 222/1/3 200/1/3 208/1/3
f 222/1/3 208/1/3 221/1/3
f 223/10/3 217/10/3 202/10/3
f 224/7/3 204/7/3 220/7/3
f 225/1/3 200/1/3 222/1/3
f 227/10/3 223/10/3 202/10/3
f 227/10/3 224/10/3 223/10/3
f 228/7/3 204/7/3 224/7/3
f 228/10/3 224/10/3 227/10/3
f 229/7/3 204/7/3 228/7/3
f 230/1/3 226/1/3 225/1/3
f 230/1/3 225/1/3 222/1/3
f 231/1/3 226/1/3 230/1/3
f 232/1/3 226/1/3 231/1/3
f 234/1/3 232/1/3 231/1/3
f 234/1/3 233/1/3 232/1/3
f 235/1/3 233/1/3 234/1/3
f 236/5/3 181/5/3 180/5/3
f 237/5/3 181/5/3 236/5/3
f 241/1/3 240/1/3 239/1/3
f 242/1/3 240/1/3 241/1/3
f 243/1/3 240/1/3 242/1/3
f 244/1/3 240/1/3 243/1/3
f 245/1/3 240/1/3 244/1/3
f 246/1/3 240/1/3 245/1/3
f 247/1/3 241/1/3 239/1/3
f 250/1/3 245/1/3 244/1/3
f 251/1/3 249/1/3 248/1/3
f 251/1/3 250/1/3 249/1/3
f 251/1/3 245/1/3 250/1/3
f 251/1/3 248/1/3 247/1/3
f 252/1/3 245/1/3 251/1/3
f 258/1/3 251/1/3 247/1/3
f 259/1/3 251/1/3 258/1/3
f 260/2/3 257/2/3 256/2/3
f 260/1/3 256/1/3 255/1/3
f 261/2/3 257/2/3 260/2/3
f 262/1/3 260/1/3 255/1/3
f 262/1/3 261/1/3 260/1/3
f 263/1/3 261/1/3 262/1/3
f 264/1/3 262/1/3 255/1/3
f 265/1/3 262/1/3 264/1/3
f 268/1/3 267/1/3 266/1/3
f 269/1/3 267/1/3 268/1/3
f 272/1/3 271/1/3 270/1/3
f 274/1/3 258/1/3 247/1/3
f 276/1/3 273/1/3 272/1/3
f 276/1/3 272/1/3 270/1/3
f 277/1/3 273/1/3 276/1/3
f 278/7/3 254/7/3 253/7/3
f 279/7/3 254/7/3 278/7/3
f 280/1/3 275/1/3 274/1/3
f 282/1/3 281/1/3 280/1/3
f 284/5/3 239/5/3 238/5/3
f 285/1/3 283/1/3 282/1/3
f 285/5/3 239/5/3 284/5/3
f 285/1/3 247/1/3 239/1/3
f 285/1/3 282/1/3 280/1/3
f 285/1/3 280/1/3 274/1/3
f 285/1/3 274/1/3 247/1/3
f 286/1/3 283/1/3 285/1/3
f 289/1/3 288/1/3 287/1/3
f 290/1/3 288/1/3 289/1/3
f 293/1/3 292/1/3 291/1/3
f 294/1/3 292/1/3 293/1/3
f 297/1/3 296/1/3 295/1/3
f 298/1/3 296/1/3 297/1/3
f 301/9/3 300/9/3 299/9/3
f 302/9/3 300/9/3 301/9/3
f 303/9/3 300/9/3 302/9/3
f 304/8/3 302/8/3 301/8/3
f 304/1/3 303/1/3 302/1/3
f 305/9/3 300/9/3 303/9/3
f 305/1/3 303/1/3 304/1/3
f 306/9/3 300/9/3 305/9/3
f 307/8/3 304/8/3 301/8/3
f 307/8/3 305/8/3 304/8/3
f 307/8/3 306/8/3 305/8/3
f 308/8/3 306/8/3 307/8/3
f 311/9/3 310/9/3 309/9/3
f 312/9/3 310/9/3 311/9/3
f 313/9/3 310/9/3 312/9/3
f 314/8/3 312/8/3 311/8/3
f 314/1/3 313/1/3 312/1/3
f 315/9/3 310/9/3 313/9/3
f 315/1/3 313/1/3 314/1/3
f 316/9/3 310/9/3 315/9/3
f 317/8/3 314/8/3 311/8/3
f 317/8/3 315/8/3 314/8/3
f 317/8/3 316/8/3 315/8/3
f 318/8/3 316/8/3 317/8/3
f 319/1/4 320/1/4 321/1/4
f 321/1/4 320/1/4 322/1/4
f 323/1/4 324/1/4 325/1/4
f 325/1/4 324/1/4 326/1/4
f 327/1/4 328/1/4 329/1/4
f 329/1/4 328/1/4 330/1/4
f 331/1/4 332/1/4 333/1/4
f 333/1/4 332/1/4 334/1/4
f 335/1/4 336/1/4 337/1/4
f 337/1/4 336/1/4 338/1/4
f 339/1/4 340/1/4 341/1/4
f 341/1/4 340/1/4 342/1/4
f 345/5/5 344/5/5 343/5/5
f 346/5/5 344/5/5 345/5/5
f 347/1/5 346/1/5 345/1/5
f 348/1/5 346/1/5 347/1/5
f 351/1/5 350/1/5 349/1/5
f 352/1/5 350/1/5 351/1/5
f 355/1/5 354/1/5 353/1/5
f 356/1/5 354/1/5 355/1/5
f 361/1/5 358/1/5 357/1/5
f 362/1/5 358/1/5 361/1/5
f 363/1/5 360/1/5 359/1/5
f 364/1/5 360/1/5 363/1/5
f 369/1/5 366/1/5 365/1/5
f 370/1/5 366/1/5 369/1/5
f 373/1/5 368/1/5 367/1/5
f 374/1/5 368/1/5 373/1/5
f 375/1/5 372/1/5 371/1/5
f 376/1/5 372/1/5 375/1/5
f 381/1/5 378/1/5 377/1/5
f 382/1/5 378/1/5 381/1/5
f 383/1/5 380/1/5 379/1/5
f 384/1/5 380/1/5 383/1/5
f 389/10/5 386/10/5 385/10/5
f 390/10/5 386/10/5 389/10/5
f 391/10/5 388/10/5 387/10/5
f 392/10/5 388/10/5 391/10/5
f 399/7/5 394/7/5 393/7/5
f 400/7/5 394/7/5 399/7/5
f 401/7/5 394/7/5 400/7/5
f 402/7/5 396/7/5 395/7/5
f 403/7/5 396/7/5 402/7/5
f 404/7/5 398/7/5 397/7/5
f 405/7/5 398/7/5 404/7/5
f 410/6/5 407/6/5 406/6/5
f 411/6/5 407/6/5 410/6/5
f 412/6/5 407/6/5 411/6/5
f 413/6/5 409/6/5 408/6/5
f 414/6/5 409/6/5 413/6/5
f 415/6/5 409/6/5 414/6/5
f 422/1/5 417/1/5 416/1/5
f 423/1/5 417/1/5 422/1/5
f 424/1/5 419/1/5 418/1/5
f 425/1/5 419/1/5 424/1/5
f 426/1/5 421/1/5 420/1/5
f 427/1/5 421/1/5 426/1/5
f 428/5/6 429/5/6 430/5/6
f 430/5/6 429/5/6 431/5/6
f 432/1/6 433/1/6 434/1/6
f 434/1/6 433/1/6 435/1/6
f 436/1/6 437/1/6 438/1/6
f 438/1/6 437/1/6 439/1/6
f 440/10/6 441/10/6 446/10/6
f 446/10/6 441/10/6 447/10/6
f 442/10/6 443/10/6 448/10/6
f 448/10/6 443/10/6 449/10/6
f 444/10/6 445/10/6 450/10/6
f 450/10/6 445/10/6 451/10/6
f 452/7/6 453/7/6 454/7/6
f 454/7/6 453/7/6 455/7/6
f 456/6/6 457/6/6 460/6/6
f 460/6/6 457/6/6 461/6/6
f 461/6/6 457/6/6 462/6/6
f 458/6/6 459/6/6 463/6/6
f 463/6/6 459/6/6 464/6/6
f 464/6/6 459/6/6 465/6/6
f 466/1/6 467/1/6 472/1/6
f 472/1/6 467/1/6 473/1/6
f 468/1/6 469/1/6 474/1/6
f 474/1/6 469/1/6 475/1/6
f 470/1/6 471/1/6 476/1/6
f 476/1/6 471/1/6 477/1/6
f 478/1/6 479/1/6 483/1/6
f 480/1/6 481/1/6 484/1/6
f 482/1/6 483/1/6 487/1/6
f 483/1/6 479/1/6 488/1/6
f 487/1/6 483/1/6 488/1/6
f 484/1/6 485/1/6 489/1/6
f 480/1/6 484/1/6 489/1/6
f 489/1/6 485/1/6 490/1/6
f 487/1/6 488/1/6 492/1/6
f 486/1/6 487/1/6 492/1/6
f 488/7/6 489/7/6 492/7/6
f 490/1/6 491/1/6 493/1/6
f 492/7/6 489/7/6 493/7/6
f 489/1/6 490/1/6 493/1/6
f 486/1/6 492/1/6 494/1/6
f 492/1/6 493/1/6 494/1/6
f 493/1/6 491/1/6 495/1/6
f 494/1/6 493/1/6 495/1/6
