# MagicaVoxel @ Ephtracy

# group
g RoomComputer-Wall1

# material
mtllib RoomComputer-Wall1.mtl
usemtl palette

# normals
vn -1 0 0
vn 1 0 0
vn 0 0 1
vn 0 0 -1
vn 0 -1 0
vn 0 1 0

# texcoords
vt 0.00195312 0.5
vt 0.0644531 0.5
vt 0.958984 0.5
vt 0.970703 0.5
vt 0.986328 0.5
vt 0.990234 0.5
vt 0.994141 0.5

# verts
v 0 0 -2
v 0 0 -3
v 0 0 -10
v 0 2 -2
v 0 2 -3
v 0 2 -4
v 0 3 -3
v 0 3 -4
v 0 5 -4
v 0 5 -6
v 0 15 -4
v 0 15 -6
v 0 40 -3
v 0 40 -10
v 1 15 -2
v 1 15 -3
v 1 40 -2
v 1 40 -3
v 2 14 -2
v 2 14 -3
v 2 15 -2
v 2 15 -3
v 2 16 -1
v 2 16 -2
v 2 40 -1
v 2 40 -2
v 4 15 -1
v 4 15 -2
v 4 16 -1
v 4 16 -2
v 10 13 -2
v 10 13 -3
v 10 14 -2
v 10 14 -3
v 10 24 -2
v 10 24 -3
v 10 26 -2
v 10 26 -3
v 11 18 -2
v 11 18 -3
v 11 24 -2
v 11 24 -3
v 11 26 -2
v 11 26 -3
v 11 32 -2
v 11 32 -3
v 20 18 -2
v 20 18 -3
v 20 32 -2
v 20 32 -3
v 28 18 -2
v 28 18 -3
v 28 32 -2
v 28 32 -3
v 29 17 -1
v 29 17 -2
v 29 32 -2
v 29 33 -2
v 29 33 -3
v 29 40 -1
v 29 40 -3
v 30 6 -2
v 30 6 -3
v 30 7 -2
v 30 7 -3
v 30 8 -2
v 30 8 -3
v 30 9 -2
v 30 9 -3
v 32 35 -1
v 32 35 -2
v 32 39 -1
v 32 39 -2
v 33 34 -1
v 33 34 -2
v 33 35 -1
v 33 35 -2
v 33 39 -1
v 33 39 -2
v 33 40 -1
v 33 40 -2
v 4 17 -1
v 4 17 -2
v 4 32 -2
v 4 33 -2
v 4 33 -3
v 4 40 -1
v 4 40 -3
v 5 18 -2
v 5 18 -3
v 5 32 -2
v 5 32 -3
v 12 18 -2
v 12 18 -3
v 12 32 -2
v 12 32 -3
v 21 18 -2
v 21 18 -3
v 21 24 -2
v 21 24 -3
v 21 26 -2
v 21 26 -3
v 21 32 -2
v 21 32 -3
v 22 24 -2
v 22 24 -3
v 22 26 -2
v 22 26 -3
v 24 13 -2
v 24 13 -3
v 24 14 -2
v 24 14 -3
v 29 15 -1
v 29 15 -2
v 29 16 -1
v 29 16 -2
v 30 14 -2
v 30 14 -3
v 30 15 -2
v 30 15 -3
v 31 16 -1
v 31 16 -2
v 31 40 -1
v 31 40 -2
v 32 15 -2
v 32 15 -3
v 32 33 -2
v 32 33 -3
v 33 6 -2
v 33 6 -3
v 33 7 -2
v 33 7 -3
v 33 8 -2
v 33 8 -3
v 33 9 -2
v 33 9 -3
v 38 34 -1
v 38 34 -2
v 38 35 -1
v 38 35 -2
v 38 39 -1
v 38 39 -2
v 38 40 -1
v 38 40 -2
v 39 35 -1
v 39 35 -2
v 39 39 -1
v 39 39 -2
v 40 0 -2
v 40 0 -3
v 40 0 -10
v 40 2 -2
v 40 2 -3
v 40 2 -4
v 40 3 -3
v 40 3 -4
v 40 33 -2
v 40 33 -3
v 40 40 -2
v 40 40 -10
v 2 16 -1
v 2 40 -1
v 4 15 -1
v 4 16 -1
v 4 17 -1
v 4 40 -1
v 29 15 -1
v 29 16 -1
v 29 17 -1
v 29 40 -1
v 31 16 -1
v 31 40 -1
v 32 35 -1
v 32 39 -1
v 33 34 -1
v 33 35 -1
v 33 39 -1
v 33 40 -1
v 34 36 -1
v 34 39 -1
v 37 36 -1
v 37 39 -1
v 38 34 -1
v 38 35 -1
v 38 39 -1
v 38 40 -1
v 39 35 -1
v 39 39 -1
v 0 0 -2
v 0 2 -2
v 1 15 -2
v 1 40 -2
v 2 14 -2
v 2 15 -2
v 2 16 -2
v 2 40 -2
v 4 15 -2
v 4 16 -2
v 4 17 -2
v 4 32 -2
v 4 33 -2
v 5 18 -2
v 5 32 -2
v 10 13 -2
v 10 14 -2
v 10 24 -2
v 10 26 -2
v 11 18 -2
v 11 24 -2
v 11 26 -2
v 11 32 -2
v 12 18 -2
v 12 32 -2
v 20 18 -2
v 20 32 -2
v 21 18 -2
v 21 24 -2
v 21 26 -2
v 21 32 -2
v 22 24 -2
v 22 26 -2
v 24 13 -2
v 24 14 -2
v 28 18 -2
v 28 32 -2
v 29 15 -2
v 29 16 -2
v 29 17 -2
v 29 32 -2
v 29 33 -2
v 30 6 -2
v 30 7 -2
v 30 8 -2
v 30 9 -2
v 30 14 -2
v 30 15 -2
v 31 7 -2
v 31 8 -2
v 31 16 -2
v 31 40 -2
v 32 7 -2
v 32 8 -2
v 32 15 -2
v 32 33 -2
v 32 35 -2
v 32 39 -2
v 32 40 -2
v 33 6 -2
v 33 7 -2
v 33 8 -2
v 33 9 -2
v 33 34 -2
v 33 35 -2
v 33 39 -2
v 33 40 -2
v 38 34 -2
v 38 35 -2
v 38 39 -2
v 38 40 -2
v 39 35 -2
v 39 39 -2
v 39 40 -2
v 40 0 -2
v 40 2 -2
v 40 33 -2
v 40 40 -2
v 0 2 -3
v 0 3 -3
v 0 40 -3
v 1 15 -3
v 1 40 -3
v 2 14 -3
v 2 15 -3
v 4 33 -3
v 4 40 -3
v 5 18 -3
v 5 32 -3
v 10 13 -3
v 10 14 -3
v 10 24 -3
v 10 26 -3
v 11 18 -3
v 11 24 -3
v 11 26 -3
v 11 32 -3
v 12 18 -3
v 12 32 -3
v 20 18 -3
v 20 32 -3
v 21 18 -3
v 21 24 -3
v 21 26 -3
v 21 32 -3
v 22 24 -3
v 22 26 -3
v 24 13 -3
v 24 14 -3
v 28 18 -3
v 28 32 -3
v 29 33 -3
v 29 40 -3
v 30 6 -3
v 30 7 -3
v 30 8 -3
v 30 9 -3
v 30 14 -3
v 30 15 -3
v 32 15 -3
v 32 33 -3
v 33 6 -3
v 33 7 -3
v 33 8 -3
v 33 9 -3
v 40 2 -3
v 40 3 -3
v 40 33 -3
v 0 0 -10
v 0 40 -10
v 40 0 -10
v 40 40 -10
v 0 0 -2
v 40 0 -2
v 0 0 -3
v 40 0 -3
v 0 0 -10
v 40 0 -10
v 30 6 -2
v 33 6 -2
v 30 6 -3
v 33 6 -3
v 10 13 -2
v 24 13 -2
v 10 13 -3
v 24 13 -3
v 2 14 -2
v 10 14 -2
v 24 14 -2
v 30 14 -2
v 2 14 -3
v 10 14 -3
v 24 14 -3
v 30 14 -3
v 4 15 -1
v 29 15 -1
v 1 15 -2
v 2 15 -2
v 4 15 -2
v 29 15 -2
v 30 15 -2
v 32 15 -2
v 1 15 -3
v 2 15 -3
v 30 15 -3
v 32 15 -3
v 2 16 -1
v 4 16 -1
v 29 16 -1
v 31 16 -1
v 2 16 -2
v 4 16 -2
v 29 16 -2
v 31 16 -2
v 10 24 -2
v 11 24 -2
v 21 24 -2
v 22 24 -2
v 10 24 -3
v 11 24 -3
v 21 24 -3
v 22 24 -3
v 5 32 -2
v 11 32 -2
v 12 32 -2
v 20 32 -2
v 21 32 -2
v 28 32 -2
v 5 32 -3
v 11 32 -3
v 12 32 -3
v 20 32 -3
v 21 32 -3
v 28 32 -3
v 32 33 -2
v 40 33 -2
v 32 33 -3
v 40 33 -3
v 33 34 -1
v 38 34 -1
v 33 34 -2
v 38 34 -2
v 32 35 -1
v 33 35 -1
v 38 35 -1
v 39 35 -1
v 32 35 -2
v 33 35 -2
v 38 35 -2
v 39 35 -2
v 0 2 -2
v 40 2 -2
v 0 2 -3
v 40 2 -3
v 30 9 -2
v 33 9 -2
v 30 9 -3
v 33 9 -3
v 4 17 -1
v 29 17 -1
v 4 17 -2
v 29 17 -2
v 5 18 -2
v 11 18 -2
v 12 18 -2
v 20 18 -2
v 21 18 -2
v 28 18 -2
v 5 18 -3
v 11 18 -3
v 12 18 -3
v 20 18 -3
v 21 18 -3
v 28 18 -3
v 10 26 -2
v 11 26 -2
v 21 26 -2
v 22 26 -2
v 10 26 -3
v 11 26 -3
v 21 26 -3
v 22 26 -3
v 4 33 -2
v 29 33 -2
v 4 33 -3
v 29 33 -3
v 32 39 -1
v 33 39 -1
v 38 39 -1
v 39 39 -1
v 32 39 -2
v 33 39 -2
v 38 39 -2
v 39 39 -2
v 2 40 -1
v 4 40 -1
v 29 40 -1
v 31 40 -1
v 33 40 -1
v 38 40 -1
v 1 40 -2
v 2 40 -2
v 31 40 -2
v 32 40 -2
v 33 40 -2
v 38 40 -2
v 39 40 -2
v 40 40 -2
v 0 40 -3
v 1 40 -3
v 4 40 -3
v 29 40 -3
v 32 40 -3
v 39 40 -3
v 4 40 -4
v 29 40 -4
v 0 40 -10
v 40 40 -10

# faces
f 4/2/1 2/2/1 1/2/1
f 5/1/1 3/1/1 2/1/1
f 5/2/1 2/2/1 4/2/1
f 6/1/1 3/1/1 5/1/1
f 7/2/1 6/2/1 5/2/1
f 8/1/1 3/1/1 6/1/1
f 8/2/1 6/2/1 7/2/1
f 9/1/1 8/1/1 7/1/1
f 9/1/1 3/1/1 8/1/1
f 10/1/1 3/1/1 9/1/1
f 11/1/1 9/1/1 7/1/1
f 11/3/1 10/3/1 9/3/1
f 12/1/1 3/1/1 10/1/1
f 12/3/1 10/3/1 11/3/1
f 13/1/1 11/1/1 7/1/1
f 13/1/1 12/1/1 11/1/1
f 14/1/1 3/1/1 12/1/1
f 14/1/1 12/1/1 13/1/1
f 17/1/1 16/1/1 15/1/1
f 18/1/1 16/1/1 17/1/1
f 21/1/1 20/1/1 19/1/1
f 22/1/1 20/1/1 21/1/1
f 25/1/1 24/1/1 23/1/1
f 26/1/1 24/1/1 25/1/1
f 29/1/1 28/1/1 27/1/1
f 30/1/1 28/1/1 29/1/1
f 33/1/1 32/1/1 31/1/1
f 34/1/1 32/1/1 33/1/1
f 37/6/1 36/6/1 35/6/1
f 38/6/1 36/6/1 37/6/1
f 41/6/1 40/6/1 39/6/1
f 42/6/1 40/6/1 41/6/1
f 45/6/1 44/6/1 43/6/1
f 46/6/1 44/6/1 45/6/1
f 49/6/1 48/6/1 47/6/1
f 50/6/1 48/6/1 49/6/1
f 53/6/1 52/6/1 51/6/1
f 54/6/1 52/6/1 53/6/1
f 57/1/1 56/1/1 55/1/1
f 58/1/1 57/1/1 55/1/1
f 60/1/1 58/1/1 55/1/1
f 60/1/1 59/1/1 58/1/1
f 61/1/1 59/1/1 60/1/1
f 64/1/1 63/1/1 62/1/1
f 65/1/1 63/1/1 64/1/1
f 66/6/1 65/6/1 64/6/1
f 67/6/1 65/6/1 66/6/1
f 68/1/1 67/1/1 66/1/1
f 69/1/1 67/1/1 68/1/1
f 72/6/1 71/6/1 70/6/1
f 73/6/1 71/6/1 72/6/1
f 76/6/1 75/6/1 74/6/1
f 77/6/1 75/6/1 76/6/1
f 80/6/1 79/6/1 78/6/1
f 81/6/1 79/6/1 80/6/1
f 82/1/2 83/1/2 84/1/2
f 82/1/2 84/1/2 85/1/2
f 82/1/2 85/1/2 87/1/2
f 85/1/2 86/1/2 87/1/2
f 87/1/2 86/1/2 88/1/2
f 89/6/2 90/6/2 91/6/2
f 91/6/2 90/6/2 92/6/2
f 93/6/2 94/6/2 95/6/2
f 95/6/2 94/6/2 96/6/2
f 97/6/2 98/6/2 99/6/2
f 99/6/2 98/6/2 100/6/2
f 101/6/2 102/6/2 103/6/2
f 103/6/2 102/6/2 104/6/2
f 105/6/2 106/6/2 107/6/2
f 107/6/2 106/6/2 108/6/2
f 109/1/2 110/1/2 111/1/2
f 111/1/2 110/1/2 112/1/2
f 113/1/2 114/1/2 115/1/2
f 115/1/2 114/1/2 116/1/2
f 117/1/2 118/1/2 119/1/2
f 119/1/2 118/1/2 120/1/2
f 121/1/2 122/1/2 123/1/2
f 123/1/2 122/1/2 124/1/2
f 125/1/2 126/1/2 127/1/2
f 127/1/2 126/1/2 128/1/2
f 129/1/2 130/1/2 131/1/2
f 131/1/2 130/1/2 132/1/2
f 131/6/2 132/6/2 133/6/2
f 133/6/2 132/6/2 134/6/2
f 133/1/2 134/1/2 135/1/2
f 135/1/2 134/1/2 136/1/2
f 137/6/2 138/6/2 139/6/2
f 139/6/2 138/6/2 140/6/2
f 141/6/2 142/6/2 143/6/2
f 143/6/2 142/6/2 144/6/2
f 145/6/2 146/6/2 147/6/2
f 147/6/2 146/6/2 148/6/2
f 149/2/2 150/2/2 152/2/2
f 150/1/2 151/1/2 153/1/2
f 152/2/2 150/2/2 153/2/2
f 153/1/2 151/1/2 154/1/2
f 153/2/2 154/2/2 155/2/2
f 154/1/2 151/1/2 156/1/2
f 155/2/2 154/2/2 156/2/2
f 155/1/2 156/1/2 158/1/2
f 157/1/2 158/1/2 159/1/2
f 156/1/2 151/1/2 160/1/2
f 159/1/2 158/1/2 160/1/2
f 158/1/2 156/1/2 160/1/2
f 164/1/3 162/1/3 161/1/3
f 165/1/3 162/1/3 164/1/3
f 166/1/3 162/1/3 165/1/3
f 167/1/3 164/1/3 163/1/3
f 167/1/3 165/1/3 164/1/3
f 168/1/3 165/1/3 167/1/3
f 169/1/3 165/1/3 168/1/3
f 171/1/3 170/1/3 169/1/3
f 171/1/3 169/1/3 168/1/3
f 172/1/3 170/1/3 171/1/3
f 176/6/3 174/6/3 173/6/3
f 177/6/3 174/6/3 176/6/3
f 179/6/3 176/6/3 175/6/3
f 179/6/3 178/6/3 177/6/3
f 179/6/3 177/6/3 176/6/3
f 180/6/3 178/6/3 179/6/3
f 181/6/3 179/6/3 175/6/3
f 181/5/3 180/5/3 179/5/3
f 182/6/3 178/6/3 180/6/3
f 182/5/3 180/5/3 181/5/3
f 183/6/3 181/6/3 175/6/3
f 183/6/3 182/6/3 181/6/3
f 184/6/3 182/6/3 183/6/3
f 185/6/3 178/6/3 182/6/3
f 185/6/3 182/6/3 184/6/3
f 186/6/3 178/6/3 185/6/3
f 187/6/3 185/6/3 184/6/3
f 188/6/3 185/6/3 187/6/3
f 194/1/3 192/1/3 191/1/3
f 195/1/3 192/1/3 194/1/3
f 196/1/3 192/1/3 195/1/3
f 197/1/3 194/1/3 193/1/3
f 197/1/3 195/1/3 194/1/3
f 198/1/3 195/1/3 197/1/3
f 202/6/3 200/6/3 199/6/3
f 203/3/3 201/3/3 200/3/3
f 203/6/3 200/6/3 202/6/3
f 205/1/3 197/1/3 193/1/3
f 208/6/3 202/6/3 199/6/3
f 209/6/3 207/6/3 206/6/3
f 210/6/3 207/6/3 209/6/3
f 211/3/3 201/3/3 203/3/3
f 212/6/3 210/6/3 209/6/3
f 212/6/3 211/6/3 210/6/3
f 212/6/3 208/6/3 199/6/3
f 212/6/3 209/6/3 208/6/3
f 213/3/3 201/3/3 211/3/3
f 213/6/3 211/6/3 212/6/3
f 214/6/3 212/6/3 199/6/3
f 215/3/3 201/3/3 213/3/3
f 216/6/3 214/6/3 199/6/3
f 216/6/3 215/6/3 214/6/3
f 217/6/3 215/6/3 216/6/3
f 218/6/3 215/6/3 217/6/3
f 219/3/3 201/3/3 215/3/3
f 219/6/3 215/6/3 218/6/3
f 220/6/3 218/6/3 217/6/3
f 221/6/3 218/6/3 220/6/3
f 222/1/3 205/1/3 204/1/3
f 223/1/3 197/1/3 205/1/3
f 223/1/3 205/1/3 222/1/3
f 224/6/3 216/6/3 199/6/3
f 225/3/3 201/3/3 219/3/3
f 226/1/3 197/1/3 223/1/3
f 228/6/3 224/6/3 199/6/3
f 228/6/3 225/6/3 224/6/3
f 229/3/3 201/3/3 225/3/3
f 229/6/3 225/6/3 228/6/3
f 230/3/3 201/3/3 229/3/3
f 235/1/3 227/1/3 226/1/3
f 235/1/3 226/1/3 223/1/3
f 236/1/3 227/1/3 235/1/3
f 237/6/3 233/6/3 232/6/3
f 237/1/3 232/1/3 231/1/3
f 238/1/3 234/1/3 233/1/3
f 238/6/3 233/6/3 237/6/3
f 239/1/3 227/1/3 236/1/3
f 241/1/3 237/1/3 231/1/3
f 241/1/3 238/1/3 237/1/3
f 242/1/3 234/1/3 238/1/3
f 242/1/3 238/1/3 241/1/3
f 243/1/3 240/1/3 239/1/3
f 243/1/3 239/1/3 236/1/3
f 244/1/3 240/1/3 243/1/3
f 245/1/3 240/1/3 244/1/3
f 246/1/3 240/1/3 245/1/3
f 247/1/3 240/1/3 246/1/3
f 248/1/3 241/1/3 231/1/3
f 249/6/3 242/6/3 241/6/3
f 249/1/3 241/1/3 248/1/3
f 250/1/3 234/1/3 242/1/3
f 250/6/3 242/6/3 249/6/3
f 251/1/3 234/1/3 250/1/3
f 252/1/3 245/1/3 244/1/3
f 253/1/3 245/1/3 252/1/3
f 254/6/3 247/6/3 246/6/3
f 255/6/3 247/6/3 254/6/3
f 256/1/3 252/1/3 244/1/3
f 260/1/3 257/1/3 256/1/3
f 261/6/3 259/6/3 258/6/3
f 262/6/3 259/6/3 261/6/3
f 263/2/3 190/2/3 189/2/3
f 264/2/3 190/2/3 263/2/3
f 265/1/3 256/1/3 244/1/3
f 265/1/3 260/1/3 256/1/3
f 265/1/3 261/1/3 260/1/3
f 265/1/3 262/1/3 261/1/3
f 266/1/3 262/1/3 265/1/3
f 270/1/3 269/1/3 268/1/3
f 271/1/3 269/1/3 270/1/3
f 272/1/3 270/1/3 268/1/3
f 273/1/3 270/1/3 272/1/3
f 278/1/3 272/1/3 268/1/3
f 279/1/3 272/1/3 278/1/3
f 280/1/3 277/1/3 276/1/3
f 281/1/3 277/1/3 280/1/3
f 282/1/3 280/1/3 276/1/3
f 283/1/3 280/1/3 282/1/3
f 284/1/3 277/1/3 281/1/3
f 285/1/3 277/1/3 284/1/3
f 288/1/3 287/1/3 286/1/3
f 289/1/3 287/1/3 288/1/3
f 294/1/3 291/1/3 290/1/3
f 295/1/3 293/1/3 292/1/3
f 296/1/3 278/1/3 268/1/3
f 298/1/3 295/1/3 294/1/3
f 298/1/3 294/1/3 290/1/3
f 299/1/3 293/1/3 295/1/3
f 299/1/3 295/1/3 298/1/3
f 300/3/3 275/3/3 274/3/3
f 301/3/3 275/3/3 300/3/3
f 302/1/3 297/1/3 296/1/3
f 302/1/3 296/1/3 268/1/3
f 303/1/3 297/1/3 302/1/3
f 304/1/3 297/1/3 303/1/3
f 305/1/3 297/1/3 304/1/3
f 306/1/3 297/1/3 305/1/3
f 308/1/3 307/1/3 306/1/3
f 308/1/3 306/1/3 305/1/3
f 310/1/3 302/1/3 268/1/3
f 313/1/3 309/1/3 308/1/3
f 313/1/3 308/1/3 305/1/3
f 314/2/3 268/2/3 267/2/3
f 315/1/3 313/1/3 312/1/3
f 315/2/3 268/2/3 314/2/3
f 315/1/3 312/1/3 311/1/3
f 315/1/3 311/1/3 310/1/3
f 315/1/3 310/1/3 268/1/3
f 316/1/3 309/1/3 313/1/3
f 316/1/3 313/1/3 315/1/3
f 317/1/4 318/1/4 319/1/4
f 319/1/4 318/1/4 320/1/4
f 323/2/5 322/2/5 321/2/5
f 324/2/5 322/2/5 323/2/5
f 325/1/5 324/1/5 323/1/5
f 326/1/5 324/1/5 325/1/5
f 329/1/5 328/1/5 327/1/5
f 330/1/5 328/1/5 329/1/5
f 333/1/5 332/1/5 331/1/5
f 334/1/5 332/1/5 333/1/5
f 339/1/5 336/1/5 335/1/5
f 340/1/5 336/1/5 339/1/5
f 341/1/5 338/1/5 337/1/5
f 342/1/5 338/1/5 341/1/5
f 347/1/5 344/1/5 343/1/5
f 348/1/5 344/1/5 347/1/5
f 351/1/5 346/1/5 345/1/5
f 352/1/5 346/1/5 351/1/5
f 353/1/5 350/1/5 349/1/5
f 354/1/5 350/1/5 353/1/5
f 359/1/5 356/1/5 355/1/5
f 360/1/5 356/1/5 359/1/5
f 361/1/5 358/1/5 357/1/5
f 362/1/5 358/1/5 361/1/5
f 367/6/5 364/6/5 363/6/5
f 368/6/5 364/6/5 367/6/5
f 369/6/5 366/6/5 365/6/5
f 370/6/5 366/6/5 369/6/5
f 377/3/5 372/3/5 371/3/5
f 378/3/5 372/3/5 377/3/5
f 379/3/5 374/3/5 373/3/5
f 380/3/5 374/3/5 379/3/5
f 381/3/5 376/3/5 375/3/5
f 382/3/5 376/3/5 381/3/5
f 385/1/5 384/1/5 383/1/5
f 386/1/5 384/1/5 385/1/5
f 389/6/5 388/6/5 387/6/5
f 390/6/5 388/6/5 389/6/5
f 395/6/5 392/6/5 391/6/5
f 396/6/5 392/6/5 395/6/5
f 397/6/5 394/6/5 393/6/5
f 398/6/5 394/6/5 397/6/5
f 399/2/6 400/2/6 401/2/6
f 401/2/6 400/2/6 402/2/6
f 403/1/6 404/1/6 405/1/6
f 405/1/6 404/1/6 406/1/6
f 407/1/6 408/1/6 409/1/6
f 409/1/6 408/1/6 410/1/6
f 411/6/6 412/6/6 417/6/6
f 417/6/6 412/6/6 418/6/6
f 413/6/6 414/6/6 419/6/6
f 419/6/6 414/6/6 420/6/6
f 415/6/6 416/6/6 421/6/6
f 421/6/6 416/6/6 422/6/6
f 423/6/6 424/6/6 427/6/6
f 427/6/6 424/6/6 428/6/6
f 425/6/6 426/6/6 429/6/6
f 429/6/6 426/6/6 430/6/6
f 431/3/6 432/3/6 433/3/6
f 433/3/6 432/3/6 434/3/6
f 435/6/6 436/6/6 439/6/6
f 439/6/6 436/6/6 440/6/6
f 437/6/6 438/6/6 441/6/6
f 441/6/6 438/6/6 442/6/6
f 443/1/6 444/1/6 450/1/6
f 445/1/6 446/1/6 451/1/6
f 447/6/6 448/6/6 453/6/6
f 453/6/6 448/6/6 454/6/6
f 449/1/6 450/1/6 458/1/6
f 450/1/6 444/1/6 459/1/6
f 458/1/6 450/1/6 459/1/6
f 451/1/6 452/1/6 460/1/6
f 445/1/6 451/1/6 460/1/6
f 452/6/6 453/6/6 461/6/6
f 453/6/6 454/6/6 461/6/6
f 460/1/6 452/1/6 461/1/6
f 454/6/6 455/6/6 461/6/6
f 455/1/6 456/1/6 462/1/6
f 461/6/6 455/6/6 462/6/6
f 458/1/6 459/1/6 463/1/6
f 457/1/6 458/1/6 463/1/6
f 459/3/6 460/3/6 463/3/6
f 460/1/6 461/1/6 464/1/6
f 463/3/6 460/3/6 464/3/6
f 461/1/6 462/1/6 464/1/6
f 457/1/6 463/1/6 465/1/6
f 463/1/6 464/1/6 465/1/6
f 462/1/6 456/1/6 466/1/6
f 465/1/6 464/1/6 466/1/6
f 464/1/6 462/1/6 466/1/6
