# MagicaVoxel @ Ephtracy

# group
g RoomComputer-back-2

# material
mtllib RoomComputer-back-2.mtl
usemtl palette

# normals
vn -1 0 0
vn 1 0 0
vn 0 0 1
vn 0 0 -1
vn 0 -1 0
vn 0 1 0

# texcoords
vt 0.00195312 0.5
vt 0.0644531 0.5
vt 0.142578 0.5
vt 0.939453 0.5
vt 0.990234 0.5

# verts
v 0 0 -1
v 0 0 -2
v 0 0 -10
v 0 1 -2
v 0 1 -3
v 0 2 -1
v 0 2 -2
v 0 2 -3
v 0 2 -4
v 0 3 -2
v 0 3 -4
v 0 3 -6
v 0 15 -4
v 0 15 -5
v 0 15 -6
v 0 30 -4
v 0 30 -5
v 0 30 -6
v 0 34 -4
v 0 34 -6
v 0 37 -3
v 0 37 -4
v 0 40 -3
v 0 40 -10
v 5 15 -4
v 5 15 -5
v 5 15 -6
v 5 30 -4
v 5 30 -5
v 5 30 -6
v 7 18 -4
v 7 18 -5
v 7 19 -4
v 7 19 -5
v 7 20 -4
v 7 20 -5
v 7 21 -4
v 7 21 -5
v 7 22 -4
v 7 22 -5
v 7 23 -4
v 7 23 -5
v 7 24 -4
v 7 24 -5
v 7 25 -4
v 7 25 -5
v 8 27 -4
v 8 27 -5
v 8 28 -4
v 8 28 -5
v 18 16 -4
v 18 16 -5
v 18 29 -4
v 18 29 -5
v 31 7 -5
v 31 7 -6
v 31 8 -5
v 31 8 -6
v 31 9 -5
v 31 9 -6
v 31 10 -5
v 31 10 -6
v 1 15 -4
v 1 15 -5
v 1 15 -6
v 1 30 -4
v 1 30 -5
v 1 30 -6
v 6 16 -4
v 6 16 -5
v 6 29 -4
v 6 29 -5
v 11 22 -4
v 11 22 -5
v 11 23 -4
v 11 23 -5
v 13 24 -4
v 13 24 -5
v 13 25 -4
v 13 25 -5
v 13 27 -4
v 13 27 -5
v 13 28 -4
v 13 28 -5
v 14 18 -4
v 14 18 -5
v 14 19 -4
v 14 19 -5
v 15 20 -4
v 15 20 -5
v 15 21 -4
v 15 21 -5
v 19 15 -4
v 19 15 -5
v 19 15 -6
v 19 30 -4
v 19 30 -5
v 19 30 -6
v 34 7 -5
v 34 7 -6
v 34 8 -5
v 34 8 -6
v 34 9 -5
v 34 9 -6
v 34 10 -5
v 34 10 -6
v 40 0 -1
v 40 0 -2
v 40 0 -10
v 40 1 -2
v 40 1 -3
v 40 2 -1
v 40 2 -2
v 40 3 -2
v 40 3 -3
v 40 3 -6
v 40 34 -4
v 40 34 -6
v 40 37 -3
v 40 37 -4
v 40 40 -3
v 40 40 -10
v 0 0 -1
v 0 2 -1
v 40 0 -1
v 40 2 -1
v 0 2 -2
v 0 3 -2
v 40 2 -2
v 40 3 -2
v 0 37 -3
v 0 40 -3
v 40 37 -3
v 40 40 -3
v 0 15 -4
v 0 30 -4
v 0 34 -4
v 0 37 -4
v 1 15 -4
v 1 30 -4
v 5 15 -4
v 5 30 -4
v 6 16 -4
v 6 29 -4
v 7 18 -4
v 7 19 -4
v 7 20 -4
v 7 21 -4
v 7 22 -4
v 7 23 -4
v 7 24 -4
v 7 25 -4
v 8 27 -4
v 8 28 -4
v 11 22 -4
v 11 23 -4
v 13 24 -4
v 13 25 -4
v 13 27 -4
v 13 28 -4
v 14 18 -4
v 14 19 -4
v 15 20 -4
v 15 21 -4
v 18 16 -4
v 18 29 -4
v 19 15 -4
v 19 30 -4
v 40 34 -4
v 40 37 -4
v 6 16 -5
v 6 29 -5
v 7 18 -5
v 7 19 -5
v 7 20 -5
v 7 21 -5
v 7 22 -5
v 7 23 -5
v 7 24 -5
v 7 25 -5
v 8 27 -5
v 8 28 -5
v 11 22 -5
v 11 23 -5
v 13 24 -5
v 13 25 -5
v 13 27 -5
v 13 28 -5
v 14 18 -5
v 14 19 -5
v 15 20 -5
v 15 21 -5
v 18 16 -5
v 18 29 -5
v 31 7 -5
v 31 8 -5
v 31 9 -5
v 31 10 -5
v 32 8 -5
v 32 9 -5
v 33 8 -5
v 33 9 -5
v 34 7 -5
v 34 8 -5
v 34 9 -5
v 34 10 -5
v 0 3 -6
v 0 15 -6
v 0 30 -6
v 0 34 -6
v 1 15 -6
v 1 30 -6
v 5 15 -6
v 5 30 -6
v 19 15 -6
v 19 30 -6
v 31 7 -6
v 31 8 -6
v 31 9 -6
v 31 10 -6
v 34 7 -6
v 34 8 -6
v 34 9 -6
v 34 10 -6
v 40 3 -6
v 40 34 -6
v 0 0 -10
v 0 40 -10
v 40 0 -10
v 40 40 -10
v 0 0 -1
v 40 0 -1
v 0 0 -2
v 40 0 -2
v 0 0 -10
v 40 0 -10
v 31 7 -5
v 34 7 -5
v 31 7 -6
v 34 7 -6
v 0 15 -4
v 1 15 -4
v 5 15 -4
v 19 15 -4
v 0 15 -5
v 1 15 -5
v 5 15 -5
v 19 15 -5
v 0 15 -6
v 1 15 -6
v 5 15 -6
v 19 15 -6
v 7 18 -4
v 14 18 -4
v 7 18 -5
v 14 18 -5
v 7 20 -4
v 15 20 -4
v 7 20 -5
v 15 20 -5
v 7 22 -4
v 11 22 -4
v 7 22 -5
v 11 22 -5
v 7 24 -4
v 13 24 -4
v 7 24 -5
v 13 24 -5
v 8 27 -4
v 13 27 -4
v 8 27 -5
v 13 27 -5
v 6 29 -4
v 18 29 -4
v 6 29 -5
v 18 29 -5
v 0 34 -4
v 40 34 -4
v 0 34 -6
v 40 34 -6
v 0 37 -3
v 40 37 -3
v 0 37 -4
v 40 37 -4
v 0 2 -1
v 40 2 -1
v 0 2 -2
v 40 2 -2
v 0 3 -2
v 40 3 -2
v 28 3 -3
v 40 3 -3
v 0 3 -4
v 28 3 -4
v 0 3 -6
v 40 3 -6
v 31 10 -5
v 34 10 -5
v 31 10 -6
v 34 10 -6
v 6 16 -4
v 18 16 -4
v 6 16 -5
v 18 16 -5
v 7 19 -4
v 14 19 -4
v 7 19 -5
v 14 19 -5
v 7 21 -4
v 15 21 -4
v 7 21 -5
v 15 21 -5
v 7 23 -4
v 11 23 -4
v 7 23 -5
v 11 23 -5
v 7 25 -4
v 13 25 -4
v 7 25 -5
v 13 25 -5
v 8 28 -4
v 13 28 -4
v 8 28 -5
v 13 28 -5
v 0 30 -4
v 1 30 -4
v 5 30 -4
v 19 30 -4
v 0 30 -5
v 1 30 -5
v 5 30 -5
v 19 30 -5
v 0 30 -6
v 1 30 -6
v 5 30 -6
v 19 30 -6
v 0 40 -3
v 40 40 -3
v 0 40 -10
v 40 40 -10

# faces
f 4/2/1 2/2/1 1/2/1
f 4/1/1 3/1/1 2/1/1
f 5/1/1 3/1/1 4/1/1
f 6/2/1 4/2/1 1/2/1
f 6/2/1 5/2/1 4/2/1
f 7/2/1 5/2/1 6/2/1
f 8/1/1 3/1/1 5/1/1
f 8/2/1 5/2/1 7/2/1
f 9/1/1 3/1/1 8/1/1
f 10/2/1 8/2/1 7/2/1
f 10/2/1 9/2/1 8/2/1
f 11/1/1 3/1/1 9/1/1
f 11/2/1 9/2/1 10/2/1
f 12/1/1 3/1/1 11/1/1
f 15/1/1 3/1/1 12/1/1
f 16/4/1 14/4/1 13/4/1
f 17/3/1 15/3/1 14/3/1
f 17/4/1 14/4/1 16/4/1
f 18/1/1 3/1/1 15/1/1
f 18/3/1 15/3/1 17/3/1
f 20/1/1 3/1/1 18/1/1
f 22/1/1 20/1/1 19/1/1
f 23/1/1 22/1/1 21/1/1
f 24/1/1 3/1/1 20/1/1
f 24/1/1 22/1/1 23/1/1
f 24/1/1 20/1/1 22/1/1
f 28/4/1 26/4/1 25/4/1
f 29/3/1 27/3/1 26/3/1
f 29/4/1 26/4/1 28/4/1
f 30/3/1 27/3/1 29/3/1
f 33/5/1 32/5/1 31/5/1
f 34/5/1 32/5/1 33/5/1
f 37/5/1 36/5/1 35/5/1
f 38/5/1 36/5/1 37/5/1
f 41/5/1 40/5/1 39/5/1
f 42/5/1 40/5/1 41/5/1
f 45/5/1 44/5/1 43/5/1
f 46/5/1 44/5/1 45/5/1
f 49/1/1 48/1/1 47/1/1
f 50/1/1 48/1/1 49/1/1
f 53/4/1 52/4/1 51/4/1
f 54/4/1 52/4/1 53/4/1
f 57/1/1 56/1/1 55/1/1
f 58/1/1 56/1/1 57/1/1
f 59/5/1 58/5/1 57/5/1
f 60/5/1 58/5/1 59/5/1
f 61/1/1 60/1/1 59/1/1
f 62/1/1 60/1/1 61/1/1
f 63/4/2 64/4/2 66/4/2
f 64/3/2 65/3/2 67/3/2
f 66/4/2 64/4/2 67/4/2
f 67/3/2 65/3/2 68/3/2
f 69/4/2 70/4/2 71/4/2
f 71/4/2 70/4/2 72/4/2
f 73/5/2 74/5/2 75/5/2
f 75/5/2 74/5/2 76/5/2
f 77/5/2 78/5/2 79/5/2
f 79/5/2 78/5/2 80/5/2
f 81/1/2 82/1/2 83/1/2
f 83/1/2 82/1/2 84/1/2
f 85/5/2 86/5/2 87/5/2
f 87/5/2 86/5/2 88/5/2
f 89/5/2 90/5/2 91/5/2
f 91/5/2 90/5/2 92/5/2
f 93/4/2 94/4/2 96/4/2
f 94/3/2 95/3/2 97/3/2
f 96/4/2 94/4/2 97/4/2
f 97/3/2 95/3/2 98/3/2
f 99/1/2 100/1/2 101/1/2
f 101/1/2 100/1/2 102/1/2
f 101/5/2 102/5/2 103/5/2
f 103/5/2 102/5/2 104/5/2
f 103/1/2 104/1/2 105/1/2
f 105/1/2 104/1/2 106/1/2
f 107/2/2 108/2/2 110/2/2
f 108/1/2 109/1/2 110/1/2
f 110/1/2 109/1/2 111/1/2
f 107/2/2 110/2/2 112/2/2
f 110/2/2 111/2/2 112/2/2
f 112/2/2 111/2/2 113/2/2
f 113/2/2 111/2/2 114/2/2
f 111/1/2 109/1/2 115/1/2
f 114/2/2 111/2/2 115/2/2
f 115/1/2 109/1/2 116/1/2
f 116/1/2 109/1/2 118/1/2
f 117/1/2 118/1/2 120/1/2
f 119/1/2 120/1/2 121/1/2
f 118/1/2 109/1/2 122/1/2
f 121/1/2 120/1/2 122/1/2
f 120/1/2 118/1/2 122/1/2
f 125/2/3 124/2/3 123/2/3
f 126/2/3 124/2/3 125/2/3
f 129/2/3 128/2/3 127/2/3
f 130/2/3 128/2/3 129/2/3
f 133/1/3 132/1/3 131/1/3
f 134/1/3 132/1/3 133/1/3
f 139/4/3 136/4/3 135/4/3
f 140/4/3 136/4/3 139/4/3
f 143/4/3 142/4/3 141/4/3
f 144/4/3 142/4/3 143/4/3
f 155/5/3 150/5/3 149/5/3
f 156/5/3 150/5/3 155/5/3
f 157/5/3 152/5/3 151/5/3
f 158/5/3 152/5/3 157/5/3
f 159/1/3 154/1/3 153/1/3
f 160/1/3 154/1/3 159/1/3
f 161/5/3 146/5/3 145/5/3
f 162/5/3 146/5/3 161/5/3
f 163/5/3 148/5/3 147/5/3
f 164/5/3 148/5/3 163/5/3
f 165/4/3 143/4/3 141/4/3
f 166/4/3 142/4/3 144/4/3
f 167/4/3 165/4/3 141/4/3
f 167/4/3 166/4/3 165/4/3
f 168/4/3 142/4/3 166/4/3
f 168/4/3 166/4/3 167/4/3
f 169/1/3 138/1/3 137/1/3
f 170/1/3 138/1/3 169/1/3
f 173/3/3 172/3/3 171/3/3
f 174/3/3 172/3/3 173/3/3
f 175/3/3 172/3/3 174/3/3
f 176/3/3 172/3/3 175/3/3
f 177/3/3 172/3/3 176/3/3
f 178/3/3 172/3/3 177/3/3
f 179/3/3 172/3/3 178/3/3
f 180/3/3 172/3/3 179/3/3
f 181/3/3 172/3/3 180/3/3
f 182/3/3 172/3/3 181/3/3
f 183/3/3 177/3/3 176/3/3
f 184/3/3 179/3/3 178/3/3
f 185/3/3 179/3/3 184/3/3
f 185/3/3 184/3/3 183/3/3
f 186/3/3 181/3/3 180/3/3
f 187/3/3 181/3/3 186/3/3
f 188/3/3 172/3/3 182/3/3
f 189/3/3 173/3/3 171/3/3
f 190/3/3 175/3/3 174/3/3
f 191/3/3 175/3/3 190/3/3
f 191/3/3 190/3/3 189/3/3
f 192/3/3 188/3/3 187/3/3
f 192/3/3 183/3/3 176/3/3
f 192/3/3 187/3/3 186/3/3
f 192/3/3 185/3/3 183/3/3
f 192/3/3 186/3/3 185/3/3
f 193/3/3 191/3/3 189/3/3
f 193/3/3 192/3/3 191/3/3
f 193/3/3 189/3/3 171/3/3
f 194/3/3 188/3/3 192/3/3
f 194/3/3 192/3/3 193/3/3
f 194/3/3 172/3/3 188/3/3
f 199/1/3 196/1/3 195/1/3
f 199/5/3 197/5/3 196/5/3
f 200/1/3 198/1/3 197/1/3
f 200/5/3 197/5/3 199/5/3
f 201/1/3 199/1/3 195/1/3
f 201/1/3 200/1/3 199/1/3
f 202/1/3 198/1/3 200/1/3
f 202/1/3 200/1/3 201/1/3
f 203/1/3 201/1/3 195/1/3
f 204/5/3 202/5/3 201/5/3
f 204/1/3 201/1/3 203/1/3
f 205/1/3 198/1/3 202/1/3
f 205/5/3 202/5/3 204/5/3
f 206/1/3 198/1/3 205/1/3
f 211/1/3 208/1/3 207/1/3
f 212/1/3 210/1/3 209/1/3
f 213/1/3 211/1/3 207/1/3
f 213/1/3 212/1/3 211/1/3
f 214/1/3 210/1/3 212/1/3
f 214/1/3 212/1/3 213/1/3
f 215/1/3 213/1/3 207/1/3
f 216/1/3 210/1/3 214/1/3
f 217/1/3 215/1/3 207/1/3
f 217/1/3 216/1/3 215/1/3
f 218/1/3 216/1/3 217/1/3
f 219/1/3 216/1/3 218/1/3
f 220/1/3 216/1/3 219/1/3
f 221/1/3 217/1/3 207/1/3
f 224/1/3 216/1/3 220/1/3
f 225/1/3 223/1/3 222/1/3
f 225/1/3 224/1/3 223/1/3
f 225/1/3 221/1/3 207/1/3
f 225/1/3 222/1/3 221/1/3
f 226/1/3 210/1/3 216/1/3
f 226/1/3 224/1/3 225/1/3
f 226/1/3 216/1/3 224/1/3
f 227/1/4 228/1/4 229/1/4
f 229/1/4 228/1/4 230/1/4
f 233/2/5 232/2/5 231/2/5
f 234/2/5 232/2/5 233/2/5
f 235/1/5 234/1/5 233/1/5
f 236/1/5 234/1/5 235/1/5
f 239/1/5 238/1/5 237/1/5
f 240/1/5 238/1/5 239/1/5
f 245/4/5 242/4/5 241/4/5
f 246/4/5 242/4/5 245/4/5
f 247/4/5 244/4/5 243/4/5
f 248/4/5 244/4/5 247/4/5
f 249/3/5 246/3/5 245/3/5
f 250/3/5 246/3/5 249/3/5
f 251/3/5 248/3/5 247/3/5
f 252/3/5 248/3/5 251/3/5
f 255/5/5 254/5/5 253/5/5
f 256/5/5 254/5/5 255/5/5
f 259/5/5 258/5/5 257/5/5
f 260/5/5 258/5/5 259/5/5
f 263/5/5 262/5/5 261/5/5
f 264/5/5 262/5/5 263/5/5
f 267/5/5 266/5/5 265/5/5
f 268/5/5 266/5/5 267/5/5
f 271/1/5 270/1/5 269/1/5
f 272/1/5 270/1/5 271/1/5
f 275/4/5 274/4/5 273/4/5
f 276/4/5 274/4/5 275/4/5
f 279/1/5 278/1/5 277/1/5
f 280/1/5 278/1/5 279/1/5
f 283/1/5 282/1/5 281/1/5
f 284/1/5 282/1/5 283/1/5
f 285/2/6 286/2/6 287/2/6
f 287/2/6 286/2/6 288/2/6
f 289/2/6 290/2/6 291/2/6
f 291/2/6 290/2/6 292/2/6
f 289/2/6 291/2/6 293/2/6
f 291/1/6 292/1/6 294/1/6
f 293/2/6 291/2/6 294/2/6
f 293/1/6 294/1/6 295/1/6
f 294/1/6 292/1/6 296/1/6
f 295/1/6 294/1/6 296/1/6
f 297/1/6 298/1/6 299/1/6
f 299/1/6 298/1/6 300/1/6
f 301/4/6 302/4/6 303/4/6
f 303/4/6 302/4/6 304/4/6
f 305/5/6 306/5/6 307/5/6
f 307/5/6 306/5/6 308/5/6
f 309/5/6 310/5/6 311/5/6
f 311/5/6 310/5/6 312/5/6
f 313/5/6 314/5/6 315/5/6
f 315/5/6 314/5/6 316/5/6
f 317/5/6 318/5/6 319/5/6
f 319/5/6 318/5/6 320/5/6
f 321/1/6 322/1/6 323/1/6
f 323/1/6 322/1/6 324/1/6
f 325/4/6 326/4/6 329/4/6
f 329/4/6 326/4/6 330/4/6
f 327/4/6 328/4/6 331/4/6
f 331/4/6 328/4/6 332/4/6
f 329/3/6 330/3/6 333/3/6
f 333/3/6 330/3/6 334/3/6
f 331/3/6 332/3/6 335/3/6
f 335/3/6 332/3/6 336/3/6
f 337/1/6 338/1/6 339/1/6
f 339/1/6 338/1/6 340/1/6
