# MagicaVoxel @ Ephtracy

# group
g stu02_walk

# material
mtllib stu02_walk.mtl
usemtl palette

# normals
vn -1 0 0
vn 1 0 0
vn 0 0 1
vn 0 0 -1
vn 0 -1 0
vn 0 1 0

# texcoords
vt 0.00195312 0.5
vt 0.00585938 0.5
vt 0.939453 0.5
vt 0.982422 0.5
vt 0.990234 0.5

# verts
v -5 12 6
v -5 12 2
v -5 13 6
v -5 13 5
v -5 13 4
v -5 13 2
v -5 13 -0
v -5 14 4
v -5 14 2
v -5 15 5
v -5 15 4
v -5 15 1
v -5 15 -0
v -5 16 4
v -5 16 1
v -5 18 3
v -5 18 2
v -5 18 -0
v -5 19 5
v -5 19 4
v -5 19 3
v -5 19 -0
v -5 19 -1
v -5 20 6
v -5 20 5
v -5 20 4
v -5 20 2
v -5 22 6
v -5 22 5
v -5 22 -0
v -5 22 -1
v -5 23 5
v -5 23 -0
v -4 6 5
v -4 6 2
v -4 7 5
v -4 7 4
v -4 7 2
v -4 8 5
v -4 8 4
v -4 10 2
v -4 10 -0
v -4 11 5
v -4 11 -0
v -4 12 5
v -4 12 2
v -4 13 2
v -4 13 -0
v -4 15 5
v -4 15 4
v -4 15 1
v -4 15 -0
v -4 16 5
v -4 16 4
v -4 16 1
v -4 16 -0
v -4 17 6
v -4 17 4
v -4 17 -0
v -4 18 4
v -4 18 3
v -4 18 2
v -4 18 -0
v -4 18 -1
v -4 19 5
v -4 19 4
v -4 19 3
v -4 19 -0
v -4 19 -1
v -4 20 6
v -4 20 5
v -4 22 6
v -4 22 5
v -4 22 -0
v -4 22 -1
v -4 23 6
v -4 23 5
v -4 23 -0
v -4 23 -1
v -3 9 2
v -3 9 1
v -3 10 2
v -3 10 1
v -3 16 4
v -3 16 1
v -3 17 4
v -3 17 1
v -3 17 -0
v -3 17 -1
v -3 18 -0
v -3 18 -1
v -1 6 1
v -1 6 -0
v -1 7 2
v -1 7 1
v -1 8 3
v -1 8 2
v -1 9 4
v -1 9 3
v -1 9 1
v -1 9 -0
v -1 10 4
v -1 10 1
v 1 9 6
v 1 9 4
v 1 11 5
v 1 11 4
v 1 13 6
v 1 13 5
v -4 12 6
v -4 12 5
v -4 13 6
v -4 13 5
v -3 6 3
v -3 6 2
v -3 7 3
v -3 7 2
v -2 6 5
v -2 6 3
v -2 7 5
v -2 7 4
v -2 7 3
v -2 7 2
v -2 8 5
v -2 8 4
v -2 9 2
v -2 9 1
v -2 10 4
v -2 10 1
v -2 11 5
v -2 11 4
v 0 16 4
v 0 16 1
v 0 17 4
v 0 17 1
v 0 17 -0
v 0 17 -1
v 0 18 -0
v 0 18 -1
v 1 6 1
v 1 6 -0
v 1 7 2
v 1 7 1
v 1 8 3
v 1 8 2
v 1 9 3
v 1 9 1
v 1 9 -0
v 1 10 1
v 1 10 -0
v 1 11 1
v 1 11 -0
v 1 13 1
v 1 13 -0
v 1 15 5
v 1 15 4
v 1 15 1
v 1 15 -0
v 1 16 5
v 1 16 4
v 1 16 1
v 1 16 -0
v 1 17 6
v 1 17 4
v 1 17 -0
v 1 18 4
v 1 18 3
v 1 18 2
v 1 18 -0
v 1 18 -1
v 1 19 5
v 1 19 4
v 1 19 3
v 1 19 -0
v 1 19 -1
v 1 20 6
v 1 20 5
v 1 22 6
v 1 22 5
v 1 22 -0
v 1 22 -1
v 1 23 6
v 1 23 5
v 1 23 -0
v 1 23 -1
v 2 9 6
v 2 9 1
v 2 10 4
v 2 10 2
v 2 11 5
v 2 11 4
v 2 11 3
v 2 11 2
v 2 11 1
v 2 12 5
v 2 12 3
v 2 13 6
v 2 13 5
v 2 13 3
v 2 13 2
v 2 13 1
v 2 13 -0
v 2 14 3
v 2 14 1
v 2 15 5
v 2 15 4
v 2 15 1
v 2 15 -0
v 2 16 4
v 2 16 1
v 2 18 3
v 2 18 2
v 2 18 -0
v 2 19 5
v 2 19 4
v 2 19 3
v 2 19 -0
v 2 19 -1
v 2 20 6
v 2 20 5
v 2 20 4
v 2 20 2
v 2 22 6
v 2 22 5
v 2 22 -0
v 2 22 -1
v 2 23 5
v 2 23 -0
v -5 12 6
v -5 13 6
v -5 20 6
v -5 22 6
v -4 12 6
v -4 13 6
v -4 17 6
v -4 20 6
v -4 21 6
v -4 22 6
v -4 23 6
v -3 19 6
v -3 21 6
v -3 22 6
v -2 19 6
v -2 21 6
v -1 19 6
v -1 21 6
v 0 19 6
v 0 21 6
v 0 22 6
v 1 9 6
v 1 13 6
v 1 17 6
v 1 20 6
v 1 21 6
v 1 22 6
v 1 23 6
v 2 9 6
v 2 13 6
v 2 20 6
v 2 22 6
v -5 13 5
v -5 15 5
v -5 19 5
v -5 20 5
v -5 22 5
v -5 23 5
v -4 6 5
v -4 7 5
v -4 8 5
v -4 11 5
v -4 12 5
v -4 13 5
v -4 15 5
v -4 16 5
v -4 19 5
v -4 20 5
v -4 22 5
v -4 23 5
v -2 6 5
v -2 7 5
v -2 8 5
v -2 11 5
v 1 11 5
v 1 13 5
v 1 15 5
v 1 16 5
v 1 19 5
v 1 20 5
v 1 22 5
v 1 23 5
v 2 13 5
v 2 15 5
v 2 19 5
v 2 20 5
v 2 22 5
v 2 23 5
v -5 15 4
v -5 16 4
v -4 7 4
v -4 8 4
v -4 15 4
v -4 16 4
v -3 16 4
v -3 17 4
v -2 7 4
v -2 8 4
v -2 10 4
v -2 11 4
v -1 9 4
v -1 10 4
v 0 16 4
v 0 17 4
v 1 9 4
v 1 11 4
v 1 15 4
v 1 16 4
v 2 15 4
v 2 16 4
v -5 18 3
v -5 19 3
v -4 18 3
v -4 19 3
v -1 8 3
v -1 9 3
v 1 8 3
v 1 9 3
v 1 18 3
v 1 19 3
v 2 18 3
v 2 19 3
v -1 7 2
v -1 8 2
v 1 7 2
v 1 8 2
v -1 6 1
v -1 7 1
v 1 6 1
v 1 7 1
v -3 6 3
v -3 7 3
v -2 6 3
v -2 7 3
v -5 12 2
v -5 13 2
v -4 6 2
v -4 7 2
v -4 10 2
v -4 12 2
v -4 13 2
v -3 6 2
v -3 7 2
v -3 9 2
v -3 10 2
v -2 7 2
v -2 9 2
v -5 15 1
v -5 16 1
v -4 15 1
v -4 16 1
v -3 9 1
v -3 10 1
v -3 16 1
v -3 17 1
v -2 9 1
v -2 10 1
v -1 9 1
v -1 10 1
v 0 16 1
v 0 17 1
v 1 9 1
v 1 10 1
v 1 11 1
v 1 13 1
v 1 15 1
v 1 16 1
v 2 9 1
v 2 11 1
v 2 13 1
v 2 15 1
v 2 16 1
v -5 13 -0
v -5 15 -0
v -5 18 -0
v -5 19 -0
v -5 22 -0
v -5 23 -0
v -4 10 -0
v -4 11 -0
v -4 13 -0
v -4 15 -0
v -4 16 -0
v -4 17 -0
v -4 18 -0
v -4 19 -0
v -4 22 -0
v -4 23 -0
v -3 12 -0
v -3 13 -0
v -3 14 -0
v -3 15 -0
v -3 17 -0
v -3 18 -0
v -2 13 -0
v -2 14 -0
v -1 6 -0
v -1 9 -0
v -1 13 -0
v -1 14 -0
v 0 12 -0
v 0 13 -0
v 0 14 -0
v 0 15 -0
v 0 17 -0
v 0 18 -0
v 1 6 -0
v 1 9 -0
v 1 10 -0
v 1 11 -0
v 1 13 -0
v 1 15 -0
v 1 16 -0
v 1 17 -0
v 1 18 -0
v 1 19 -0
v 1 22 -0
v 1 23 -0
v 2 13 -0
v 2 15 -0
v 2 18 -0
v 2 19 -0
v 2 22 -0
v 2 23 -0
v -5 19 -1
v -5 22 -1
v -4 18 -1
v -4 19 -1
v -4 22 -1
v -4 23 -1
v -3 17 -1
v -3 18 -1
v 0 17 -1
v 0 18 -1
v 1 18 -1
v 1 19 -1
v 1 22 -1
v 1 23 -1
v 2 19 -1
v 2 22 -1
v -4 6 5
v -2 6 5
v -3 6 3
v -2 6 3
v -4 6 2
v -3 6 2
v -1 6 1
v 1 6 1
v -1 6 -0
v 1 6 -0
v -3 7 3
v -2 7 3
v -3 7 2
v -2 7 2
v -1 7 2
v 1 7 2
v -1 7 1
v 1 7 1
v -4 8 5
v -2 8 5
v -4 8 4
v -2 8 4
v -1 8 3
v 1 8 3
v -1 8 2
v 1 8 2
v 1 9 6
v 2 9 6
v -1 9 4
v 1 9 4
v -1 9 3
v 1 9 3
v -3 9 2
v -2 9 2
v -3 9 1
v -2 9 1
v 1 9 1
v 2 9 1
v -2 10 4
v -1 10 4
v -4 10 2
v -3 10 2
v -3 10 1
v -2 10 1
v -1 10 1
v 1 10 1
v -4 10 -0
v 1 10 -0
v -2 11 5
v 1 11 5
v -2 11 4
v 1 11 4
v -5 12 6
v -4 12 6
v -4 12 5
v -5 12 2
v -4 12 2
v -5 13 2
v -4 13 2
v 1 13 1
v 2 13 1
v -5 13 -0
v -4 13 -0
v 1 13 -0
v 2 13 -0
v -4 17 6
v 1 17 6
v -4 17 4
v -3 17 4
v 0 17 4
v 1 17 4
v -3 17 1
v 0 17 1
v -4 17 -0
v -3 17 -0
v 0 17 -0
v 1 17 -0
v -3 17 -1
v 0 17 -1
v -5 18 3
v -4 18 3
v 1 18 3
v 2 18 3
v -5 18 2
v -4 18 2
v 1 18 2
v 2 18 2
v -5 18 -0
v -4 18 -0
v -3 18 -0
v 0 18 -0
v 1 18 -0
v 2 18 -0
v -4 18 -1
v -3 18 -1
v 0 18 -1
v 1 18 -1
v -5 19 5
v -4 19 5
v 1 19 5
v 2 19 5
v -5 19 4
v -4 19 4
v 1 19 4
v 2 19 4
v -5 19 3
v -4 19 3
v 1 19 3
v 2 19 3
v -5 19 -0
v -4 19 -0
v 1 19 -0
v 2 19 -0
v -5 19 -1
v -4 19 -1
v 1 19 -1
v 2 19 -1
v -5 20 6
v -4 20 6
v 1 20 6
v 2 20 6
v -5 20 5
v -4 20 5
v 1 20 5
v 2 20 5
v -4 7 5
v -2 7 5
v -4 7 4
v -2 7 4
v -1 9 1
v 1 9 1
v -1 9 -0
v 1 9 -0
v -5 13 6
v -4 13 6
v 1 13 6
v 2 13 6
v -5 13 5
v -4 13 5
v 1 13 5
v 2 13 5
v -5 15 5
v -4 15 5
v 1 15 5
v 2 15 5
v -5 15 4
v -4 15 4
v 1 15 4
v 2 15 4
v -5 15 1
v -4 15 1
v 1 15 1
v 2 15 1
v -5 15 -0
v -4 15 -0
v 1 15 -0
v 2 15 -0
v -4 16 5
v 1 16 5
v -5 16 4
v -4 16 4
v -3 16 4
v 0 16 4
v 1 16 4
v 2 16 4
v -5 16 1
v -4 16 1
v -3 16 1
v 0 16 1
v 1 16 1
v 2 16 1
v -4 16 -0
v 1 16 -0
v -5 22 6
v -4 22 6
v 1 22 6
v 2 22 6
v -5 22 5
v -4 22 5
v 1 22 5
v 2 22 5
v -5 22 -0
v -4 22 -0
v 1 22 -0
v 2 22 -0
v -5 22 -1
v -4 22 -1
v 1 22 -1
v 2 22 -1
v -4 23 6
v 1 23 6
v -5 23 5
v -4 23 5
v 1 23 5
v 2 23 5
v -5 23 -0
v -4 23 -0
v 1 23 -0
v 2 23 -0
v -4 23 -1
v 1 23 -1

# faces
f 3/2/1 2/2/1 1/2/1
f 4/2/1 2/2/1 3/2/1
f 5/2/1 2/2/1 4/2/1
f 6/2/1 2/2/1 5/2/1
f 8/4/1 5/4/1 4/4/1
f 8/2/1 6/2/1 5/2/1
f 9/4/1 7/4/1 6/4/1
f 9/2/1 6/2/1 8/2/1
f 10/4/1 8/4/1 4/4/1
f 10/4/1 9/4/1 8/4/1
f 11/4/1 9/4/1 10/4/1
f 12/4/1 7/4/1 9/4/1
f 12/4/1 9/4/1 11/4/1
f 13/4/1 7/4/1 12/4/1
f 14/4/1 12/4/1 11/4/1
f 15/4/1 12/4/1 14/4/1
f 21/2/1 17/2/1 16/2/1
f 22/5/1 18/5/1 17/5/1
f 25/5/1 20/5/1 19/5/1
f 26/2/1 21/2/1 20/2/1
f 26/5/1 20/5/1 25/5/1
f 27/5/1 22/5/1 17/5/1
f 27/2/1 21/2/1 26/2/1
f 27/5/1 23/5/1 22/5/1
f 27/2/1 17/2/1 21/2/1
f 28/5/1 26/5/1 25/5/1
f 28/5/1 25/5/1 24/5/1
f 28/5/1 27/5/1 26/5/1
f 29/5/1 27/5/1 28/5/1
f 30/5/1 23/5/1 27/5/1
f 30/5/1 27/5/1 29/5/1
f 31/5/1 23/5/1 30/5/1
f 32/5/1 30/5/1 29/5/1
f 33/5/1 30/5/1 32/5/1
f 36/5/1 35/5/1 34/5/1
f 37/5/1 35/5/1 36/5/1
f 38/5/1 35/5/1 37/5/1
f 40/1/1 38/1/1 37/1/1
f 41/1/1 38/1/1 40/1/1
f 41/1/1 40/1/1 39/1/1
f 43/1/1 41/1/1 39/1/1
f 43/1/1 42/1/1 41/1/1
f 44/1/1 42/1/1 43/1/1
f 45/4/1 44/4/1 43/4/1
f 46/4/1 44/4/1 45/4/1
f 47/4/1 44/4/1 46/4/1
f 48/4/1 44/4/1 47/4/1
f 53/4/1 50/4/1 49/4/1
f 54/4/1 50/4/1 53/4/1
f 55/4/1 52/4/1 51/4/1
f 56/4/1 52/4/1 55/4/1
f 60/2/1 58/2/1 57/2/1
f 60/5/1 59/5/1 58/5/1
f 61/5/1 59/5/1 60/5/1
f 62/5/1 59/5/1 61/5/1
f 63/5/1 59/5/1 62/5/1
f 65/2/1 60/2/1 57/2/1
f 65/2/1 61/2/1 60/2/1
f 66/2/1 61/2/1 65/2/1
f 67/2/1 61/2/1 66/2/1
f 68/5/1 64/5/1 63/5/1
f 69/5/1 64/5/1 68/5/1
f 70/2/1 65/2/1 57/2/1
f 71/2/1 65/2/1 70/2/1
f 76/5/1 73/5/1 72/5/1
f 77/5/1 73/5/1 76/5/1
f 78/5/1 75/5/1 74/5/1
f 79/5/1 75/5/1 78/5/1
f 82/1/1 81/1/1 80/1/1
f 83/1/1 81/1/1 82/1/1
f 86/2/1 85/2/1 84/2/1
f 87/2/1 85/2/1 86/2/1
f 90/5/1 89/5/1 88/5/1
f 91/5/1 89/5/1 90/5/1
f 95/5/1 93/5/1 92/5/1
f 97/1/1 95/1/1 94/1/1
f 99/1/1 97/1/1 96/1/1
f 100/5/1 93/5/1 95/5/1
f 100/1/1 95/1/1 97/1/1
f 100/1/1 97/1/1 99/1/1
f 101/5/1 93/5/1 100/5/1
f 102/1/1 99/1/1 98/1/1
f 102/1/1 100/1/1 99/1/1
f 103/1/1 100/1/1 102/1/1
f 106/5/1 105/5/1 104/5/1
f 107/5/1 105/5/1 106/5/1
f 108/5/1 106/5/1 104/5/1
f 109/5/1 106/5/1 108/5/1
f 110/2/2 111/2/2 112/2/2
f 112/2/2 111/2/2 113/2/2
f 114/5/2 115/5/2 116/5/2
f 116/5/2 115/5/2 117/5/2
f 118/5/2 119/5/2 120/5/2
f 120/5/2 119/5/2 121/5/2
f 121/5/2 119/5/2 122/5/2
f 122/1/2 123/1/2 125/1/2
f 121/1/2 122/1/2 125/1/2
f 125/1/2 123/1/2 126/1/2
f 124/1/2 125/1/2 126/1/2
f 124/1/2 126/1/2 128/1/2
f 126/1/2 127/1/2 128/1/2
f 128/1/2 127/1/2 129/1/2
f 124/1/2 128/1/2 130/1/2
f 130/1/2 128/1/2 131/1/2
f 132/2/2 133/2/2 134/2/2
f 134/2/2 133/2/2 135/2/2
f 136/5/2 137/5/2 138/5/2
f 138/5/2 137/5/2 139/5/2
f 140/5/2 141/5/2 143/5/2
f 142/1/2 143/1/2 145/1/2
f 144/1/2 145/1/2 146/1/2
f 143/5/2 141/5/2 147/5/2
f 146/1/2 145/1/2 147/1/2
f 145/1/2 143/1/2 147/1/2
f 147/5/2 141/5/2 148/5/2
f 149/1/2 150/1/2 151/1/2
f 151/1/2 150/1/2 152/1/2
f 151/4/2 152/4/2 153/4/2
f 153/4/2 152/4/2 154/4/2
f 155/4/2 156/4/2 159/4/2
f 159/4/2 156/4/2 160/4/2
f 157/4/2 158/4/2 161/4/2
f 161/4/2 158/4/2 162/4/2
f 163/2/2 164/2/2 166/2/2
f 164/5/2 165/5/2 166/5/2
f 166/5/2 165/5/2 167/5/2
f 167/5/2 165/5/2 168/5/2
f 168/5/2 165/5/2 169/5/2
f 166/2/2 167/2/2 171/2/2
f 163/2/2 166/2/2 171/2/2
f 171/2/2 167/2/2 172/2/2
f 172/2/2 167/2/2 173/2/2
f 169/5/2 170/5/2 174/5/2
f 174/5/2 170/5/2 175/5/2
f 163/2/2 171/2/2 176/2/2
f 176/2/2 171/2/2 177/2/2
f 178/5/2 179/5/2 182/5/2
f 182/5/2 179/5/2 183/5/2
f 180/5/2 181/5/2 184/5/2
f 184/5/2 181/5/2 185/5/2
f 186/5/2 187/5/2 188/5/2
f 188/5/2 187/5/2 189/5/2
f 186/5/2 188/5/2 190/5/2
f 188/1/2 189/1/2 191/1/2
f 190/5/2 188/5/2 191/5/2
f 191/1/2 189/1/2 192/1/2
f 189/5/2 187/5/2 193/5/2
f 192/1/2 189/1/2 193/1/2
f 193/5/2 187/5/2 194/5/2
f 191/1/2 192/1/2 195/1/2
f 186/5/2 190/5/2 195/5/2
f 190/1/2 191/1/2 195/1/2
f 192/5/2 193/5/2 196/5/2
f 195/1/2 192/1/2 196/1/2
f 186/5/2 195/5/2 197/5/2
f 195/5/2 196/5/2 197/5/2
f 197/5/2 196/5/2 198/5/2
f 196/5/2 193/5/2 199/5/2
f 198/5/2 196/5/2 199/5/2
f 193/2/2 194/2/2 200/2/2
f 199/5/2 193/5/2 200/5/2
f 200/2/2 194/2/2 201/2/2
f 200/2/2 201/2/2 203/2/2
f 198/4/2 199/4/2 203/4/2
f 199/2/2 200/2/2 203/2/2
f 201/4/2 202/4/2 204/4/2
f 203/2/2 201/2/2 204/2/2
f 198/4/2 203/4/2 205/4/2
f 203/4/2 204/4/2 205/4/2
f 205/4/2 204/4/2 206/4/2
f 204/4/2 202/4/2 207/4/2
f 206/4/2 204/4/2 207/4/2
f 207/4/2 202/4/2 208/4/2
f 206/4/2 207/4/2 209/4/2
f 209/4/2 207/4/2 210/4/2
f 211/2/2 212/2/2 216/2/2
f 212/5/2 213/5/2 217/5/2
f 214/5/2 215/5/2 220/5/2
f 215/2/2 216/2/2 221/2/2
f 220/5/2 215/5/2 221/5/2
f 212/5/2 217/5/2 222/5/2
f 221/2/2 216/2/2 222/2/2
f 217/5/2 218/5/2 222/5/2
f 216/2/2 212/2/2 222/2/2
f 220/5/2 221/5/2 223/5/2
f 219/5/2 220/5/2 223/5/2
f 221/5/2 222/5/2 223/5/2
f 223/5/2 222/5/2 224/5/2
f 222/5/2 218/5/2 225/5/2
f 224/5/2 222/5/2 225/5/2
f 225/5/2 218/5/2 226/5/2
f 224/5/2 225/5/2 227/5/2
f 227/5/2 225/5/2 228/5/2
f 233/2/3 230/2/3 229/2/3
f 234/2/3 230/2/3 233/2/3
f 236/5/3 232/5/3 231/5/3
f 237/5/3 232/5/3 236/5/3
f 238/5/3 232/5/3 237/5/3
f 240/2/3 236/2/3 235/2/3
f 240/2/3 237/2/3 236/2/3
f 241/5/3 239/5/3 238/5/3
f 241/2/3 237/2/3 240/2/3
f 241/5/3 238/5/3 237/5/3
f 242/5/3 239/5/3 241/5/3
f 243/2/3 240/2/3 235/2/3
f 243/5/3 241/5/3 240/5/3
f 244/2/3 242/2/3 241/2/3
f 244/5/3 241/5/3 243/5/3
f 245/2/3 243/2/3 235/2/3
f 245/2/3 244/2/3 243/2/3
f 246/2/3 242/2/3 244/2/3
f 246/2/3 244/2/3 245/2/3
f 247/2/3 245/2/3 235/2/3
f 247/5/3 246/5/3 245/5/3
f 248/2/3 242/2/3 246/2/3
f 248/5/3 246/5/3 247/5/3
f 249/5/3 239/5/3 242/5/3
f 249/2/3 242/2/3 248/2/3
f 252/2/3 248/2/3 247/2/3
f 252/2/3 247/2/3 235/2/3
f 253/2/3 248/2/3 252/2/3
f 254/5/3 249/5/3 248/5/3
f 254/2/3 248/2/3 253/2/3
f 255/5/3 239/5/3 249/5/3
f 255/5/3 249/5/3 254/5/3
f 256/5/3 239/5/3 255/5/3
f 257/5/3 251/5/3 250/5/3
f 258/5/3 251/5/3 257/5/3
f 259/5/3 254/5/3 253/5/3
f 259/5/3 255/5/3 254/5/3
f 260/5/3 255/5/3 259/5/3
f 272/4/3 262/4/3 261/4/3
f 273/4/3 262/4/3 272/4/3
f 275/5/3 264/5/3 263/5/3
f 276/5/3 264/5/3 275/5/3
f 277/5/3 266/5/3 265/5/3
f 278/5/3 266/5/3 277/5/3
f 279/5/3 268/5/3 267/5/3
f 280/5/3 268/5/3 279/5/3
f 281/1/3 270/1/3 269/1/3
f 282/4/3 271/4/3 270/4/3
f 282/1/3 270/1/3 281/1/3
f 282/4/3 274/4/3 273/4/3
f 282/4/3 272/4/3 271/4/3
f 282/4/3 273/4/3 272/4/3
f 283/4/3 274/4/3 282/4/3
f 284/4/3 274/4/3 283/4/3
f 285/4/3 274/4/3 284/4/3
f 286/4/3 274/4/3 285/4/3
f 291/4/3 285/4/3 284/4/3
f 292/4/3 285/4/3 291/4/3
f 293/5/3 288/5/3 287/5/3
f 294/5/3 288/5/3 293/5/3
f 295/5/3 290/5/3 289/5/3
f 296/5/3 290/5/3 295/5/3
f 301/4/3 298/4/3 297/4/3
f 302/4/3 298/4/3 301/4/3
f 305/1/3 300/1/3 299/1/3
f 306/1/3 300/1/3 305/1/3
f 310/1/3 308/1/3 307/1/3
f 311/2/3 304/2/3 303/2/3
f 312/2/3 304/2/3 311/2/3
f 313/1/3 310/1/3 309/1/3
f 314/1/3 308/1/3 310/1/3
f 314/1/3 310/1/3 313/1/3
f 317/4/3 316/4/3 315/4/3
f 318/4/3 316/4/3 317/4/3
f 321/2/3 320/2/3 319/2/3
f 322/2/3 320/2/3 321/2/3
f 325/1/3 324/1/3 323/1/3
f 326/1/3 324/1/3 325/1/3
f 329/2/3 328/2/3 327/2/3
f 330/2/3 328/2/3 329/2/3
f 333/1/3 332/1/3 331/1/3
f 334/1/3 332/1/3 333/1/3
f 337/5/3 336/5/3 335/5/3
f 338/5/3 336/5/3 337/5/3
f 339/5/4 340/5/4 341/5/4
f 341/5/4 340/5/4 342/5/4
f 343/2/4 344/2/4 348/2/4
f 348/2/4 344/2/4 349/2/4
f 345/5/4 346/5/4 350/5/4
f 346/1/4 347/1/4 351/1/4
f 350/5/4 346/5/4 351/5/4
f 351/1/4 347/1/4 352/1/4
f 352/1/4 347/1/4 353/1/4
f 351/1/4 352/1/4 354/1/4
f 354/1/4 352/1/4 355/1/4
f 356/4/4 357/4/4 358/4/4
f 358/4/4 357/4/4 359/4/4
f 360/1/4 361/1/4 364/1/4
f 364/1/4 361/1/4 365/1/4
f 362/2/4 363/2/4 368/2/4
f 368/2/4 363/2/4 369/2/4
f 366/1/4 367/1/4 370/1/4
f 370/1/4 367/1/4 371/1/4
f 370/5/4 371/5/4 376/5/4
f 371/5/4 372/5/4 376/5/4
f 372/2/4 373/2/4 377/2/4
f 376/5/4 372/5/4 377/5/4
f 377/2/4 373/2/4 378/2/4
f 374/4/4 375/4/4 379/4/4
f 379/4/4 375/4/4 380/4/4
f 381/4/4 382/4/4 389/4/4
f 389/4/4 382/4/4 390/4/4
f 383/5/4 384/5/4 393/5/4
f 393/5/4 384/5/4 394/5/4
f 385/5/4 386/5/4 395/5/4
f 395/5/4 386/5/4 396/5/4
f 390/4/4 391/4/4 397/4/4
f 388/4/4 389/4/4 397/4/4
f 389/4/4 390/4/4 397/4/4
f 397/4/4 391/4/4 398/4/4
f 398/4/4 391/4/4 399/4/4
f 399/4/4 391/4/4 400/4/4
f 392/5/4 393/5/4 401/5/4
f 401/5/4 393/5/4 402/5/4
f 397/1/4 398/1/4 403/1/4
f 398/4/4 399/4/4 403/4/4
f 399/1/4 400/1/4 404/1/4
f 403/4/4 399/4/4 404/4/4
f 397/1/4 403/1/4 407/1/4
f 403/1/4 404/1/4 407/1/4
f 404/1/4 400/1/4 408/1/4
f 407/1/4 404/1/4 408/1/4
f 388/4/4 397/4/4 409/4/4
f 397/1/4 407/1/4 409/1/4
f 407/4/4 408/4/4 410/4/4
f 409/1/4 407/1/4 410/1/4
f 408/1/4 400/1/4 411/1/4
f 410/4/4 408/4/4 411/4/4
f 400/4/4 391/4/4 412/4/4
f 411/1/4 400/1/4 412/1/4
f 405/5/4 406/5/4 415/5/4
f 415/5/4 406/5/4 416/5/4
f 387/1/4 388/1/4 417/1/4
f 410/4/4 411/4/4 418/4/4
f 417/1/4 388/1/4 418/1/4
f 409/4/4 410/4/4 418/4/4
f 388/4/4 409/4/4 418/4/4
f 411/4/4 412/4/4 418/4/4
f 418/4/4 412/4/4 419/4/4
f 412/4/4 391/4/4 420/4/4
f 419/4/4 412/4/4 420/4/4
f 420/4/4 391/4/4 421/4/4
f 413/5/4 414/5/4 422/5/4
f 422/5/4 414/5/4 423/5/4
f 419/4/4 420/4/4 427/4/4
f 427/4/4 420/4/4 428/4/4
f 423/5/4 424/5/4 429/5/4
f 429/5/4 424/5/4 430/5/4
f 425/5/4 426/5/4 431/5/4
f 431/5/4 426/5/4 432/5/4
f 433/5/4 434/5/4 436/5/4
f 436/5/4 434/5/4 437/5/4
f 435/5/4 436/5/4 440/5/4
f 437/5/4 438/5/4 440/5/4
f 436/5/4 437/5/4 440/5/4
f 439/5/4 440/5/4 441/5/4
f 440/5/4 438/5/4 442/5/4
f 441/5/4 440/5/4 442/5/4
f 442/5/4 438/5/4 443/5/4
f 443/5/4 438/5/4 444/5/4
f 444/5/4 438/5/4 445/5/4
f 445/5/4 438/5/4 446/5/4
f 444/5/4 445/5/4 447/5/4
f 447/5/4 445/5/4 448/5/4
f 451/5/5 450/5/5 449/5/5
f 452/5/5 450/5/5 451/5/5
f 453/5/5 451/5/5 449/5/5
f 454/5/5 451/5/5 453/5/5
f 457/5/5 456/5/5 455/5/5
f 458/5/5 456/5/5 457/5/5
f 461/1/5 460/1/5 459/1/5
f 462/1/5 460/1/5 461/1/5
f 465/1/5 464/1/5 463/1/5
f 466/1/5 464/1/5 465/1/5
f 469/1/5 468/1/5 467/1/5
f 470/1/5 468/1/5 469/1/5
f 473/1/5 472/1/5 471/1/5
f 474/1/5 472/1/5 473/1/5
f 478/5/5 476/5/5 475/5/5
f 479/1/5 478/1/5 477/1/5
f 480/5/5 476/5/5 478/5/5
f 480/1/5 478/1/5 479/1/5
f 483/1/5 482/1/5 481/1/5
f 484/1/5 482/1/5 483/1/5
f 485/5/5 476/5/5 480/5/5
f 486/5/5 476/5/5 485/5/5
f 491/1/5 490/1/5 489/1/5
f 492/1/5 488/1/5 487/1/5
f 493/1/5 488/1/5 492/1/5
f 495/1/5 491/1/5 489/1/5
f 495/1/5 494/1/5 493/1/5
f 495/1/5 493/1/5 492/1/5
f 495/1/5 492/1/5 491/1/5
f 496/1/5 494/1/5 495/1/5
f 499/4/5 498/4/5 497/4/5
f 500/4/5 498/4/5 499/4/5
f 503/2/5 502/2/5 501/2/5
f 504/2/5 503/2/5 501/2/5
f 505/2/5 503/2/5 504/2/5
f 510/4/5 507/4/5 506/4/5
f 511/4/5 507/4/5 510/4/5
f 512/4/5 509/4/5 508/4/5
f 513/4/5 509/4/5 512/4/5
f 516/2/5 515/2/5 514/2/5
f 517/2/5 515/2/5 516/2/5
f 518/2/5 515/2/5 517/2/5
f 519/2/5 515/2/5 518/2/5
f 520/5/5 517/5/5 516/5/5
f 521/5/5 519/5/5 518/5/5
f 522/5/5 520/5/5 516/5/5
f 522/5/5 521/5/5 520/5/5
f 523/5/5 521/5/5 522/5/5
f 524/5/5 519/5/5 521/5/5
f 524/5/5 521/5/5 523/5/5
f 525/5/5 519/5/5 524/5/5
f 526/5/5 524/5/5 523/5/5
f 527/5/5 524/5/5 526/5/5
f 532/2/5 529/2/5 528/2/5
f 533/2/5 529/2/5 532/2/5
f 534/2/5 531/2/5 530/2/5
f 535/2/5 531/2/5 534/2/5
f 536/5/5 533/5/5 532/5/5
f 537/5/5 533/5/5 536/5/5
f 540/5/5 535/5/5 534/5/5
f 541/5/5 535/5/5 540/5/5
f 542/5/5 538/5/5 537/5/5
f 543/5/5 538/5/5 542/5/5
f 544/5/5 540/5/5 539/5/5
f 545/5/5 540/5/5 544/5/5
f 550/5/5 547/5/5 546/5/5
f 551/5/5 547/5/5 550/5/5
f 552/5/5 549/5/5 548/5/5
f 553/5/5 549/5/5 552/5/5
f 554/2/5 551/2/5 550/2/5
f 555/2/5 551/2/5 554/2/5
f 556/2/5 553/2/5 552/2/5
f 557/2/5 553/2/5 556/2/5
f 562/5/5 559/5/5 558/5/5
f 563/5/5 559/5/5 562/5/5
f 564/5/5 561/5/5 560/5/5
f 565/5/5 561/5/5 564/5/5
f 570/5/5 567/5/5 566/5/5
f 571/5/5 567/5/5 570/5/5
f 572/5/5 569/5/5 568/5/5
f 573/5/5 569/5/5 572/5/5
f 574/5/6 575/5/6 576/5/6
f 576/5/6 575/5/6 577/5/6
f 578/5/6 579/5/6 580/5/6
f 580/5/6 579/5/6 581/5/6
f 582/2/6 583/2/6 586/2/6
f 586/2/6 583/2/6 587/2/6
f 584/5/6 585/5/6 588/5/6
f 588/5/6 585/5/6 589/5/6
f 590/4/6 591/4/6 594/4/6
f 594/4/6 591/4/6 595/4/6
f 592/4/6 593/4/6 596/4/6
f 596/4/6 593/4/6 597/4/6
f 598/4/6 599/4/6 602/4/6
f 602/4/6 599/4/6 603/4/6
f 600/4/6 601/4/6 604/4/6
f 604/4/6 601/4/6 605/4/6
f 606/4/6 607/4/6 609/4/6
f 609/4/6 607/4/6 610/4/6
f 610/4/6 607/4/6 611/4/6
f 611/4/6 607/4/6 612/4/6
f 608/4/6 609/4/6 614/4/6
f 609/4/6 610/4/6 614/4/6
f 614/4/6 610/4/6 615/4/6
f 615/4/6 610/4/6 616/4/6
f 612/4/6 613/4/6 617/4/6
f 611/4/6 612/4/6 617/4/6
f 617/4/6 613/4/6 618/4/6
f 618/4/6 613/4/6 619/4/6
f 615/4/6 616/4/6 620/4/6
f 617/4/6 618/4/6 620/4/6
f 616/4/6 617/4/6 620/4/6
f 620/4/6 618/4/6 621/4/6
f 622/5/6 623/5/6 626/5/6
f 626/5/6 623/5/6 627/5/6
f 624/5/6 625/5/6 628/5/6
f 628/5/6 625/5/6 629/5/6
f 630/5/6 631/5/6 634/5/6
f 634/5/6 631/5/6 635/5/6
f 632/5/6 633/5/6 636/5/6
f 636/5/6 633/5/6 637/5/6
f 638/5/6 639/5/6 641/5/6
f 641/5/6 639/5/6 642/5/6
f 640/5/6 641/5/6 644/5/6
f 642/5/6 643/5/6 644/5/6
f 641/5/6 642/5/6 644/5/6
f 644/5/6 643/5/6 645/5/6
f 645/5/6 643/5/6 646/5/6
f 646/5/6 643/5/6 647/5/6
f 645/5/6 646/5/6 648/5/6
f 648/5/6 646/5/6 649/5/6
