# MagicaVoxel @ Ephtracy

# group
g stu02_stand

# material
mtllib stu02_stand.mtl
usemtl palette

# normals
vn -1 0 0
vn 1 0 0
vn 0 0 1
vn 0 0 -1
vn 0 -1 0
vn 0 1 0

# texcoords
vt 0.00195312 0.5
vt 0.00585938 0.5
vt 0.939453 0.5
vt 0.982422 0.5
vt 0.990234 0.5

# verts
v -6 13 4
v -6 13 2
v -6 15 4
v -6 15 2
v -5 12 8
v -5 12 5
v -5 12 2
v -5 13 7
v -5 13 6
v -5 13 5
v -5 13 4
v -5 13 2
v -5 13 -0
v -5 14 6
v -5 14 5
v -5 14 4
v -5 15 5
v -5 15 4
v -5 15 2
v -5 15 1
v -5 15 -0
v -5 16 8
v -5 16 7
v -5 16 4
v -5 16 1
v -5 18 3
v -5 18 2
v -5 18 -0
v -5 19 5
v -5 19 4
v -5 19 3
v -5 19 -0
v -5 19 -1
v -5 20 6
v -5 20 5
v -5 20 4
v -5 20 2
v -5 22 6
v -5 22 5
v -5 22 -0
v -5 22 -1
v -5 23 5
v -5 23 -0
v -4 6 5
v -4 6 2
v -4 7 5
v -4 7 4
v -4 7 2
v -4 9 2
v -4 9 1
v -4 10 1
v -4 10 -0
v -4 11 5
v -4 11 4
v -4 11 -0
v -4 12 5
v -4 12 2
v -4 13 2
v -4 13 -0
v -4 15 5
v -4 15 4
v -4 15 1
v -4 15 -0
v -4 16 5
v -4 16 4
v -4 16 1
v -4 16 -0
v -4 17 6
v -4 17 4
v -4 17 -0
v -4 18 4
v -4 18 3
v -4 18 2
v -4 18 -0
v -4 18 -1
v -4 19 5
v -4 19 4
v -4 19 3
v -4 19 -0
v -4 19 -1
v -4 20 6
v -4 20 5
v -4 22 6
v -4 22 5
v -4 22 -0
v -4 22 -1
v -4 23 6
v -4 23 5
v -4 23 -0
v -4 23 -1
v -3 16 4
v -3 16 1
v -3 17 4
v -3 17 1
v -3 17 -0
v -3 17 -1
v -3 18 -0
v -3 18 -1
v -1 6 5
v -1 6 2
v -1 7 5
v -1 7 4
v -1 7 2
v -1 9 2
v -1 9 1
v -1 10 4
v -1 10 1
v 1 13 6
v 1 13 5
v 1 14 6
v 1 14 5
v -4 13 6
v -4 13 5
v -4 14 6
v -4 14 5
v -2 6 5
v -2 6 2
v -2 7 5
v -2 7 4
v -2 7 2
v -2 9 2
v -2 9 1
v -2 10 4
v -2 10 1
v 0 16 4
v 0 16 1
v 0 17 4
v 0 17 1
v 0 17 -0
v 0 17 -1
v 0 18 -0
v 0 18 -1
v 1 6 5
v 1 6 2
v 1 7 5
v 1 7 4
v 1 7 2
v 1 9 2
v 1 9 1
v 1 10 1
v 1 10 -0
v 1 11 5
v 1 11 4
v 1 11 -0
v 1 12 5
v 1 12 4
v 1 12 2
v 1 13 2
v 1 13 -0
v 1 15 5
v 1 15 4
v 1 15 1
v 1 15 -0
v 1 16 5
v 1 16 4
v 1 16 1
v 1 16 -0
v 1 17 6
v 1 17 4
v 1 17 -0
v 1 18 4
v 1 18 3
v 1 18 2
v 1 18 -0
v 1 18 -1
v 1 19 5
v 1 19 4
v 1 19 3
v 1 19 -0
v 1 19 -1
v 1 20 6
v 1 20 5
v 1 22 6
v 1 22 5
v 1 22 -0
v 1 22 -1
v 1 23 6
v 1 23 5
v 1 23 -0
v 1 23 -1
v 2 12 8
v 2 12 4
v 2 12 2
v 2 13 7
v 2 13 6
v 2 13 4
v 2 13 3
v 2 13 2
v 2 13 1
v 2 13 -0
v 2 14 6
v 2 14 5
v 2 14 3
v 2 15 5
v 2 15 4
v 2 15 3
v 2 15 1
v 2 15 -0
v 2 16 8
v 2 16 7
v 2 16 4
v 2 16 1
v 2 18 3
v 2 18 2
v 2 18 -0
v 2 19 5
v 2 19 4
v 2 19 3
v 2 19 -0
v 2 19 -1
v 2 20 6
v 2 20 5
v 2 20 4
v 2 20 2
v 2 22 6
v 2 22 5
v 2 22 -0
v 2 22 -1
v 2 23 5
v 2 23 -0
v 3 13 3
v 3 13 1
v 3 15 3
v 3 15 1
v -5 12 8
v -5 16 8
v -3 14 8
v -3 15 8
v -2 13 8
v -2 14 8
v -1 14 8
v -1 15 8
v 0 13 8
v 0 14 8
v 2 12 8
v 2 16 8
v -5 13 6
v -5 14 6
v -5 20 6
v -5 22 6
v -4 13 6
v -4 14 6
v -4 17 6
v -4 20 6
v -4 21 6
v -4 22 6
v -4 23 6
v -3 19 6
v -3 21 6
v -3 22 6
v -2 19 6
v -2 21 6
v -1 19 6
v -1 21 6
v 0 19 6
v 0 21 6
v 0 22 6
v 1 13 6
v 1 14 6
v 1 17 6
v 1 20 6
v 1 21 6
v 1 22 6
v 1 23 6
v 2 13 6
v 2 14 6
v 2 20 6
v 2 22 6
v -5 14 5
v -5 15 5
v -5 19 5
v -5 20 5
v -5 22 5
v -5 23 5
v -4 6 5
v -4 7 5
v -4 11 5
v -4 12 5
v -4 13 5
v -4 14 5
v -4 15 5
v -4 16 5
v -4 19 5
v -4 20 5
v -4 22 5
v -4 23 5
v -2 6 5
v -2 7 5
v -1 6 5
v -1 7 5
v 1 6 5
v 1 7 5
v 1 11 5
v 1 12 5
v 1 13 5
v 1 14 5
v 1 15 5
v 1 16 5
v 1 19 5
v 1 20 5
v 1 22 5
v 1 23 5
v 2 14 5
v 2 15 5
v 2 19 5
v 2 20 5
v 2 22 5
v 2 23 5
v -6 13 4
v -6 15 4
v -5 13 4
v -5 14 4
v -5 15 4
v -5 16 4
v -4 7 4
v -4 11 4
v -4 15 4
v -4 16 4
v -3 16 4
v -3 17 4
v -2 7 4
v -2 10 4
v -1 7 4
v -1 10 4
v 0 16 4
v 0 17 4
v 1 7 4
v 1 11 4
v 1 15 4
v 1 16 4
v 2 15 4
v 2 16 4
v -5 18 3
v -5 19 3
v -4 18 3
v -4 19 3
v 1 18 3
v 1 19 3
v 2 13 3
v 2 14 3
v 2 15 3
v 2 18 3
v 2 19 3
v 3 13 3
v 3 15 3
v -5 13 7
v -5 16 7
v -3 14 7
v -3 15 7
v -2 13 7
v -2 14 7
v -1 14 7
v -1 15 7
v 0 13 7
v 0 14 7
v 2 13 7
v 2 16 7
v -6 13 2
v -6 15 2
v -5 12 2
v -5 13 2
v -5 15 2
v -4 6 2
v -4 7 2
v -4 9 2
v -4 12 2
v -4 13 2
v -2 6 2
v -2 7 2
v -2 9 2
v -1 6 2
v -1 7 2
v -1 9 2
v 1 6 2
v 1 7 2
v 1 9 2
v 1 12 2
v 1 13 2
v 2 12 2
v 2 13 2
v -5 15 1
v -5 16 1
v -4 9 1
v -4 10 1
v -4 15 1
v -4 16 1
v -3 16 1
v -3 17 1
v -2 9 1
v -2 10 1
v -1 9 1
v -1 10 1
v 0 16 1
v 0 17 1
v 1 9 1
v 1 10 1
v 1 15 1
v 1 16 1
v 2 13 1
v 2 15 1
v 2 16 1
v 3 13 1
v 3 15 1
v -5 13 -0
v -5 15 -0
v -5 18 -0
v -5 19 -0
v -5 22 -0
v -5 23 -0
v -4 10 -0
v -4 11 -0
v -4 13 -0
v -4 15 -0
v -4 16 -0
v -4 17 -0
v -4 18 -0
v -4 19 -0
v -4 22 -0
v -4 23 -0
v -3 12 -0
v -3 13 -0
v -3 14 -0
v -3 15 -0
v -3 17 -0
v -3 18 -0
v -2 13 -0
v -2 14 -0
v -1 13 -0
v -1 14 -0
v 0 12 -0
v 0 13 -0
v 0 14 -0
v 0 15 -0
v 0 17 -0
v 0 18 -0
v 1 10 -0
v 1 11 -0
v 1 13 -0
v 1 15 -0
v 1 16 -0
v 1 17 -0
v 1 18 -0
v 1 19 -0
v 1 22 -0
v 1 23 -0
v 2 13 -0
v 2 15 -0
v 2 18 -0
v 2 19 -0
v 2 22 -0
v 2 23 -0
v -5 19 -1
v -5 22 -1
v -4 18 -1
v -4 19 -1
v -4 22 -1
v -4 23 -1
v -3 17 -1
v -3 18 -1
v 0 17 -1
v 0 18 -1
v 1 18 -1
v 1 19 -1
v 1 22 -1
v 1 23 -1
v 2 19 -1
v 2 22 -1
v -4 6 5
v -2 6 5
v -1 6 5
v 1 6 5
v -4 6 2
v -2 6 2
v -1 6 2
v 1 6 2
v -4 9 2
v -2 9 2
v -1 9 2
v 1 9 2
v -4 9 1
v -2 9 1
v -1 9 1
v 1 9 1
v -2 10 4
v -1 10 4
v -4 10 1
v -2 10 1
v -1 10 1
v 1 10 1
v -4 10 -0
v 1 10 -0
v -4 11 5
v 1 11 5
v -4 11 4
v 1 11 4
v -5 12 8
v 2 12 8
v -5 12 5
v -4 12 5
v 1 12 5
v 1 12 4
v 2 12 4
v -5 12 2
v -4 12 2
v 1 12 2
v 2 12 2
v -6 13 4
v -5 13 4
v 2 13 3
v 3 13 3
v -6 13 2
v -5 13 2
v -4 13 2
v 1 13 2
v 2 13 2
v 2 13 1
v 3 13 1
v -5 13 -0
v -4 13 -0
v 1 13 -0
v 2 13 -0
v -4 17 6
v 1 17 6
v -4 17 4
v -3 17 4
v 0 17 4
v 1 17 4
v -3 17 1
v 0 17 1
v -4 17 -0
v -3 17 -0
v 0 17 -0
v 1 17 -0
v -3 17 -1
v 0 17 -1
v -5 18 3
v -4 18 3
v 1 18 3
v 2 18 3
v -5 18 2
v -4 18 2
v 1 18 2
v 2 18 2
v -5 18 -0
v -4 18 -0
v -3 18 -0
v 0 18 -0
v 1 18 -0
v 2 18 -0
v -4 18 -1
v -3 18 -1
v 0 18 -1
v 1 18 -1
v -5 19 5
v -4 19 5
v 1 19 5
v 2 19 5
v -5 19 4
v -4 19 4
v 1 19 4
v 2 19 4
v -5 19 3
v -4 19 3
v 1 19 3
v 2 19 3
v -5 19 -0
v -4 19 -0
v 1 19 -0
v 2 19 -0
v -5 19 -1
v -4 19 -1
v 1 19 -1
v 2 19 -1
v -5 20 6
v -4 20 6
v 1 20 6
v 2 20 6
v -5 20 5
v -4 20 5
v 1 20 5
v 2 20 5
v -4 7 5
v -2 7 5
v -1 7 5
v 1 7 5
v -4 7 4
v -2 7 4
v -1 7 4
v 1 7 4
v -5 13 7
v -2 13 7
v 0 13 7
v 2 13 7
v -5 13 6
v -4 13 6
v 1 13 6
v 2 13 6
v -4 13 5
v 1 13 5
v -5 14 6
v -4 14 6
v 1 14 6
v 2 14 6
v -5 14 5
v -4 14 5
v 1 14 5
v 2 14 5
v -5 15 5
v -4 15 5
v 1 15 5
v 2 15 5
v -6 15 4
v -5 15 4
v -4 15 4
v 1 15 4
v 2 15 4
v 2 15 3
v 3 15 3
v -6 15 2
v -5 15 2
v -5 15 1
v -4 15 1
v 1 15 1
v 2 15 1
v 3 15 1
v -5 15 -0
v -4 15 -0
v 1 15 -0
v 2 15 -0
v -5 16 8
v 2 16 8
v -5 16 7
v 2 16 7
v -4 16 5
v 1 16 5
v -5 16 4
v -4 16 4
v -3 16 4
v 0 16 4
v 1 16 4
v 2 16 4
v -5 16 1
v -4 16 1
v -3 16 1
v 0 16 1
v 1 16 1
v 2 16 1
v -4 16 -0
v 1 16 -0
v -5 22 6
v -4 22 6
v 1 22 6
v 2 22 6
v -5 22 5
v -4 22 5
v 1 22 5
v 2 22 5
v -5 22 -0
v -4 22 -0
v 1 22 -0
v 2 22 -0
v -5 22 -1
v -4 22 -1
v 1 22 -1
v 2 22 -1
v -4 23 6
v 1 23 6
v -5 23 5
v -4 23 5
v 1 23 5
v 2 23 5
v -5 23 -0
v -4 23 -0
v 1 23 -0
v 2 23 -0
v -4 23 -1
v 1 23 -1

# faces
f 3/4/1 2/4/1 1/4/1
f 4/4/1 2/4/1 3/4/1
f 8/5/1 6/5/1 5/5/1
f 9/5/1 6/5/1 8/5/1
f 10/2/1 7/2/1 6/2/1
f 10/5/1 6/5/1 9/5/1
f 11/2/1 7/2/1 10/2/1
f 12/2/1 7/2/1 11/2/1
f 14/2/1 10/2/1 9/2/1
f 14/2/1 11/2/1 10/2/1
f 15/2/1 11/2/1 14/2/1
f 16/2/1 11/2/1 15/2/1
f 17/4/1 16/4/1 15/4/1
f 18/4/1 16/4/1 17/4/1
f 19/4/1 13/4/1 12/4/1
f 20/4/1 13/4/1 19/4/1
f 21/4/1 13/4/1 20/4/1
f 22/5/1 8/5/1 5/5/1
f 23/5/1 8/5/1 22/5/1
f 24/4/1 20/4/1 19/4/1
f 24/4/1 19/4/1 18/4/1
f 25/4/1 20/4/1 24/4/1
f 31/2/1 27/2/1 26/2/1
f 32/5/1 28/5/1 27/5/1
f 35/5/1 30/5/1 29/5/1
f 36/2/1 31/2/1 30/2/1
f 36/5/1 30/5/1 35/5/1
f 37/5/1 32/5/1 27/5/1
f 37/2/1 31/2/1 36/2/1
f 37/5/1 33/5/1 32/5/1
f 37/2/1 27/2/1 31/2/1
f 38/5/1 36/5/1 35/5/1
f 38/5/1 35/5/1 34/5/1
f 38/5/1 37/5/1 36/5/1
f 39/5/1 37/5/1 38/5/1
f 40/5/1 33/5/1 37/5/1
f 40/5/1 37/5/1 39/5/1
f 41/5/1 33/5/1 40/5/1
f 42/5/1 40/5/1 39/5/1
f 43/5/1 40/5/1 42/5/1
f 46/5/1 45/5/1 44/5/1
f 47/5/1 45/5/1 46/5/1
f 48/5/1 45/5/1 47/5/1
f 49/1/1 48/1/1 47/1/1
f 51/1/1 50/1/1 49/1/1
f 54/1/1 49/1/1 47/1/1
f 54/1/1 52/1/1 51/1/1
f 54/1/1 51/1/1 49/1/1
f 55/1/1 52/1/1 54/1/1
f 56/4/1 54/4/1 53/4/1
f 56/4/1 55/4/1 54/4/1
f 57/4/1 55/4/1 56/4/1
f 58/4/1 55/4/1 57/4/1
f 59/4/1 55/4/1 58/4/1
f 64/4/1 61/4/1 60/4/1
f 65/4/1 61/4/1 64/4/1
f 66/4/1 63/4/1 62/4/1
f 67/4/1 63/4/1 66/4/1
f 71/2/1 69/2/1 68/2/1
f 71/5/1 70/5/1 69/5/1
f 72/5/1 70/5/1 71/5/1
f 73/5/1 70/5/1 72/5/1
f 74/5/1 70/5/1 73/5/1
f 76/2/1 71/2/1 68/2/1
f 76/2/1 72/2/1 71/2/1
f 77/2/1 72/2/1 76/2/1
f 78/2/1 72/2/1 77/2/1
f 79/5/1 75/5/1 74/5/1
f 80/5/1 75/5/1 79/5/1
f 81/2/1 76/2/1 68/2/1
f 82/2/1 76/2/1 81/2/1
f 87/5/1 84/5/1 83/5/1
f 88/5/1 84/5/1 87/5/1
f 89/5/1 86/5/1 85/5/1
f 90/5/1 86/5/1 89/5/1
f 93/2/1 92/2/1 91/2/1
f 94/2/1 92/2/1 93/2/1
f 97/5/1 96/5/1 95/5/1
f 98/5/1 96/5/1 97/5/1
f 101/5/1 100/5/1 99/5/1
f 102/5/1 100/5/1 101/5/1
f 103/5/1 100/5/1 102/5/1
f 104/1/1 103/1/1 102/1/1
f 106/1/1 104/1/1 102/1/1
f 106/1/1 105/1/1 104/1/1
f 107/1/1 105/1/1 106/1/1
f 110/2/1 109/2/1 108/2/1
f 111/2/1 109/2/1 110/2/1
f 112/2/2 113/2/2 114/2/2
f 114/2/2 113/2/2 115/2/2
f 116/5/2 117/5/2 118/5/2
f 118/5/2 117/5/2 119/5/2
f 119/5/2 117/5/2 120/5/2
f 119/1/2 120/1/2 121/1/2
f 119/1/2 121/1/2 123/1/2
f 121/1/2 122/1/2 123/1/2
f 123/1/2 122/1/2 124/1/2
f 125/2/2 126/2/2 127/2/2
f 127/2/2 126/2/2 128/2/2
f 129/5/2 130/5/2 131/5/2
f 131/5/2 130/5/2 132/5/2
f 133/5/2 134/5/2 135/5/2
f 135/5/2 134/5/2 136/5/2
f 136/5/2 134/5/2 137/5/2
f 136/1/2 137/1/2 138/1/2
f 138/1/2 139/1/2 140/1/2
f 136/1/2 138/1/2 143/1/2
f 140/1/2 141/1/2 143/1/2
f 138/1/2 140/1/2 143/1/2
f 143/1/2 141/1/2 144/1/2
f 142/4/2 143/4/2 145/4/2
f 143/4/2 144/4/2 145/4/2
f 145/4/2 144/4/2 146/4/2
f 146/4/2 144/4/2 147/4/2
f 147/4/2 144/4/2 148/4/2
f 148/4/2 144/4/2 149/4/2
f 150/4/2 151/4/2 154/4/2
f 154/4/2 151/4/2 155/4/2
f 152/4/2 153/4/2 156/4/2
f 156/4/2 153/4/2 157/4/2
f 158/2/2 159/2/2 161/2/2
f 159/5/2 160/5/2 161/5/2
f 161/5/2 160/5/2 162/5/2
f 162/5/2 160/5/2 163/5/2
f 163/5/2 160/5/2 164/5/2
f 158/2/2 161/2/2 166/2/2
f 161/2/2 162/2/2 166/2/2
f 166/2/2 162/2/2 167/2/2
f 167/2/2 162/2/2 168/2/2
f 164/5/2 165/5/2 169/5/2
f 169/5/2 165/5/2 170/5/2
f 158/2/2 166/2/2 171/2/2
f 171/2/2 166/2/2 172/2/2
f 173/5/2 174/5/2 177/5/2
f 177/5/2 174/5/2 178/5/2
f 175/5/2 176/5/2 179/5/2
f 179/5/2 176/5/2 180/5/2
f 181/5/2 182/5/2 184/5/2
f 184/5/2 182/5/2 185/5/2
f 182/2/2 183/2/2 186/2/2
f 185/5/2 182/5/2 186/5/2
f 186/2/2 183/2/2 187/2/2
f 187/2/2 183/2/2 188/2/2
f 185/2/2 186/2/2 191/2/2
f 186/2/2 187/2/2 191/2/2
f 191/2/2 187/2/2 192/2/2
f 192/2/2 187/2/2 193/2/2
f 192/4/2 193/4/2 194/4/2
f 194/4/2 193/4/2 195/4/2
f 195/4/2 193/4/2 196/4/2
f 189/4/2 190/4/2 197/4/2
f 197/4/2 190/4/2 198/4/2
f 181/5/2 184/5/2 199/5/2
f 199/5/2 184/5/2 200/5/2
f 195/4/2 196/4/2 201/4/2
f 196/4/2 197/4/2 201/4/2
f 201/4/2 197/4/2 202/4/2
f 203/2/2 204/2/2 208/2/2
f 204/5/2 205/5/2 209/5/2
f 206/5/2 207/5/2 212/5/2
f 207/2/2 208/2/2 213/2/2
f 212/5/2 207/5/2 213/5/2
f 209/5/2 210/5/2 214/5/2
f 213/2/2 208/2/2 214/2/2
f 204/5/2 209/5/2 214/5/2
f 208/2/2 204/2/2 214/2/2
f 212/5/2 213/5/2 215/5/2
f 211/5/2 212/5/2 215/5/2
f 213/5/2 214/5/2 215/5/2
f 215/5/2 214/5/2 216/5/2
f 214/5/2 210/5/2 217/5/2
f 216/5/2 214/5/2 217/5/2
f 217/5/2 210/5/2 218/5/2
f 216/5/2 217/5/2 219/5/2
f 219/5/2 217/5/2 220/5/2
f 221/4/2 222/4/2 223/4/2
f 223/4/2 222/4/2 224/4/2
f 227/5/3 226/5/3 225/5/3
f 228/5/3 226/5/3 227/5/3
f 229/5/3 227/5/3 225/5/3
f 230/1/3 228/1/3 227/1/3
f 230/5/3 227/5/3 229/5/3
f 231/1/3 230/1/3 229/1/3
f 231/1/3 228/1/3 230/1/3
f 232/5/3 226/5/3 228/5/3
f 232/1/3 228/1/3 231/1/3
f 233/1/3 231/1/3 229/1/3
f 233/5/3 229/5/3 225/5/3
f 234/5/3 232/5/3 231/5/3
f 234/1/3 231/1/3 233/1/3
f 235/5/3 233/5/3 225/5/3
f 235/5/3 234/5/3 233/5/3
f 236/5/3 226/5/3 232/5/3
f 236/5/3 234/5/3 235/5/3
f 236/5/3 232/5/3 234/5/3
f 241/2/3 238/2/3 237/2/3
f 242/2/3 238/2/3 241/2/3
f 244/5/3 240/5/3 239/5/3
f 245/5/3 240/5/3 244/5/3
f 246/5/3 240/5/3 245/5/3
f 248/2/3 244/2/3 243/2/3
f 248/2/3 245/2/3 244/2/3
f 249/5/3 247/5/3 246/5/3
f 249/2/3 245/2/3 248/2/3
f 249/5/3 246/5/3 245/5/3
f 250/5/3 247/5/3 249/5/3
f 251/2/3 248/2/3 243/2/3
f 251/5/3 249/5/3 248/5/3
f 252/2/3 250/2/3 249/2/3
f 252/5/3 249/5/3 251/5/3
f 253/2/3 251/2/3 243/2/3
f 253/2/3 252/2/3 251/2/3
f 254/2/3 250/2/3 252/2/3
f 254/2/3 252/2/3 253/2/3
f 255/2/3 253/2/3 243/2/3
f 255/5/3 254/5/3 253/5/3
f 256/2/3 250/2/3 254/2/3
f 256/5/3 254/5/3 255/5/3
f 257/5/3 247/5/3 250/5/3
f 257/2/3 250/2/3 256/2/3
f 260/2/3 256/2/3 255/2/3
f 260/2/3 255/2/3 243/2/3
f 261/2/3 256/2/3 260/2/3
f 262/5/3 257/5/3 256/5/3
f 262/2/3 256/2/3 261/2/3
f 263/5/3 247/5/3 257/5/3
f 263/5/3 257/5/3 262/5/3
f 264/5/3 247/5/3 263/5/3
f 265/2/3 259/2/3 258/2/3
f 266/2/3 259/2/3 265/2/3
f 267/5/3 262/5/3 261/5/3
f 267/5/3 263/5/3 262/5/3
f 268/5/3 263/5/3 267/5/3
f 280/4/3 270/4/3 269/4/3
f 281/4/3 270/4/3 280/4/3
f 283/5/3 272/5/3 271/5/3
f 284/5/3 272/5/3 283/5/3
f 285/5/3 274/5/3 273/5/3
f 286/5/3 274/5/3 285/5/3
f 287/5/3 276/5/3 275/5/3
f 288/5/3 276/5/3 287/5/3
f 291/5/3 290/5/3 289/5/3
f 292/5/3 290/5/3 291/5/3
f 293/4/3 278/4/3 277/4/3
f 294/4/3 278/4/3 293/4/3
f 295/4/3 282/4/3 281/4/3
f 295/4/3 280/4/3 279/4/3
f 295/4/3 281/4/3 280/4/3
f 296/4/3 282/4/3 295/4/3
f 297/4/3 282/4/3 296/4/3
f 298/4/3 282/4/3 297/4/3
f 303/4/3 297/4/3 296/4/3
f 304/4/3 297/4/3 303/4/3
f 305/5/3 300/5/3 299/5/3
f 306/5/3 300/5/3 305/5/3
f 307/5/3 302/5/3 301/5/3
f 308/5/3 302/5/3 307/5/3
f 311/4/3 310/4/3 309/4/3
f 312/4/3 310/4/3 311/4/3
f 313/4/3 310/4/3 312/4/3
f 317/4/3 314/4/3 313/4/3
f 318/4/3 314/4/3 317/4/3
f 321/1/3 316/1/3 315/1/3
f 322/1/3 316/1/3 321/1/3
f 324/1/3 316/1/3 322/1/3
f 325/2/3 320/2/3 319/2/3
f 326/2/3 320/2/3 325/2/3
f 327/1/3 324/1/3 323/1/3
f 328/1/3 316/1/3 324/1/3
f 328/1/3 324/1/3 327/1/3
f 331/4/3 330/4/3 329/4/3
f 332/4/3 330/4/3 331/4/3
f 335/2/3 334/2/3 333/2/3
f 336/2/3 334/2/3 335/2/3
f 342/2/3 338/2/3 337/2/3
f 343/2/3 338/2/3 342/2/3
f 344/4/3 341/4/3 340/4/3
f 344/4/3 340/4/3 339/4/3
f 345/4/3 341/4/3 344/4/3
f 346/5/4 347/5/4 348/5/4
f 348/5/4 347/5/4 349/5/4
f 346/5/4 348/5/4 350/5/4
f 348/1/4 349/1/4 351/1/4
f 350/5/4 348/5/4 351/5/4
f 350/1/4 351/1/4 352/1/4
f 351/1/4 349/1/4 352/1/4
f 349/5/4 347/5/4 353/5/4
f 352/1/4 349/1/4 353/1/4
f 350/1/4 352/1/4 354/1/4
f 352/5/4 353/5/4 355/5/4
f 354/1/4 352/1/4 355/1/4
f 354/5/4 355/5/4 356/5/4
f 353/5/4 347/5/4 357/5/4
f 356/5/4 355/5/4 357/5/4
f 355/5/4 353/5/4 357/5/4
f 358/4/4 359/4/4 361/4/4
f 361/4/4 359/4/4 362/4/4
f 360/2/4 361/2/4 366/2/4
f 366/2/4 361/2/4 367/2/4
f 363/5/4 364/5/4 368/5/4
f 364/1/4 365/1/4 369/1/4
f 368/5/4 364/5/4 369/5/4
f 369/1/4 365/1/4 370/1/4
f 371/5/4 372/5/4 374/5/4
f 372/1/4 373/1/4 375/1/4
f 374/5/4 372/5/4 375/5/4
f 375/1/4 373/1/4 376/1/4
f 377/2/4 378/2/4 379/2/4
f 379/2/4 378/2/4 380/2/4
f 381/4/4 382/4/4 385/4/4
f 385/4/4 382/4/4 386/4/4
f 383/1/4 384/1/4 389/1/4
f 389/1/4 384/1/4 390/1/4
f 387/2/4 388/2/4 393/2/4
f 393/2/4 388/2/4 394/2/4
f 391/1/4 392/1/4 395/1/4
f 395/1/4 392/1/4 396/1/4
f 397/4/4 398/4/4 400/4/4
f 400/4/4 398/4/4 401/4/4
f 399/4/4 400/4/4 402/4/4
f 402/4/4 400/4/4 403/4/4
f 404/4/4 405/4/4 412/4/4
f 412/4/4 405/4/4 413/4/4
f 406/5/4 407/5/4 416/5/4
f 416/5/4 407/5/4 417/5/4
f 408/5/4 409/5/4 418/5/4
f 418/5/4 409/5/4 419/5/4
f 413/4/4 414/4/4 420/4/4
f 411/4/4 412/4/4 420/4/4
f 412/4/4 413/4/4 420/4/4
f 420/4/4 414/4/4 421/4/4
f 421/4/4 414/4/4 422/4/4
f 422/4/4 414/4/4 423/4/4
f 415/5/4 416/5/4 424/5/4
f 424/5/4 416/5/4 425/5/4
f 420/1/4 421/1/4 426/1/4
f 421/4/4 422/4/4 426/4/4
f 422/1/4 423/1/4 427/1/4
f 426/4/4 422/4/4 427/4/4
f 420/1/4 426/1/4 428/1/4
f 426/1/4 427/1/4 428/1/4
f 427/1/4 423/1/4 429/1/4
f 428/1/4 427/1/4 429/1/4
f 411/4/4 420/4/4 430/4/4
f 420/1/4 428/1/4 430/1/4
f 428/4/4 429/4/4 431/4/4
f 430/1/4 428/1/4 431/1/4
f 429/1/4 423/1/4 432/1/4
f 431/4/4 429/4/4 432/4/4
f 423/4/4 414/4/4 433/4/4
f 432/1/4 423/1/4 433/1/4
f 410/1/4 411/1/4 436/1/4
f 431/4/4 432/4/4 437/4/4
f 436/1/4 411/1/4 437/1/4
f 430/4/4 431/4/4 437/4/4
f 411/4/4 430/4/4 437/4/4
f 432/4/4 433/4/4 437/4/4
f 437/4/4 433/4/4 438/4/4
f 433/4/4 414/4/4 439/4/4
f 438/4/4 433/4/4 439/4/4
f 439/4/4 414/4/4 440/4/4
f 434/5/4 435/5/4 441/5/4
f 441/5/4 435/5/4 442/5/4
f 438/4/4 439/4/4 446/4/4
f 446/4/4 439/4/4 447/4/4
f 442/5/4 443/5/4 448/5/4
f 448/5/4 443/5/4 449/5/4
f 444/5/4 445/5/4 450/5/4
f 450/5/4 445/5/4 451/5/4
f 452/5/4 453/5/4 455/5/4
f 455/5/4 453/5/4 456/5/4
f 454/5/4 455/5/4 459/5/4
f 456/5/4 457/5/4 459/5/4
f 455/5/4 456/5/4 459/5/4
f 458/5/4 459/5/4 460/5/4
f 459/5/4 457/5/4 461/5/4
f 460/5/4 459/5/4 461/5/4
f 461/5/4 457/5/4 462/5/4
f 462/5/4 457/5/4 463/5/4
f 463/5/4 457/5/4 464/5/4
f 464/5/4 457/5/4 465/5/4
f 463/5/4 464/5/4 466/5/4
f 466/5/4 464/5/4 467/5/4
f 472/5/5 469/5/5 468/5/5
f 473/5/5 469/5/5 472/5/5
f 474/5/5 471/5/5 470/5/5
f 475/5/5 471/5/5 474/5/5
f 480/1/5 477/1/5 476/1/5
f 481/1/5 477/1/5 480/1/5
f 482/1/5 479/1/5 478/1/5
f 483/1/5 479/1/5 482/1/5
f 487/1/5 485/1/5 484/1/5
f 488/1/5 485/1/5 487/1/5
f 490/1/5 487/1/5 486/1/5
f 490/1/5 489/1/5 488/1/5
f 490/1/5 488/1/5 487/1/5
f 491/1/5 489/1/5 490/1/5
f 494/4/5 493/4/5 492/4/5
f 495/4/5 493/4/5 494/4/5
f 498/5/5 497/5/5 496/5/5
f 499/5/5 497/5/5 498/5/5
f 500/5/5 497/5/5 499/5/5
f 501/5/5 497/5/5 500/5/5
f 502/5/5 497/5/5 501/5/5
f 503/2/5 499/2/5 498/2/5
f 504/2/5 499/2/5 503/2/5
f 505/2/5 502/2/5 501/2/5
f 506/2/5 502/2/5 505/2/5
f 511/4/5 508/4/5 507/4/5
f 512/4/5 508/4/5 511/4/5
f 515/4/5 510/4/5 509/4/5
f 516/4/5 515/4/5 514/4/5
f 516/4/5 510/4/5 515/4/5
f 517/4/5 510/4/5 516/4/5
f 518/4/5 513/4/5 512/4/5
f 519/4/5 513/4/5 518/4/5
f 520/4/5 516/4/5 514/4/5
f 521/4/5 516/4/5 520/4/5
f 524/2/5 523/2/5 522/2/5
f 525/2/5 523/2/5 524/2/5
f 526/2/5 523/2/5 525/2/5
f 527/2/5 523/2/5 526/2/5
f 528/5/5 525/5/5 524/5/5
f 529/5/5 527/5/5 526/5/5
f 530/5/5 528/5/5 524/5/5
f 530/5/5 529/5/5 528/5/5
f 531/5/5 529/5/5 530/5/5
f 532/5/5 527/5/5 529/5/5
f 532/5/5 529/5/5 531/5/5
f 533/5/5 527/5/5 532/5/5
f 534/5/5 532/5/5 531/5/5
f 535/5/5 532/5/5 534/5/5
f 540/2/5 537/2/5 536/2/5
f 541/2/5 537/2/5 540/2/5
f 542/2/5 539/2/5 538/2/5
f 543/2/5 539/2/5 542/2/5
f 544/5/5 541/5/5 540/5/5
f 545/5/5 541/5/5 544/5/5
f 548/5/5 543/5/5 542/5/5
f 549/5/5 543/5/5 548/5/5
f 550/5/5 546/5/5 545/5/5
f 551/5/5 546/5/5 550/5/5
f 552/5/5 548/5/5 547/5/5
f 553/5/5 548/5/5 552/5/5
f 558/5/5 555/5/5 554/5/5
f 559/5/5 555/5/5 558/5/5
f 560/5/5 557/5/5 556/5/5
f 561/5/5 557/5/5 560/5/5
f 562/2/5 559/2/5 558/2/5
f 563/2/5 559/2/5 562/2/5
f 564/2/5 561/2/5 560/2/5
f 565/2/5 561/2/5 564/2/5
f 570/5/5 567/5/5 566/5/5
f 571/5/5 567/5/5 570/5/5
f 572/5/5 569/5/5 568/5/5
f 573/5/5 569/5/5 572/5/5
f 578/5/5 575/5/5 574/5/5
f 579/5/5 575/5/5 578/5/5
f 580/5/5 577/5/5 576/5/5
f 581/5/5 577/5/5 580/5/5
f 582/5/6 583/5/6 586/5/6
f 586/5/6 583/5/6 587/5/6
f 584/5/6 585/5/6 588/5/6
f 588/5/6 585/5/6 589/5/6
f 590/5/6 591/5/6 594/5/6
f 592/5/6 593/5/6 594/5/6
f 591/5/6 592/5/6 594/5/6
f 594/5/6 593/5/6 595/5/6
f 595/5/6 593/5/6 596/5/6
f 596/5/6 593/5/6 597/5/6
f 595/5/6 596/5/6 598/5/6
f 598/5/6 596/5/6 599/5/6
f 600/2/6 601/2/6 604/2/6
f 604/2/6 601/2/6 605/2/6
f 602/2/6 603/2/6 606/2/6
f 606/2/6 603/2/6 607/2/6
f 608/4/6 609/4/6 613/4/6
f 613/4/6 609/4/6 614/4/6
f 610/4/6 611/4/6 615/4/6
f 615/4/6 611/4/6 616/4/6
f 612/4/6 613/4/6 619/4/6
f 619/4/6 613/4/6 620/4/6
f 617/4/6 618/4/6 624/4/6
f 624/4/6 618/4/6 625/4/6
f 621/4/6 622/4/6 626/4/6
f 626/4/6 622/4/6 627/4/6
f 623/4/6 624/4/6 628/4/6
f 628/4/6 624/4/6 629/4/6
f 630/5/6 631/5/6 632/5/6
f 632/5/6 631/5/6 633/5/6
f 634/4/6 635/4/6 637/4/6
f 637/4/6 635/4/6 638/4/6
f 638/4/6 635/4/6 639/4/6
f 639/4/6 635/4/6 640/4/6
f 636/4/6 637/4/6 642/4/6
f 637/4/6 638/4/6 642/4/6
f 642/4/6 638/4/6 643/4/6
f 643/4/6 638/4/6 644/4/6
f 640/4/6 641/4/6 645/4/6
f 639/4/6 640/4/6 645/4/6
f 645/4/6 641/4/6 646/4/6
f 646/4/6 641/4/6 647/4/6
f 643/4/6 644/4/6 648/4/6
f 645/4/6 646/4/6 648/4/6
f 644/4/6 645/4/6 648/4/6
f 648/4/6 646/4/6 649/4/6
f 650/5/6 651/5/6 654/5/6
f 654/5/6 651/5/6 655/5/6
f 652/5/6 653/5/6 656/5/6
f 656/5/6 653/5/6 657/5/6
f 658/5/6 659/5/6 662/5/6
f 662/5/6 659/5/6 663/5/6
f 660/5/6 661/5/6 664/5/6
f 664/5/6 661/5/6 665/5/6
f 666/5/6 667/5/6 669/5/6
f 669/5/6 667/5/6 670/5/6
f 668/5/6 669/5/6 672/5/6
f 670/5/6 671/5/6 672/5/6
f 669/5/6 670/5/6 672/5/6
f 672/5/6 671/5/6 673/5/6
f 673/5/6 671/5/6 674/5/6
f 674/5/6 671/5/6 675/5/6
f 673/5/6 674/5/6 676/5/6
f 676/5/6 674/5/6 677/5/6
