# MagicaVoxel @ Ephtracy

# group
g stu01_stand

# material
mtllib stu01_stand.mtl
usemtl palette

# normals
vn -1 0 0
vn 1 0 0
vn 0 0 1
vn 0 0 -1
vn 0 -1 0
vn 0 1 0

# texcoords
vt 0.00195312 0.5
vt 0.00585938 0.5
vt 0.939453 0.5
vt 0.990234 0.5

# verts
v -6 18 4
v -6 18 1
v -6 21 4
v -6 21 1
v -5 11 4
v -5 11 2
v -5 13 5
v -5 13 4
v -5 13 2
v -5 13 -0
v -5 14 4
v -5 14 2
v -5 15 5
v -5 15 4
v -5 15 1
v -5 15 -0
v -5 16 4
v -5 16 1
v -5 18 5
v -5 18 4
v -5 18 1
v -5 18 -0
v -5 19 6
v -5 19 5
v -5 19 -0
v -5 19 -1
v -5 21 6
v -5 21 4
v -5 21 3
v -5 21 2
v -5 21 1
v -5 21 -1
v -5 22 3
v -5 22 2
v -4 5 5
v -4 5 2
v -4 6 5
v -4 6 3
v -4 6 2
v -4 6 1
v -4 10 1
v -4 10 -0
v -4 10 -2
v -4 11 5
v -4 11 4
v -4 11 3
v -4 11 2
v -4 11 -0
v -4 13 5
v -4 13 4
v -4 13 2
v -4 13 -0
v -4 15 5
v -4 15 4
v -4 15 1
v -4 15 -0
v -4 15 -1
v -4 15 -2
v -4 16 5
v -4 16 4
v -4 16 1
v -4 16 -1
v -4 17 6
v -4 17 4
v -4 17 -1
v -4 18 5
v -4 18 4
v -4 18 -0
v -4 19 6
v -4 19 5
v -4 19 -0
v -4 19 -1
v -4 21 6
v -4 21 3
v -4 21 2
v -4 21 -1
v -4 22 3
v -4 22 2
v -4 23 6
v -4 23 3
v -4 23 2
v -4 23 -1
v -3 16 4
v -3 16 1
v -3 17 4
v -3 17 1
v -1 5 5
v -1 5 2
v -1 6 5
v -1 6 2
v -1 6 1
v -1 10 5
v -1 10 1
v -2 5 5
v -2 5 2
v -2 6 5
v -2 6 2
v -2 6 1
v -2 10 5
v -2 10 1
v 0 16 4
v 0 16 1
v 0 17 4
v 0 17 1
v 1 5 5
v 1 5 2
v 1 6 5
v 1 6 3
v 1 6 2
v 1 6 1
v 1 10 1
v 1 10 -0
v 1 10 -2
v 1 11 5
v 1 11 4
v 1 11 3
v 1 11 2
v 1 11 -0
v 1 13 5
v 1 13 4
v 1 13 2
v 1 13 -0
v 1 15 5
v 1 15 4
v 1 15 1
v 1 15 -0
v 1 15 -1
v 1 15 -2
v 1 16 5
v 1 16 4
v 1 16 1
v 1 16 -1
v 1 17 6
v 1 17 4
v 1 17 -1
v 1 18 5
v 1 18 4
v 1 18 -0
v 1 19 6
v 1 19 5
v 1 19 -0
v 1 19 -1
v 1 21 6
v 1 21 3
v 1 21 2
v 1 21 -1
v 1 22 3
v 1 22 2
v 1 23 6
v 1 23 3
v 1 23 2
v 1 23 -1
v 2 11 4
v 2 11 2
v 2 13 5
v 2 13 4
v 2 13 2
v 2 13 -0
v 2 14 4
v 2 14 2
v 2 15 5
v 2 15 4
v 2 15 1
v 2 15 -0
v 2 16 4
v 2 16 1
v 2 18 5
v 2 18 4
v 2 18 1
v 2 18 -0
v 2 19 6
v 2 19 5
v 2 19 -0
v 2 19 -1
v 2 21 6
v 2 21 4
v 2 21 3
v 2 21 2
v 2 21 1
v 2 21 -1
v 2 22 3
v 2 22 2
v 3 18 4
v 3 18 1
v 3 21 4
v 3 21 1
v -5 19 6
v -5 21 6
v -4 17 6
v -4 19 6
v -4 21 6
v -4 23 6
v -3 19 6
v -3 21 6
v -3 22 6
v -2 19 6
v -2 21 6
v -1 19 6
v -1 21 6
v 0 19 6
v 0 21 6
v 0 22 6
v 1 17 6
v 1 19 6
v 1 21 6
v 1 23 6
v 2 19 6
v 2 21 6
v -5 13 5
v -5 15 5
v -5 18 5
v -5 19 5
v -4 5 5
v -4 6 5
v -4 11 5
v -4 13 5
v -4 15 5
v -4 16 5
v -4 18 5
v -4 19 5
v -3 15 5
v -3 16 5
v -2 5 5
v -2 6 5
v -2 10 5
v -2 13 5
v -2 16 5
v -1 5 5
v -1 6 5
v -1 10 5
v -1 13 5
v -1 16 5
v 0 15 5
v 0 16 5
v 1 5 5
v 1 6 5
v 1 11 5
v 1 13 5
v 1 15 5
v 1 16 5
v 1 18 5
v 1 19 5
v 2 13 5
v 2 15 5
v 2 18 5
v 2 19 5
v -6 18 4
v -6 21 4
v -5 11 4
v -5 13 4
v -5 15 4
v -5 16 4
v -5 18 4
v -5 21 4
v -4 11 4
v -4 13 4
v -4 15 4
v -4 16 4
v -3 16 4
v -3 17 4
v -2 16 4
v -1 16 4
v 0 16 4
v 0 17 4
v 1 11 4
v 1 13 4
v 1 15 4
v 1 16 4
v 2 11 4
v 2 13 4
v 2 15 4
v 2 16 4
v 2 18 4
v 2 21 4
v 3 18 4
v 3 21 4
v -5 21 3
v -5 22 3
v -4 21 3
v -4 22 3
v 1 21 3
v 1 22 3
v 2 21 3
v 2 22 3
v -5 11 2
v -5 13 2
v -5 21 2
v -5 22 2
v -4 5 2
v -4 6 2
v -4 11 2
v -4 13 2
v -4 21 2
v -4 22 2
v -2 5 2
v -2 6 2
v -1 5 2
v -1 6 2
v 1 5 2
v 1 6 2
v 1 11 2
v 1 13 2
v 1 21 2
v 1 22 2
v 2 11 2
v 2 13 2
v 2 21 2
v 2 22 2
v -6 18 1
v -6 21 1
v -5 15 1
v -5 16 1
v -5 18 1
v -5 21 1
v -4 6 1
v -4 10 1
v -4 15 1
v -4 16 1
v -3 16 1
v -3 17 1
v -2 6 1
v -2 10 1
v -1 6 1
v -1 10 1
v 0 16 1
v 0 17 1
v 1 6 1
v 1 10 1
v 1 15 1
v 1 16 1
v 2 15 1
v 2 16 1
v 2 18 1
v 2 21 1
v 3 18 1
v 3 21 1
v -5 13 -0
v -5 15 -0
v -5 18 -0
v -5 19 -0
v -4 13 -0
v -4 15 -0
v -4 18 -0
v -4 19 -0
v 1 13 -0
v 1 15 -0
v 1 18 -0
v 1 19 -0
v 2 13 -0
v 2 15 -0
v 2 18 -0
v 2 19 -0
v -5 19 -1
v -5 21 -1
v -4 15 -1
v -4 16 -1
v -4 17 -1
v -4 19 -1
v -4 21 -1
v -4 23 -1
v 1 15 -1
v 1 16 -1
v 1 17 -1
v 1 19 -1
v 1 21 -1
v 1 23 -1
v 2 19 -1
v 2 21 -1
v -4 10 -2
v -4 15 -2
v 1 10 -2
v 1 15 -2
v -4 5 5
v -2 5 5
v -1 5 5
v 1 5 5
v -4 5 2
v -2 5 2
v -1 5 2
v 1 5 2
v -4 6 2
v -2 6 2
v -1 6 2
v 1 6 2
v -4 6 1
v -2 6 1
v -1 6 1
v 1 6 1
v -2 10 5
v -1 10 5
v -4 10 1
v -2 10 1
v -1 10 1
v 1 10 1
v -4 10 -0
v 1 10 -0
v -4 10 -2
v 1 10 -2
v -5 11 4
v -4 11 4
v 1 11 4
v 2 11 4
v -4 11 3
v 1 11 3
v -5 11 2
v -4 11 2
v 1 11 2
v 2 11 2
v -5 13 5
v -4 13 5
v 1 13 5
v 2 13 5
v -5 13 4
v -4 13 4
v 1 13 4
v 2 13 4
v -5 13 2
v -4 13 2
v 1 13 2
v 2 13 2
v -5 13 -0
v -4 13 -0
v 1 13 -0
v 2 13 -0
v -4 17 6
v 1 17 6
v -4 17 4
v -3 17 4
v 0 17 4
v 1 17 4
v -3 17 1
v 0 17 1
v -4 17 -1
v 1 17 -1
v -5 18 5
v -4 18 5
v 1 18 5
v 2 18 5
v -6 18 4
v -5 18 4
v -4 18 4
v 1 18 4
v 2 18 4
v 3 18 4
v -6 18 1
v -5 18 1
v 2 18 1
v 3 18 1
v -5 18 -0
v -4 18 -0
v 1 18 -0
v 2 18 -0
v -5 19 6
v -4 19 6
v 1 19 6
v 2 19 6
v -5 19 5
v -4 19 5
v 1 19 5
v 2 19 5
v -5 19 -0
v -4 19 -0
v 1 19 -0
v 2 19 -0
v -5 19 -1
v -4 19 -1
v 1 19 -1
v 2 19 -1
v -5 15 5
v -4 15 5
v 1 15 5
v 2 15 5
v -5 15 4
v -4 15 4
v 1 15 4
v 2 15 4
v -5 15 1
v -4 15 1
v 1 15 1
v 2 15 1
v -5 15 -0
v -4 15 -0
v 1 15 -0
v 2 15 -0
v -4 15 -1
v 1 15 -1
v -4 15 -2
v 1 15 -2
v -4 16 5
v -3 16 5
v -2 16 5
v -1 16 5
v 0 16 5
v 1 16 5
v -5 16 4
v -4 16 4
v -3 16 4
v -2 16 4
v -1 16 4
v 0 16 4
v 1 16 4
v 2 16 4
v -5 16 1
v -4 16 1
v -3 16 1
v 0 16 1
v 1 16 1
v 2 16 1
v -4 16 -1
v 1 16 -1
v -5 21 6
v -4 21 6
v 1 21 6
v 2 21 6
v -6 21 4
v -5 21 4
v 2 21 4
v 3 21 4
v -5 21 3
v -4 21 3
v 1 21 3
v 2 21 3
v -5 21 2
v -4 21 2
v 1 21 2
v 2 21 2
v -6 21 1
v -5 21 1
v 2 21 1
v 3 21 1
v -5 21 -1
v -4 21 -1
v 1 21 -1
v 2 21 -1
v -5 22 3
v -4 22 3
v 1 22 3
v 2 22 3
v -5 22 2
v -4 22 2
v 1 22 2
v 2 22 2
v -4 23 6
v 1 23 6
v -4 23 3
v 1 23 3
v -4 23 2
v 1 23 2
v -4 23 -1
v 1 23 -1

# faces
f 3/1/1 2/1/1 1/1/1
f 4/1/1 2/1/1 3/1/1
f 8/2/1 6/2/1 5/2/1
f 9/2/1 6/2/1 8/2/1
f 11/3/1 8/3/1 7/3/1
f 11/2/1 9/2/1 8/2/1
f 12/3/1 10/3/1 9/3/1
f 12/2/1 9/2/1 11/2/1
f 13/3/1 11/3/1 7/3/1
f 13/3/1 12/3/1 11/3/1
f 14/3/1 12/3/1 13/3/1
f 15/3/1 10/3/1 12/3/1
f 15/3/1 12/3/1 14/3/1
f 16/3/1 10/3/1 15/3/1
f 17/3/1 15/3/1 14/3/1
f 18/3/1 15/3/1 17/3/1
f 24/4/1 20/4/1 19/4/1
f 25/4/1 22/4/1 21/4/1
f 27/4/1 24/4/1 23/4/1
f 28/4/1 20/4/1 24/4/1
f 28/4/1 24/4/1 27/4/1
f 31/4/1 25/4/1 21/4/1
f 31/4/1 26/4/1 25/4/1
f 32/4/1 26/4/1 31/4/1
f 33/1/1 30/1/1 29/1/1
f 34/1/1 30/1/1 33/1/1
f 37/4/1 36/4/1 35/4/1
f 38/4/1 36/4/1 37/4/1
f 39/4/1 36/4/1 38/4/1
f 41/3/1 40/3/1 39/3/1
f 44/3/1 38/3/1 37/3/1
f 45/3/1 38/3/1 44/3/1
f 46/1/1 39/1/1 38/1/1
f 46/3/1 38/3/1 45/3/1
f 47/3/1 41/3/1 39/3/1
f 47/1/1 39/1/1 46/1/1
f 47/3/1 42/3/1 41/3/1
f 48/4/1 43/4/1 42/4/1
f 48/3/1 42/3/1 47/3/1
f 49/1/1 45/1/1 44/1/1
f 50/1/1 45/1/1 49/1/1
f 51/1/1 48/1/1 47/1/1
f 52/4/1 43/4/1 48/4/1
f 52/1/1 48/1/1 51/1/1
f 56/4/1 43/4/1 52/4/1
f 57/4/1 43/4/1 56/4/1
f 58/4/1 43/4/1 57/4/1
f 59/3/1 54/3/1 53/3/1
f 60/3/1 54/3/1 59/3/1
f 61/4/1 56/4/1 55/4/1
f 61/4/1 57/4/1 56/4/1
f 62/4/1 57/4/1 61/4/1
f 66/2/1 64/2/1 63/2/1
f 67/4/1 65/4/1 64/4/1
f 67/2/1 64/2/1 66/2/1
f 68/4/1 65/4/1 67/4/1
f 69/2/1 66/2/1 63/2/1
f 70/2/1 66/2/1 69/2/1
f 71/4/1 65/4/1 68/4/1
f 72/4/1 65/4/1 71/4/1
f 77/4/1 74/4/1 73/4/1
f 78/4/1 76/4/1 75/4/1
f 79/4/1 77/4/1 73/4/1
f 80/1/1 78/1/1 77/1/1
f 80/4/1 77/4/1 79/4/1
f 81/4/1 76/4/1 78/4/1
f 81/1/1 78/1/1 80/1/1
f 82/4/1 76/4/1 81/4/1
f 85/2/1 84/2/1 83/2/1
f 86/2/1 84/2/1 85/2/1
f 89/4/1 88/4/1 87/4/1
f 90/4/1 88/4/1 89/4/1
f 92/3/1 90/3/1 89/3/1
f 92/3/1 91/3/1 90/3/1
f 93/3/1 91/3/1 92/3/1
f 94/4/2 95/4/2 96/4/2
f 96/4/2 95/4/2 97/4/2
f 96/3/2 97/3/2 99/3/2
f 97/3/2 98/3/2 99/3/2
f 99/3/2 98/3/2 100/3/2
f 101/2/2 102/2/2 103/2/2
f 103/2/2 102/2/2 104/2/2
f 105/4/2 106/4/2 107/4/2
f 107/4/2 106/4/2 108/4/2
f 108/4/2 106/4/2 109/4/2
f 109/3/2 110/3/2 111/3/2
f 107/3/2 108/3/2 114/3/2
f 114/3/2 108/3/2 115/3/2
f 108/1/2 109/1/2 116/1/2
f 115/3/2 108/3/2 116/3/2
f 109/3/2 111/3/2 117/3/2
f 116/1/2 109/1/2 117/1/2
f 111/3/2 112/3/2 117/3/2
f 112/4/2 113/4/2 118/4/2
f 117/3/2 112/3/2 118/3/2
f 114/1/2 115/1/2 119/1/2
f 119/1/2 115/1/2 120/1/2
f 117/1/2 118/1/2 121/1/2
f 118/4/2 113/4/2 122/4/2
f 121/1/2 118/1/2 122/1/2
f 122/4/2 113/4/2 126/4/2
f 126/4/2 113/4/2 127/4/2
f 127/4/2 113/4/2 128/4/2
f 123/3/2 124/3/2 129/3/2
f 129/3/2 124/3/2 130/3/2
f 125/4/2 126/4/2 131/4/2
f 126/4/2 127/4/2 131/4/2
f 131/4/2 127/4/2 132/4/2
f 133/2/2 134/2/2 136/2/2
f 134/4/2 135/4/2 137/4/2
f 136/2/2 134/2/2 137/2/2
f 137/4/2 135/4/2 138/4/2
f 133/2/2 136/2/2 139/2/2
f 139/2/2 136/2/2 140/2/2
f 138/4/2 135/4/2 141/4/2
f 141/4/2 135/4/2 142/4/2
f 143/4/2 144/4/2 147/4/2
f 145/4/2 146/4/2 148/4/2
f 143/4/2 147/4/2 149/4/2
f 147/1/2 148/1/2 150/1/2
f 149/4/2 147/4/2 150/4/2
f 148/4/2 146/4/2 151/4/2
f 150/1/2 148/1/2 151/1/2
f 151/4/2 146/4/2 152/4/2
f 153/2/2 154/2/2 156/2/2
f 156/2/2 154/2/2 157/2/2
f 155/3/2 156/3/2 159/3/2
f 156/2/2 157/2/2 159/2/2
f 157/3/2 158/3/2 160/3/2
f 159/2/2 157/2/2 160/2/2
f 155/3/2 159/3/2 161/3/2
f 159/3/2 160/3/2 161/3/2
f 161/3/2 160/3/2 162/3/2
f 160/3/2 158/3/2 163/3/2
f 162/3/2 160/3/2 163/3/2
f 163/3/2 158/3/2 164/3/2
f 162/3/2 163/3/2 165/3/2
f 165/3/2 163/3/2 166/3/2
f 167/4/2 168/4/2 172/4/2
f 169/4/2 170/4/2 173/4/2
f 171/4/2 172/4/2 175/4/2
f 172/4/2 168/4/2 176/4/2
f 175/4/2 172/4/2 176/4/2
f 169/4/2 173/4/2 179/4/2
f 173/4/2 174/4/2 179/4/2
f 179/4/2 174/4/2 180/4/2
f 177/1/2 178/1/2 181/1/2
f 181/1/2 178/1/2 182/1/2
f 183/1/2 184/1/2 185/1/2
f 185/1/2 184/1/2 186/1/2
f 190/4/3 188/4/3 187/4/3
f 191/4/3 188/4/3 190/4/3
f 193/2/3 190/2/3 189/2/3
f 193/2/3 191/2/3 190/2/3
f 194/4/3 192/4/3 191/4/3
f 194/2/3 191/2/3 193/2/3
f 195/4/3 192/4/3 194/4/3
f 196/2/3 193/2/3 189/2/3
f 196/4/3 194/4/3 193/4/3
f 197/2/3 195/2/3 194/2/3
f 197/4/3 194/4/3 196/4/3
f 198/2/3 196/2/3 189/2/3
f 198/2/3 197/2/3 196/2/3
f 199/2/3 195/2/3 197/2/3
f 199/2/3 197/2/3 198/2/3
f 200/2/3 198/2/3 189/2/3
f 200/4/3 199/4/3 198/4/3
f 201/2/3 195/2/3 199/2/3
f 201/4/3 199/4/3 200/4/3
f 202/4/3 192/4/3 195/4/3
f 202/2/3 195/2/3 201/2/3
f 203/2/3 201/2/3 200/2/3
f 203/2/3 200/2/3 189/2/3
f 204/2/3 201/2/3 203/2/3
f 205/4/3 202/4/3 201/4/3
f 205/2/3 201/2/3 204/2/3
f 206/4/3 192/4/3 202/4/3
f 206/4/3 202/4/3 205/4/3
f 207/4/3 205/4/3 204/4/3
f 208/4/3 205/4/3 207/4/3
f 216/3/3 210/3/3 209/3/3
f 217/3/3 210/3/3 216/3/3
f 219/4/3 212/4/3 211/4/3
f 220/4/3 212/4/3 219/4/3
f 221/3/3 218/3/3 217/3/3
f 221/1/3 216/1/3 215/1/3
f 221/1/3 217/1/3 216/1/3
f 222/3/3 218/3/3 221/3/3
f 223/4/3 214/4/3 213/4/3
f 224/3/3 215/3/3 214/3/3
f 224/4/3 214/4/3 223/4/3
f 225/3/3 215/3/3 224/3/3
f 226/1/3 221/1/3 215/1/3
f 226/1/3 222/1/3 221/1/3
f 227/1/3 222/1/3 226/1/3
f 230/3/3 215/3/3 225/3/3
f 231/3/3 227/3/3 226/3/3
f 231/1/3 226/1/3 215/1/3
f 232/3/3 227/3/3 231/3/3
f 233/1/3 232/1/3 231/1/3
f 234/1/3 232/1/3 233/1/3
f 235/4/3 229/4/3 228/4/3
f 236/3/3 230/3/3 229/3/3
f 236/4/3 229/4/3 235/4/3
f 237/3/3 215/3/3 230/3/3
f 237/3/3 230/3/3 236/3/3
f 237/1/3 231/1/3 215/1/3
f 237/1/3 233/1/3 231/1/3
f 238/1/3 233/1/3 237/1/3
f 239/3/3 234/3/3 233/3/3
f 239/1/3 233/1/3 238/1/3
f 240/3/3 234/3/3 239/3/3
f 243/3/3 239/3/3 238/3/3
f 244/3/3 239/3/3 243/3/3
f 245/4/3 242/4/3 241/4/3
f 246/4/3 242/4/3 245/4/3
f 253/1/3 248/1/3 247/1/3
f 254/1/3 248/1/3 253/1/3
f 255/2/3 250/2/3 249/2/3
f 256/2/3 250/2/3 255/2/3
f 257/3/3 252/3/3 251/3/3
f 258/3/3 252/3/3 257/3/3
f 261/2/3 260/2/3 259/2/3
f 262/2/3 260/2/3 261/2/3
f 263/2/3 260/2/3 262/2/3
f 264/2/3 260/2/3 263/2/3
f 269/2/3 266/2/3 265/2/3
f 270/2/3 266/2/3 269/2/3
f 271/3/3 268/3/3 267/3/3
f 272/3/3 268/3/3 271/3/3
f 275/1/3 274/1/3 273/1/3
f 276/1/3 274/1/3 275/1/3
f 279/1/3 278/1/3 277/1/3
f 280/1/3 278/1/3 279/1/3
f 283/1/3 282/1/3 281/1/3
f 284/1/3 282/1/3 283/1/3
f 285/2/4 286/2/4 291/2/4
f 291/2/4 286/2/4 292/2/4
f 287/1/4 288/1/4 293/1/4
f 293/1/4 288/1/4 294/1/4
f 289/4/4 290/4/4 295/4/4
f 295/4/4 290/4/4 296/4/4
f 297/4/4 298/4/4 299/4/4
f 299/4/4 298/4/4 300/4/4
f 301/2/4 302/2/4 305/2/4
f 305/2/4 302/2/4 306/2/4
f 303/1/4 304/1/4 307/1/4
f 307/1/4 304/1/4 308/1/4
f 309/1/4 310/1/4 313/1/4
f 313/1/4 310/1/4 314/1/4
f 311/3/4 312/3/4 317/3/4
f 317/3/4 312/3/4 318/3/4
f 315/3/4 316/3/4 321/3/4
f 321/3/4 316/3/4 322/3/4
f 319/2/4 320/2/4 325/2/4
f 325/2/4 320/2/4 326/2/4
f 323/3/4 324/3/4 327/3/4
f 327/3/4 324/3/4 328/3/4
f 329/3/4 330/3/4 331/3/4
f 331/3/4 330/3/4 332/3/4
f 333/1/4 334/1/4 335/1/4
f 335/1/4 334/1/4 336/1/4
f 337/3/4 338/3/4 341/3/4
f 341/3/4 338/3/4 342/3/4
f 339/4/4 340/4/4 343/4/4
f 343/4/4 340/4/4 344/4/4
f 345/3/4 346/3/4 349/3/4
f 349/3/4 346/3/4 350/3/4
f 347/4/4 348/4/4 351/4/4
f 351/4/4 348/4/4 352/4/4
f 353/4/4 354/4/4 358/4/4
f 358/4/4 354/4/4 359/4/4
f 355/4/4 356/4/4 361/4/4
f 361/4/4 356/4/4 362/4/4
f 359/4/4 360/4/4 363/4/4
f 357/4/4 358/4/4 363/4/4
f 358/4/4 359/4/4 363/4/4
f 363/4/4 360/4/4 364/4/4
f 364/4/4 360/4/4 365/4/4
f 365/4/4 360/4/4 366/4/4
f 364/4/4 365/4/4 367/4/4
f 367/4/4 365/4/4 368/4/4
f 369/4/4 370/4/4 371/4/4
f 371/4/4 370/4/4 372/4/4
f 377/4/5 374/4/5 373/4/5
f 378/4/5 374/4/5 377/4/5
f 379/4/5 376/4/5 375/4/5
f 380/4/5 376/4/5 379/4/5
f 385/3/5 382/3/5 381/3/5
f 386/3/5 382/3/5 385/3/5
f 387/3/5 384/3/5 383/3/5
f 388/3/5 384/3/5 387/3/5
f 392/3/5 390/3/5 389/3/5
f 393/3/5 390/3/5 392/3/5
f 395/3/5 392/3/5 391/3/5
f 395/3/5 394/3/5 393/3/5
f 395/3/5 393/3/5 392/3/5
f 396/3/5 394/3/5 395/3/5
f 397/4/5 396/4/5 395/4/5
f 398/4/5 396/4/5 397/4/5
f 403/2/5 400/2/5 399/2/5
f 404/2/5 402/2/5 401/2/5
f 405/2/5 403/2/5 399/2/5
f 406/2/5 403/2/5 405/2/5
f 407/2/5 402/2/5 404/2/5
f 408/2/5 402/2/5 407/2/5
f 413/3/5 410/3/5 409/3/5
f 414/3/5 410/3/5 413/3/5
f 415/3/5 412/3/5 411/3/5
f 416/3/5 412/3/5 415/3/5
f 421/3/5 418/3/5 417/3/5
f 422/3/5 418/3/5 421/3/5
f 423/3/5 420/3/5 419/3/5
f 424/3/5 420/3/5 423/3/5
f 427/2/5 426/2/5 425/2/5
f 428/2/5 426/2/5 427/2/5
f 429/2/5 426/2/5 428/2/5
f 430/2/5 426/2/5 429/2/5
f 431/4/5 428/4/5 427/4/5
f 432/4/5 430/4/5 429/4/5
f 433/4/5 431/4/5 427/4/5
f 433/4/5 432/4/5 431/4/5
f 434/4/5 430/4/5 432/4/5
f 434/4/5 432/4/5 433/4/5
f 440/4/5 436/4/5 435/4/5
f 441/4/5 436/4/5 440/4/5
f 442/4/5 438/4/5 437/4/5
f 443/4/5 438/4/5 442/4/5
f 445/1/5 440/1/5 439/1/5
f 446/4/5 441/4/5 440/4/5
f 446/1/5 440/1/5 445/1/5
f 447/1/5 444/1/5 443/1/5
f 447/4/5 443/4/5 442/4/5
f 448/1/5 444/1/5 447/1/5
f 449/4/5 441/4/5 446/4/5
f 450/4/5 441/4/5 449/4/5
f 451/4/5 447/4/5 442/4/5
f 452/4/5 447/4/5 451/4/5
f 457/4/5 454/4/5 453/4/5
f 458/4/5 454/4/5 457/4/5
f 459/4/5 456/4/5 455/4/5
f 460/4/5 456/4/5 459/4/5
f 465/4/5 462/4/5 461/4/5
f 466/4/5 462/4/5 465/4/5
f 467/4/5 464/4/5 463/4/5
f 468/4/5 464/4/5 467/4/5
f 469/3/6 470/3/6 473/3/6
f 473/3/6 470/3/6 474/3/6
f 471/3/6 472/3/6 475/3/6
f 475/3/6 472/3/6 476/3/6
f 477/3/6 478/3/6 481/3/6
f 481/3/6 478/3/6 482/3/6
f 479/3/6 480/3/6 483/3/6
f 483/3/6 480/3/6 484/3/6
f 485/4/6 486/4/6 487/4/6
f 487/4/6 486/4/6 488/4/6
f 489/3/6 490/3/6 496/3/6
f 490/1/6 491/1/6 497/1/6
f 496/3/6 490/3/6 497/3/6
f 491/3/6 492/3/6 498/3/6
f 497/1/6 491/1/6 498/1/6
f 492/1/6 493/1/6 499/1/6
f 498/3/6 492/3/6 499/3/6
f 493/3/6 494/3/6 500/3/6
f 499/1/6 493/1/6 500/1/6
f 500/3/6 494/3/6 501/3/6
f 495/3/6 496/3/6 503/3/6
f 496/4/6 497/4/6 504/4/6
f 503/3/6 496/3/6 504/3/6
f 504/4/6 497/4/6 505/4/6
f 500/4/6 501/4/6 506/4/6
f 501/3/6 502/3/6 507/3/6
f 506/4/6 501/4/6 507/4/6
f 507/3/6 502/3/6 508/3/6
f 505/4/6 506/4/6 509/4/6
f 504/4/6 505/4/6 509/4/6
f 506/4/6 507/4/6 509/4/6
f 509/4/6 507/4/6 510/4/6
f 511/4/6 512/4/6 516/4/6
f 513/4/6 514/4/6 517/4/6
f 515/1/6 516/1/6 519/1/6
f 516/4/6 512/4/6 519/4/6
f 519/4/6 512/4/6 520/4/6
f 513/4/6 517/4/6 521/4/6
f 517/1/6 518/1/6 522/1/6
f 521/4/6 517/4/6 522/4/6
f 515/1/6 519/1/6 523/1/6
f 522/1/6 518/1/6 526/1/6
f 515/1/6 523/1/6 527/1/6
f 523/4/6 524/4/6 528/4/6
f 527/1/6 523/1/6 528/1/6
f 525/4/6 526/4/6 529/4/6
f 526/1/6 518/1/6 529/1/6
f 529/1/6 518/1/6 530/1/6
f 528/4/6 524/4/6 531/4/6
f 531/4/6 524/4/6 532/4/6
f 525/4/6 529/4/6 533/4/6
f 533/4/6 529/4/6 534/4/6
f 535/1/6 536/1/6 539/1/6
f 539/1/6 536/1/6 540/1/6
f 537/1/6 538/1/6 541/1/6
f 541/1/6 538/1/6 542/1/6
f 543/4/6 544/4/6 545/4/6
f 545/4/6 544/4/6 546/4/6
f 545/1/6 546/1/6 547/1/6
f 547/1/6 546/1/6 548/1/6
f 547/4/6 548/4/6 549/4/6
f 549/4/6 548/4/6 550/4/6
